<mxfile host="app.diagrams.net" modified="2023-06-27T07:39:00.599Z" agent="Mozilla/5.0 (Windows NT 10.0; Win64; x64) AppleWebKit/537.36 (KHTML, like Gecko) Chrome/114.0.0.0 Safari/537.36" etag="7yA81Ux6pvnZPlhaj4N4" version="21.1.8" type="github">
  <diagram id="C5RBs43oDa-KdzZeNtuy" name="Page-1">
    <mxGraphModel dx="497" dy="777" grid="0" gridSize="10" guides="1" tooltips="1" connect="1" arrows="1" fold="1" page="1" pageScale="1" pageWidth="827" pageHeight="1169" background="#000000" math="0" shadow="0">
      <root>
        <mxCell id="WIyWlLk6GJQsqaUBKTNV-0" />
        <mxCell id="WIyWlLk6GJQsqaUBKTNV-1" parent="WIyWlLk6GJQsqaUBKTNV-0" />
        <mxCell id="WIyWlLk6GJQsqaUBKTNV-2" value="" style="rounded=0;html=1;jettySize=auto;orthogonalLoop=1;fontSize=11;endArrow=block;endFill=0;endSize=8;strokeWidth=2;shadow=0;labelBackgroundColor=none;edgeStyle=orthogonalEdgeStyle;strokeColor=#FFFFFF;" parent="WIyWlLk6GJQsqaUBKTNV-1" target="WIyWlLk6GJQsqaUBKTNV-6" edge="1">
          <mxGeometry relative="1" as="geometry">
            <mxPoint x="179" y="120" as="sourcePoint" />
          </mxGeometry>
        </mxCell>
        <mxCell id="WIyWlLk6GJQsqaUBKTNV-4" value="Yes" style="rounded=0;html=1;jettySize=auto;orthogonalLoop=1;fontSize=11;endArrow=block;endFill=0;endSize=8;strokeWidth=2;shadow=0;labelBackgroundColor=none;edgeStyle=orthogonalEdgeStyle;strokeColor=#FFFFFF;" parent="WIyWlLk6GJQsqaUBKTNV-1" source="WIyWlLk6GJQsqaUBKTNV-6" edge="1">
          <mxGeometry y="20" relative="1" as="geometry">
            <mxPoint as="offset" />
            <mxPoint x="179" y="290" as="targetPoint" />
          </mxGeometry>
        </mxCell>
        <mxCell id="WIyWlLk6GJQsqaUBKTNV-5" value="No" style="edgeStyle=orthogonalEdgeStyle;rounded=0;html=1;jettySize=auto;orthogonalLoop=1;fontSize=11;endArrow=block;endFill=0;endSize=8;strokeWidth=2;shadow=0;labelBackgroundColor=none;strokeColor=#FFFFFF;" parent="WIyWlLk6GJQsqaUBKTNV-1" source="WIyWlLk6GJQsqaUBKTNV-6" target="WIyWlLk6GJQsqaUBKTNV-7" edge="1">
          <mxGeometry y="10" relative="1" as="geometry">
            <mxPoint as="offset" />
          </mxGeometry>
        </mxCell>
        <mxCell id="WIyWlLk6GJQsqaUBKTNV-6" value="is user &lt;br&gt;already exist?" style="rhombus;whiteSpace=wrap;html=1;shadow=0;fontFamily=Helvetica;fontSize=12;align=center;strokeWidth=1;spacing=6;spacingTop=-4;" parent="WIyWlLk6GJQsqaUBKTNV-1" vertex="1">
          <mxGeometry x="129" y="170" width="100" height="80" as="geometry" />
        </mxCell>
        <mxCell id="WIyWlLk6GJQsqaUBKTNV-7" value="Plug in lamp" style="rounded=1;whiteSpace=wrap;html=1;fontSize=12;glass=0;strokeWidth=1;shadow=0;" parent="WIyWlLk6GJQsqaUBKTNV-1" vertex="1">
          <mxGeometry x="320" y="190" width="120" height="40" as="geometry" />
        </mxCell>
        <mxCell id="WIyWlLk6GJQsqaUBKTNV-8" value="No" style="rounded=0;html=1;jettySize=auto;orthogonalLoop=1;fontSize=11;endArrow=block;endFill=0;endSize=8;strokeWidth=2;shadow=0;labelBackgroundColor=none;edgeStyle=orthogonalEdgeStyle;strokeColor=#FFFFFF;" parent="WIyWlLk6GJQsqaUBKTNV-1" target="WIyWlLk6GJQsqaUBKTNV-11" edge="1">
          <mxGeometry x="0.3333" y="20" relative="1" as="geometry">
            <mxPoint as="offset" />
            <mxPoint x="181" y="370" as="sourcePoint" />
          </mxGeometry>
        </mxCell>
        <mxCell id="WIyWlLk6GJQsqaUBKTNV-9" value="Yes" style="edgeStyle=orthogonalEdgeStyle;rounded=0;html=1;jettySize=auto;orthogonalLoop=1;fontSize=11;endArrow=block;endFill=0;endSize=8;strokeWidth=2;shadow=0;labelBackgroundColor=none;strokeColor=#FFFFFF;exitX=1;exitY=0.5;exitDx=0;exitDy=0;" parent="WIyWlLk6GJQsqaUBKTNV-1" source="YcHYLUiHtxIJwsrw_Ox9-11" target="WIyWlLk6GJQsqaUBKTNV-12" edge="1">
          <mxGeometry y="10" relative="1" as="geometry">
            <mxPoint as="offset" />
            <mxPoint x="270" y="330" as="sourcePoint" />
          </mxGeometry>
        </mxCell>
        <mxCell id="WIyWlLk6GJQsqaUBKTNV-11" value="Repair Lamp" style="rounded=1;whiteSpace=wrap;html=1;fontSize=12;glass=0;strokeWidth=1;shadow=0;" parent="WIyWlLk6GJQsqaUBKTNV-1" vertex="1">
          <mxGeometry x="121" y="559" width="120" height="40" as="geometry" />
        </mxCell>
        <mxCell id="WIyWlLk6GJQsqaUBKTNV-12" value="Replace Bulb" style="rounded=1;whiteSpace=wrap;html=1;fontSize=12;glass=0;strokeWidth=1;shadow=0;" parent="WIyWlLk6GJQsqaUBKTNV-1" vertex="1">
          <mxGeometry x="330" y="360.5" width="120" height="40" as="geometry" />
        </mxCell>
        <mxCell id="YcHYLUiHtxIJwsrw_Ox9-0" value="" style="shape=image;verticalLabelPosition=bottom;labelBackgroundColor=default;verticalAlign=top;aspect=fixed;imageAspect=0;image=data:image/png,iVBORw0KGgoAAAANSUhEUgAAAQoAAAI1CAYAAAAuD7QsAAAAAXNSR0IArs4c6QAAAARnQU1BAACxjwv8YQUAAAAJcEhZcwAADsMAAA7DAcdvqGQAACQySURBVHhe7d1rrF3lnd/xZUgwlxCbTsYmUzB2EtNUAWHLeUFwKmwyLyCqZBO1CulUGKQmpNMmxk3CK1LsXKQIojFEVSXCCNsjVQEqFbudJhA1sXmRgKJE2DGRCJD4OgRPxvGFm7me7u/j/T9+vL3P+Z9jn8ve53w/Okt7rbXX/aznt5619tp7zRhomtafJA3trParJA3JoJCUMigkpQwKSamuFzO/+pWvtNskTRdHjx5tHn/88WbP3r3tPid0/9RjwA9CpOlm//79zdKlS7sGhaceklIGhaSUQSEpZVBIShkUklIGhaSUQSEpZVBIShkUklKTEhTbt29vtm3b1u4a2uHDh9ttJ9u9e3e7TdJEmPBbuNesWVOCYv78+eX16aefbr9zso0bNzZPPPFEs2HDhnaf48Gxbt268t6hQ4fafaXew77NAW3lypXtPifjQLljx47Bg96iRYuaa6+9tpSLbn7/+9+X/f/NN99s9xneOeec08yePbv50Ic+1O6TG+4W7gkNCjYOBX3r1q2le/ny5c369evLRtq8eXOzbNmysnJsEN579NFHT9pw9GNY/gkxDakXsa+yv7Ofsl8H9l0OlkPVqG+55ZbmrrvuOmm/pwBzYDzrrLNGXJtm/DfeeKO55JJLmjlz5rT7Dm+4oCAliIWTm3HSqh0MtDZEu2tgoJW2A60NOdDaCAOtABho1S5K/7Vr1w60Nlbp3rVrV+kXWoEycPvtt7e7pN7B/twKhbI/80rxYv8O7M+tA2Fp2L/rfZv3KBuM0yrk7b7H/frXvx747W9/W94bTcM4jDtS+/btG5g3b96pedBqJvQaBdUwkvTWW28tDe3UIGg4BaG2QGJyatEKi1L76EzQOG2RegH7Z1xLo1bMPj3UtTX2b2oL7Ovsw5SBGTNmNBdddFGpZaxevbq8xzCdhprmcGKcH//4x+X1TExoUBAIrRRtVq1aVTYG3Wy8GhuMqhphQSjs2bOn/c5x9LvqqqvaXdLkISQWLFjQLF68uN0n16oNl32YkOCVUw32d6bFdCgT9BtLBw8eLKchZ2JCg4KEo2HDbNq0qVmxYsVg/6g5EBykLQFB/1aNqPQPDNcZLtJEYf/j+sN9993X7jN61Ky5/sZBkwuYHDi5ltF5TW6sLFmypJk5c2a76zR1nouUZpxwjYLzr1ZBHzyXA93r168v7YFzNoYJrRpG6W4l7knjShOJfZhiwz7INQba2adxvDg1pT/v015fo+jEPh/jDDfcs88+O7Bz587BayAjaRj2wIEDZdyRGu4axYR/PBq1ijo56abKJfW6uMZGbZjraNQu2HepEcQpCO3xyQbtw9USmEb92s2rr77aPPXUUyP+9AJvvfVW+aTk6quvbi644IJ23+H1zMejkk4fgTEaIw2IYFBISg0XFH7XQ1LKoJCUMigkpQwKSSmDQlLKoJCUMigkpQwKSSmDQlLKoJCUMigkpQwKSSmDQlLKoJCUMigkpQwKSSmDQlLKoJCUMigkpQwKSSmDQlLKoJCUMigkpQwKSSmDQlLKoJCUMigkpQwKSSmDQlLKoJCUMigkpQwKSSmDQlLKoJCUMigkpQwKSSmDQlLKoJCUMigkpQwKSSmDQlLKoJCUMigkpQwKSSmDQlLKoJCUMigkpQwKSSmDQlLKoJCUMigkpQwKSSmDQlLKoJCUMigkpQwKSSmDQlLKoJCUMigkpQwKSSmDQlLKoJCUMigkpQwKSSmDQlLKoJCUMigkpQwKSSmDQlLKoJCUMigkpQwKSSmDQlLKoJCUMigkpQwKSSmDQlLKoJCUMigkpQwKSSmDQlLKoJCUMigkpQwKSSmDQlLKoJCUMigkpQwKSSmDQlLKoJCUMigkpQwKSSmDQlLKoJCUMigkpQwKSSmDQlLKoJCUMigkpQwKSSmDQlLKoJCUMigkpQwKSSmDQlLKoJCUMigkpQwKSSmDQlLKoJCUMigkpQwKSSmDQlLKoJCUMigkpQwKSSmDQlLKoJCUMigkpQwKSSmDQlLKoJCUMigkpQwKSSmDQlLKoJCUMigkpQwKSSmDQlLKoJCUMigkpQwKSSmDQlLKoJCUMigkpQwKSSmDQlLKoJCUMigkpQwKSSmDQlLKoJCUMigkpQwKSSmDQlLKoJCUMigkpQwKSSmDQlLKoJCUMigkpQwKSSmDQlLKoJCUMigkpQwKSSmDQlLKoJCUMigkpQwKSSmDQlLKoJCUMigkpQwKSSmDQlLKoJCUMigkpQwKSSmDQlLKoJCUMigkpQwKSSmDQlLKoJCUMigkpQwKSSmDQlLKoJCUMigkpQwKSSmDQlLKoJCUMigkpQwKSSmDQlLKoJCUMigkpQwKSSmDQlLKoJCUMigkpQyKKWTNmjXNfffd1+4amXXr1o16nHvvvbfMS9OHQTGFbN++vTSjsXv37mbz5s3trpHZsWPHqOej/mZQSEoZFJJSBoWklEEhKWVQSEoZFJJSBoWklEExhaxevbpZtWpVu2tkVqxY0dx1113trpE5nfmov80YaJrWX4eBU3tJmtr279/fLF26tNmzd2+7zwnWKCSlDApJKYNCUsqgkJQyKCSlDApJKYNCUsqgkJQyKHrU8uXLmxkzZkz55qKLLirryk/rbdu2rb326jXemdmjKDyYKrdKb9mypfzsHrd/1/bs2TP4E368P3/+/Gbt2rXeIj4Jhrsz06DoUQQFhWbDhg3tPv2NH/GlxrB169Z2n1Px/qZNm5qNGzeWdWdYXjUxvIVbfWHZsmUlGHft2lW6FyxYUIJDk8+gUM+hFkFY8K3WW265xbDoAQaFehbXKm6//fbS+HiAyWVQqKetX7++1DB84NDkMijU8wgLLnT68enkMSjU87jISTPaRx9q7BgU6gsrV660RjGJDAr1Ba5THD58uDSaeAaF+sKsWbPKq0ExOQwK9YUjR46U19mzZ5dXTSyDQn2B+yg4/TAoJodBob7A9z/45EOTw6BQzyMk+Gap3yidPAaFehoXL/nmKd/5sEYxeQwK9bRbb721vI72sYcaWwaFehI1CX6Tg5usHn30UX+XYpIZFOo5hMPixYvLdQl+vGbRokXtdzRZDAr1BGoQfJeDWgQN4WBI9A6DQhOGGgIXJuuGaxDUHviRXX53AgSEpxu9xaDQhKHWwEeddUN4xE/gHTp0qISEn270HoNCE4bTCH7irm4IBn5vgo8/veuydxkUklIGhSaE3/rsbwZFj+JCHufvUwVf6vLUon8ZFD2K83kK11Q5ErMuXqTsXwZFj+ILUITEVHimBZ9usC4rVqxo91G/MSh6FNV0Pgng2Rb9XKtg2eNLXd4X0b8Mih7Gx4bo52daEBLwS139zaDoYdQquEORqnsUuH7CMt97772DD/FRH+Np5qc06ikbNmxo/VuagWXLlg3s2rWr3bd3HTp0qCwry8yyqz/s27dvYN68eafmQauxRtEHOL9/+umny8elfGGKI3UvfnQa1yN4CjnLx12XLLv63wzSot1+AhminkNBpCrPtyxp56E4NJdddln5OHWi71NgGQiEJ554onz8uXnz5tJ/9erV5Qte3jfRX/bv398sXbq02bN3b7vPCQZFH6Jw8psNfHTaC0/PIhAIKj7+9Dsb/cugmOLixqyJPh0hELhISWM49D+DQlJquKDwYqaklEEhKWVQSEoZFJJSBoWklEEhKWVQSEoZFJJSBoWklEEhKWVQSEoZFJJSBoWklEEhKeXXzPvAz3/+8/J66aWXlma8xHxq73//+5srrrii3aWpzN+j6GMPPfRQ+Wk5XHPNNeVXucfDvn37mo9//OPtrpMRTvya1sc+9rF2H01F/h5FH3vkkUfabceP+N2O+mPthhtuaG666abySkgQIjfeeGNz9OjR9hCabgyKHkYB/dnPflba45Qjumuf+cxnSm3g/vvvb77//e83CxcuHAwUCvc999xT+s2dO7f51Kc+VWopd955Zxnn61//ehmu9s1vfrP8gC/PE4lHGh45cqR55plnSns9LvOjnXkEpk+wMD8a2ukXYnnrfrTTj6YOwy9/+cunTF8Tz6DoYXVIfOELXyjtDzzwQHmt7W1VFQkV3qPw1kd+Cul3v/vdwX4Udk5lHn744TIOATAcrlGEWbNmlVemxbgUbuZHe2BeTJ/Czrg0tNOPUAGnMIzz2GOPlW4wDP1oIpAQ/akSa/IYFD0sQoGQ+OxnP1vaKdj1EbdGgWI4agOECwU5Ch3TeP7555tf/vKXZZjhTiMo0BzBaeK5HIzfeY2CaXDdhBoIpynMP4789GN+NF/72tdKvwgshkW9HnX7j370o/IawcG6MB9NHoOiR1FAopBTsDiax1E1ClInAuB73/teub5A4YojdhRmju70Z5i6ptCJoKBQ07AMfOoRNZoa0+LiKu8xTJxK0D+Cg+b6668v/Qk5akksD/OnO4ahYRz6/+Y3vynDx/obEpPPoOhRdTWdgococJw2dKsRxHAhhulW0OKo3g01EgIgQoACy7WNznl2fmxKYY/XuN5Aw7ghTnVi/gRHnGKxnFdeeeVgrSlqGZ52TD6DokdFrYHCyXUGGgICFKQ42g4nag1RgGt8FDYUCiaFloaaCIHAPOuLj+islcQ1DAKLsOnWRKGP8OoMhAhD1i/6dws6TSyDogdRQOqjcxSmOhxG8ilAHPE5BYnqPAihbp+edENQRS0gXocStQTGodBzCkQzY8aM5sknnyxN1Hpi2Fg3+lN7iiBhGVlfQqKzpqSJZ1D0oDhyU0gOHDhwUsNRGRT8zlOBTp///OcHrwVcd911gzUTLlB21gZqfJLBpxQ0S5YsGQytT3/60+V1KCwvBZ35MR8+2mQavLJO9TzjmgvTpolQIywYjvDAcKdImjgGRQ+KQsLRuBMFJwp/56lAJwoj1xniiBxHb6r3ceTuhqM506YhjJgfpyCdn3p0Q5CxjBR+TpViGbnWwTRq9SlFHQj1sg23nJo43sLdYwiAOE3gKNvtyB9BQgDQdHZ3wzDcb8E0aZgH84px6vnWuk2zc9xuCApOHRiOmki39YjaBOp1rft7fWLi+F0PSSm/6yHpjBgUklIGhaSUQSEpZVBIShkUklIGhaSUQSEpZVBIShkUklIGhaSUQSEpZVBIShkUklIGhaSUQSEpZVBIShkUklIGxSjwO47x+5SjEY/lq/FbkvWDccYLDy7u/C3Meh1YjuHWiR/H/eEPf9ju6i/dtrtOj0ExCvyMPT89H/iF6mhC3R2v8TwOgib68QvZ9a9S0z9+ULabGDcaRHu38aJf/BBurX4mCON3dtfTq+db9+/WL4ZFvB+Gag/dpk1T9w/1fEIMH+2I7d45nc7xozv6dZv+dOeP644QOw8hwa9F89Py/Do0R2L68UvUmzZtKo8B5ME69S9T85zPyy+/vAxPf8b56le/WqbB4/Z4aHCMx7R5n3HqacQTw+Nn+gkZHvzLszPiV6oJhJ/85CdlOI6k0Z/pEUj1r1kzHj/jj1gvuuNZo8yH/qxTXSOJ/gxLuDBtlpnpM03aWT6GY/lYDoZlONqfe+65Mi2myTqC4WN5Y93ZFjy0KH6Vm3GYDsPG/4BheQQAz1tlubtt99i+1NwYlnnU4zMu/XmfcXk8AuvPr5WD4Xh/uhjux3VJCWLh5Ean+MEPfjDQqoYPtHbIgTvvvLP0o33VqlWlvbVzDaxcubK0g/e+9KUvlfY5c+aU93H48OGB5cuXl/YlS5aU13q8nTt3DrR21nbXydNBq4CWbqYX0wHLxHi8tk4V2n0HBloFuEyjtnDhwjJPmuuuu668Mr1YF7QKc2nuvvvuU+bPtqA/74P50R2YDsvCa6twl/Fvvvnm0o9x6+WjX8w/GobpnCfzol+9bdh+DF9vv3p78T7bg/8baK+3RWx/tgHLCZaZ/wHq5ZwOWgeBgXnz5p2aB63GU48ReuSRR0jQ0l4/JDiOenTXR7R4DifoH+/Rv67WcoSucRSrH7TTKggnTbeuGdTzYDk44jI9phEuueSSdtsJTJ8jNM3GjRtLP5apVQgHnxDGUby105T36nkyvVjmWHe6OULHuLFcjMc0mfZtt91WrnUwXP2wH5aFI3nnaV3nPFk3pkNNJubD0W+47c5ytYKh1Byim9pbPT5Yj1gXakf8f6kh6QSDYgTYwdhRQcHlSVsUgBo7M4UgClE8ZBhRkMCOW+/YtLOzx3jsyDEsKFRUwxkG8eStoRASVO1RzzfD8lPIOC3iaV90R+GJhyOD9YoCFpgn68F4FDS2Fd0UUAo2YUDBj1OYWmxbAot1Zfug2zwjRJkPy0lwD7fdWYbPfe5zgwHE+Axfj9+J7c9pEyFKu44zKEaAHZGdJx66y9GRfhSsOHrTzs7OkYods36PcRiec3HOp+P8PApcjMdRjEDorDWwU7eqxKWJAoN4BUf/GJaHAjMtCimFj/61ejzQzTAUII7sjEs3y8F0WX6WnXN55h/96xoH/RmvVe0vwxMyTIPCSjeYT+fzS3mfQs70CYnYJkyzc56sG9uH/q3TiPI/YR5DbXfG4/mrLCdhG9umHh/19iDcmA7rEsstL2aqB0WtyYI6sXxSmKQzYo1CPSeux8Q1Ek0MaxTqK/WnEOoNBoWklEEhKWVQjBDnzXHufLri5qPJMBbL32vinouxMtW2z1gyKEaIQs5n72fiySefPOVGrbHGzh73QnC/QHzUONrlpxCO9GatyfLAAw+0205gPbOb0obCjWq9vs6T5ey1TdP667D21F7THTcFsRNyZ+bWrVsHb3AChYo7CWMY3uMLVUuWLCnv05+7EmfOnNksXLiwdL/wwgvllubOabGzRj9uEuq8OaqeF8255547OC64oYkvMnEz0cqVK8sNXsyX4YZafu5m3Lx5cwmZX/3qV+W9b3/726U9ljkwDDc41dPgDkaGYViwfCx3vawMy/sMe+zYsXKFnZutAsvGNmNY/PGPf2zmzJlT2nmP7RXDEwTMl3ViPnSzXAzHNtuyZUvzxhtvlPEp+LH8rOfcuXPLcnT7n8W618s1nbANH3zwwWZN+y7kmjWKUaCwX3nlleUjJI7WbFh2UnZObg56+eWXy9GcW5Lr2665QxLsqLFjcvffJz/5yWb27NmDtxgzLgWIuykZNm7FDsyLgs+8uMOQ4aNggUIRt0uHuDUancuPuGWcaTLvWH4KIAWmM6ioqTANpsk0GDcKKeJoTjfTjmXlrlLQj21TF0bWIb57QUGlfefOne13j9+9yXiBAk6/mBffw2E56EfDJyZsA6Zb39JNO+s21P9MQzMoRoGdkB2QhgLJzsVOytGb9+J2YdBef+eiLrzgqM80GC4ChaMc35WgcHb7ejM797e+9a0yL2417pxm5xfIOkWIxPKzXBS6bsvPdyIYpp5eHUQsI7dEU/gYL8KQ7cH7da2C71Qwr1hP1rGeLtOI9aGJL3GFqPkQdBEInQgu5kfD+7wOZaj/mYZmUIzCSD7bj52aHZ6dmkLAkatTPa2hjmZRsALj1MN2vk9hYZ41juxxtO8mlnckOoeNbl6pNTAflpECyHLSj0JIQ6iMZPsNheDkVI3aQHxHo9Zt2p3LS42pm9Fsg+nKoDhD8SUiCihV2Kgys/NxVKMfoTESVL05MhMuvHbu/AQO02NevM/RusY8mUYsDzUahh+uIBAu9fJTKwHjUPDrb3xGLYTCyjIyfNR8CAJOGaI2QH+GAcvZGWA1xmHYaKg5dYpaCuHYrUYRWO6oeVArinaWOf43Q/3PNDRv4R4hjpDsdFHo2ckIAgoz7RQGCimiP4WKwhbXCBiu3smjncIRw9DOeHRzXv/Tn/609A9RUGNeTKOz4DAM02EZuLjJ6+ksP9Og4HUGHQWW6RFcDAe6Gb6uPdXLEf3pjnWtxbCsC/NH53qxnEwr3qebZavXBUwHzCemG+PEcN3WmZBkfTvnO10Mdwu3QdFDOMqx41Oo2IkpkPGVdGm8GRR9gqMfpxRRveZcPI6S0ngzKCSlhgsKL2ZKShkUklIGhaSUQTGFcJtzfPGL9rhbcqLx0SMXZmud3eovBsUUwv0V3OId9zR0u4NxIvDRbmcw8B0R9S8/9ehx1Aw4QvN9Ce6v4CYibuKithB3XBIO3IXJsAzDsNyDQTvfq2BYbrai/x133FHusKynwUewTKPGtJgGw8Z8mBYFnuG5PZs7H2M87nAkHOLjXOYdN2oRYNy1STfDsxydy894sZy0894nPvGJU37eX+NnuE89SAli4eRGPYFH2sXj8XgUIY+7QzyCD61COPg4v3i0Hu9FO4/na4VIaWca9WMMWzWP0t46XSnDBcZnuPr9+jF90T8e8RePGATz4BF9rVpF6Q4xX9TL3wqHMm49DbQC6aRl0vhrBb2PFOxH9e3fHGH5yjhHbdrjNuO4hXkovEfDXZ/xvQ+O2kyH6xn059ZljiaB+fJ9iKgd1LdcM9/oTzvfk2D6ceRn+lGT6Ib50lB7YN6Mzw1mTIOjWaA2od5hUPQwCh2FNlC4KKR1P9qH+24C39yk0HMrOA1f1uKUge82RD+efBZf5gLj1OFTz68bhue6RKjH7RTLWs+bIGJ56mkQZuodBkUPo1Bz9OUHYviCGMFBw0VKrhVw3s/5/3AXLfm9BS5sxjTANDh6xzS4vkG/wHWJ+v34ktVQmAfXNJgHtQTG70QY8D7rUy8/8yY8CCrCIZazVRNuj6le4MXMPhC/OxFV/kD/zn5DGWrY4aYx1HyHMprlAaHRWRsa7TQ0dvyuh6SU3/WQdEYMCkkpg0JSyqCQlDIoJKUMCkkpg0JSyqCQlDIoJKUMCkkpg0JSyqCQlDIoJKUMCkkpg0JSyqCQlDIoJKUMCkkpg0JSyqCQlDIoJKUMCkkpg0JSyqCQlDIoJKUMCkkpg0JSyqCQlDIoJKUMCkkpg0JSyqCQlDIoJKUMCkkpg0JSyqCQlDIoJKUMCkkpg0JSyqCQlDIoJKUMCkkpg0JSyqCQlDIoJKUMCkkpg0JSyqCQlDIoJKUMCkkpg0JSyqCQlDIoJKUMCkkpg0JSyqCQlDIoJKUMCkkpg0JSyqCQlDIoJKUMCkkpg0JSyqCQlDIoJKUMCkkpg0JSyqCQlDIoJKUMCkkpg0JSyqCQlDIoJKVmDDRN66/DwKm9prp33nmnefmVV8qrNBLnnXdec36rmSr279/fLF26tNmzd2+7zwkGRcuLfzjQvP76a83s2bOac845p91XGlo5sLz8SvPaa8eaBfMvnRL7jUExjH37X2wdGc5tPvBn/6zdRxq5N958s9m9e19z6SV/0Zx/fn/XLoYLiml9jeKfDv6pdSR4ryGh0zazVZP4yIfnN7v27Gv3mZqmdVAcPnK0mTvnz9td0uk5++yzm4tmv7+cikxV0zoo3nn77XabdGYuvPB9zWuvv97umnr8eFQaI1P5EzODQlLKoBiFdw/8oXn17x5oDt3275uDf7WivL589zeat3b8qj2ENDUZFCP0+v96qITDa62gePt3z5XQ4PXYj/++OfyV/1gCY+CVl9tDS1OLQTEC1CJe+e9/0+467qy5H2y3HXf2xR9sZrzvwnZXbvPmzc26deuaTZs2Nbt37y79eKX/mRqr6YTt27d3nR7zWb58ebtreNu2bSvrSxPrO9ZuvPHGsqwaewZFgloDtYhw3mduaj6w+SfNn/2PLc2f/79fNBfe8V+b9/31f2nOv/nz7SFya9asKQXnqquuap5++ulS2A4fPlyasShEYzWdGtPEli1byvKHkcyHcGCcyy67rDTjVaBjG2rsnb22aVp/Hdae2msqOnjwT/nNVvtva9790wvNOy9e0FzQCoML/sN/bmacM7P9ZtO858OXN+/9l1e0u0bmhhtuaJ566qnmox/9aHP99dc3O3bsKO2zZ89uXnrppWbRokVlOI7iDz/8cGmngF599dWlgD377LOl+/HHH2/mz59fxqsxDTDNjRs3lnamw/BM+9xzzy39wPRiWXDfffeV+YD5M+yxY8dKw3Tvv//+Ms7FF19cGmpETJPXPXv2DC57oOCyvk8++WSzbNmywfk/9thjZd1BaMb4rE8sHyFE/871ZJosB/3B8rD8DMs8GLYepts2GmtvvvlmafiYtF8dPXq0efDBB5s1R460+5xgjSLx7h//d3P+X/5Dc8G/mXFSreHAkYHmsZ1vd20y7My33nrr4NF4w4YNpQBFwQAFnCMxtQ4K7O233176UygYd9asWaVZvHhx6V9jGIIETI/hOZIz/bo2AAoR74P3mQ8FF8wfMT0KW92AAsnyXXvtta3jy9rBcQPjRuENt9xyS3PvvfeWdtaTZWI9d+3aVWobYFloZx1Zdmpdsb1YZ4Zlnowb61pjnWIYxu1cLo2OQTGcY3vaLU0z85p57bbjtu95p7nn/7zRtXmpFSLDefTRR0vBYAdmp+92/k8BX79+fbNy5crBQhUoeBQ2CjUFKQrQUGI6d9111ynDUuAJqQgDpstrDFcXcIaj4NGPZQDjs3yxTNSOhkKoxHWKqOnU60nQgELNMjA/phkNtR2WEzHP1atXl+4aw9CwfVjWWCedPoNiElC42Ik54lFIOPp1HvF4ry6k44lC+sQTT5TAIkxYFgp8hMFoEAY11rXuR9Agak6d60k7pyBREwnUKpgOTbZdYji2a2xbxtfpMyiGc25r53rv8Sr23/7DS83Lb71W2nHVZWc3f/NX5w42H55zYlNePGtGu+1UFICoXoPCQFMXJixYsCCtKYwVCm8c4SmEHMk5Yq9YsaL0OxNMj/WgITRY17rQdq5nFOqo5QSCi/GZXt2/G4aj2bp162ATp246PQZF4sCc25r/dOSa5m+Pzm0eeOb4hUUQBoQFzcWzz2p+94/vlv5XzTu7vA6FAsDOzpGOqjTn2Oz49K9xZI9h6mAZD8z70KFDzapVq0o3wdF5RA9RULudLnVDgaXWxGkW6xJN1Czq9eSVcGK+LAvziFMVAoTTDObP+zFOXEepsT5Mn2EIQOY90uVVd37qkXzq8ep5VzQP/O4XzZvvvtU8c/D55g+v/WNz4XsvaKgzvPLWq81Dz//f5u4t72nefmNWGX7Vvzqn+cjc4fOXq/0UID5J4JMDjt680o9XruBHgaCmcdNNN5Ur+JzDMwzv0YBXhq8/yaiHiYZ+iOl3onDRxLi0x3Cd02Ma4P1owHC0x/uBaXF6w6cmLCfrw3UDML14j/X94he/WPozHP2j/Tvf+c7gdBk/UCMB2zSWj+WIcdnGtMcnLONlqn/qMa1/uOa3z73Q/IvLP9LuGtrf79rWrPvFf2t3dTfzTyubf7fw3zZ//ZcnPjo9E1x848jNkZF2AoNPR3T8Ew1ChQu51MiolUTwTBZ+RpGvmf/FB08OyX7iD9ecoX+9YFlzzyfvaD54wdC/XXFzqyYxViEBquCcqxMSvFJ913Hx6Q0XYAnPyQ6J6cAaxQhqFDVqF88d3tU8d2h3CY7LL1pQgoTTEU1fU71GYVCMMiikbjz1kDTtTfOgGPp+B2m0+O3MqWpaBwX/WB/4o7Fw8J8O9fVHo5lpHRRz53ygefHFA+0u6fRw/8TZ7zlrSj01rNO0DgqOAPyDeVKYdDpef/31Ztfufc2cKf7YBx8p2MKDgA4ePFSOCASHNBKvv3as7C+XXPLPm/dMgesTfjw6QjyXwWsWGgmub/G80akQEMGgkJTyPgpJZ8SgkJQyKCSlDApJKYNCUsqgkJQyKCSlDApJKYNCUsqgkJQyKCSlDApJKYNCUsqgkJQyKCSlDApJKYNCUsqgkJQyKCSlDApJKYNCUsqgkJQyKCSlDApJKYNCUsqgkJQyKCSlDApJKYNCUsqgkJQyKCSlDApJKYNCUsqgkJQyKCSlDApJKYNCUsqgkJQyKCSlDApJKYNCUsqgkJQyKCSlDApJKYNCUsqgkJQyKCSlDApJKYNCUsqgkJQyKCSlDApJKYNCUsqgkJQyKCSlDApJKYNCUsqgkJQyKCSlDApJKYNCUsqgkJQyKCSlDApJKYNCUsqgkJQyKCSlDApJKYNCUsqgkJQyKCSlDApJKYNCUsqgkJQyKCSlDApJKYNCUsqgkJQyKCSlDApJKYNCUsqgkJQyKCSlDApJKYNCUsqgkJQyKCSlDApJqRkDTdP66zBwai+dnu3btzeHDx9ud2k8LFu2rN2mM7F///5m6dKlzZ69e9t9TjAoxtHixYtLUGh8ERRbt25td+l0DRcUnnqMk927dxsSE2Tbtm1le2v8GBTjZP78+c2iRYvaXRpPbGe2t8aPpx7jjKOdxs/s2bMN5DHiNQpJKa9RSDojBoWklEEhKdX1GsX/fOSRdpuk6eLo0aPNN77xjZFfzLxs3rx2m6TpZuSfekhSxWsUklIGhaSUQSEpZVBISjTN/wdnCFALJp0EKQAAAABJRU5ErkJggg==;" vertex="1" parent="WIyWlLk6GJQsqaUBKTNV-1">
          <mxGeometry x="155.93" y="21" width="46.14" height="98" as="geometry" />
        </mxCell>
        <mxCell id="YcHYLUiHtxIJwsrw_Ox9-7" value="YES" style="rounded=1;whiteSpace=wrap;html=1;" vertex="1" parent="WIyWlLk6GJQsqaUBKTNV-1">
          <mxGeometry x="270" y="181" width="40" height="15" as="geometry" />
        </mxCell>
        <mxCell id="YcHYLUiHtxIJwsrw_Ox9-10" value="NO" style="rounded=1;whiteSpace=wrap;html=1;" vertex="1" parent="WIyWlLk6GJQsqaUBKTNV-1">
          <mxGeometry x="129" y="255" width="40" height="15" as="geometry" />
        </mxCell>
        <mxCell id="YcHYLUiHtxIJwsrw_Ox9-11" value="" style="whiteSpace=wrap;html=1;aspect=fixed;fillColor=#000000;strokeColor=#FFFFFF;strokeWidth=2;" vertex="1" parent="WIyWlLk6GJQsqaUBKTNV-1">
          <mxGeometry x="89" y="290" width="181" height="181" as="geometry" />
        </mxCell>
        <mxCell id="YcHYLUiHtxIJwsrw_Ox9-13" value="" style="shape=image;verticalLabelPosition=bottom;labelBackgroundColor=default;verticalAlign=top;aspect=fixed;imageAspect=0;image=data:image/png,iVBORw0KGgoAAAANSUhEUgAAAQoAAAIzCAYAAAD4VlcxAAAAAXNSR0IArs4c6QAAAARnQU1BAACxjwv8YQUAAAAJcEhZcwAADsMAAA7DAcdvqGQAACGASURBVHhe7d1frBzlmefx8q6yIDEQR5ocXywYmzXKzgACZLSMEu1im1UUmGRs5yKYmxjPLHDFP8lI2ZkgQDCrFZAxhtxAZsY2ucDYUWxPdpMoC7bZUUiIcADhJBdJxsbJXgArYZO1FHJztr+v6zm87tPdzznH9jnd53w/cqmr689bVe16f/VWdVWfReNN0/knSf39q/ZVkvoyKCSlDApJKYNCUqrnxczdu3a1fZIWildffbXZvXt38/axY+2Qj/T+1mPcL0KkhYaQ2Lx5c8+g8NRDUsqgkJQyKCSlDApJKYNCUsqgkJQyKCSlDApJKYNCUmrWg+Lo0aPNfffd1zz88MOlvx/GvfHGG+27jxw/frzZvn17+07SbJjVW7ip/OvXr28efPDB0r9v377mwIED7djTMd3GjRubdevWtUOaZuvWrc1DDz3UrFq1qtmzZ087VBo+HAyxZcuW8lo7ePBg2fd55cC3ePHiZtmyZWVfZ5/vdvLkyebQoUPNokWLmo997GPt0NwFF1zQXHXVVe273KBbuGc1KGhF8KHcc8895T0fDq0GPiw+2G3btpXxtBhefvnl8j4wzZNPPlk+LBA20jCJSo/YT8erusR46gD7Ma655prSReuZ8dQJDp68hp/+9KfNkiVLmm9961tlmqm4+uqrmxUrVjQXX3zxxDplBgUFKcGmnN6dI50PaPzee+8t/UeOHBnvbEDpf//99yeG09/58Mp4hvFaY1inNdG+k4YD+y3ViX0Xp6rW6XWpc+ArwzoHyjI9+3YnFEoX4zsBMd5pMZf34cUXXxzfu3fvRJlT6Sjn17/+9fg777wz/sEHH7QlDbZr167xpUuXTs6DTjer1yhoVpGe11577USqgsSLJhqnF2vXri2J2vlwTktWkLzdw6S5wL5MCyFOITDoiH/bbbeV1kLnYFdOrZcvX96sXr26dPTTCmF8r9PqTrC0fdPH+p2pWQ0KAoEP4fXXXy9Nrvr6A/jguQbx9ttvN5s2bSofOsFRYxrmleYK+yCogOyvO3bsKO+ngutrHAA54HH6TH2IU2wOnhwEp3qqMJtmNSj4QPmQI4njOgNhwDA+pE5zrAy/4YYbyocaF3cIDf5j+BDjP0qabeyrHP27D2DTQYuC/Zz9nTrx5ptvloMnrYlz4bOf/WzbN3OzejGTi5SRvlzQjBYFpyIka31KQeoSDjTXwMXO+LqU6eoLndJs4QBHK4Lu0ksvLS1f9lEObgRIHOx6XczsRhmURwuZkOjXkvjxj3/cXHLJJeVi44kTJ9qhg3GgPf/885vLLrusGRsba4cONjTfekijjoMVrQkOdFRsKjqVkoMe/YQHLQb6OdD1+nq0xukGQTPodIOvR/nm4w9/+EM7ZGr4xuNTn/pU+y5nUEhKDQoKb+GWlDIoJKUMCkkpg0JSyqCQlDIoJKUMCkkpg0JSyqCQlDIoJKUMCkkpg0JSyqCQlDIoJKUMCkkpg0JSyqCQlDIoJKUMCkkpg0JSyqCQlDIoJKUMCkkpg0JSyqCQlDIoJKUMCkkpg0JSyqCQlDIoJKUMCkkpg0JSyqCQlDIoJKUMCkkpg0JSyqCQlDIoJKUMCkkpg0JSyqCQlDIoJKUMCkkpg0JSyqCQlDIoJKUMCkkpg0JSyqCQlDIoJKUMCkkpg0JSyqCQlDIoJKUMCkkpg0JSyqCQlDIoJKUMCkkpg0JSyqCQlDIoJKUMCkkpg0JSyqCQlDIoJKUMCkkpg0JSyqCQlDIoJKUMCkkpg0JSyqCQlDIoJKUMCkkpg0JSyqCQlDIoJKUMCkkpg0JSyqCQlDIoJKUMCkkpg0JSyqCQlDIoJKUMCkkpg0JSyqCQlDIoJKUMCkkpg0JSyqCQlDIoJKUMCkkpg0JSyqCQlDIoJKUMCkkpg0JSyqCQlDIoJKUMCkkpg0JSyqCQlDIoJKUMCkkpg0JSyqCQlDIoJKUMCkkpg0JSyqCQlDIoJKUMCkkpg0JSyqCQlDIoJKUMCkkpg0JSyqCQlDIoJKUMCkkpg0JSyqCQlDIoJKUMCkkpg0JSyqCQlDIoJKUMCkkpg0JSyqCQlDIoJKUMCkkpg0JSyqCQlDIoJKUMCkkpg0JSyqCQlDIoJKUMCkkpg0JSyqCQlDIoJKUMCkkpg0JSyqCQlDIoJKUMCkkpg0JSyqCQlDIoJKUMCkkpg0JSyqCQlDIoJKUMCkkpg0JSyqCQlDIoJKUMCkkpg0JSyqCQlDIoJKUMCkkpg0JSyqCQlDIoJKUMCkkpg0JSyqCQlDIoJKUMCkkpg0JSyqCQlDIoJKUMCkkpg0JSyqCQlDIoJKUMCkkpg0JSyqCQlDIoJKUMCkkpg0JSyqCQlDIoJKUMCkkpg2IeOXr0aNs3dcePH2/7po55ZjKfRpdBMY+sX7++2bFjR/tualavXt1s3bq1fTc1M5lHo82gmEfef//9tm/qmGe6rYOZLEejzaCQlDIoJKUMCkkpg0JSyqCQlDIoJKUMCkmpReNN0/nXZXzyIA0/7sxcvHhx6aZqtubR8Nu9e3ezefPm5u1jx9ohH7FFMY8sW7Zs2pV3tubRaDMoJKUMCkkpg0JSyqCQlDIoJKUMCkkpg0JSyhuuhtTBgwdn9NN2oyTux7jmmmvaIZpLg264MiiG1KJFi9q+hWHVqlXNbbfd1txwww0lQDT7vDNzRG3fvr2T2ePzoosgqIfxk3qvv/56s23bthIO9957b7N8+fJm06ZN8741NWoMCs2ZOO0gQAiLI0eOlFdOu/gB371797ZTaq4ZFBoaBAehceDAgdIC4VfFH3744Xas5pJBoaHDaQgtiwcffLB56KGH/NMAQ8Cg0NAiJLhuQffGG2+0QzUXDAoNtS1btpTrGPfdd187RHPBoNDQIyy4wEmnuWFQaOhxYfPSSy9t9u3b1w7RbDMoNBL4utQWxdwxKDQS+CbEv6A+dwwKSSmDQiOB1oQ/6Dt3DAqNBK5P+JTp3DEoNPR4QIwbrtauXdsO0WwzKDT0eN6Di5nr1q1rh2i2GRQaajznweP2PPehuWNQaGhxXYLnPO65557yVKnmjkGhoURLgpusNm7c2Dz55JPtUM0Vg0JDhVYEAREtCU47NPcMCs05vtWIFgQd+PEaWxLDw6DQrInWQnT8PuYnPvGJ8spvT4CAiF+40vAwKDSr+JozOi5Q8m0GwcDvZRoQw8uf6x9S/Fw/5+dczJsPaEEQDvzEnYaTP9cv6YwYFEOKB6Dm02PVPtQ12gyKIUUzfT79oCzbcvXVV7fvNGoMiiHFcw3z5Q/gxC9TeaFydBkUQ4onJWmu79ixox0yunioi5CglaTRZFAMKX57gVYF9xeM8rUKvrmhRTFfvr1ZqAyKIcbP1BMS/NHeUcQdl7QmfKhr9BkUQ4ymOjchcUTm73COUsuCi5fcO8E3HXHXpUaXQTHkOAUhLKh41157bTlKD7t4biOCzq9FR59BMQIiLKh4PBfBqUh8kzAsaO0QEKxfPPlpSMwf3sI9Yrg4SIWkhUFwECJ0/CWt2fxWgWCge/PNN8u60IELsDy/MZvrorNj0C3cBsWIomLyJ/ZoWdA/V9cvCAS++uRmKi5Y2oIYXQaFpJQPhUk6IwaFpJRBISllUEhKGRSSUgaFpJRBISllUEhKGRSSUgaFpJRBISllUEhKGRSSUgaFpJRBISnl71EMuVdeeaX54Q9/WPpvvvnm5oorrij9Z9vhw4eb733ve+27j1xyySXNZz7zmfKq+c0frhlh/GpUVOBPf/rTzZ49e0r/2bZz587yO5e9fPzjH28eeeSR5pZbbmmHaD7yh2tG1G9+85vTjvK0Lj744IP23UeYjg6Mp3VQi2HMH9PFPL3K4zc56QgHWhInTpxoHnjggXbs5Hkpu7scxrM8um4xf435ew2PYb3WU7OIFsWkTkPh+eefHx8bGxtfuXJl6eh/5pln2rEfYThdp1UwMV1g2IoVKyamoXvssccmpmMZiGXR1b773e9ODO8ERhkW8951113j69atK/2d06My7tixYxPDomN6lhlifSg7bNy4cWL6WA5i2ihf586uXbvGly5dOjkPOp0tiiHW+Y8rrzfddFOzYcOG0t/rOkK4++67Tzsi088wjsYXXXTRxLWGJ554YtKRu5+Yjvkoo/bCCy+c1mJgWv5QEcOYlnVmmQxnmc8++2yZju1BPW/dCuoESHn92c9+VtadZXPapbljUAwpKldcxKTCRUWhcvWr5FQormG89tpr5X1cc2D4/v37m29/+9tl3B133FGG90Nlp7vuuuvKKQfz82cCutXLu/LKK0twsG4MP3ToUDl9YZmxPMICsS0RDgRCvU28x1tvvVVeDYm5Z1AMqWg5UOn4poPKwtEZXHjs5f777y/TMQ+iolFRYxi4YNXdOqgRRt2BtGjRorbvI7QMYnmUFy0E3ndOkZrHH3+8dIFrHZRZtyhoMcR6ck0EEZBRXmy35o5BMaSimc43DVQuuvhqlCN3L3UYIC4AdocC32LQ9fPOO+9MdI8++mhZNi2M7guK/cKGCk7rIbrYFlAGy47KT6vi+9//fumPU6M45YiWRQSL5o5BMYTqpjgVjVMAuqhwjIuj7SARHFFW4H33sH5uv/328kprIK4d9BPBQQumDpu6i7CrTz/oWFfGRSjQamI40w1q/Wh2GBRDiGY7qCAcZesuKv+gi5ohKh1hE6crHKm5N2Oq6tbA0qVL277eYnlxrQIsj5BbsmRJs2bNmjIMERSUz7Txvh4OWxPDwaAYQtFaoNnPxcC6i28/+p1+1OprE1zYpLJefvnl5Ug96CjNdNHF/ROUE5W4H06TCDNaH9EKWrlyZQkClrdjx452ylOBwLAIFOZDLKN7uOaWQTFk4ry8X8XkVIBxVLJ62giEGsP4VqK+o5IyGXbVVVeV8XGtgtcop7vjIinfmgRaFgzvdZ1j27ZtEwFFZadFEctkWO3OO++cWEZsK2XSimAY36Scq1vWNT3ewi2p8BZuSWfEoJCUMigkpQwKSSmDQlLKoJCUMigkpQwKSSmDQlLKoJCUMigkpQwKSSmDQlLKoJCUMigkpQwKSSmDQlLKoJCUMig0EL95GT90q4XLoFDBz/nXf7eD9/x4L38WIH7xezo/86/5xaBQEb+YHXjPz+7z69if+9znyrBjPX50VQuDQaGB+Dug8ceGev08vxYGg0ITOMXgDwXRxd8DlWBQaAJ/KGjr1q2li9ONmn+1a+EyKDRl4/5hqAXLoFBBa4E/Mxh4H3/WL1oS2R8p1vzlnxSUVPgnBSWdEYNCUsqgkJQyKCSlDApJKYNiBuKJyvqpysOHDzevvPJK+05z7dlnny0PtfUTD7ppagyKGXjmmWeau+++u3niiSea9evXlx2SoOC5CA0H7gG56KKL2neT8XSsps6gmKG43fnRRx8twVHjaEaA8Fh2PFBF64NhGzdubB5//PHyPAU4ssW0cQRkHqZjeK8dmvJvvPHGMg/z83g4QUV4xXyxXIbXw+jicXL6KQuEHC0i1jPK4ZXWE0+R0k8Z9VG6u+zuYWxnDOtet/iMYhno9bnV6u2mbLaD9a4/owceeKC88qRrlMu0lEtXtwLBuF7LUhduuJrUaaDHHntsvBMO452dcfyrX/1q6X/++efL8M6OO37XXXe1U46PdyrHeKeijXd20vG33nqrDGOasbGx0r9mzZrySllRZgwD8zF96FSO8S9/+cvtu1PjWTbTxHzHjx8fX7lyZVkuy+9U1DKMdeU11o/XdevWTfSzbMrjFSyLbeJ9lFdjnrpsUF7Mz7D4TOp1W7FiRSkbnYo6sd3d21Uvj22M9aYMymNYfO6B+cC0LJey6cAyWB5YT/rreRe6Xbt2jS9dunRyHnQ6WxQzxNGXIxm/13DHHXe0Q08dmTmCdnbY0sX7zk5abocG89A0BvMyHUfLm266qUzLETzmZz66wHimC1/60pfavqa54ooryiuPg7MMyqH8ToUtR1r6GRetBLBOvKdjnSg/Wg+cWsV1F8rrbspTXqeiTZTN0Zry622LFki9btwqXn8WLJPPKVpdsd0MC4zbsGFD6aeMXg+t9cJTsPF5sV7ceQi2i+Xef//95b0GMyhmiB2VnayutKACMGzPnj2le+qpp8owdtJoCrPTRxP44osvLtNxKkOFoxLU8z/yyCPNzTffXKYF42NeZBdQCQTKYV1p+oP1IQRYDh1BEpWbCr1jx44yz/bt2wdWJNbj6aefLtNQuQmSCCBQEaPcDM+R8ExJvd3106psd3dwgPnic0UdqmB76s8rLmISUMyXfX46xaA4y6h47IAclenYEalAHF2pqIQBXVSgH/3oR2U6WhTs1OzAYBjTsWPXR3IChaNklF9Xkl5++9vfTpQfFY91pFzes0zWMY7WsZ6cuzPfoIreXTaVmVeuIbDuDKe8qai3m47rBoO2u26pMC3DIghrLJ9toWM86xi2bdtWhtfXXdRHr/MRDdY5ak46X+8eRn/n6Na+O6UeVo/Lpu2FcUwTHeIV3f3dZdXv+y27X3m1XmX3Gxa6y+oe1z1vLdaLawtcnwgxPMqq+xHjQyyDYYOWt5AMukbh06MaSbQEaO1ES0hnzqdHNe9w+lRfw9C5ZVBoJMUFYs0Og0JSyqCQlDIoJKUMijlw4sSJiRt96F+zZk3p16nPg+c5uGci7iOZKu7f0LlhUEwBd/ZxlyE3N8UNTvWNTt39TFvfDYh6GDf4cDck77kBaO/evWU4mL/7bkGG9Roe69VLr3G9ykCUn/Uzb7zvFuNrDIvtrsuJ4b3WnTK4SMkNWHHna8xDOb2WEcPorzF9rX4f6xW65+1+v9D964eapvOvy0OTBy1UHNX279/fvPvuu81zzz1XbiPmivudd9458R0+t2kvWrSo9DP8ww8/LHcLsiOuXLmyHCHB0fG8885rfvWrX03s3HzFRzl03FZNWaCfceyw3MLN8g8dOlTudmRaXgkYhrEsKlToNY7yuDX797///UTZcZci0zGOlg3L57ZslsGt1Kwr28HnAMbxrMbY2Fh5j37rfeutt5ZXymd+PrfXXnutPHH73nvvlc8gPqPAZ0yQEhasO9vN58n6RFmxTbzGerFcxtd3ZzLs/PPPL2WxHO69YB1oebB8/l/5/2S7CSXG8ZkwLetYf6YLwc9//vPmBz/4QXNfdRv+hLjz6rRORWcnmnhiETzxGE9ZxlOXiCckeVqSuwUZX0/Dk5c8OcpTj93jQD/jmC7Espm2s/O3Q089jcowxsVTkfFUaugeR9n18mJdazGeeVkGdyzGsnhSk3nop7x6fVCXHdNQPvOE9e1TsHw+sW6otxmx3Yi7L+thYH1YP15ZHthGnkqtMV+9Xbxn2Tt37izDwLZ0WhdlfJTFa728hcKnR89A/WxA3d8L59ecW3Mko4sHljgy05rgSMb7Xhhe3xdQP8xUP/MQ/Tw0xfpQJkfWWvc4nsmoy2Zcd7Ofo2kMiyc6WVbMx/qzTd/4xjfKutXY7sD0lMWwepk8/Bbq7Zmq7vWPZcZwhtHV2A5aeny2fJa857VePtvSCYb2nfoxKAaIB6aiwsYPpLBzMoyOnZBwAE1uKgQ/aMOtsBdeeGHZKWnyUnlpzlIGw+rKBcqMHRpUyEFNX04v2PF5wpP+Wj2OCs460ZyPsgkPmvI1lkUznuH0RzMdfA7xQz2U210hCcQomzChfD6LztG7DGNc97WFs4H1im3vtBYm1qHGevNka2wv28a0iPViO9mGCNzu4JVBMRAVgsrBr1HxdGJUHFAJGc5FSXY+pmWnZIfjSE6l43oFqDQMo+LwNCPTsuN+8YtfLOOjXMqkgjIt4snLermUH/OzDNar+1Hwelwsj7IZRtkEFetao9IxHUFAaNFFUBFyBBzl0dKIShcYz3ozHsxH+YsXLy7LozLHZ0THNoR628D4GMZ0sb31PLGuLJf1YRkEYa8nVfk5AAIhtoXt4xoL8/B5UAbbevvtt0+UxfTd67XQ+VDYNHD0ocLEhTsNP//Pps6HwrRgERKDfnxHU2OLQlJhi0LSGTEoJKUMCkkpg+Is4R6I+fYjrbO5TXwlyfLOpV73R8zGcucDg+Is4Tv4uMHoXOF7f3bs2TKdbeJ+kjPBtxMsb6qm+1lwg1vc9FXPy/0f3Te/aTIfCpsibhr65S9/WY4+3KBDBfrmN79ZdjJuzmHHY0fnxh76uUPxwIEDzeWXX15uDmL+ePiJ8fHgExWEuzAph/m5sYiHlXgY67nnniuvlMGyKZPlL1myZOKhLOZhGv683r59+04bxx2IX/va1ybKZT2Yn5uvmJYHrlh3ls268sBVrMtUtilwpI75uJmJh7i4b4E7Vuv1CaxD93gqMbdbcycpy7juuuvKA3T1tEzHOPT6LOrPmM+VbaYM+imPB8FQz8s2sy1f//rXJ7Z7oRr0UJgtiiniKMQzE+xI9LNT81USFT5uIwY7G3coxt2J9LNTsqNHM56jGNhhGUY5v/vd70q5zE/FY+fmTkOWw/RR0SmXgAlUZOajgsby4iYj1ouyY53B7cwxLctmOtaP+VgGdyjG/KHfNgXuPGWduGOTuz43btxYhjEtLY04kod6fKwvCDu2mfWIz4gnO2Natof16vdZEGaUxfqyvZSHuMW+37zxf8D/byxXpzMopoidip2JikBFZmeMylRXhAgDjuZMx07JDsu8seOyQ3MrMePrW4jZiQO3f8dwwoDlUhbD6K9xmzLlEQgsh3JZJ6ZnHZmfjnVj3piWShmViMoYw7lBKYaje5sQ24JYH9YtlluXVYdO9/iXXnqp9KN7m/mcmKYuC/0+Cyo/68gyeK6GV9ad6UKveSM0Ijw1mUExQ1SsqFz1MwbshOyAMZ6dj9+TYDqa1VS0eFaCaesjM+EzE3UZgbIJnlgPAqR+ghP9lt2rvHqb2N76zxzWWG63elhdaUEY0PWTrVeNz5iKzmdM5Wd6goP+Qeqwmen/wXxnUMwARz52RnYqmsP1js4DS+ygPLoc42Pni4e14ggaTW/KilODQdihOTp3Vyzmj2Y5pzNUZMqmksR4KhAVlorKshjGaQEBAsqM4axTHX6sb79tCszP8imfaWnC854y67JiPGXEsvph2u71DYRer88iKj2vEc7xeYd+82oAbuGe1GmSTlO77TulUwknflQF/HBK9IPpGd+pUO2QU9N0l8OPpMSP3TA/0/PK+xDzMIz+ehzzxg/ndC8vyq7XC93rxnTxwy2xLpjKNgXmYXyMGzQtusfzYzexXDA+xLSxDER/PQ94Hz/k0/15R38MZ9r4zOvhC5V/UnAeiyPjmTz4xPy0AHzCcmHzWY95jOsQfItxJuL6g9SPQTHiOP/mW48zwbULrmlI/RgUklIGhaSUQSEpZVBIShkUklIGhaSUQSEpZVBIShkUklIGhaSUQSEpZVBIShkUklIGhaSUQSEpZVBIShkUklIGhaSUQSEpZVBIShkUklIGhaSUQSEpZVBIShkUklIGhaSUQSEpZVBIShkUklIGhaSUQSEpZVBIShkUklIGhaSUQSEpZVBIShkUklIGhaSUQSEpZVBIShkUklIGhaSUQSEpZVBIShkUklIGhaSUQSEpZVBIShkUklIGhaSUQSEpZVBIShkUklIGhaSUQSEpZVBIShkUklIGhaSUQSEpZVBIShkUklIGhaSUQSEpZVBIShkUklIGhaSUQSEpZVBIShkUklIGhaSUQSEpZVBIShkUklIGhaSUQSEpZVBIShkUklIGhaSUQSEpZVBIShkUklIGhaSUQSEpZVBIShkUklIGhaSUQSEpZVBIShkUklIGhaSUQSEpZVBIShkUklIGhaSUQSEpZVBIShkUklIGhaSUQSEpZVBIShkUklIGhaSUQSEpZVBIShkUklIGhaSUQSEpZVBIShkUklIGhaSUQSEpZVBIShkUklIGhaSUQSEpZVBISi0ab5rOvy7jkwd1O/x/Djf/441/ak5+eLIdImkurf6TNc31l/1Zc8F5F7RDpmf37t3N5s2bm7ePHWuHfGRGQbHz1eebF36ys30naViMXTTW/N2GJ2cUFoOCYtqnHu9+8K4hIQ0p6ict/bNt2kGx/xcvtX2ShtF33vxO23f2TL9F8bt32z5Jw+hcXDf0Ww9JKYNCUsqgkJQyKCSlDApJKYNCUsqgkJQyKHRWLPvj5TN+xkDDz6AYQXf953umVCl5SGjswrH23WBM+8gX/7Z0f/kf/6pZ3qn40/FX/+m/NBf8mwvKfP/hsuvboZovDIoRtPyTyyfdfXfFv72yVNAIBl6/cM1fNMs+eVnpJ1gIg36V+PrO8Bdefb554Nt/0xz4xf7mK5//6+bKTpmhu/xu//i//745+YeTZRlXXnzVtINGw82gGDFUwO6QoBVwVaciL+lUYio40xAmVOrlf7ysTPN3tz7Z/FHniM90X/nz/1qG1cYuXFJ+OgBH/u+R8oQwwUDA9Cq/xvu/pEXRmfb6f/dnpWXBU4yaPwyKEfPJTgU8/Nu32nenThl+8usfNzt/srM8DHTg5y+VCs5ThFR4nvQtz+eMN82r//Jq8w///A+dlkOPp38Xta+tCKPV//708r/zxj+VZdZinVjmyd+fbP7xn/++LEvzh0ExYjh6H+0EQFjzJzc2V3Sa+ly3oONU42edlgGV98h7/9JO1TQP7Pmb5pbrN5TWQXeLhDLf/eCd9t0pnIpQDi2EaGmAVkmv+WOdaEl0j9foMyhGDOf/HLnDyQ//X/n9gadf3FqO5FR4Kvapyn9quri28PSLT5WfCejVIjjy3unhc8F5f1RaBZQfF055/fy1f1GuYdQ4zWFZLJNWjOYfg2LEcP7P9QBaBlxs5DTilutvLe+59vCTtsn/Xud0Y82f3th8/povlKM903zlz/+6EwJrJlV0yqHlwPhH1v9tJ1Q+2fz3//nfyrju8p/+X1sn/dQA1zcICIbToqAczS/T/im8pzpHru4dTdJw2XPXvrZv6s7qT+FJWngMCkkpg0JSyqCQlDIoJKUMCkkpg0JSyqCQlJp2UHBnoKThFbfcn03TDgpu9ZU0vPr95siZmHZQ8FwA9/5LGj48a7PhHNTPaT/rEfb/Yn9z4BcvnfYko6S5s/pPb2y+cPUXZnzqMehZjxkHhaT5xYfCJJ0Rg0JSyqCQlDIoJKUMCkkpg0JSyqCQlDIoJKUMCkkpg0JSyqCQlDIoJKUMCkkpg0JSyqCQlDIoJKUMCkkpg0JSyqCQlDIoJKUMCkkpg0JSyqCQlDIoJKUMCkkpg0JSyqCQlPJvj55DBw8ebF5++eX2nc6FxYsXN2vXrm2WLVvWDtFM+UeK58DRo0eb5cuXt+90Lq1atao5cOBA+04z5R8pngO0JjQ7jh8/3vbpXLFFcQ5t2rTJwJgFW7ZsadatW9e+00x56iEp5amHpDNiUEhKGRSSUgaFpFTvi5mSVLFFISllUEhKGRSSUgaFpETT/H8Lg/wASLQ8zQAAAABJRU5ErkJggg==;" vertex="1" parent="WIyWlLk6GJQsqaUBKTNV-1">
          <mxGeometry x="97" y="319" width="29.77" height="63" as="geometry" />
        </mxCell>
        <mxCell id="YcHYLUiHtxIJwsrw_Ox9-14" value="" style="shape=image;verticalLabelPosition=bottom;labelBackgroundColor=default;verticalAlign=top;aspect=fixed;imageAspect=0;image=data:image/png,iVBORw0KGgoAAAANSUhEUgAAAQkAAAIzCAYAAAATYewyAAAAAXNSR0IArs4c6QAAAARnQU1BAACxjwv8YQUAAAAJcEhZcwAADsMAAA7DAcdvqGQAAILeSURBVHhe7Z0JgB1Fnf9/c09mksk9CSRAEgIhJBxyhStIAiIKwYuV6Cq44rHuLiiu6+oK+3dVRF0PhF0RAQVxJQiiGFCuhBuSADnIhJD7PieZzH0f//5Ud830vLzX3fPmzWTem9+HPOa96uruOn71rerq7l9ldYg4/xRFUeKT7f1VFEWJi4qEoiiBqEgoihKIioSiKIHEnbj8yB1Xed8URRkM1O6slfULNsq27du9kC50JKEoSiAqEoqiBKIioShKICoSiqIEoiKhKEogKhKKogSiIqEoSiAqEoqiBKIioShKIP0qEsUFxTJn+lw5Z8os8z2I0mGl3rfuTBoz2fumKEp/0K+PZd/9mXvk+XcWydiSUpk8dop89aGveFu6M3/WJ6Sjo0MeXrbAC3FEw9nns7M/Z/4m2k9RBgJ0hMX5xfLEqoVeSBd0jnSSk53OrrRknAnbUr5Zlm5eKlsPbDG/Yzlu9HHOfkMlNyfXCwlnX9Ve2Ve9z/sVzoB4LJuCKdtZJguchn/nc3cYabKjhWvOmd85skAE5pw0t5tAwA2XftnZf7Xs70HGFeVIQCd3/UVOhxYzGp47/RK5+7p75EbHlvk+eexkmTlhpon/s0/cbmw8dp9xjpC0tLdKVlaWjB46OtKnpqHaiMrwIcO9o/SOfhtJzDttnhlB/Prl+8zvnzqFcuezP5f9NftN4fz6pXu97zfKml1lUtdU5yjsFhNm4RgkNp5CK8qRBHsGRrmMmGnsX7z/8532ixh896O3yhZntICt85fRRl1znekg5zod4zWOWJQ5tn/LY98y+8CJ46fJsMJhcvO8W7yQaHzm3uukIK9AKmorpLW9xQtNzIAYSSx+d7HMOv5c+cYV/2FEgeEWBYgY/ODJ75vvDNMc3ZLFaxfLladf1Tm6sMyYODPhkExR+hsaPmLA6Bd75pMIGj92/oMnvu/Y8SlmRIGY/O4LvzdtYp9j/1984POm40wl046a5n1Lnn4TCcQAZUVFn1j5F6OkhPlh2AVcfphCd4ZjfkqHjXMuN7pGFopypLAjgxve92UvJBzmHWY6Hd18x76x/wVLH5KFTlugM7x+9udMe/CPnFPBkPwh3rfk6TeRQG1RXQqBYRVCATM8NaagHnYKbc2u1VLvFVasiHCMVBeiokSFeTV6/itPn+eF9BxGyVyS3PmcO2JALPjNJUasvaeCNTvLvG/J028iMWvyLPnGlf9hhlhrdq42hQU3OkqMulJAhPFhaLa1fItRXrh+9vVmP67f+KsoRwI6Mj6Tx0zxQpIDYaA9mAlOZwTB3ARh8Whta5UdFTvMiMO2j7APo/XCvAJpa2+ThpYG70jJo56pFCUiXGIwCn5+7SLTgTGXQIfHHTsuPejomHf4rNOpcXuT0ULQ6IDLDo6TSCCgMK9QThx3orQ6Db61vdULDSc3O1fe2b3G+xVO0MSlioSiKOq+TlGU5FGRUBQlEBUJRVECUZFQFCUQFQlFUQJRkVAUJRAVCUVRAlGRUBQlEBUJRVECUZFQFCUQFQlFUQJRkVAUJRAVCUVRAlGRUBQlEBUJRVECUZFQFCUQFQlFUQJRkVAUJRAVCUVRAlGRUBQlkD4VCdyP40X4sxd9zgtRFCXd6DORsAKBG3LpOMwht9JLKNcrT0u8SAwLGbESWuwCtIrSU/pEJKxAsFTf4rWLOhcJVoKhzP50w+OusIbAymfzTk+89AHiwOIviEUsnIf1WKPAqlVHakGkI3lupYuUi0SsQNz53B3eFiUIGjPiwGIuNI54THLKlDiUcTwQBrb3ZPTAsewyi/b4fsYNG2e22zgWvhM3Nr49HnA8P/b48dIXu43jJDq30r+kdHEeKlIFIjlYUZ0l31gjlRXVP/WrT3pbXAFhtSjKFRHhw5qoNB5WogZGDVxesI16YGWoWY7YsMYkyyb6oY5YeJkVptiHEQlLKALHZNtXF3zFHIfVry12WXzis5+Fc7JyFStREU5a+E56P3Lnh0z6OSfL2QHHve9lFo5eeNg24BzWliwsX2fXz1RST78szqMC0TvmnXaVadiL311sytLfQ9PwaEQ0HsSDBkk5WxAY4rAGJNsRjniXGYngfOzLqu/sy2/mOxCLO7yGSWPn/ByXZexYm5Jz8UEQEDE/ZTtXm+MBdrGlfIs5NvFZGNqsgemcxy4YzaK5bCvbtdqIEILkP7cKxJEjZSLBENn2dDoH0TNoeJPHTjZrTNIwaSBzpl/ibRWZ63xHeO2IgEbJbwsjBrYtXLXQ/OYYLGsfFeLbxZn5zoe1LOPBQrfASAZx4mNGNU4eaOwWbIBwbMIdnewzNkL8fd7K8HNOmivlzrmANTbZ9uuX7usUB2VgkDKRWOYtfGpHFPxVomHvUox1GhoNBaGl4fvLkDA/sb9jy7s+ZntPsJceQSBc9oMQIFJB+82ceEq3fYhf7ogFf91Lpg5zmcJEZW+W9ldST8pEAqNlOGqvRVUoojPr+HNN+dFI+DCqoOzsBCYNiTgWts09uWuksdUZytNb+3vyc6Z0xU8Fti6pX+CSgfrmY0Y5zuVFrHABownCl25a0hmfSwficwnCZRUjCi5PuTzhWFx6KQOHlN7dUKHoOXZGn3kGMyfgfRAGelygQRLvp5+43cwHUK7+6WYuM+jFCbfb56WoN7aXA9wyZcRDumjI/OZcfG4MuJ2KTZB+xM/u89P5txvRQ0DAbmNehREH5wB7buY7GGEpR4acb4s4/7rz8Aemed96Tktbi7yy4WV5z3FnGKHgL78JVw6HUUOzUzZPePMJFi4XRhSNNJdxNKbn313s/B7hiO5QedUpT8Kb21tkxbblpmz5jSCzfWv5ZjMnkJebL2ucBldZX+kd1WVofrHsqtxpxHyos489jsW/nXNzWZCXk2e2cTzOVe+I0oSRx0i+c45fv3yvSR+Y43npsazft162OsfqTP/6l036SLfNG7YysniUrHFGGA8vW9C5zZ67ysmDHcUoqae5ulkOllXITVVVXkgXKb0F6geDpUez16uMMBRFGZj0yy3QWOylx9LNS8z1p6Io6UmfiQQgFD948jYzfFQUJT3pU5FQFCX9UZFQFCUQFQlFUQJRkVAUJRAVCUVRAlGRUBQlEBUJRVECUZFQFCUQFQlFUQJRkVAUJRAVCUVRAlGRUBQlEBUJRVECUZFQFCUQFQlFUQJRkVAUJRAVCUVRAlGRUBQlEBUJRVECUZFQFCUQFQlFUQLps3U3LKy/MXaYuyCuWYquZJy3iEzXx8TL7/quKIMRvMvb9VTNd+cD7iLO+9zFipzvLFJkt6WKoHU3Ui4SNHTWsJw54RSZOdFdwk5RlNSCcCAWrGuzZmeZEZDe0C8iMWPCTJl3+lVmzUodEShK/7J47WJ5noWbvXVUe0qfikRpSalZ7BVxUBTlyLJ081L59Uv39nhk0WfL/DFyYIVoFQhFGRjMci717/7MPXLNrE94Ib0nKZFg9GCXuddLC0UZeMw/Z77cfd09KZkT7LFIsEo4AqGjB0UZ2NjOvLdttUciYQVC71goSnpghWLu9Eu8kJ4TWSSsQOjlhaKkHzdcemPSQhFJJKwaqUAoSvrCHCKdfU8JFQkVCEXJDGjD37jiP3o8XRAqEtecM1/nIBQlQ6DTv+F9X/Z+RSNQJOZMn9urCQ9FUQYe3O248vR53q9wEooEijM/hQ9kKIoycJh/ziciTyEkFAlGEHqZoSiZCQIR9anMuCLBKIJLDUVRMpd5p82LNJqIKxK80amjCEXJfK50hCKMuCKhk5WKMjjgJc0w4oqEvpehKIMDLjfCHrBKOHGpKMrggOmFIFQkFGWQM3nsFO9bfFQkFGWQEza90G8isWDBAnnttde8X+kD6f7IRz4id999t+zYsUM+85nPyK9+9Stvq6KkPzzyEERKRMI2pLPOOksuueQSufHGG02D8vPlL3/ZxEsnyAPprq6ullNOOcWE/e1vf+szsUOIEKGeQLn/93//t/fryGFtQElPgh556LVIIAg0JLjmmmvk8ssvN40IwXj44YdNeLpSVuZ6Hv7ud78r559/vhxzzDGyYcMGueOOO0x4qlmzZk3nOaNCWccK8pGANKTjSFFxYT2chOAt+7BPRB566KGO0tLSDqcH9EJctm/f3jF37lzzqaqqMmHE+/CHP2w+U6dO7TjzzDM7fvSjH5ltFuLefPPNZhtxiPvqq696W11Wr17deQw+N9xwgzmfhe/+c3zrW9/ytri88sorndtJH9ttGv1wXuKQbv6SLuCYv/zlLzucxmy+x+adPBFuj0kZ+c8Xm2c/5IV9LXznvIn2d3ruzvTZdAFl4Ii3CWMb+/vL6LrrrjNhpJ04dltY2dj4nJPt5A04L/sQznaOAf664BNbF8rA4fu/vrXj2GOPPVwLnE+vRAJDmTNnjvcrGAyIDw0B4+Ivv/1Gb43aGT53M0grFBidNWC22zh8rDHb35yDBuY/x1//+lfzG8NlO+fheNao/VRWVnamkXg2Df7j0Uhj9+XcNoxzEP/aa6/tlmf+xoNw9rcQ18Znfxo3v8k3xOYHAaUcbBn4y+iEE07oFAO/uCAm7BNWNhw7XlooF7aRR36zjWOBTQdhsXUxmKG8KJOeYusyFsqb49lPbMcahZ//3+19IxLWaKJA3NgGRWO3mSZzxLEGBjRUv6Fi3MT394oUiN/4YtNEwTrXy+a73d8P29knXsHaNPm3+c8Vuy+jC37b83Gu2DzT+Ijjz4MlnkjQGP3Eihpx/Pm1aSYtFluOdjRkRcKfBn9dWPz5i60fjkk52PPwne1++J2oLgYrlDnlHFtWYbAf+/jr1WI7KwSfTzJCfO+j9yQUiX69Bco1vZ8ZM2Z439xra/jABz5g/sLw4cPNb7vNUWCZOXNmt+PYuQKu5+Hf/u3fzFwIcyLMlxCfuRJwjN38dQq182PnTZxKMH97AsctKSnpPK7TCEyaCXd6Z3Odzsd/Pjt5G3UewV9GwARq0L62rBxB6Dwnk6FMvjoGZrYBZeYvR7vNn1Z/2VAPxOdYTE7/+Mc/lvnz5x+WPj9BdTFYcToJY7OJoJ6IwzzfLbfc0lnXhEGiO2uU689//nPzodxTSa9E4oILLpCnnnrK+9UdMhu1IQTBcSw0QBplLDRIy9e+9jV588035Qtf+ILs3LnTGLstWPblGFSS/TDRyj727kVP4FiUgW1MNFCO54eG5T8flcn5/A20L/Cfkw/npFEnIqxs2Ea5/ulPfzLCwF0exMKKczyC6mIwQgeBjQQ1YsSdNkXZY9eUGW3A6eXN9vPOO8/8jeWee+6RcePGmY8VlJ7QZ3c3Pv/5z5uMxCYKcXCGryaDUbEjCNvggOPQw2GwQE9EAfrFB6OjENmftKDA9OwY5mOPPWb2sYZpe+EvfvGLpqL4YPwYcFCPGATn4ZiUAX9tQ7QCQtrsufznS5VIxIqmLUfObc9JmjhnPIG1hJUNZUrZkm7u7ixatMiUt3P54R2hO/HqgjQNVpGgbBl9IbKJQHCx//vvv9/UI+VMHSAutg3EE/qJEyea7fv27TOiTBlzvlTRK5EgIxgTmWdIiVHwQSAwEjIbFY6FETEsZUjLUIvjgL3lyK1IDB3xYbuNZ4exFCiF85//+Z/mOGxDZGzD+c53vsOEizkujdruH9R4wqBy2J8ysKMGCz0p56dsOJ9NN5WaKmjcCCflTu9uy5Fz2TIgvzRWyikRYWVDT4YgcFy7HewxKXuw+8WrC9LgL5/BBPkHGrwVSsoxHv4OhO+0pSBoH7QNIL4t+1SR820R518M3z48KBFUOupGj7lx40YT9sEPftAUhD+z9EgYr99Q2YcMWTGgoWOMy5cvl/Ly8k6DtcchLo2AAti0aZMUFBQYo2UuwMIwjeOynWOQNoZwUFpaauKz/zvvvGP2x4BvuOEGsz0WjpOVlWXSzb5g8zF16lTzGxjikTZ6YX846eb89nzE4Xz0rPGILY9458JgSIuNQ/k3NTWZzwknnGDi2nJ8/fXXO8uR+rB5iD0GhJUN6fJv5zd1Y49x5plnmnNyPvYl3F56Ed/WBZ0K2wcb+/fv76xH6uqtt94ydUf9WiiXBx54wNgT7YSy/vrXv27KDBhl2O9+PvrRj5r5Osqcfeiw7EgwKus3rZO/Lvyb3BRPkOLNZiqK0nfYOxXxcEZb5u4HH0dUzB0hG55oH47nCISJ79+nJzgdSsK7G1n8z9OLLtikKMoRgxEBI4HeXAr3hCVLlpgR6LY4d/n69RaooijR4FK1vwQiDBUJRVECUZFQFCUQFQlFUQJRkVAUJRAVCUVRAlGRUBQlEBUJRVECUZFQFCUQFQlFUQJRkVAUJRAVCUVRAlGRUBQlEBUJRVECUZFQFCUQFQlFUQJRkVAUJRAVCUVRAlGRUBQlEBUJRVEC6RdHuHVNdVLXXOf96luK84uluKDY+5U69tfs9771P0GrKyVLf9ZJMvRFnuFI1mM8+spee0qQI9w+EwmMcPHaRbJs81Ip29W1BmV/MHnMZJk5YaZc+Z6remVspPvhpQ/JlgNbTH6OFBiRyc/pV5m/yUIenlj5F6deFg+4xhIP8jpn+lyZO/0SL6TnHEk7jEppSanJ6zWzPtFn4hhGv4sElXHnsz8/4oZI45p32jxT+D1hf/V+ufO5nw9Io5o1ZZZ89qLP9diYFjri8PCyBUdU7JKFRnTDpV/usUAOFDvsCXMdUTwSYtGvIrHA6XkxxoEEQkHDigICcctj3xrQhkWj+e5Hb41sSAgeo4d057Ozr5d5zmgqCowe7nzOXR4y3ehp/aaCflt3A0McaAIBC1ctNJcNYaSDQIBNZ5RRAaKdCQIBv375vkijOzOCSFOBAOr3B098f8CM+lImEmQsSkM8UixwxCvMwB5e9lDaDE0pb0YIQZg6GYCi3RvIc1jj4RIj3WEejPmjgUDKRCIdGliQiNGg0q3HXRoyGRcmIqmgv2fmqaegxtPfk7J9mX9GwANhNJEykSjbGdxLX3naPPnpJ26X737kVvnGFf/Rq+stbhvNOWmu5OXkeSFu2GUz3x9YaTSoRIXOxF4QXCfa9POXCcSokPdzQuKTn0ljJnu/XGZMmCknjj/R+xWfZZuWeN+6Q2MKGzl944pvypWnz/N+uZA37g5FwV47Jwt5I49+RhaNNPUYxOJ3E4t5WO/LvAZ1ePdn7jF/mRBNFnNH4pz53q/EYKfkaYSTNz9h9YutMrdypEmJSDA0ClNvGi8N8ZY/fUu2lm/uNE4KittcVjQwUBoLYYmMlfv79U4BEocKMKLhfN99aFeo8i7dHL9RrQlpUMCxSf8Pnvy+Y2zuRCj54tx+EYgN47cVL8Lsdz8rt6+QM447o1MoKBfyv8vJUxCJhGDLgc3et8QUFwyV+ed03fmxZW7TF1s3/jzynfL49Uv3mt+xeYbY/WMhb5yPeIBAIJYb9q43vxOBAMazN9KDLQbBvAZ1CPy1o63YtCMApMuGkT/C+G3DSAO3ViEory1tLSZPc6fP6RQK4vemfvuTlIjE/up93rdo7PMqmEK6/qLPmQb/3Y/dan5TATe+78sm7Abnb6LbXku3LJWqukpTMXy2OsYRpUAxsHiEGVcs9kEket4s5+8pTjptr8JIiTBGG6TNMn/WJ0we4wnZofpD8rwzVEYoLpw628R73ukxw0QvkThvKY+WH0TTljHPI9hLLtJNeqmHb1zpjvy4s0BcRhBso+HY28uMKMjzFCfddADEmz9rvpQ75U09xoO8kUfyevqx7zECsWL78kh1Ea8ee1qHFu58jXPyx8eOjKhD6pQ6pF7JK2FDnb+UE6NDymSO8530h+WVtK3YtsIIxTmTZ0WuX+z6SJMSkahrqve+BYORUQncC35i5UJjiPREXFszC28VmhEHYfy1YfFAFIY6vSGs27vO/O1LqFhzuTH/djO/QUPY4oyKaFj3OT0UxkNYXVOtCWOG3fY05H3SmEmBE4kIBY17wqgJsn7fulADgihxgqAezH15p+GTbiv45IM8Ug/Pv7PI1ANDX3pAPv5hPXEZzY11Gk2R04hmTTnXa7BZJq4dbcSD9NN4po2fZgQv2YbeG+Y64sRNf9JOHQPpYrKb+po81g0jbdQr5TB57BQTBq5Qh+eV/fc5QsLxGDn2tu76i5SIRHFBkfctGHO58di3nM/NnT2gHdoOdYzMFhoGB/6wWOwlxnpHHFBwvvvnKHqKTUcQVDJDVHpfDIo8FHsiZRqZM7pw00uf6oZZo6Pxl5aMMw0qERjZhJET5JUNLzvxTjlsjiIeUdIdhC1frs0RDAvh/mPXO3lD8GYdf64RQ/8cFOVA3hkJcQzbULjLwGWcHYnEg0sMeuuVjlCMKBphyiBZki0L8kra+WCfsdg6tjC6iiVKXskb+SXeOVPOOWyOIh6JjtWfpEQkJo/pUtWe8MSqheZRYyaT5px8SWeviyFitIRRcbFYgbCXGP5LjzChsL1CLLYxR4HehWt5jIuRBGnlQ8+LkGCsNswabtmu1e5chjO0jWfMGJAdgnKdai89woQiUboT5TMepBtj9F+uxdYNomDzC1bkwUyS7lxtRiQMtxl1cDwaDN/ZL957InYOgkuMdc7IyV56RBGKePlOtkExKqJernEuGbChnhIlr/76pZztpUeYUIx1OpojTcqeuESBg+YEbMOgEGOhkK3Rcf3H9zUYZWfP3B2ORY+7PmaCi4pAOOLtY/ndF34ft5FGeVLUn05/fgiPTas/zB83UTlMGzdNdlbu7BZOI6J3DRqC33DpjaZnj4XjfPGBzx92Hj+kxW6332PTiiD7BSE2/f4yiS2HePv7iZc/9jnRKQuEIxGMxhLdVQmzQ4s/3RCb1th88d0fRnxbRonKyk8820Q0KusrzWVmIhLVb6rpl8ey3Wvw3t+XZ74iyu27ZKCXuNHp3eNB5YU1qoEIt/Iw3njc5wz7GRFkGkENB7uJd8mQjnC5evd193i/+pZ+eSybxp1o6NsTEJu+EAg7I58IegJmrNMJ8pNIIIDJUvKVSVCPQT0ro4ygeZ90IsozGP1BykQCuEU0UI2S5xqCGhTQ6NLFwBi+hhkRDco+z5EJkJ8oD28xFxRW1wMdBL4/LjOikFKRsJU4kCoI0cJooj4hidANdKFAIL7ppDMKjPDIf7rTE9saiHbYExAIJowHCn3iT4I5hQXLHop7Z6I/oTHxsFYyl0HcI+f5gEQTUUcCBI87CLz63lOoE67VB1J+osJc0vXOiKino9SBYodR6U399pZ+dzpjoZJ4NoJZXb73Bzy/wEiA26i9HRGQZuZHeC6C7/Huj/cHk8a6nrYYfvb2cs7kZ9OSfq2TZCDPPLBEg+ltnskndcgt9oGY5xkTmUc5xYx2e5vXZDliIqEoSnrQb05nFEXJPFQkFEUJREVCUZRAVCQURQlERUJRlEBUJBRFCURFQlGUQFQkFEUJREVCUZRAVCQURQlERUJRlEBUJBRFCURFQlGUQFQkFEUJREVCUZRAVCQURQlERUJRlEBUJBRFCURFQlGUQFQkFEUJREVCUZRAVCQURQlERUJRlEBUJBRFCURFQlGUQFQkFEUJREVCUZRAVCQURQlERUJRlEBUJBRFCURFQlGUQFQkFEUJREVCUZRAVCQURQlERUJRlEBUJBRFCURFQlGUQFQkFEUJREVCUZRAVCQURQlERUJRlEBUJBRFCURFQlGUQFQkFEUJREVCUZRAVCQURQlERUJRlEBUJBRFCURFQlGUQFQkFEUJREVCUZRAsjpEnH8xdBweFIUOZ7+mlnZpa2+X9vbkjtEfZGVlSU52luTn5Zi/PSVd8pksWU6Z5OVkS35utimrntLa1i7NLW1C0VBW6QK2kNOLfKczS5YskWuuuUa2bd/uhXSREpHAEBqa2qSxpdULSR9oDMVD8iQ7glGQz7qmVtMABgPZTqMpyM2RIQW5Xkgwza1tUu+UT7oLZ0/znQkEiUSvLzcwiKr65rQUCGhxer2quiZnZBDc8G0+B4tAAHluaG415RM2ImhwxKG2oSUjRlY23zVOfafTSKiv6JVIUJjVDc1pbxjYQV1jixkmxyNT8pksbU6+EYBEIBA0qkyDDiQo34OFXolEvWMYURpO5do3ZPMf/1d2vfq47Fu+WGrK93hbBha1jlDE6zkQkLB8Nu3dKgdefFR2PPoz2fzq36S9ucHbkhnQYBrjCAECEiYQ9fX1UltTJW3N9VL29go5sH+/t2Xgkyjfg4mkRYJGEzb0bq0+KO/87F9k/xN3yfgZ0+TQ7i3StHWlbH3qNwNyGEeeGpu754nRBYYSRMubT8gbP/qijHztp7L2qftl4tPfkoofzJOWgzu9GL1ny5aeHasn8W3csH0Qg9h6Q0CDOHjggDz1xJ9k3OgRUjK0WI6dcJQs/PMjsvzNN7wYqaW/8j2YSFokYhtTPFb/6j+lKK9DTr72Bmld/qLkvfWsVLz6lLS2O8O4fTu8WCL79x+U2267W+677xFZsOBJL/TI0NTaPV+NIULYUblXXnr4f+VgQaG83TRUdheOlHc7imXVtt2y7f5veLFcyN9tt/3S/L3vvke90GiwTxiLF7/eafD33fcH8zcKCxcuMn/DzkE7aW7tEkxENdElmiU/N0v+7uqr5dVXX5VHHnlEampq5B/+4R/kpBMmO8fr2hcbuOmmW+WOOx4wn7q6em9LOAsXLjb7Q5Rysti4Pc33YCPn2yLOvxi+fXhQLKhre4C61m5YLjufeUjO/vcfSu0rT8vBd1ZLdnuLM6Rvlo1lZTJp7kdlSMlIE5dK+tjH3i9z555njHzatMmm0hGMp59+WVpaWmTy5GOM4Tz44J+7hcWL5w/Lz8+TiRPHm98cu7Ky2vxOBFkqzM/pvAXGbH1QJ1L+yp9k19YyOWFsgZw5ZajUVVTLRccPk4l57bLxnXUy/rLrJDu/0MR95ZU35dprPyKzZ58lK1askZEjh5s0d6W/1UnjDpMHwjB+m/7Fi5eY8rFh3fdrkdLSMaZsdu3aa75z/Lq6BnPOV155S2bOPMHsx/6PPfa0E2+flJVtcMJPlKVLV8msWad3niMI7gLl5+aY7y1tzmgyRlS74RRcblab7Nu3T77//e/LO++8Y8r15JNPlqamJucSpFaKhg4zUUkrab/xxutMWkjr0qUrnbQ+46RzvSmD4uIiU4fkE0EkjLzz29YreeFYNo/kDygr9mHb0qVvm3Cb3yj5znHSneflOxPZuXOnPProo3JTVZUX0kXylxtBLcdh+OQpMv2af5A1D98vO5a/IVntrVLT2OR8mqW6vkGGecYBkydPNMZLBc+bN9eE3XHHb833b37zH41hYND0vjYMIeBDr3N4WNe+9JKIS1nZOnOeWbNOM8cPwhnodBI2F9FcVy2nj2yXU8dnyYaDbTL3+BGycGWVbNhbLyPy2qT50F4vpgt5xCgxVtKDQGKgbj53mAZBHKeFdebJsmDBE537+fNN+fBBCObOPd9st1x//d+Z8IULn+9sJOwzd+655ndP8ZdHW8gooqq6ygjE+vXrpbm52Xw2b94sO3bskOeee06ef94dwVj2768wZUNeyDflcOON15p8MgIj7ZTX9ddfbcSE8iguHmLyS5zS0tFmP36TR+rdFdtFJh77ECepfAebQUbTq4nLINY+dLfs2LpDTv34JyW/IE8qqiqlpqFR9lY3yPgZZ0neiLFeTHEq+BKZP/8KU6k33/wz8xeoUKBh08gxABs2f/6V5ntdXeNhYcTDgGhIsGXLLvPX9iphdMR5dCQRY8dPkO3l9ZJV2yh79tRLbUWDnDc+W/ZX1UtF4VgpPPoEL6YLvWFp6SjznXzaRg8YOpBOGgwNAuMGV+g2mHICGpLNI+Jiy8yPPR4ihPiwjxVJyskeu68YPnyEPP/CCzJ9+nQn3fPlve99r3zqU5+S7Oxs2b17txx73BQvpqXDlA3pIr22vkgrZYRoIHiUoRUHW7cW4tr9yP/+/QdMudl8s83aS0/QOYkkCHsiLWv4GNn30t9ky6K/yegPfUr2N7bLuvJqqc4ZInNv+J4Xy8UqO8bsr0Br+BiMG95hBAAYirqiMaozHsex2+k1+HBMDKsn8DCNJewhq/zT3if1HYVyYHe51O7aLqu3H5TKiiopHZolY664UbKyuw9RSQuGioFjvN3zxAjCzTc9PaMAt/evNw2DfekZgWOw3ebRCo0f9/i2/EaZMrTn4JwIUU/x13uUpxJnnXuhHDx4UGbMmOFcZs2W1tZWqXKGtCedNF3OnjXLi+ViGzh/+VgBIP+k1e0s3DwBomcF1+Lmq6s8uXSjbGxe/dt7QjJP5mYKSc9JtDvXo0xAJqJo3HHy9uInZMOyV+RAzlBpLHQuLwpHyMf/6xdSXDrBi+VCA7DXjMxHuI3IvS4njGvNyy+/yITbMODalfgPPvi4CeMa/4wzZph4v/zl7831OGHEwaDYFgYCMSS/60k7JqyCLq2ycvNlxOlzpabsVSmu2SVLdtXJsOHDZdyH/1Umvv86L5YLaeBjG2q8PJHXadOmmLkG0j9z5jQTh9EC8xk0eMqLBhObb8LZjwbGNXplZZWzfYnZh32Jw7k5Lumg8RBGA3LLaEdoGRU6ZZOb4/YtaETYQ2ijxowx8wZLXn9dnnzyCTl06JAcc+xxcrYjHrm5eV4shKDBfEgHkIf16zeb9JIH0k8YeWQOgjxQBpSNkxKTb/KDoDAXYSczGXlRnsxR0LEAoxDyafMbxTYKfPnORILmJJJ+LJtZ7er6Zu9XYg5tX28aUvGoUskrLPJCBy4FeTlSXNhlvIhEbUN4PqGlYo+0tzRK7uhjJCc3Mx/pHTG0oNvoqqqu2bzDEka7E+fggXIpHjpUioqKvdD0ITbfmUafPJaNqkZR1pHHnigjjp6UFgLB8Dn2eX1e9vFffgSRN+ooKRg3OWMFgrs+sQ2FsCgwDzG2dFxaCkS8fA8mejV+Gur0uJlUeEMK4hvDsCH53rfBS+xlmIWRF2/TZiqJ8j2Y6JVIUIDDivIzQigYQRTmxTcGJq38lyCDDeq5xKnnRBOVxQV5GXm9HpbvwUKva5YGREGmq5FgCEOH5IX2FvSYI4qd61In/mCCB6eGh3QEbMIGMunVauo7LN+DhZS0bKu4fCjcHOf6c6CqL+kivRh/kdMDYgj2CcIw2A+h4PJjoOczWcgj+Sp08kd9IqBR84jQUj6UK51GOglqbL4ZOQ72EYQlpZ6pFEVJT/rU6YyiKJmNioSiKIGoSCiKEoiKhKIogaR84tJ4cgp53yHd4DZYXm60J0zjUddUJ4vXLpLy6v1S11znhQ4MivOLZWxJqcyceIpMHuO+N9FTcGFn6ry9PY4xHVm4P8HTnvl52UnfzsSmW9s6Ij1+3t+QI5YBwD57c7u2z13qA56qMt3NF7fJuM3H7c8o7HdE4b6X7pWSIaPlpPEnyzGjJnlbBhYHa8vl1Y0vSEX9AfnkuZ+UmRNmeluCofHgBDfMvd9AoSfLJwAOdRqb2gJfZBxI8ORrUUFuUmLRpyKBKOBROF0MJRUU5OVKcWHwg0OMHJZve1vmn32dFOUP/PdWoN4Z5Tz3zt8cIcyRa2Z9wguNTzp7yEbowx78qm9sTctlIujIEIqoz/5Y+vQWKG+CDiaBgCbHePCsnYiFK/8i2w/skc9e8KW0EQgoci49rjr9aqfxt8nDSx/yQg8n3V3ok/YgD9jpKhCA5zA67TDfoz2hVyKBsXA9GkhrteTueUiatv5VOlqjOzcd6OApPJ6hcYmxcvvbprFFoaHmgBzcslBqtz4i0jIwXM2T9oO11VK2q8wL6SKKC30/9ZUbpHrbAmnYtyipy9i+gjzEmzfDP0ZPBKLOyd+hjf8nbRXdXfEdaRItD5EMSYsEihXFWFoPbZDadQukpaNYmlb9zAtNHutVqCfehXBEwicKNm6Ufch/bEU8vOwhuca5xIhCc8Vr8vbiH8rmDftk255sqd/Zd57CyUtPygyh+MuKx71fXQSNoGJp3f8nWfvGn2Rf+RDZsn6DNOx82NuSeqLUlx+qrS7Owjs9EcCabY/KjvVvSkvBabJh3XZpr17mbUk9PfWmRfuM4tE+CkmLRGQX4yUzZP+uYsnf8YzT+xbIvj/+ztvQhfVFacFTU6IKt3FxdhsVvBtZb1Bh2LhR9sHQ/J6ZuItxqK5Gxgzt8t8ZxLYNq2TUhPNkyozzpGjYaNm2t2vCCaMgr/j85K/fbVsykBc8MUWFS4+jhh/bbTTB7H6Y81tLW2uDrFj+rgwbcYJT781SMu40OVTTNQ9AesgXDm75i3eo3oCHrp4eg8tkv8gbL2RhI2OP9vpNcqBKZNjISVJ9cKezn8iu3Qe8raRnSbf89bSRx0L+enqMVF0yJe2+ziwMG2E4k52bKwf++JhUb1wlHcd/XI6avEtk9DneVhe3crOMezJcmOFqDNduFAqCsWLFO50u1SksfDpSCfyNjYMrNtetvOsrE5dluKrnuMTBOO2x/PviYo14uH3zgxu9IJgospNE6/etd4wlW44fG82nZknWemnoOFpqqw7IiLxNkj/0WBk6+nizzXVRd7pxPWe9PANu2XDdRlrJB/khzV2etI8x+5A34rLNzUOWOWZ+fq5xU+8vh0RkOf/trtwm08ZPM7+bW8IXKrLQ+wxpfVPqW8dIXuEwGdKyVgpGnixDSo422zk3+cPtHJ6tR44sMR1DbNps4yBefn6+KYd4eaY8bBnh3s5vM0HwUpe9td3k9LxR72RwB6Gj8jWpqMpxbEBkVN4WGXbM5ZKPm0YHXOmRrvXrt5j6Ix2J7Bn7x56D8kw+J04c5+X7SV+9BoNtRnnR7oi41LfkVL0qIz78Edn+ykHZueD3klM6w1GYrd5WF7xl2wViaNQ4gQXrGp8P3+ONLmLj4L+QxgH0nBgUUAn4RERY7LH4Sxj7UvA96Wkt/p5nS/lmOTbibc6qykNOz9oqY4aVy6GDm6Up+2gZf+Jl3tb44D0b48NvI0LA6ILywsjwFM5v9+O65SdfbOM7eeNDOeA81s3zE96R43PMqONky4Et3q/ueQ2juqZOcoqmyNjhlVJftc1RxFNk1MSzvK3xoT5w9mvrkjqiwdBAbHoJs06QybObN5ZcQBgrTD1Sx9Qr+4bhz1NPbnVu33VIsvOLZETxIWd0VSmFx14tQ0cc5W2ND3kiH/78kV5EgDBGHeCmO+uwPFMO7Gc9pkfJXypu3yYtEmFktVZI9Tt3S6sMk7HHjZfjxo+X1qqDUiOnOYo9wovlYl27u4XBQjF4Rcal+gmmAPnwPdZ9OoZiDck1Jq5LG0x8GgtrTWBIgPC46u5+2M55caRqK6m3cLkRhayOFvnD//1GsppOkYNv58s5l/6THH3SPG9rYlxhWG9EkLyzzABQXraMcCHvhp1uwtjmFz/yi1BQzrZsEsElh5+oSw001FZI2aq3pGHLcGncc6ycOvtzMm7yBd7WxNjGbo2fOgIafawN2HqLzR91y/4ci/36ghrn8mLrpk3Stv9EyW6YKdPO+pQMGz3V2xqfIFu1eSHtFlunhBHPMmvWqZ2dYF/lL5Y+E4nNT/xIyh76tuQUHyVZh16Rwu/dJSNmj5LytX+Q15a+6sXqwlXNJ03DZchFAVHRFnqJWPfpxOODsdsPhUoBo7yYNceB7sfqWr/D4t+eLKUl46SuOXjy7ED5PvneNz8vn/7Mdc4wvEnqs8ud6/dojnZJM+Vk85qssH3zm180ZUSvFMSOiq0y1CcUXH6EsWzJq/KH3/xQzpvtpG1YrbSVRJ88I3/+vCEKPcU9xhWm4THyCsP/3FEUt/nP/m2hPP2XB+SC914ke/e+JU0F0ToGa9M2f3xibTAetgO1sDob+yIytJcwUrEUQNIiwdNrQYw450uyZsS/yC23/EjKiz4uR089SU7+/ANy3Hn/KHMu+6AXqwvbw7ECFVCANHiGYKwTyvfYQnVHAid4k0O/7WzoHIvehb8W4mI07rHctRjY150Y/K0RjmTwV8LksZNl3d413q/DYfHcn3zvFnnPeR+QgiFFMnS8yNCpY6WifKMXIxiMg/QzEcYwFMNLBo5Bb+Qvn3gcqC2XSU6eLLm5wXW+a8d2uev2H8jZcz4pHW1VMvaEUc5lVKU0N9V4MYJhtEcd2YnMZPJnh+RR8gf+R+2Znwji5Reek0d/f7/MvvwfnJHyPjn5/WdLVdNuaW48/Do+FuzP2nNv7I2RIvuXlW10jtd9aYp4pEIk+tSlfv2ubbJ740aZ+t5LvJD+g8b/ve/d5P3qO4YXFUhOTldF3PzHb8lXL7vF+9UdZtJXvLlEzjj7POd7q+R2VEtDU7NkZRdLXkHXsocDhf9Z/GP5x7lfkNJhpeY3ZlFV15RwPqri4AHZvGm9nHUOQt8huXJIaupaZEjxODfCAIMJPTxpWZifqHTyl4h9e/dIe2urHDXxGGdM1eo0nmqpqa6V4uHHejEGFnTk+KCNQp+51A9T3qIJxx0RgXDnM8J7kd7CArJ+gYC5J18iz77zV+9Xd3CHhkC433OlLXuU5A8ZPyAFglHEiOJhnQIBDM2D3lsZNXqMJxBAMxo1YAUCYv2aIhpBL/GNG3+UEQhAAtuzRg1YgYBU+RxNWiQA/4cDEYZ18+bN8X71DTT4eO9vzJ0+VzaXv2saWbpC2h947S6ZH+f9DVbwinJLbaDDMDye4A3NkGUiWCsk2beWY+nVUSjogehq3k5o9hUIBM5SExnTje/7sjz65m9lR8U2LyR9sALx5cu+0m0UYSHLJUOcvKexUJD2RMNwuy2dhQJxwBlxqui11KDGpsGksdH0BISR/AZNCBUXFJtG9uKGp+TXr/wiLUYV9c318vjKR+SPbz2YUCAs1DVCEfWV+YEEDxeFucq3dZyONs0IgrSnkpQ6neERZT6pfANtIMDIwQ5Pe9oweOFrwbKHpLqhRniuZSC+FdrQUu80+mFyycmXRPYlYaGuqXMeaU7VC0WphvpjuUbqrqdDcGvTvNg2UPOHmOU7+SpM0pcE9IvTmVgyzTNVKuBhq4HomYqRTyqgEQ20WqfmEIlUkMn5OyIioShK+tCnTmcURclsVCQURQlERUJRlEBUJBRFCSSlE5fM/ja1tBsPRj3xPTAQYIaY22PJrs/ArUD8XpLtgXqrLAhu8eKSPZmn9AZ6vdtb2OQv6PmWRHCnDoc71PFArNve2i70+d0NCq6hqWcORAcyPVm/gPvn9Y2Zs6SAeVAq5GEjSzrWO+/b8Dh9lPwheHVpVrfJrr3Rp3c3KMiq+uaMEQhgRMAbrmHPevCQDW9FZtKSAuZNyNom4wk9iHSt95ZWt85YeCcIxL+6If2Wi4hquz2hVyKBoVCQ/M00TN4CChsjo5fJVPAajQjGI93rnSo1a1MkSH9n3adp/sJst6f0SiTqWbsgTQsyCuQtntt1wnEEnIjGmmqpXvSMtByq8ELSk/qmlriG1pN6b2xqlEXPPu39GljUOkIXb44BAYw691BVWSl/ezLYV+iRIJHtJkPSIkEiGNoEUbvhj1L+wk2yauvt0rR3iReaPHjzieLRJ2q8KDDcjH0XhR42qJEcevwxGdHeKo89t1wOVEbzypQqcGuGP41UQDtpjBHDKPXu58c/+L5s2bLZ+9Vz8MUZS6ryR15i16YIq9tYvnD9dTJ2bLQlFGKJV1fYbaryF892kyFpkQhb+KPynT/In5culO27l8lP9v5Cfr/1n6Vy0ZXSUuk6b/WDqzHceuG67L77HvVCDwfXZH6np7FYn4Zh8XpKbKNoCrmerS4eKnctXSKTRr8rHa/PckYUidfvuPnmnxp3bbgki+KzMJws4/otVcTmNeqCL9m1b8srf/0f2bN7t3zuC1/yQl0P5taRKw3ipptuNd+BMqDhWKhH+7t73aYuf7GNKGyuwpJbv1r++OBP5bSTp8lZ58zyQl0P1lbYaOzYtcX/3aWrrvz5S1UHB4kuGXtC0utuJFomzXJo9R9lW8dIuSv3m/Lf5U/LtEMdklvQIIXyonQUnCfZhV1ObVesWCOzZ58tl18+23wfOXK4WQcDwaDQWSuCtTQgPz/PFCIVwfoTr7zylvFVyVoG1vjwJ5goHuHEY00DvDGzLkKYFyvMCGcrwG2+sIaSP2GCbFj3ulw+4VcycVKJVLzzW5GRcyV3yOGvX+PXk3UnrNfnFSvWGh+crD9hlwHwp7eyssr4yiBfxMPhL2XDmg3EI4x84zDVHoNw8sh+GC5ixN9du/aZ9S7CfG/4124Iq/eOtiYpOvCA1G9+QG7+4Z/lB9c1yHDZLO1FThnnlZh1JEjP7NlnmTxQ/hMnHmX8lxLOeiv8pc5wHkQjos5IM4JBPllzwuaPY/A32fyRF16vti9JMWEbNI7Ibt4rQ/ffIfvXPCBfv3Wh3PeVfMlurZT2ggmSlTfMnIu0n3HGDJMP6gzfnaQZGyWc9LINj+bUFcJAmM2fXQOG41Dvbl1PNMdmPxvGvqzFQfkkgrxY2w3iiKy7UXzcZTK79mW59eC3Jbt9hGTnl8iexktk27Ih0vTGz6WjtctNOODgk0zjFZtGTq+C12MaEAWNsbjb3Q8N6vrr/85UAK7zrQtyvCwHxaNwCbvxxmuN9yoKPQz/8DMk24aSkuFy7Re/IfuaLpbmynIjFM1vfViaKg5fW9MP64+QPoyFxn/99VcbY/en1460aPxA2XR9X2/2tX8RWPbjY52v8pfj4lSX7ZR3GP61G8LqPa/hHWnf8Yg8/Zf18pOvvUemnTJThskayV8+T3LLvijD8l0jdNO5waSD/JFmGgJQJ9Qj9WkbCN+JC/78YSPkj5442fzZHJG1sPwxQjr0zkJ5YUmjPPW/75URR42VYY0LJX/NdZL37pdl/JghTn7c0QHpIR/kkzRjo/56sXWFwNn8Ecb+7l+33l3bXWzCiU8Y+XaFs3s7iqUnl06J6NXEZRAlx58rRSdcLdk175HVj98odeUTZNKoGhnjVPjwZ8qlo7L7kJHMYxDW7RxCQcFBvJ7ehhHHrjURj9h4FHx3j9zhHoeTITuvSI666E7ZUnuFtFRVyMQpI6R55aekraXRixEf8g2253CN63QTRnqtm3n+YoRAOAbEXz82rg0nPgbHcTkPRhuFHr2K3NEgBUX58unPzJSpYw5Ja9VmZ3TRYDxtZ1e8LFLrNgp3/YwOkwbyGJvP2LzEg/yRF+LaYXoy+evwNDDKZGVue7kUjyyVaz9aKiU5u6StZrvTElslp3mfZB983sn+TlN35Memwc3fBpNvsOkOw5aBW147je3aPLGNNTj6g6RFIorhjJ71RSk+q1hypjwqrQUdUjl2vry9Zp/suKjQGX6O9GK50HDdtRZcVbVqChRyqnCH6O41I0YVpafxO/ztyUMqCEXp+T+W7Y0fdISiSY464Sqp2vmmt/Vw6C2sIVn4jYEB5WGFgXB6TwySD/uGLdZC3u2xwP89CP9DimH1Xl4p8vsF78hT9y6SB3+6Up5+8G1Z9eI78srTu2T16wecS7d8Y+j33feHzrzSYBANK2rJknT+vOrlkiqsfpevPigvv7RWHvuf5+V3P3tbnluwSt5+ea28/NQeWffGfpGCo0y+6OWxaWvLCKJt9PEIGxEA+/ttIUr+eqLviUhaJPJCPGVbjp19gxz/yU9J4/izZMzEKXLhvzwsRef/UHKLxngx3MzbHtTCZQZDRyb17HDT9hr2rwXjcP+6jSUoHgZaXFxoGhif2PPGw/8obxRD8oNQjD73Z7J9+J2y+cBxsm5d93U5WHCINTRICxVvl3CzecLgbHopD/e3u/IY8flLD8x38g9d5dG1ViQjJvZDiJlA41ixix0lwv+odli9P/vqVpl4xf0y+WP3yoX/+nuZ8ulHpXnG/8rULy2XiV98R2TkuaZOODdpB8TBP6Kz+QD7nV7TLnmXyvxRn37hs3MviXhiSY2UzP61nPmlR+Wif/2tHP2xh6X11Ltl+lfKZPSnV0lH7jAvXx0mX0Da/aOa7ul2vxPXXUvFHUHbvxbKgeOSJ7ddRMtfXk7vXQwm/Vg2s8I8sJFuoNju0NattCjrc+Ds1++2rr6xNeknDfft2yfjxh05N/P2eh8wNL77G2Us5Nvv7Hig13ts/hhdBY1QeITZP7HHpDTPhwxEsF3mquyIkTtjdKZ0homItd1E9Nm7GxhLKu7D9jf0yu6wPcuofNAwnZ7Fv4ALMBmUyifa+hN6K4a/dpRlRy6JGDG04LCR00Cu957kj7qNfU+FKq2qb0rJhF9f4LddxM8KYjzi2W4i+kwk0rmxRIFh6PDi+C87MZJgRJHJsLhL7AI2kCn1nqiXTddRcizxBD4RffaCF0pl1igIuY5LRxAIFh9KVMiFeU4DchpRppJIICAT6p38JRqGMwczENeTiQq2S/qjCkQYvRIJYFKPNRiS8UMwUCEvjCDCFkWmEZnKyCCRxMCKChMLhCVd65264hIjLH8ICEP1dKtb6oP8RZmHiEpKnc4wTOMx0NY2XI+n31AUUaBwkzF88t3SiuOV9Mx7bna2yXdBXna32f4opEO9U7d5udnm6dGeQr3yuPZAz1+ytgt97nRGUZT0pk+dziiKktmoSCiKEoiKhKIogahIKIoSSMonLpnpZjY43R60YT4/O9udAU/G7TpwZ8O9w5F+T6FyTz0nh9W3k7t1xhuUrCze5tR/uk17U9s53t2PVD1bkG70y90NnnnHIUlU34ADGe6Ncx896r1mhBFnJZngNZu8FzhCEfVBMeobt/p4sMqEuk/WJX2606d3NzCMmvpm81JMJhgJ8NgxnrDD3MoDcXiEN1Pc6pN3xL6yril0NMjIybrVz5S6x1VhFJf7g4lei0QmNZBYaCxBQsE24mQi9v2MRI2/8/0N52+mQZaNy/0Mteue0iuRoJHQm0ShvQ0vxOlX6IhAPGOxPW4Y9a3Vsq9xm7S0N3kh6QN5rE3wElsUt/PN7Y1S3rjDlEE6UtMD1/qZTNJzEhgQQ9IwWlt4W9D529wkBYVDJCe3b16K4vVZv5OO2N+9gev02Fdu6UWDepoHXrxD6op2S3aeSF5engzLHymnj7lYThx5hhejb8Api/u3IWX5510A/+O+PIIdtDDRq2uek2UVT0nB0Gzj+DY7K1tOGnG2nFb6XinOLfFipR5b57wqHuQjoycwN5XJL/JZ+mROgpnsSGQ5vXFdlTQ31UlTU31CZcYRDE5C8CqEo9Cewr5+XCeoqXFNjiD6BSH2dzyKWkrkxVdelPKq/VJVe0h2VWyVP625R/648i4vhguN2fWk9ECnd6pkIb/W34B10ZcKYpcUaIz5HcvRw4+Vlxa9KJt2bpTKmkNO/itl6c5n5YHXfyQVNfu9WC7ucgLukgK9rS9rA/iUSBWZtHxlsiTtUp8VrIImttrb22Td5jfkB89+Q15f87hMLV8vHXk5UnFwjyNNhVI4ZKgX023Q+Ou79toPGwcwGDgGg2svxANvQ7hHt+7D2YYPQVyU44IcByN4jGZfV2CyTDziE4d9H3uMVaSyTHzgmLgs57frkbnLpVg8mOtmsVlgBe2weZiXXqyUjr/9UV6pWyfHFp4kx+efImeWzJHc9kKZdHSXH0tcrfO5/vqPmzTjLh236zbfrvv40WYbYa4LN5y+Vhh38bhft67l+U0vyv7WzTr7sJwA26dNm2zCiUN5cGx7HBs/HuTUem+iysM8Ny19c7e0PF0mK3Ysc0aOJXJC4WkyLe8sGdV6lAwdUeKMyrpGOHgwx7sSrtn+/d9/ZJyoIJQ2T7Z+/WGkFRugXKhvyokyIV/YAGVCfbKNMGwj7DhB+JcUyFSOiEv9xoYqGZpbIHOHTJGzC8dJTXObNG1dKi2Vq6Xq0H6pr+9a2YrKxO09lQi4FqeyqUAMAO9CGJHtbfhLGAbFd9v74toLsWGoyXfr7ot9OObChYvMd7fHbjD7c27rkj4If24ZSYSxYcMm+Vh5gXz0pXY55+AoGeY0ykO3/YdcdNLFXozDIW32r803BnzbbXd3pptyogHYPOBiHw9FxEUQ7P58d/d51MnnHFMmCCth9NzE5zhu+UV3yx7lGZCRw3Jl/MFG+edX6+S07UUy9uW1cuj7t8iM2mY5rjSRK7kuR7HkF/eC/vrFzaD1xGTX1bAiQJkQh7yBrU/icUz2YX9g1GaPQzxbZkH4lxQYjPT67kYisrIK5N13tzticoqMGPUBaRhzqWzLP1cq2mdKS3uuFBUN82K6Q+54oPasRYF4YOQYAkZBJROGARBOb8g2GhZrEsSCwREXoSEux7ANkOP3lCivC9/whQ/KwbPPl4s/8A8yri5Xjj7+TDnm4o/KpuWHGyX5/MIXbjYGaxu7KwCPmIbAd8IwbFsWlAHQMMgX4fHc8FkX82wj37HH6Qu37LPOni5j3nu+HPfJL8k5Q4+XCSOOk+mX/b3srzr8uRPqjYZLI3Ybu7v6GoLujppcr9C2/myjB/JCvsgL9cg2P/59KC9XRHD75ob5ndMqiekzkRhSVCwzT32PGfqtWL5cXnj+eVnx1nI5dOiQHHvc8V4sFyqLxmCh9+dDRWIIXWQ5YaNMQ7dQ8XgWxlBY1cl/nMR0eAbD/onX7PDjH2xGedBm8qSjpHb6ebJgTYe8uDdHNrYPkb15+dKadficA/lnyE2+yAcfDPnGG68zHxaboSz8+fa7U6chQfeyig/Hcde8cLHlEIQ/u1EfMnrPVVfKb95ulKd35MjqhkLZkZMvHUMO35e8knfS5daj6wnc5p0RIA3c35EgdsA+Npx8+OMkwo3nlleUvEOyT+BmCkmLRJjXJhh/1DFy2fvnySXv+4Bccun75QNXfkguff+VzrVgvhfDBUOg4ulRGGoyIsBQaDy2pyHcHTYf4xjHqM4w2ysAowh6ZWtEicD4GMYy7I6ydgHw2K6Fx3ejcOn8D8tpV10ocz7zcZk4Z56Mm3O1HH1a/LsbdnRA3t0erqMzj1Y0bFmQdutOnd6XOOQlLN/AceyxOU4UcEhj4do8ilBMPfVkmXHZhfK+z14tJ37gQ3K0M4oafa678FI8sAGbHsqBURS/yRP5Z0REmgm3jZvRw4IFC004lxYITBiM1CgvjhNFVGGwi0TSt0CZ3ec2YDqCcdAoMT4MDoOhNwvC71SU4uGpvHR0BGuH865YuNfoiCtlkYhYh7G9WVLgSEMnYi8zsANEyF6+xIPOEH+emU6f3ALlvrl/Zat0ggZBb8I1L70VvXEQNBB/78nXqO91DDTobWko5BtxdIf5iQXCvMsRk9eC/PTMO3B5Sd6pe0YfVjASkc55TRW9esHLPLsf4YGqgQqjCDufkQgaSezaDGBGEwN4fYYwuHRhVGEv1RKBx/B4b4aGPbI+kImad1YbLypIX6/ZPaHPXvDiWi2dXY9H6UXjCQQQhLfodL1/Tr7DGglPGiZ6dZwnEXljMh2JkndGyoNFIMLo9fUCQ1HTkNK0sSQCI0kkEBYjIo5QpOulRyLsmiNhbueHOh1EJj6yzAiCuldcUjKpQIPi3QZGFf5n/NMNGgc9JwYSJhAWhIJ8Ex+x6Kk7+oEEdUejH1GcH9n5DEJC3Rc6eU/XOSqgHskDE9Q6guhOyj1TWdLRM1WqGjjvp6TbTEUUQYzKYK77dKVfPFMpipK+9KlnKkVRMhsVCUVRAlGRUBQlEBUJRVECSenEZV1TnSxeu0i2HtgS2fdlKmhsqZcZE2bKrOPPldJhpV5odMp2lcmyTUtkf81+KcxL/HBVX9LbPPAuDR6kKPZ09MvIg3k8nJXMLXTyiyMgfF305xOwvUnzQKPP724gDg8vfUh2Htor7zv5g3LMqElSlN+/jW3d3nfk1Y0vmGcVrpn1iUgNbYsjZguWPCRHDT9Wzp/6XhkzdKy35ciQTB4Q4/rGlozxWM7zCsOG5JsGGAbiwJofR/plM/NQXcTnagYqfSoS+6v3y+3P3C7zTrtapo0/2Qs9chyoLZf7X7tLvnLZVwIb2cKVf5F1ezbJ/HOu63dBCyNqHnBIixvBdBw5hBHmgJYRAx67B9K7MyzqY938pRt9dgvUCsRnLvjSgBAIYDTwmfO/ZNLF5UM8lm5eKgdrquWzF35pwAkEkId/uvhf5Vcv3JMwDyweg8fqTBQI4AWyxgRLFgxEgQAEG+HONHolEg8ve8gIRNRh+pqy1bJs6WuyfdsWL6RvsEJx74v3eCFdIGyPL39crjr9ai8kGjUV5VK7LXUeqMMoyi+Wj591bdw80DgwyDAaGlvl1bI6eWFVvVTUpN8bmwhFvKc36wmPIBD19fXyzjtr5Kkn/iK3/de3ze++JpNWsrMkLRI0NlQzqkBUVlbIxg3rpK21We7+xZ3S0McVRrqYa2BS0o8Vtp7StuF5KWqK5u4sClG8SCXKA+UepZE88cf7ZdWWDtlaniePvNQk67d3OR8Oglfoo7p2s0TJT0+hrTXGiCH5jnXxH4/lb70lV79/rvzzp+fL9771DXnisUekviHcvV1vMWluzqzRRNIiwTX9pSdf4f0K58m//EkOHSyXrZu3SGFBgVNhdd4W1729dU2Gd+dUwSQqdy38VDXURBK2LEfEcrZsNt8XPfuM5Jz8Ack+sbsHo5tv/qngNg4HNjhy6Qn33fcH71sw5IE7Rn5YnDeM9saD8vGJ/y21z90lO95+Vfbv3SrPLT38epP0W/DURF1Y71U9gbrrC2LzGrUBVlVWyrhJU2XeJz8jX7/1x/KFr37d29IFNtcXZNpaHb0aSRw76jjvVzCLnn1KRo0cJYuee042btwgF825REaP7mqoOAHBX6HrIarD9Er0ZHgQoiKtc1v+8sEg2RbW2zFk31juNnTgbsbIomgjn6L/u19q310ri575m5x19tkybFiXd+8usoy/zG9+84umcYE/3VY4CCPN/rxY2C+oFyYPNQ213i+3J40yishqPSgbtx4t71//iHw0+0dyYNdKOW5k13Esfue6QF1YSBfptfkJSifCYvNo4/E3tizwBkWebR36zxcPeua2tq78RnZvnyVy1733yVf/9V/lqis/KMcec/i6Kvbc/CVdCCb5JX3Umeu96gnzGwHlO+nGSXMQpDkdXRsmImmRKMgNdzoKi597Wn7/2/vlrTeWyeixpfL5L90g751zqbe1C9yKUTGux+ghxoBwWorvSZzVuh/X1Txigl9C4oQxxPfcA7dqw4Qte+cOGfKr/5Waulp5vrZKTp00RYaPGOltPRzSTLospAnv1qQbgyPdGBbpJYz0sw9gfPzG32YQ/mdOohpfh+TJ8L82yIQLCuQ9F9XJDy78sZw6pWtBJAsNhPUn/GtQEEYDt9vID2VOPgijwdsGZBs/4dRXVzxXNPxlQZyysnUmPvFwHcfiPGH4hSF6/rsT9JandaKL4OOQhjzhlAbnvMA2fILyG/sMW8gJogh5utCricswXn7xefnrwsdl166dMtwZOXz/hz+R8eOP8rZ2BwOlcvCIDVSM9R7krpngur63PgnDGpYFYYhKVmODlHzkfbI+J0tef88ZcvaJ06T07l9Ke4L5E4weA6OxMJqg8ePF2nq7Iq2kmwZj84JY2O80HBpWX5A9dLIsmXGJ1E/bK2+u2il7ao6VY6bM8LZ2hzS76T5c+MmD9eREPeCOn7+sd8GH78B2v8cn8u0vC+rLeia3jmc5tl9gE5HUa9y+Nrq6bI2s39g1ooyFSyt/mixup3XQ5BMQdfJr8zhYSFokeEIwiK3O9fyfH/uDLH/rTfn4Jz8lN3z5q1JUlPh249y555uKsi7ybU8GGBdrarjfXaOyvXEY40rGed8c4Skolu0V27xfh9NRUCjtjkDsfn6x1FfXSP2rr0jb//uOZCdINw3AeppGCOxfC+mm16Hx2by4owf3OwaJyIThbyNRH9hZu3y1vPbEC7JzVYM07mqWf/rRXvnmf97mbe2CNFPmfOL1kHakAIwqbMOnjqwwxIP68peF2wO7wm7FgrrkeGH4n6uKIhhP/u1pWeh8oLKyUv77B7fKHxf8ztgfaUKc/ZB3mya/XbmjWXc0QTjptWISRpbxUpEZJL0W6Pp96+W40VMlLye+F59nn37SEYk/ypduuEk+fd1nvdD4UAEYHGtSWqg4hqus18kalrNnn9VpsPwl/Etf+mRCIwUeStp84F2ZNeVc83tk0Uh5uuwpOWfy+eb3YTgGWHna2XL6yuVy9LtrZURjk2TN+5C38XDogVh3k/RheHYNzgcf/HNnuhEC/j744OMmDvkkb4jgtdd+xBgeEB6P+uY6Kdu9XGafONv8ppFwdyNoMFvb0CQ/+/GvZFXpqTKxqk7ai8fKypyLZNO7y6W1+oCccc45XsyuPADi1dLSatLCX7dss4w4MFr62Mfeb9IeD/Jjj8MxZ806/bCyYLttoPbyhjIIqkPgISUrDu1tHYHzEuXlB+S/bvkPqa0ol0/8/adlyJAhUjSsRD569dUyccJEkybObddcJV2II2ujkja2A7bIGrLYpv1QJuvXu7fvE9UXkNSiNPP9GrQWaNJPXHJb7o3NK+RDpyd2R//u2nfkpOmpe8iKiSWUPaiC/PCIc+nwEZ0iAfe9dK/MPuH9gXc4Wvftl+y1a0TOPEuy405Y9h/kAfd4c6d3LUcYZd2Lg+telrfrj5HRTTUyrmGPrB1xguRWbJWK2kq56kMf8WIFQyOmcdjhdirgjtD3vvdV71c4PKLud7YcZb2XsrVr5biJExNMNvc9sWlOB/rkicuZE2bK3qodprdORCoFAsJ6HD+ka8nml7oJBMw7/SpZuCr4NmvuuFLJvnjOERcImwe/QACOWsMuO0ZPmy1z3jNJTj33FBk35zK5+D2T5cJL5kQWCOAyqSdlHoWoAm+JfTSbl6nCXqiaOX36ERMIyDTnwL2auLz+os/J/a/e5QyJg+cnUgUz4lGNjHR9+bKveL+6KC0plROPmiqPr+yb+/qpBDGLlwfjtLWg7z10Mwz3T+SlAu4gRIXGFk8Mhzq99EB9mSpRmtOZXokEDe7zF39e7n/tF4Ejiv6EdPzv8z826Ur0ctS80+Y5lZk3YIUC0SUPF554fsI8FOYFvwCV7pC3RC79zZuivHUZ4U3R/iQozelMSl4VN+9DrHhccrML5YKpF0d+VDuV0LCefedJcwl0/Xs/F+k168VrF8uiNc/JucdfZNJ9pEkmD0ximnccMuS+PBOUQ5xREiIYBnnmXYnm1iP7mjxpLi5MvJBROtDn/iQsTGbyCDFPyPXnSy6MHo4vnWIctjBX0lMQi6Wbl0hhblG/ptsPeRg/YpyZf0gmD4hFi9NYePAq/Rz6i1m5nLmGgrzszjsZUWEyk/y3Ynf9mPfepHmg0W8ioShKetJn/iQURcl8VCQURQlERUJRlEBUJBRFCSTlE5fMNDPLnu7v0/NATE5OluTl9H7mmrJobsHde3sa3nfoglLIzs6W/LzsXj8wxF0k7sRkkq3oLdAQ8BjE/fqM8++XnSUFTuXzKHRPxSLT3N37QTyLhyT35GNDE++etGWsraTjQ259eneDiq6pb85IB6DAAzuIX5WTx570eIgmLyJlokAA+aqsbTINPiqUZVWds08GdiZgbaXSyWO6j4789FokMrkh+MEAyGuUykcgMlU0Y6FRJHJ974eywA2+38tWpmJtJVPqv1ciwSvLUSq9bsUT0rJ/q/fLMZjGau9bekHl1zW0eL/iY3uTMNr2bZD6t13HKIaWemff9PSyjHt/5qKCqHPiUDZh1C5/UloP+nxp9tPLg6mGvNY67SMTSFokKISoXoGLpk6Tmg3LzPeNz/9OfvvNT0tt9eHOLeJhvTglC/4QekJYfEZNQQ2CNSGi9CA5YyZIVmG+NJbvkKr9O6XswW/Jn++53dsaTE/zFEtP96cOwuoh6LIDW4niBh+GTD9PGnatNd83v/A7+c1XPxLJVqKkMQj2TbmttPKoePqPspMWCZ6Vj8yQCZI/cqRsfOFPsmrdbjnx0r+XIcXdnbLigRh3YXhWtt6LqAS8UyUL+9tjRcXvYj4RifKONkRtDJJTJHnHnCoNW1bI68/9VTa1TZTzL+/uBQvDJf+kibKxRhkljUFQJj1pEHidwu1eEIhnoksxhDMqWXnFkjviKNm78W15/c11ctT5V8vQkuHeVhfSH2srUdIYBG7t/K76okAawohsDwOYpN3XMaSOOjnTsfVlefONl6V88ya58l/+S445cYa5lWahotev3yrXXvth4wWJysKI8R2BdyRcofEXF2pUJgaBrwP+4nassrLa/KZRPfbYM2b/iRPHG4cpuBzju39/joubsnjHJC1hnpjId7xXglnVOqp4ttcfkorlC2TRM8/IuZdfI2e+78MydER3f4/f+c7/dJYJ/iERjDPOONm4gyPMn1/yY8uMxkIcWwb+fLrl1OBsG+eUTUvn/iNHDjcu2+IdE/ibyHWdJcd74SmWhubodzLaNr8g75S9JtveWiYf/sqtMvWUM70tLq7AVRjfItalIWkjnzaNiWzlwQf/5CuDw23FLZfutkJce17XP6nfVpaE24rzSYf1QYPc1yV/uRGl0p04reXrZd2rD8njj/5J8hoOSGPl4X4nqAAq3XpBwkWdv/CpFCrIxrHOY2k0eJvGOKhswnGSgrNSt5Jx/77SbPfvz3cMwR/Wk0WByHo8o+ctxCh0NFVL+6Yn5P8eflwa9m2QwuZD3pYuSJ/fMzN/cU1vywjoyYhDfq3PSMoBQ+4qgwaTT5y9sN0tq5UmnDzb/YlDed188886wyhP9olKojmHtihD7tZGady7Tta/9Dv56x9+JwXNFdLWdPjlA/n0exiPtRXyH69eGX0RRv5xemttZe7cczvzTrn4bY0wvmOfhNuwnthKlHmYgU7SIhHG9m2bZcndX5GyhXfIO2+8I+eNLxE5aqrU7dnkxegCgw2CymPxHiqdirUeljFmKpsG5Fb4eaZhYCjWyzHwm+12f7Zh/PGOGZV4VR+lt3ztr7+Tt3/zVXnjr49KyaF9MqSwWPbs3Sttjd1d/2PMfkGIB+VGz2nzD4w4cESLYZNPuzQBgsKIzIoOcA67P16/eVyKc9owhKI/2LJpvbz1m3+XdX/+rqxbvUXGMPIYO0F2v/mcFyM6rnv8eLZyYqetYDfu7yeMYPjz6bc1/rINgcC2bFi8pQcymT4TCdb+XFS2W5YvflkmFhbKCf/wQ5k1b760ZjdJdaW7hoaFysSoLVQUHwsV6+/R7KpTVLRf8fmLsXM8DMDC/nYftydZbyrcHpP9woQqlngPEYV5SmJ4v3r9Nlnw12XScbBSxp5wtnz8p8/JxJkny6Y3urvWp0G7owK3N+Vv7FwEefFvt1AmGDXX7OSL8qBcOB4Gb/Hvwzakj2Na/N97Q1i5VFQckGeWb5W3l6yRIY0tcsHXfyXnXPlp6SjIkoba7uuX0sCt+3vAbvy2kaheKQPKxY4UaOjWVvzzXuyP0IC1Fdd+3LLwHzMKvXwwdUCQtEjwxF0QM2a+R6Yde5wcX1Iom+oKZeY5F8iQ0VPl7eVvy5OPLvBiudDjUXkYNetqMqREACwYPJXDdn/jpzLpIcvKNprKpoL5TaXbdTqAbXZ/horE45js7x4zfO0LP1x7xyOsTPLy8mT6yafKJScdJwfLq+XYC93RTk1Drvz5L89IdU3XrWGMGKMmP265/NLkww/bKS/y6zZyF/ahIVCGHIdtCAxl4O8F3f1/abYRh3JhKM8lB8f0C0oU8nLj5z8nRCROPGmmnDztFDl2SJ7sbRkiM8+cJYUjJ0nZ2s3yzMLHvFgu2AodiFsud5s0+hdqSlSvNHb2Ib5rD+4KY8Sx8w7A/ggC+7t2NNqEUT5u2KNO/Ale7HBwTJPuJP1YNrd2wlybw/6dW2Xo8JFSNKxrhrruwA4pHhO+VNpABXfpuE2PR1UdDwwFX4M31ddJxf49ctSkqV6ISHNDjbTW10jR6KO9kPSC0cKI4gLvV3eYzK1zRghh7Nu+RYaNHNXNVip3rZMRE6Z5v9KPIFsZSPTJY9nMYifqUf2UTpzUrdIhnQWCxpCoxwTe8QijoKi4m0BA/pBhaSsQENQQePEp7JIDxh07+TBbSWeBIM/pIBBh9GosNNQZHg42uPUZ9FITRhG2LkSmQWMI8hJNcQ1Ns8VqUgErj2UCvbJmrjXTbaWi3sDbfVF6hmFD8iONsjIBBKKkKN/7lRiEs6gwMxpNFLCVdH513E+vLZlGM9y5Fo0ynExXXJfpeZHXVKDnpOGkw0M0vYFGMJz1LyJO4eMmf6gjoJluK4ywM2n9jZR0d4womLSiIWXSUJu80COMKM7v8bUl7YbhJuXCvpnSMGgE5AcRpDH01MdGfm52xtkKZWBGSgV5xlYyZQRh6TOX+jxY1PujHDmScaYShaiPsg9EKJGeikIU0rlMoK9spT/RdTcURQlE191QFCVpVCQURQlERUJRlEBUJBRFCSSlE5fc0WhqYWVr1phIz8lPezsr2bUleKcFb0RkP6qjlXSDW975eck9WWpthHLK1PLpK7BNXgngk+o7Kn1+d4PKbmhqi+zzMl2gIfCsQ5QKyeQ1NhLRk7U36DRwhovfR6X3YJvFjm2m6pZ0n97doPJZkyLTBAIYEfCma2vIqIi3HAfL0gJ+yC9rb4S57ENAcaevApE6sM2ergWTLL0SCQSCys8EF12JIG819YkXW2HYzGvQg3noTP4TeYU25ZfhNnKkMO3PEYq+tr1eiQRekIMqP6ujWfI2vSn5zz0kbXtXSVb74T4L0wHqIN56G+S9NoKfhMEAQhDPWGudcktkI/mtVZJ98A3Jrn1LcppWSk7zKslpWCHZVW86n/WSkyGPbfcllC2XcX1J0rVA4gLdhVdXydDv/JMMG7tOsv/3vyX/p7fI1pfulJamWi9C39JTr0phxFtvw7iRDxDJdMHv1SpZ0AdWLvNDebUGOOBpr14lQ7d+RErqPy8l2V+TvJU/EHn86zJs33wZsvHfzWPgYeBFqjdu9vDW5Xd/FwvHJk6q6W26/dAO+3JltKRFItYgYmn8/W+lfmqJNHfUyf6jhkvHsu0yrnWq5BV0X28DcLVm3ajhYqy3lULhL1y4yPuVOmKvvaOs1GXJkgbZtOVwJ8CWm2/+6WH5vummW71vyYNY+v2HxoIbt1Q1gqaYOQcWBQ6k0PlMLJSssaMkq2SC1L8xQurfGi41S06T6hXT3Tg+cDVn3cpZ13SkH3d1/O2pG0KXrMAOxXoc94Oo9FZYbbpTRWCH3Uv6bN2N3LNmSevRE6S1aIZsGTJKRn/3LsmdcrK3tTsrVqyR2bPP9jwT75D8/Hzji/HBB/9s1o/Aie20aZONMdswKvfpp1+WM86YYXwe8v2VV97q9Hfoupjf4PP1WGTi2bUWiEcY259++iXnvLu6+dWMB/m1rwCT9Z4slptX+5Isea1MKpoKZML4sV5oFxg4a4TYNNCwyRM+HRE9fCsShjNdfDLSUMi7jUt5UI5Ll75t8rdixVqzRgfrklBelZU1Js/kn/gYKWWEv0f+ciwEmgbAeVl/gnU4bPngR5TjBUGZFPhWX2f5vwATkfYdB6Tttc2ybn2DLPufbBnuDDoOVbTL/opCacyZKCNmX9RpY+SX9OCXk7SSTuyBOqR83LyvMvmk3skr64ZQ54ThqxL8Zdm1LskGU+5uXl82x8EOrQNmRITwXbv2mXikhX3YlzrDJuPZFHWB417SERtGOtiXNWMof/bHfv3xqTvWoyFvtq4TQYn39E1lP0ds3Y2cMTMlO2+sjM09KKv+9j+y+bXfSfW25d7W7lCZFBYVght0KhLRYL0ICpRKdZ2QTvTCDpi4bKOAMR6cuPIdMCC8IfOhUt1jLDG/iUePRBhGwPEQpbAe1Z/lMD+WloqK/bJ903LZvXmTzCg5KL+4/xGprz/c2zIG6faIbhpIKwYDNF7SzLobGCcffy9EPmj0/LUOdJ3UmrJABPiwP+XHdvILtge1fykL4rE/ZQYcg/g4f+X4YXT4iiXsUqyxOU82PZsrtTubpXxnk7yxdo+8tH27vLByr7y2vvuoizT6Xd8jnngUp7xIF85qsQ3STx6tHdhGacGOiEuerNBYW3JtwbWPhQuf9/ZwvbJT9pyHeJQn63Xw9777/mD2sR2cK9hijk8cxD9emFtnbto5P2XurgHyvEk74Zxz3rw5xhbCaIvQHpOlT2eG8lvekBGVX5DJU5+U86b8Sk4r/pmM2/QNKVh++DCaRoI4UNGuwR8whRvrHZsKBtY/ACrNejvmGNaQOA4QhtG4lcKQ9AlzXPd87ocGQRx6gahEvT39yqLHZf3qRbJuxSbZsKtCRsk++euLS72t3SHtGIlryOeaMNJN2kgnuL1Q9yUJ/NiywIBjRY/9bPnYcvTjllVR57nAbQiuYPjDE9ETBwGHOnLk9yvWS+2GfGnOzpL2wuHy9voKqWxqdEag0esiFuvdmrIjRX7cbStNnsibBduyv8nnrFmnmu9gbYmyx4b8YIeIOD0/Ze+OPHYYO+M78Je0+MP82NEj53UFi7Sc3hnWE+/cfUHSIhH2EEetc+SXhx0ra476L9lwwr2yf+avpfqUb8v+874uy6ZdKYdyuu9PAVNYFAqFxF8qlB6DymEblUUvCranQFhsT0ijSHRdyvH4cDwaituI3MVtUHG3dw6e7PRnOcsM8ILZtucdebv8Gdm6b4N0jMyR4hHDpaRkiPzinv+RjVs2e7G6IC3knZ7DNmK3PHZ2NnjSyXIBNhzsmiJhuEbsll88Y00E5cO5bJkH4XeuE/aQVY0ztN1ZUyl/frNaDjVWyp595dI0dKi0jhwuNTHP3dBoaYgWvtu8xGJFlZET9e2HxkrZkicat4X49niUdaJjx+P66692jskI4QlTxnPnnm/Oy3mwM8Jo9P6wIIhvy5r0RqnfnKi9VhIkPSfR3tYROHOd7wh4hQyVZTnD5K3sYVKWPVbW50+SjYWTZVjBBDnesQGbLQoCo12x4h1zzU1BTps2xRgC14JAIVN4hNHT0uNx7UZcGhaFSuO6/PKLTDgCwDwGMN/gikK9icOHORAMg+PbOY7LL59t4ieCJwztdR8iyURmUL+5cPmv5e13y5weskmyCoqElej/uGiV1NYclKa2NnnveRd6Md2ejOtOrrsRQ66XaZiEIR70fKSTPLEGJmXB/ALlRn4Jp+zIk13Tk3DikUe2UTZc51J+xAGOb89j/4JNj73Wt40raLSFQPjdtoXd/amrrpLtGzdJycRJMnn6MVI8/mgpnFAijS05MnbqVDntve/tvKzFHtav32LyYkeClAP5tHM51KudsyGMsrEjJz+UG2VJ/ihnbIVjWYFmW76TD2yOfHNsypLGSrmRFmuXCBJzErt27TWjCuwMG+UYlBvH5TyxYZzTrYMs85f8EMaHcl6/frOJS5tgNERYEHj8yuuFR6ygOYk+X3cDGpwGxdMEmM8Q53ScNB2JXUOBicuwOxxtba2y78AOJ9eNUltbL1u27ZUzTjlHSscePnmZ7lA2fsfIza3tUtuQ2EZaWpuDx2NZLECcnK9IhATCGpeFxslliI3P3abYtVf7C9KCwNkRB4slfe97N5nvicCdYG/cAfbZuxvmkeWYZwcyFXrJ2MVnKKaqusRPYw4mGFkNLz7cKW4l5XMEniVhYppG3hO4XHAv4bKc0YO7aPKRgpEjoxjSwqVWkNgxghjWy+Ut+kwkqHyEYjA0khFDC+JeY/POSj3XEYMc3OXjDTsWHvKpGSQ2ciSg82IUEeUluyD67AUvEjiMBPomqzINekiG0IkqgYaBR+3BDPmPJxDAa+Vs760RK4eDbbLGS1+Xba9vgWIEJU5CmTjJNLjGQ6XDHlJhsm5ohq8nEQ/bi4WtMUH5md5ukJVPX4JtcnlH++trUuJPwsL8BDP+rW3cLU/f4aW9i5HMRBD5b2nF8U56l0EQlI9xfuL8DbsVHkum2MiRgNvueTnJO/wJos+dziiKkt70qdMZRVEyGxUJRVECUZFQFCUQFQlFUQJJ6cQl7suY1Wd2Xx+eyRy4D8/djGRn1LGF5hbe42jPuPsZ3NvBzV5fuLnvT/rl7gaeqniPYTA7hM10eM6BZyLCnhux8EQuTnIHixfxnizBMNDo07sbiAKP3dY3DW6P0YMB2+hx/htW1zwLgcv3wSIQYNzc1zVJc4YtHdBrkRiM600MdmgMeMFOBI1ksC4zQJYpm0x68bFXIsGLTWFeenFF/+gL++SRp5bJolfWmff9lfSHjqExzmvy7mhDX3iLMtpKF5IWCYwhbNWuBYsPyLV3rJF3D70ktdkPy649/yy/uP0y2bf38OueI4n7Sm7vwPkJn0SEbQ+iN+lzX33uG+LNQbEWy0BsHFHLsDf15Me0jxCP8ulC0iLBNWcQew62yL0v7JeTp+fKzJNL5UDH+ZJTeKGMH1Mov7unuwMNHIQkMmbCcQaSaqybOxx84Eegt5BOvA8lAi9DfKJi04dxWwcqUcFhCR+g7FJh9PFAC/x2wO8ort0ZTR7Yv18OlLufurpaafd70PXwL7PQWyH3u6qDRHYVZIs9JVOWvuwzl/oLnj0gexta5WefzpFzpxTJmSdVyJD2fbJvf4e88OpBOfPMs2TEiDEmLo1n5MjhxhCoIFys0XhdF21PO9vfNh6CcDXmurR7qXM7jYF9cG1GWOz+QMWzn93OjStcjtF4XLdvrSYu56dx4jLMulu3RoNbMxvGftY1v+vWzDVg/uLqzOI/HufA1Rnn8aeH3/7jWbd17Ef4zJnTzL6UD67kcLtu45EWm19cs3M8YF/KA7doxME1Gg3Tn2bCbNn5yys2LewfBHc88j23aXgQD+s8YM3qFfK19Qvk3q2L5Ik9b8mBXXvklLGTpbBwiBfDBRdxOI7BnR9OWHD7Fq+Oupdzi1deJYfVu99xi9+uKDu2U2Yck7LhN8dlf46LnVBu9pjYEHHDoGzS4e3XI+JSv7apUtqkXZbU1Mpzu2vkrT0VcqBhj7y1dqpsLT9PDh7K92J2YY0W1+P8xRkpBsIHT0G2x/dvt70mrr7i7U+l4psQx6c0AIwJ57k0WIwGI0EAMAjruh6PRPRi4MZ3vXDjRgyIZz0XsS/njQfxSBfxbK9l00MarRHyIY/Ec52pTjTnJH2k2Y4G3GUG5hghIp6b5gdMmglze9wK850Px3H3bTD7kmbiuml2yy62vMgv+9q0hMHbnJaw+amO5kY5tP5tKXDazOdGnyvfP/Ea+bdx75MrjzlD2pqapLG2xot5ONQX+fDXEd8pF385k37XV6Ur7rbeKSs/fruKtSHKkL/Uiy3b2267uzMe5cXxOW4YQX5g04Ve391IxMfO3SzVe1vkJ3cPldvvK5LGAxtl1yaR11ZPkjZH7UtLR3gxu0OFABWIe3EaCwZCY6aCMAAaBpVeVrbOxMVhqe3x7P78ZTv74MmY7TgqdY9XZI7JdwsGhcGwjXD2J8x+d/+6i6pgrDbM+iGMhXicw8bDgMGfB7dhYpynG6Pjg0dlmxf288O52MZfDJn9rdD50+KWV/clAkgPabH727IjDGx5czxWP2MkEetpOoywqYhN+1fLTxf/oyx45dvy0hvfktv/31fk9w/+h/z2mX+Unz709/Kzh6/1YrqQZoSZUQRpodz8dUSaEbZE5WzLxta7H377y8hvQxb2s+WFILgj0yyTHnvswUCficSEoy6Qkqxaqd7RIJVbGiR/c7ksX3G05LesldnnTZFjJozyYkaHSqFnQMkxGmsQ8cAAAGOgQQFGxycejC5sPLCNPB5ss71Iot4k1oBo0OAa8iUmD+TFNkQWeMHw6BUTEZseftvjQqK8gT+dfI9tNH5ICw2DxhCGfyQd9gxRYXGujD0hW8ac2Cj5NTPknJnvk5OP+oAU5pbKyKkNMmqSF9GDNNpFcdwGzfop3esoNh/+ckbMwa2vwxdECgNRAsrL1icdDvXmjgjD50n6wylMX5O0SOBwJIicvBK5af5UGZXbINX7quVrv7pCXnhtqJwwaYx89csf9WKFg3rbywYqh2EfvXDUyUYa5IIFC83lg710ABoBYbbxcB6EgjDOYXumeNh00IjoceOBQdtzuJcBrkGRHnpqNw9PmnjA8ciT7dltWoJw0+jG4xz2WKSbdPkn5tw0uxOBdgSSCI5F3tyeMxh/Iwi1ifxsGTZyqBTsvVjOP/XDcvLMGXLW2WfLxJzLJL92ugwbw+Kg3SFP7mXEX+PWEaOJROXsr3dbNha/XSWC7fZcXOYBlyCUIaKRyD78ZIJIJP1YdlSX+jW1jbJ81U6pqjzgjC6GyZneug5KZjC8qEByfAstBXlQr2vZK+9uXClD5VgZP36cYxs1zuA9S5qamqTyUKXklu6VU4+7yot9ZHEFe5rz6VoisKcgmviATQf67N2NweRSXzmceK7cw9baSBdSIRK9XQujP+mzdzf8C7EogwvXi/jhDnBxiGxviaYzXOL0Zg3OwvzU+6E8UvQqF1xvqVAMPhCIoLUesImc7PRuIMw5xE4+R4W3ZIsKMqdd9LomKZDhxQXqLn2QQMeAQARNyKEduHsvDHG1n4kwgsi0jjMlco/BsAQehcMQq6du1pWBDfVJvQ4dkmc6hKgz9vhWwC7oSDK5EyFvhU4eWeUtk0YQlj5zqc9LPr0/inKkoWmnUvQzzWNZOnuj8tMvnqkURUlf+tQzlaIomY2KhKIogahIKIoSiIqEoiiBpHTisq6pThavXSRbD2wJ9S1wJDlYWy6Tx0yWc44/V2ZOmOmFRseuI8Ej6Znix5DbmsmuVk0ZNDnlgdMZ3LYp7h0hs/J6mqzH0ed3NxCHh5c+JBV11XLB1IvlmFGTpCh/YL9rv6Niq7y68UVpbmuQT573SSkdVuptSYxx8trUKi0Z5jLdD/f8h3rPu4SBODQ0tWWMm7a+grVKhhQM7AfL+lQk9lfvl9ufuV3mnXa1TBt/sheaPhxwRhULlj0gF554nsydfokXejiMjGoamgdNTxlm2JRD9SAqj96C+AY9yn6k6bNboFYgPnPBl9JSIGDM0LHyL3O/Jsu3rpKyXWVeaHdoCINJIAAfpvFc5oMKRM8xNlTfnJaXp70aSdz53M/l/TM+ahpaIrI6WiWrvUbaqldKzrBTpD3XdX47EPnvp78jN8/7lhQXFHshLtV1zQl9Fe7dsEbWvPmqNDc3OUbQYOYriguc4XpegQwfNlzO/8invJjpB52eeS8npvdjTYkoXrGVwxmolx59MpJgFIFn5CCBgLYdD4vse8JpTW9J67s/EWnc6m1JLfg07C1XOZdMT6z8i/fLBf8IQc5M333jRTnQ3ipDTjlLzpr/aTnv05+VYy69UnZJnuwp3ypV+3d7MVOD311dX0Nf0djUfTRBjxgmEGvWvC0vvfi0vLuuTN5dXybLVyyTx/74kBw6FO7uDeJ5+3Jd0IU7nh3oMH+TbqOJpEViodOYLj35Cu9XAvavk9whedJ+qFlyj54uWTmTpWHr36SlodKL4IJLsFg3YrhP60mDSIVIcMm0audq75dL2LqOlY7hbtl5QOqrq2XLpk2ycd162er8rWpolFfeXNOtFyZPuEPDuStOTazDWQtlkMgdniWK38lU0hST/7AFZzasf1f+39f/Se666075/n/dLLd+59vykx/eJk0LfyTf+9fPe7FcyIu/4Vv3c/HEgLLZsmWX9yt9QR+iLDswkEh63Y2nVz8ll0z/gPcrPrV3/UaGz/qYFNz2W8n/1Nel8as/kSeX7ZSjL7hYhhQP82KJWU8CN++XX36R+Y2h/OQn98ns2Wcb34SsA2GNBL+G+CzEtyHrIODHsbKyxtnHdSWPsLCmBvHZztoIiBBrdZSVbZQzzgieO9l2cKtMGnts5yVHvdOTBgn/S08vlI0790itY9i7d+2SHVu3yo4tW2Xn1m1SXb5PPnD5lVIwtMTEPeOMGWZdCNKOD8aJE48yYsF6EkCjoQz8fgxs2p3Bv8kL5YRTV9aNsPmjvCgT1qlwj3+Mc6xHTV4pj1deedOsG0FZsSYFvzmmLc8w/GtHhK238vyiZ2TJS89L0fDhsnvPfmmsr5caR0BbisbKNqdczn/fFTJ8uOspfdeufSbtpJe/CCT5J4+UFeml7ukAqGPiYQ/UL3mgzskXohJrI36sTXB84rIf63LYfShPyo96oA5Yf4Nyp3z5zjZbrvHKmuNTH6yJQt2G+aGgLAeaY54+WXejIDe+J2k/LY5d1e3eJS17dktOQ53U1lTLUGmTkhGHOxDFqSiOR4FKwCsx2PUi8C6NE1S2YSi2x6Uy8SCEO3igkq+//mrjZdk1gHpjdOzvxgse8nLrtq6xzvvlDq+DGDdujKxbt0FWvfWWrHx9iaxaslTeXblSdm3aLMOKCgIFhnyQPtdwXc/PfueqNo+k3aabvzh+9eePPONJiTAMlnKkPNy8v945ynIXoxliftvyDCsP8F9uhb3FWVFRLsPGjJPtm7fJyBHDTZ2Xjh8vZbsrZNhxU2Xnjm1eTDxPn9eZR9JknfOSB9JFXVOX1p0+uGuPzO0sE/JHGGXitxELAmBtAi/gtsywG8rC3cddjAdIjz0+IxsEx1/WOMGNLev77vuDcTRMuE1nEOk24duruxthZJ9wgtSuWSO1ubnSsHenNLS3yVGl4yQnv8CL0QUGwvDbNdqOzsaCsduegbURqARrXMQlnlVuflsDoIcmnF4DwcFQqFQMI4y65i6RCOPo0rFy/pknS/mePbJ39x7Zt2evlO/dJx0tTXLFHMfovR44ETQAd7EcGsn5XqiLHRmRdptuv5C4ItNgPjaMxsKaGu6+7vCc3s1tBG658ptjgt0viJ68Kl5fWysTJh4tkyZPluKhQ51Rw3AZMqRQxh99lJSUlEhzU5MX002/mwcWIFpl0m6hLvlNHRLHbqP+abDUr4Uw8gRuvrsaqrt2C4sxuTZihYjyplGDtS+gPOw56VRs+djypKzt+flOmTIqRFDcDivcw3i6kbRINLaETyLln3iS1G3fIU2OOOQ4w9Ts9lYZPnact7U7VIxrvI92rkUBVFKXyq80cahAwqksf8PiGISzPx9GINZ4UHq+254rEfXN9VJa0vVgVdh97Ypdu+WSs2bI3806SS4/dbJcfNIxcsUZU+XaS86S5kOHnBjB+2N8GCxCEet0lYZi13nAAIOgoQH5w1Bd0V1syoNzIAqILIbNdo5JudqyDcKvc2GC0djU6Ayns2XEiBHy2c/+o/zbN26Ryy77oAwp9LxZxexPOu+440FTp35Iox1Zgq036pB9bP2SN8LczsVt/LbOobR0jOkobPnYY7rl7n63+0aB8vSfn98c21035dxu4pWIVPrn6A+SFolxw8eZBhVE4ZQp0lRdI/UFBdK0c680OyOK4bPf623tgoLGSFBkVJ/fNozKQAyY8KMyrfrTs2DgtmFhVMSnAt21ErrWrKASaSQYGsYRxKF6p+fxPX1pr8UT0Z6TJ7XNLVJ+sFJ2HKqSgw0NssPpvZrbWqWqrk4KioZ6MV2skPkhD/byyg/xSDN5IV/gd85qywgDRVyJR5jbA9NLF5rvbp47OsNpSAybKU9/g0qE/+nLvBDflXnOKHGPM5L65s3flYvnvk/mzL1MrvnEtXLlVX8nlZVVh633SdrqnHKini2kiXRS17Yubdr99kD9k1/CEETCyJP/WPY49PR8sC/A1uxxKI8uO+oqD/+owJY14srlDPvZERx1ym/S4D93InJ9SxCkA0k/J8GDR29sXiEfOv3vvJD4NG3ZLNLcLPmjR0lrZaXkTQ1upEcSnr58as1jcuOlX/ZCormI37FpvSMGRd0Ut8kx/BGl46W4ZLgXkp7ges7vszFsvZV9+/ZKvZP3yVOO90K6KFu9Umaecrr3q/9wR5yuyCIUfLeicCTAzd1Ae/Kyzx7Lvu2J78vHzvx06LMS6cL9r90lnzr/7w97j6OyrmnQPl0Yz6DTbb0VRIIRmZ1rYDRwpIgV3YFCn4mEfSz7n+Z8bcC/0BXG4ysfkTElI2TeafO8kC7MextOw8g0/4xh8GQgTwjGgmAiFIOtPHrLQH5/o8/e3WCC7/MXf97pgX9hhurpCPMqDy17wHg5jicQwIQbDWYgVm5fkUggAGNn+bqw+Rqli4EsEGH0+i1QYETx0NLfS272EHnfyR9Mi8sPxOHVjS/I2zvflE+c+8lIfiVMD5rhLzYx8z6kIEcK88LfL6Ac6ptazLyNkhgenGK1s4F8V6PPLjdiYTITpzP7q/bLqOKB+yIXo57xI8bJrCnnOp9ZXmh0uB7n0drWNpYNyAzByM3ONncxCvJ6vm5KJpZHb2Eh5Lyc5B359Df9JhKKoqQnfTYnoShK5qMioShKICoSiqIEoiKhKEogKZ24xOMODx61tLbrgzZ9BPcdcnKSd9VOHbW0tUurU0daQy69LdNMoF/ubuCxCIck6ejoM13h9hrL+0cxbOqFOmpsadM6CqAnZZpJ9OndDQyOR5Z5qEaNr3/B16R5jyLk4S4eeqpy4qmIh0OZVtU1hbotHEz0WiQwUoavypEBAaipb0p4eTcYnhJNNRRlbUNLWr3E1pf0SiTqG1sjLee3tqpdDtS5Xpfbmhqlraa7I1yld2DUiV7frscnpQpEUrDWio68eiESGF7Q8m5vvrtHbn2lQn62J19++MwyeazM9f7Tumur1P/5N+Z7X9MTj0MDDetJKSqmPhxB8ENPmMz6GNubmqWxNXHdppKe5rM/QR/CvIMPBpIWibDC27Zpm/zhjh/KhlVvy7HHjpeDTa4iF0w5SeoOdvfIS2PGGQjefXj3H/jb20aO96V05bbb7va+RYe7Sn6YpAyjvaFBGjdukA6fs9sfvvSKPLOu+xIFeF2iPP11lAo4rt9N3UBD1znthUv9MNfqLds3y+vrG+XgsKOlft96OWr3MrnwhBKRIWNk26LnpfSiOV5M1zs2rtRxM2Z9NP7yl7+XXbv2Cj4KcV1OnBUr3jHfcQtfWVkt69dvNq7N+W5djeGKzDopxb2Z9UgUC4Zu97HfXff81Z37+92XAaJl04Ere5yYxAvjeJybBsAx+B57TOKw3R/Gb1zdk2eORzjpwf07+NMcD+qjMD+n8wWtBkfIg4bLrTt3yr4vXC+FRYVSu2ypbHMEY0HJCMmvOCgNzmji5PHjpSDHdf1OunDNRj0tXOjUX+loky6b5nh5Ky4uNvVBOGF468Y9HK70cUG/fv1Wsx/lxvEslNeDD/7JbOMDlCvljH2MHDncuLrnL671OS7hHIe/+Au1dcFIBdf5djth/uMHlafFv6RAptInLvXDnoM4riBXPtS+UQqef1BqNu2Ridsfl9cf/bYUvPyPktP8nNTu73LAit9BKpHKwxDxHoTR4LiVbYwy8HGIiGAoeEN2vSYvceJf0dlQbcPE85DbgCvM8TFU4lqv1MB3Cwbs/mX7BuNOnWNyLD+kgzTwwWcmRkYYabB+FDFK0kL6yQthpIs02TziFZx9OQ+/Ob8VEcJsGjmG9Wpt0xiGf7GxtpCJt723fkfGf+56qX57tdTv2CbvbnlYWt54Q75+3rly4wXnybD87h6USCt5oGyoF9JGo7f5oOxcj+cVnqNdt46AMnFdxmWZ/Sgv/HravFo4NiMW9sf/JeXH8djHepVyBWelKWvqaN68OeZ4N930fdPo+c4CSMD+nMdfP/b4nIt0hxG0gttgoNd3NxKRm9Uo1/7j1fKDr31Wbv74xXLKsEq58LRj5Zmlm+TZd6skr7DLkxVOSTEgKv6mm241FYlBuD1Bg/mOwdBoqGyL6xy1yIwWcJ3O/hyLMOs4FVzRwcGu62Q3CBo8cBy/AduGwf583HUXdph0cz7CaDAYNN9tetnHppO/7OOKxQ5jrByX8/DpOrebRzf9HaY8aIDsH0ZPXtVu2rtXWmpqeThADqxfKeN3l8rcspWSlxvflwRpdevDrTsamOtk103z4sWvmbyRD+L468qWiS0zt2xcp71+OCb1acvUbifcHs9/XNdpblf583GPPcqklXJFgF0RrneOs8sc0wo58ZVg+kwkOtqbnRFDlcw8c4acf+Y0yS8cKotef1dG1++T88+7SApKXK/FgGFRWfS8VByVa7EGaQlSfuL6G7Y9Dr0LBmobbix2xIER0RAA0bEiAxzbxgPSzHZ/GPv690kExyKv9MD8pVcjzObNpgHYjkHT/GPLIh74MbCEPRDUft4Fsv2uuyR32FApvfB9Mnb0WKnYmXhxGRoXvTKNHNEir5QZUO62fO0cgz8fFrb769BffsAx/dsRFZeOzuPFO248OBZ1TznbssbbOOl0RzruyDMMsxTAICZpkcgLcaRRfMZ50tHQtchN3ZjzpHbrNllVXirTP3WLF+qC4TBRR8/Kdz5UJENXjATjZPjoDj0TGwg9DNuZXLPD9ETMmnWqiccxLZyXxk86aJgYlQWDo3EQn7RyHgyQHovjEJZIhGLBQDmOex53nQbCSDNh/ksLjsmQ3Z+WRHDdnONz1x52HT35K1+RrZMmyea/PS1Nm7ZI/SuvyswPxnfhB6SPjysIJ5g02Xqj3KgnV9SeMGUSrwFSPnQItsxo/H7cMnTLlDKy5Xn99R/vLDPOFRVEzS1X97LPdiQcn992pBLEYBeJpB/L5vZaonvziThQ9poMnzxT8ordibiBBgZIjzOQQIwwci5vwoj1xMwdKJ6EDWPt889Jw/YdctyFs2X08VO90CMDoz/3ksS9jKExuyOAI3NZQGeIP89Mp08ey8YlV0/dco2Zef6AFYiBCr1elN4OcF7rB9GIMis/fc6lcsZ1/3DEBQIYsbmjud8acbQjjyNFbJkORnr1ghdPW/Kce6bgTpim59IAibxbJzPiGwhQF4wqoly+9RXcTsaL+mCgz17w4lptIC40kiyZJhDAaC8de0Pq4kgKBOU2WAQijF6JBDCkHV5ckPEPmwxEeGiqqDCxQFjYjphrHUWDEQRrZCguvRYJYEQxwhEKDBEFHsjrC2QCOdnu6GBEcX6k9THAiHlRVx0p3UFAC50yYllDHUF0p89c6vM4cO+PosSSSmcoWkcug9UblZ9+8UylKEr60qeeqRRFyWxUJBRFCURFQlGUQFQkFEUJREVCUZRAVCQURQlERUJRlEBUJBRFCURFQlGUQFQkFEUJREVCUZRAVCQURQlERUJRlEBUJBRFCURFQlGUQFQkFEUJREVCUZRAVCQURQlERUJRlEBUJBRFCURFQlGUQFQkFEUJREVCUZRAVCQURQlERUJRlEBUJBRFCURFQlGUQFQkFEUJREVCUZRAVCQURQlERUJRlEBUJBRFCURFQlGUQFQkFEUJREVCUZRAVCQURQlERUJRlEBUJBRFCURFQlGUQLI6RJx/MXQcHpSIuqY6qWuu834pinIkKR1W6n3rGUuWLJFrrrlGtm3f7oV00SuReHjpQ7Jw1UIjFIqiHHlKS0rlmnPmy9zpl3gh0QgSiaQvN3790r2yYNkCFQhFGUDsr94vdz53hyxc+RcvpPckJRIkhBGEoigDk4edDjxVJCUSSzcv8b4pijIQYYS/v2a/96t3JCUSeomhKIMHvQWqKEogKhKKogSiIqEoSiAqEoqiBKIioShKICoSiqIEoiKhKEogKhKKogSiIpHBfPejt8o3rvgP8+H7NbM+4W1RlOioSGQwvDb8gye/bz63PPYtmTlhpvnADOfvDZd+2YjHnOlzTVhxQbFcedo8IyaEX3n6VSYceLvws7Ov7xZfGRyoSGQoNPjYZ/fLdq6WsU5jp5HPd4Tg1y/fK3c+93OZ54gB4jF5zGTzfdmmJSZ81pRZJgyBYDTy/NrFJpzXkK3YKJmPikSGQuPeUr7Z++VCY69vqpN5p10ldz77c/cloOr9stQRBcSDfXjFeMuBLSZ8f/U+Izb4J0BgJo2dbEYg7DfJiasMDlQkMhQaPA3dgkCUloyTpZuXHjbKmOw0/nInLkKx1REIC/ERDP4SThw+TzhC8vy7i71YSqajIpGhzJjo9PjNdWZews4/4CgIEIgrT59ntn32os8ZMSnbVeaIxRQjCha2M2pgRDLWEQriIRjMWeibwIMHFYkMZc3OMpk54RTToKc4owomL60AMK+AALBtqyMAv375PhO+5cDmzsbPaGPx2kXmOw5MivOLTPzSYWPNsZTBQ1I+LhcsfSilnm8URUk9d3/mHtMZRKFPfFwqijI4UJFQFCUQFQlFUQJRkVAUJRAVCUVRAlGRUBQlEBUJRVECSUokeNBGUZTBQVIiweO7iqIMbIrzU9OZJyUSvCYc9UkuRVH6H9wBpGrEn/ScBM5HVCgUZeDBC33Xz/6c96v3JPXuhp/FaxcbvwOKohx5Zk48JSmHQEHvbvRaJBRFSX/0BS9FUZJGRUJRlEBUJBRFCURFQlGUQFQkFEUJREVCUZRAVCQURQlERUJRlEBUJBRFCURFQlGUQFQkFEUJREVCUZRAVCQURQlERUJRlEBUJBRFCURFQlGUQFQkFEUJREVCUZRAVCQURQlERUJRlEBUJBRFCURFQlGUQFQkFEUJREVCUZRAVCQURQlERUJRlEBUJBRFCURFQlGUQFQkFEUJREVCUZRAVCQURQlERUJRlEBUJBRFCURFQlGUQFQkFEUJREVCUZRAVCQURQlERUJRlEBUJBRFCURFQlGUQFQkFEUJREVCUZRAVCQURQlERUJRlEBUJBRFCSSrQ8T5153bf/Yz75uiKIOBnTt3yiOPPCLbtm/3QrqIKxKKoigWvdxQFCUQFQlFUQJRkVAUJRAVCUVRAhD5/2vReiNjuNDDAAAAAElFTkSuQmCC;" vertex="1" parent="WIyWlLk6GJQsqaUBKTNV-1">
          <mxGeometry x="129.88" y="319" width="30.12" height="64" as="geometry" />
        </mxCell>
        <mxCell id="YcHYLUiHtxIJwsrw_Ox9-15" value="ON BOARDING" style="rounded=1;whiteSpace=wrap;html=1;" vertex="1" parent="WIyWlLk6GJQsqaUBKTNV-1">
          <mxGeometry x="122" y="301" width="109" height="14" as="geometry" />
        </mxCell>
        <mxCell id="YcHYLUiHtxIJwsrw_Ox9-16" value="" style="shape=image;verticalLabelPosition=bottom;labelBackgroundColor=default;verticalAlign=top;aspect=fixed;imageAspect=0;image=data:image/png,iVBORw0KGgoAAAANSUhEUgAAAQoAAAI0CAYAAADlU2eJAAAAAXNSR0IArs4c6QAAAARnQU1BAACxjwv8YQUAAAAJcEhZcwAADsMAAA7DAcdvqGQAACcBSURBVHhe7d0LlFTVne/xjUDTSINgaNTQRBpFRSBIRPGFCsho1OaqCa9Zc6MXJObeJRAHY3zEOEZnMsaICivrDqIuJ5lECEZUnOUrgks0gGjAxWtuCDQRiLwmIA8BAfue3+6zu09XV/e/X9Xd1f39LM6qOrtOnVN1qP07++yqPrtNiXPRPwCo2gnxLQBUiaAAYCIoAJgICgCmtJ2Z37j2PJfTJSeeA9BaHNp5yH28aHU8Vy5tUIy6a6TLK+gUzwFoLf57zd/cu0+9F8+V49QDgImgAGAiKACYCAoAJoICgImgAGAiKACYCAoAJoICgKlJgqJTh05ueL8R7sI+Q+OS9Hp06eF6dO4Rz1U0oOeA+B6ATGv0n3Cr8t993b3ug43LXL6CoMsp7v4X74sfrWjKVVPd2m1r3KL1i+IS5/pHATHp8lvdwSMHq3we0BzoYCiLE5/fQAdLHSgH9Bzo70vxrk1+2Z37d/r5pHYntHM9u/WMls1z7dq2i0urd+z4MfffB3a7Hft2xCW2ZvMTblX04l3Fbu4Hc92s388sazXodtyF48t2mua1E5MhoceKzhvtFq972+9UoDmbetU0P6W2ivUZnn3zHP/Y0CgsCvMLfQt5/NAJbvYtc6IDZOXnfO0rp7sDhw+4vNw895W8r9Ro2r1/lw8WPae+Gr1FUTSoyJ0YVfh5UVCo4muH/ePz349eiXMTh90ahceTvrWgHXb/7+5z/QsGuLVb11RI2YnDJrnNu4srhAjQ1PR5njHhCX8g/Nf//Be3YMrLvvy25yaXfX7VirgnalGviVrK85Y/728VCge/OOifr4PliH4jfXmyxXzWqWe7nLbt3UM3/XNcYlM9mj73Dnfsy+O+ZVETzaZFsbx4uRtx7kh/+qHk1M7RTty5b6ffuXpzarKticOhaNBovxOTCvP7+OWB5kCtAVV2fZZ1W9i9MH6ksg82LfcHQ33W+xcMdP/x3d/4g6JuVR906qED56y3noyfUXd6PdL2hLZuSOEF/n5dNXpQqIIrYZ9992n36qpXfHIm6c2pCSZKVzXL1DxL0mlJcdSiAJqaWgg6yk+8fFJcYlNLWC3r8dHnW5/juVHLYmFUF/S5Vlj4A2eiBd0Q2p/QPr5XN40eFEpbhYFaCeOiQFi8/m1frr6LkIBqkq3dtlpnI35HJlsP/rlRq0MT0BTU4tVphW7DZ1Z9AbWhPjq1HBQSos+5TjU0NfRn+3h06rEmqk/10ehBoWaazuM06ZuP0M+g8zY9pp2kMk1qbXywaVlZq0Pfguh5+s/RLdAUQkdjaodjbSkcRkRhoxb0+AujVnRJ1OKupiWx5W9bfMsj1A9rUqu9bdt27tjxo27/4f3xWuqGK1wBtaTKPbzfSH/qrNbuxMtvLT3o/dci3/emMvVD6MCmlob6I6qjU+yqvhYNctvnurNOOct3TB778lhcWj19pSrr/rrW39ZEVZ2ZBAWAMlwKD0CdERQATAQFABNBAcBEUAAwERQATAQFABNBAcBEUAAwERQATAQFABNBAcBEUAAwERQATAQFABNBAcBEUAAwERQATAQFABNBAcDUKEGhgU00SMr15xXFJQCyScaDIoREGHYNVdM+un5Q1WGqfalLuzen/ahBcHT5erRsGQ2KEBL6YC9a/7Z7dskz8SOth96/RpVSCFg0WppGuq6K9qMGi9F+TUfPD9vTpAGgw9D7maIBdTXGBVq2jAVFakjM+v3M+JHWQ/sgBITGqEynd/fSIe+rov1Xk9aY1v9wtL810poGnNHQdBpGTkPrp57yhXVq20kq1yhsmtI9LnrMes3h8dTXnFy/9X7QvGRkACBCopSO5hoqTuOrXh+1FP7hqb+PHyndRxpVSmOxhrFUNcSc5m/798l+GY1ApcFs9Zgq1/JNy/2AzaUhUHFwZ42IrRHgNUJVkk4LTszp5F79eKGf1yC4KtOoVPr/0XrCKPLh/0zbEt0ujJ6noelEr+3u6+/1y4TXrDFkdavXpOX1nhQSYf3J5+s1allfvuoVN++Dub4czUejDQBESJQrGjTaV0QNNadKlDwKq6+hU1SBNbK7AuTZJU9XeFwho5BQJdPjCg/t23RUgbW/w4DP2pbmNSk8NNS+ykJ/giq1tqt16rmp/SIaPNe/pmjbeg3hdSkkdFjRY5o0pJ6eH0wcNslv0687Xv+IczT8Xvnpj96zgikEF7JDgwfF8OiDoQ9L6fiLrTckVIEK8wt95dW+UGAkz+V1bq+jahhvUq0FBWugloOeoyOyaB1h5OtUCoEknYbo6J2cVKZtaj35UeCo8qpPo3Sg3PLXVbx7U9lrCtvWqUQII7VY1CoQPV68q9jfl8Luffxz+xcMKFu/5vVeAr1Hva+wDmSHBg+KxdHR0zc7ow+jmrmtVegXCJVSFUMVJlmp1WxPsirP51U8rsouoU9BA97eOOt/+EmtB9kVBYRo+wqGMIkqbnDwyOfxvXKpQZSUfA+dcqOWTPR+k+vXe1I4Ibs1eFDoQ6EPp8JCzdzWGhYDCgb6SuKHtI8mtS5U4UKnZuqR3Ffgc8vnN0dH6nAUD5JN+CRtR5Vd35gkl9c6p4yaVtaiKd61yZeHzk5Nyzcuc2u3rfbl1dH/p7Zz4RkXxSWlp5nJ0yVtJ/z/a9J21mxd7U99kN3a/pNz0b+KfnVpH5fTJSeeqz19oPThGBp9qPRB6tHllFb1YdF7VqW9e/5d7ld/+GV0Lr/QTwqPwvw+/oi/bc9WHyDaRz279fT3c9qW7nOdv/sgiYJDYaIKedOQb0ctktJKmm6IfO3fqwdeE4dSHzf49G+47w3/3+7osaO+0urIv23vNnfZWcPc1QOu8SGiZYdF83qNejy0AJL/V1pGIbPyk5XRur4oW/9Zp54Vrf//uJx2Of616DUp3G46/1t+2wqs/3npze7sU8/2713r1z7RqcraRAsGzcuhnYfc//rok3iuXEaCQlpzWKj18MXxo+6NNa/HJaV06tD1xG5+P/jKFZ2mdT2xa1Rp89z7G5b48i++POpW/uWP7mj0fM2rQuvxzVFrQL9DaR9VTFW0vZ/vjddaSsurQu6K1tu+bXtfgd//0xL3b+/837Jlw/+J1tmt08nR0X+HX6cCRPJyOkX3t5adyoj+37S9bXu2uT/t+JNfv96D1v8fUcAoHPZ8vqfsNb0XvQ+FhNa/Yfv/8+sPoabA27D9T35daJ6qCoqMfD2apA9H+BZEnXF8JQY0X4329WiqcM6q5mtVnXEAmreMB4WEsAhftwHILo0SFACyG0EBwERQADARFABMBAUAE0EBwERQADARFABMBAUAE0EBwERQADARFABMBAUAE0EBwERQADARFABMBAUAE0EBwERQADARFABMBAUAU8bH9aiP5PB4gcYJAVoLXcE+KXWEuIZW1bgeTRYUCgGNeq1bjUalAAghkC4gAJTTqG8aplFBovsa9U33N+8u9iO9qawumjwoNIydBugd0HNgpVG9ATQsDbilAajD8JU11WRBoUC4/rzRrmhQEeEANAGFxqL1b/uBpC2NHhQEBNC8KDBmvfVktS2MRh17tH/PAW7GhCfc+AvHExJAMzEgqpezb5njxg2dEJfUXIMHRVHUing4Hr0cQPOjA/jsm+fUqo42aFBMuWqamzhsUjwHoLnSN4wPRQf0wu6FcUn1GiwoFBIj+o2I5wA0d7UJiwYJCkICyE7qQ6xJWNQ7KMYPnUBIAFlMYXH3dfdW22dRr6BQx+W4C8fHcwCyVTgNqepbyjoHhVZMxyXQcqhO6+CfTp2DQukDoGXJ75wf36uoTkExvN8IficBtCJ1Cgp1YAJoPWodFLQmgNan1kFRNCh9ZweAlqtWQaEfZRTm1+wnnwBajloFhf76DEDrU6uguPCMi+J7AFqTWp96AGh9ahwU+mlnJi5C89prr/mpOmvWrHFz5851+/bti0tQlT/84Q/m/gRqq8ZBUZPWxJYtW9yNN97op5qaM2eOu//+++O59PTBnzZtmvvss8/ikuZL+0DvZ8iQIX7SvlDINRZty9qfQG3VOCjyu9i/nXj//ff9ES1MrY1aPiNGjPCV9Zvf/KYbN26ca9OmjQ+5qVOnxksB2afGQVGTH1mpdXDJJZe4Ll26pD2KqiLpCNu3b183cuTItMskj8haRhWsqlMOtTC0XOoRVC0QlYewCtsNR3mtU9sJbrnllkoVefbs2X7ZsNxNN93kl3n00Ud9eSotp/WcdNJJ7qOPPnIPPfSQ+8EPfuBefPFF993vftfNmzfPPfXUU/HSpa8xuS+03kDr0ja0fHX7qyb7U/su7E8tp+WT7/1HP/qRL9O2ku8XSKp5UBgtCn3A9MEdP368n15//fUKFVyP6wOpZW677TZ/tP35z3/uVq9eHS9RSsskj8iq7MkKlqRK+bWvfc1XwuS2wjm6QitsV7eqsGGdKgvP0W1qBUkt++STT8oq+6WXXhqXllNrSsvPnDnTB2WSQmPHjh1++6L3p1ARPda/f3+/L5JhpXWpgg8YMMAHjkJRLZMQfno83f5M7Z8ILRxtW+vR8xQq4b3pfa5du9YHld6X9ilQiS7XnzpdddfIkhtmjq4wLdu4tKQ60ZGppEePHiVRhSqJKo2///zzz8ePlpRMmTKl7PFA988888yS888/389reS0TfbD9fBB92Cs9NwjbiloAfl7LJNeh7UZH0grPDc/52c9+5uejCldyww03+PuBHktuU69RU1Rh/Xyq8P4DPU/rSE7hNWo9ek9JUUUt2154D3rtwd69e/2+CmW12Z96v0FN1oPW67e//W2lPNBUi2898uJ76elIplZAr169yk4/dAQOdNRSuR4PdF8tgkDLiI6OSddcc018r7KwrXAk1ZFdVC46AuuIndxueB1hezWl56S2FlIlWylLly4tm9QS0aSWgY7mulWLIEypr1/CexAd6TWFlsDWrVvT7s9kaye8P7UWwnbUkkltLel5yfUAqWocFNVRZQwffn0oNSkAVB4qjujxVOmausnn1ISa3mFban4raJIf/HTbVVmyPN0ytaEwEp0KiObVPxEmvc/ka9K8KnqYFIZ33nln2tOadPR6k5U9SLfvktvRpO3o9BCoqZq3KHKq/g2FzoFFPfzhCBoCIDym1oaOcOEcW/RBTx5BtYxEzXR/K/rgJ1sm6UyePNnfRs1ov85kJdA6dfRNViq9Jq03LKdWgpZJVrLatjZCayq1o1QUXuF1ab+EMFCfQZhCiNT0yK7taZ012Z+hn0NTeM813Q4gNQ+K3KqDQh9WHcWTR1BN+jCGJrUqs+bV/FVlUkedOtqSdLRTJdK3J2oia5nofNs82ofKpw5UHcm1nkCdeAoCbVfrU4egJlWecIqjZbQNvR4tkzwVqCm9hgULFvj7+vZA69B29E2DWlg6ioft6b5aHlpOj+m9atnaqGp/Jk+Nwv7U+sMyWl7BS1CgNtr+k3PRv4p+dWkfl9MlJ54rpWvppftlpj7wu3bt8keq1A+fKo+O0vqw6r6OcKqQOnofOXLEPfzww77C9ujRoyw0VJm0rI7oWkbrnTBhgsvNzfXP79Chg18ulSrISy+95CuD1hmE7epou3HjRl+myqIKGtal163n6HG9F73ecPQP29TzzzzzTP9YVcLyWpdev9673pe+ggxHctH2NK91rlu3zq9fFTl8KyLhdST3afI1hP2Ruj8VPnodyf2p00C18rROhYfee1ivXmNyebRu+jz2nz8/nitX40GKNWZhc75gjSqaWjYffvhhXAKgtuZHITFm7Nh4rlyDdGY2NR1p1ZxOnnIAaDgN0pnZ1EIHnjrrADS8mgdFBv5ytKEMHDjQvf3225X6SAA0jBZx6qFvOpIdmAAaVosICgCZRVAAMBEUAEwEBQATQQHARFAAMBEUAEwEBQATQQHARFAAMBEUAEwEBQATQQHARFAAMBEUAEwEBQATQQHARFAAMBEUAEwEBQATQQHARFAAMBEUAEwEBQATQQHARFAAMBEUAEwEBQATQQHARFAAMBEUAEwEBQATQQHARFAAMBEUAEwEBQATQQHARFAAMBEUAEwEBQBTmxLnon8VjbprpMsr6BTPlVow5eX4HtJZtvEL98baw27f4eNxCZq7gm7t3MVndHAX9cmJSzB//nw3ZuzYeK4cQVFPW/ccd9Pn7fEfuG8P6RiXIhvsO1TinnnvoL//QNFJrkvHNv5+a0ZQZEAIicfGdYuOTm3jUmSb8P8473vd45LWq6qgoI+iHh5/cz8h0QLo/2/SsDz3+Fv74xKkIijqYd+REkKihfi7/rlu3V+PxnNIRVDUkZqr557WLp4DWjaCAojtO/RlfA+pWmRQvPHGG27IkCGVpv37OQcF6qJFBkVubq77+te/7qeSkhL3xz/+0U8A6qZFBsUVV1zhnn32WTdt2jRXXFzsTj/99PgRAHXRYvsoVq1a5YYPH+5POZ5++um4FEBdZG1QvPPOO+6HP/yh+853vuOnmTNnus2bN/vHFBIjRoxw559/vnv99dfdCSc0/ts8fPiwn9I5cOCAO3bsWDyX3t69e92uXbviOaBpZV1Q7Nmzx40ePdqNHDnSvfjii+7IkSPu008/dT/96U/d2Wef7aZPn14WEurUVEgUFBS4CRMmuJycxvtNv17T6tWr47lyCo8VK1aYQaH3uXv37ngOaFpZFRSqXOp/UMfkm2++6TZs2ODmzZvn3nrrLfeXv/zF3Xfffe7xxx/3gRBCQvr27et+/etfuw4dOvj5xqKWg1oGSeozSaX3ZQWHVNVCATItq4Lirrvu8hXtvffe8y2KJIXDj3/8Y38KsnPnTvfuu+/GjzQdffuSDAZVdAWHygOdLi1dutS3PhR8S5YsiR8pp8DRMnp85cqVfh5oTFkVFGo93H///a53795xSWW33367GzZsmHvsscfikqbTtWtXfxtaFdu3b3e9evXy90XlOkW5+OKL3eDBg31Zu3aVf+2pENHjAwcOdIWFhT4wgMaUNUHx0Ucf+UqV2pJIZ9SoUe7DDz+M55rWaaed5l+36LZ79/K/UFQ/RF5eXlk45Ofn+9uk0Cmqlsn69evL1gU0pqwJCp1OSLKiVUWdlzt27Ijnmtapp57qWw5btmzxLYzkaYfuW30TIUTUz9KvXz8/hdYH0FiyJijOOussf7t161Z/W52NGzf6JnpzoVbFn//850qvSS0I9TcoRPRVqFoMqRQUCj49Fk5VtDzQmLImKM444wzXrVs397vf/S4uSU8/2dY3HJdffnlc0jT0WkPrRxVdLYHQmlA/hQJA0wUXXOBPLQ4ePOj7ILSsJJ+v1oRCRWFy/PjxtKcoQCZlVWfmAw884GbNmuWWL18el1T2k5/8xH+ToGWbkk4zQoVWIOgUJFAYhFMKhYeCQB206q8InZ3J54uer+X03OTpC9AYsioopk6d6oqKitx1113nfvGLX7ijR8svNKIfJ+kbjwcffNCHRHXfjAConawKCnnhhRfcpEmT3JQpU9zJJ5/sLrvsMnfOOee4U045xc2dO9fNnj27yVsTQEuTdUGhX1s+8sgjbtOmTW7GjBnuyiuvdGPGjPH9EuownDx5crwkgIaSdUER6NRCofDwww+7hx56yI0fP77sB04AGlbWBkVzoHEh0HJ06Uh1qAp7po509e2te+w/5AJaAoKiHs79anu3bNOReA7ZTGN66JL9SI+gqIdJl3Vyzyw56C/dj+w1/8PP3f7oNHLMkBPjEqRiSMF60iXeH1y4z9+/uE8HV3AyAwJlA/2/bfnbcd8i1LixE6PQB2OPZpxaFRppirEhsoc6Ly+KQqJLLoMTBwQFABODFAOoM4ICgImgAGAiKACYCAoAJoICgImgAGAiKACYCAoAJoICgImgAGAiKACYCAoAJoICgImgAGAiKACYCAoAJoICgIlL4TUgXTdTgwLtO8x1M7OBhlvgepkVcc3MDNIl+3U154KT2/HByyKlwf6lH8+DS/WXIigyZPq8va5/z/Zc7j2LPfHWfl8J7hjVubSgFePiuhnwwoefExItwPejgFDLglHfqkZQ1INGmCIkWga1Jp557/N4DqkIijrS+e25X82J55Dt/EjmJZXOwhEjKOqhS0c6LlsSRnmrGkEBwERQADARFABMWR0Ue/fudQ888IAbOXKku/TSS92ECRPcihUr4kcBNJSsDYrNmze78847zxUXF7vp06e7Rx991F199dVu7Nix7sEHH4yXaj2OHTvmJyATsjYohg8f7m6//Xb3y1/+0l177bXukksucbfccotbvHixe+6559w777wTL9k0Pv30U7dy5coKk8oyZdeuXW716tXxHNCwsjIoXn75ZdezZ0935513xiXlevfu7R555JEmb1UcPnzYtWvXzvXr169sys/Pjx8FsktWBsWqVavcqFGj4rnKrrrqKr9MU1NQ5Obmlk2al61bt/qj//r1632ghLLt27e7DRs2+MdUrhaI7uv0KlC5nqdytSJ0P90pR7ptAHWVlUHRtm1bd+jQoXiusi+/bB4/nAmVPUyq0Opb2bNnj+vbt6/r1q2br8iyf/9+t2XLFt/qUKioU/bAgQOusLDQV3qFgugURoGjcnXmKlxSgyK5jc6dO5dtA6irrAyKyy67rNo+iFdffdUNGTIknms6qsAKizBpXhVeQaCKXFJS4sMgVPTu3bu7rl27ul69evkyVfS8vDxfruUUDMlyhUU62oYe1zYUqsltAHWRlUFx5ZVX+tt0/RA6mqp8xowZcUnTCZU5TAoIVViVd+zY0U8DBw4sOyWpieSyVT1P29C26roNIFVWBoXMnTvXf7tRVFTknnrqKfeb3/zG3XPPPT5E7rjjDl85mqPQOlDLQVNtKGAUAnq+6JQkHYVEchuEBOora4NC325s2rTJfetb3/IX27jvvvt8+WuvveamTp3q7zel9u3bp62galmosi9dutRP4StTLa8pUGUPwmNan749USdl+GFZWC75fIVkchvq+wDqo0Vc4eqll15yTz75pP8NRWPRn5nrehRcFanlGPdvu92873WP51onrnAFoM4ICgCmrAwKfU3Ypk2bsunGG2/0X5cmy3QqAqBhZGVQqCdfv0EI04IFC/y3HcmyadOmxUsDqC9OPQCYCIo60kA/+uYDLYe/wC7SahF7RqcigwYNiucahz5UuhirhhBE9lu26Qt38Rkd4jmkahFBof6JJ554Ip5rPPoNxYML98ZzyFZqGT7+5j4/tCDSo61VDxrk9ur+Hf0PdXREQnbZd7jELdv4hZs+b497bFw3V9CtbfwIUjH2aAPQEWnZxiPujbWHOc/NIjp1vKhPBzfmghMZXDrGIMUATPyEG0CdERQATAQFABNBAcBEUAAwERQATAQFABNBAcBEUAAwERQATAQFABNBAcBEUAAwERQATAQFABNBAcDEhWsagC6pNn/F59Htl3EJsoEupntRn5x4DsIVrjLkwVc+80Fxdf9cd+5XK49ejuZJly9cu+2Ye3PtIa6XmUBQZIBCov9X27tvDzkxLkG2UWDo//GB0ScRFhEuhdfAdCHdkzqeQEhkOYWDQkJhgaoRFHX0woefExIthMKidECnSo1rxAiKeqCp2nKce1p7t+5TxmapCkFRRxoTAi3HSR0Z16M6BAUAE0EBwERQADARFABMBEWGHT582O3du9cdO3YsLknv008/9csCzRFBkSEHDhxwS5cudStXrnTFxcVuyZIl/jZQKCgcgu3btxMUaLYIigxZvXq1O/XUU93FF1/sBg8e7G+3bt3qWxeyZ8+esvtAc0dQZEA41SgsLIxLnMvNzfXBoVaEps2bN/vl1OJQ60NUvmLFikqtjw0bNvjl1EIJ5VpWYaTlNQGZRFBkwKFDh1xeXl48V05lOr047bTTXO/evV3Xrl19ayO57AUXXOAnBYnCRoGg29AqUbiEYNHtwIED/fJAJhEUGZKuv+H48ePxvfQUIKLWhyggQjCsX7/eT1rv/v37/eNaLiwLZBJBkQH5+fm+QqeGhVoHIQxqql27dq579+6uX79+flKrorbrAOqLoMgAVW71T6hfYcuWLT4gdF8tBFV66dixo9u9e3dZf0ZVFDrqBNU6tKz6KKpbHsgEgiJD1AfRt29f36pQBVeFV1+CQkTUP6EwUQCIOjqTpxF6vpbVcnqeTj+0bPv27X15586daVmg0RAUGaTWg8JCpwwFBQVlIRGoTI+pXJU+GRQKkbC8ypPrEXWAKlyAxkBQADARFABMBAUAE0EBwERQAJHPuLButQiKOio4uR1XbW5B1v31qDv3NEYNqwpBUUdjhnR0j79V+lNqZDcNAuTaONeFC+xWiaCoo4v6dPBXbn7mvYNxCbKRQmL6vD3ujlGd4xKkw5CC9fRE1KpYGzVb/65/rusVnY4gO2i4Bf2/6ZSD4QTLMfZoBumopA+cPnjIDr2iYFA4XHRGh7gEQlAAMDFIMYA6IygAmAgKACaCAoCJoABgIigAmAgKACaCAoCJoABgIigAmAgKACaCAoCJoABgIigAmAgKACaCAoCJoABgIigAmAgKACaCAoCJoABgIigAmAgKACaCAoCJoABgIigAmAgKACaCAoCJoABgIigAmAgKACaCAoCJoABgIigAmAgKACaCAoCJoABgIigAmAgKACaCAoCJoABgIigAmAgKACaCAoCJoABgIigAmAgKACaCAoCJoABgIigAmAgKACaCAoCJoABgIigAmAgKACaCAoCJoABgIigAmAgKACaCAoCJoABgIigAmAgKACaCAoCJoABgIigAmAgKACaCAoCJoABgIigAmAgKACaCAoCJoABgIigAmAgKACaCAoCJoABgIigAmAgKACaCAoCJoABgIigAmAgKACaCAoCJoABgIigAmAgKACaCAoCJoABgIigAmAgKACaCAoCJoABgIigAmAgKACaCAoCJoABgIigAmAgKACaCAoCJoABgIigAmAgKACaCAoCJoABgIigAmAgKACaCAoCJoABgIigAmAgKACaCAoCJoABgIigAmAgKACaCAoCJoABgIigAmAgKACaCAoCJoABgIigAmAgKACaCAoCJoABgIigAmAgKACaCAoCJoABgIigAmAgKACaCAoCJoABgIigAmAgKACaCAoCJoABgIigAmAgKACaCAoCJoABgIigAmAgKACaCAoCJoABgIigAmAgKACaCAoCJoABgIigAmAgKACaCAoCJoABgIigAmAgKACaCAoCJoABgIigAmAgKACaCAoCJoABgIigAmAgKACaCAoCJoABgIigAmAgKACaCAoCJoABgIigAmAgKACaCAoCJoABgIigAmAgKACaCAoCJoABgIigAmAgKACaCAoCJoABgIigAmAgKACaCAoCJoABgIigAmAgKACaCAoCJoABgIigAmNqUOBf9q2jUXSNdXkGneK7Ugikvx/fSO3jkoFu0/m1/C6Bp9ejSww0oGOh6dO4Rl9TM/Pnz3ZixY+O5cg0SFAtXveLmfTCXkACakU4dOrmJwya5Ef1GxiW2qoKi3qcexbuL3bNLniEkgGZGdXLW72e6NdvWxCV1V++gmLf8+fgegObog43L4nt1V++g2LlvZ3wPQHOkVn991TsoOOUAWj6+HgVgIigAmAgKACaCAoCJoABgIigAmAgKACaCIkv07znAXT+oyF3YZ2hckjna1rgLx1f7B0V6HfpbgqCwe2GF+ZrQ+mv7HDQNgiILqFKOHzrB7dq/0/WJKqT+0CdThvcb4YrOG+3WblvjHrrpn+PSilS577nuXjf8nBFxiXPjhlYfLOlMvHxSrZ+DpkFQZAEdrfUn/Ms3LXcLP17oFq9fVFauypycBkStAd0mK2CYVwCE5WZMeCLt0Twvp5Mr3rXJ/yHRbf8+OS6tSNtds221G3Fu+V8l9uh8iv+psP68+e4oRMJ29JeL2s7sm+f4Wz2u8qKodTSg58AoLG71rxnNG0GRBT6IAkKVfMpV01wnVeS4Qk4ZNc3NeutJd/+L97ln333aVzg9porev6C08qklsjgKmd75ha53VMG1rCb9oVCyRSCqyPknneIrdwgalaUGioJi+cblpeuIWiD+8TaljykE9Fq0jX/9z3/xrR/9zF+vYVz0WvQe9JoX/dcitzNqIWm5hvjrRmQWQZEFVPn/8fnvR6cDq93d19/rK+rQwqFu0bq3fWULy2hSpdStllGYqL9hUdQCGRFVaB8uUUXV1D86mqdSuSq/KnjYjloHCqek/Gg9m6NtqHWjANNyO/ft8EGlZUMgTBx2a9nfAvllo1aEQkSvOTwH2YGgyALqxBRV+OVRRVafxYkpR3kd2UPFU/9CYX4f3yGpI3mgI/ms35dOCz9+xb0aVd4gnBbo6K6gUQjp9CRU7CStW381rBBQsFwfhcWaraWtAp0ehW28uuoVHzqi8NDpU+iMVVAU76r/XzWicRAUWWDoGRf5c3mFgS5vpj4KnY6oj0AhEq5iFCqeKnGnDidGU54PF1kbVWS1ErSOKVdN9RU1SZVeYaFOSa1T61bFHp7ohwh0WhLCQy0FtSTUwvAtmegUR8/3ryt6zVqvTn8OHj7gL3CkFkigwBnaCN/ioP7qfSm8256bXOmIg4bnm/VRRdYRPzTn1QIobcJHR/cvDvry8Jgvj/5fwrxoed+PEQWKKnWqsD5tRy0DPVfLp/Yh+NZA4vl+ndG8lg/r0P1Qllw+uT7d12vkmiaZpf2svqOayNg1MwkKoHlriKDg1AOAiaAAYCIoAJgICgAmggKAiaAAYCIoAJgICgCmegdFY1xIBUDd6Zex9VXvoNBv9/2fGQNodvST+usHl/99TV3VOyj0QmaMf6LChVIAND1dYkA/3W6Iulnvv/VICn8EBKBp6QBel4DI2B+FAWg5+KMwAHVGUAAwERQATAQFABNBAcBEUAAwERQATAQFABNBAcBEUAAwERQATAQFABNBAcBEUAAwERQATAQFABNBAcBEUAAwERQATAQFABNBAcBEUAAwERQATAQFABNBAcBEUAAwERQATAQFABNBAcBEUAAwERQATAQFABNBAcBEUAAwERQATG1KnIv+VTTqrpEur6BTPFdqwZSX43uojb1797qXXnopnkMmdO3a1d1www3xHOpj/vz5bszYsfFcOYIigzZv3uwGDx7swwKZdeWVV7rFixfHc6irqoKCU48M+vjjjwmJRqJQRuYQFBl0xRVXuN69e8dzyKSbb745vodM4NSjEahVQcsic9RHoQn1Rx8FABN9FADqjKAAYCIoAJjS9lF849rzXE6XnHiu1PihE+J7AFqqdevWuafmzInnyqUNCgBI4tQDgImgAGAiKACYCAoABuf+P/ZXokMlrfACAAAAAElFTkSuQmCC;" vertex="1" parent="WIyWlLk6GJQsqaUBKTNV-1">
          <mxGeometry x="163.53" y="319" width="30.18" height="64" as="geometry" />
        </mxCell>
        <mxCell id="YcHYLUiHtxIJwsrw_Ox9-17" value="" style="shape=image;verticalLabelPosition=bottom;labelBackgroundColor=default;verticalAlign=top;aspect=fixed;imageAspect=0;image=data:image/png,iVBORw0KGgoAAAANSUhEUgAAAQgAAAIzCAYAAAD8o4cMAAAAAXNSR0IArs4c6QAAAARnQU1BAACxjwv8YQUAAAAJcEhZcwAADsMAAA7DAcdvqGQAACu/SURBVHhe7d19rF11vefxVQq00PKoFCIFW56xJZQrUtTRKxUzGoFBnIRiJmJA5GYSQB1NHB8Sb5xrjBoV/GMG8Rru5MaCGR9GULlRiuMjRR3K0Ao+QBGKSotaC4VSwM56/876HlZ39/ecvc8+p+eh71e6svdee63f+q2H32f91jp7d8/aWVX1P0na3T7NoyTtxoCQlDIgJKUMCEmprjcp33LdBc0zSXuLr1/9zebZC+xBSEoZEJJSBoSklAEhKWVASEoZEJJSBoSklAEhKWVASErt8YCYN2dedc6pK6qzjlvejOluwcELqgUHLWhe7WrRixc3zyRNpD36UWsa/ccu+qfqjl/eXh1BABx8ZPWRr32oeXdXV517dbX+0XXV6vtWN2OqasnRS6vLX/vOatsz29L5pKmAkyDuaB2/gZMkJ8ilR59WnmPD5gfLtJue2FRet+27z77V0YcdXU87v9p39r7N2JE99/xz1Z+efLx6bOtjzZjRTfpHrWng6zauq26666bq89+7briXwOPFZ60c3li8ZuO1w4H3zl92QQkXNqY0lV197jVl6OwFcwxff+kN5b3ldUgsPmJxfawvrVYuv6S6/h031CfG3ec59kUvrZ7c/mQ1f+786kXzX9TT8PSOp0qgMM8g9mgP4vzTzy89hy/98J/L639915er9656d12LqrrsNe+sQ+Pa0jtgQ33kqx+qlixcWq2vA6WdqgQJ09x6zy3NGGnycQKjd7xp66bqE9/6ePX1q/53GX/ljVcMH78EAdOsq3vGN69ZVR4Jg207tpX5ObZXnPr6Mr7dQz7pqJOr/WfvV+btFW3kv9z0ntK4N/XYi5j0HsSaDWuq5cefXX3gzR8sAxuFjRcblZWia0Yvg/Hnn35B2XhtJO5Dj29oXkmTi0ZPI+dYXvzixWXI0PA5zhmWLDytnCA5GfJIz4FLDE6Yn//utc0cY0d9wpmLX9E8698eDQiCgET90g++WN269ptlg7WxUnS1QJoSBnTD2hYcdGS1wYDQFBA9gstee3kzZnRrHlxTetIr6+Ob4/imuidxS90WuKwmJMoJs9VjHg/77bNf86x/ezQgSFdCgF7BxXUQ3HHf7WU89yYi8eh6rX/0Xq46ygYkVEKZpn6DnoY0GejhcvkQNyHBtX4/uAdHT4ETJTjOuaRgmIhje13dnsZqjwYEifuZSz5XhrseuHP4JuTVb7imvMfGYRwDvYu7HrxzuJdx+WsuL/MREjxKkyFuIHbeSOwXoXDesronUZ8oV55V95p31j3sEXoOj/z5kdLTiPYx2kD4zJ69b/XMs9urJ7Y/0ZTSP/9HKakPXPKet+yCcolMI+eyoJzs7l9d7qvR4+VmO3+mp2fB/YaRcCmd/XkzzN1vbnXSkSdVz/3t+Xp4rhk7Mv40il/+fn157EW3m5QGhKTC/3JOUl8MCEkpA0JSyoCQlDIgJKUMCEkpA0JSyoCQlDIgJKUMCEkpA0JSyoCQlDIgJKUMCEkpA0JSyoCQlDIgJKUMCEkpA0JSyoCQlJrwgIgf7OW/+JY0vUxoQEQ4xM+TafLw37WvaP3YSyd+1Ij/gr1f7GN+p2Skn5zT9DVhARHhQDCsvu/24R/s1fjhdx35laf4VbKR8HPz55z6+ubV7hYdsXj4Zw87xXIY+B1J9msEgsE/s01IQHSGAz/1r/EVvbLyg8en7N4zIDQW1Y2Y6TLxfi+NnF914ndV+SEYymb/gh+P+cStHy+Pob3sXsJLU9e4B4ThsGfw25A0yjUP3ll+Mb0tuv2frQd+7en6S2+oxx3ZvDvUgNlHvH/VG64pPYTzl438Y0kEEb/+xE8hEhaUwUBPgvkjZPj5epb33+ryWcZnVn5utx9g1vQxrgFhOOw5y487u/z8Gz/b1nmmLmf3nVU54/+nL7ytTNfuSfDDybzmx2KZ5sp/uWLUM/3iI44rocTApQgh0flDs+z/y15zedn3lPmWz/+HEmD8PN1o5WtqGteAoKtLOAz9PqHhMFFopDS4dRvXlV4EDfW804f+SsQZnX3wpR9+cfj3Hm+555bhH0HG0pcsrRvx0A8kg/116927/+xa2+IjFpfeAcO8/edV61vlBS4rqNeta28ZDo+b77qpjOMeiKafcQ2IW+sDkQOWMwlnDU0Muuw06iULl5aGxzbvvMzotO2ZJ5tn9SXG3Hm7vMaTO0b+2fnVv7x9+CfquQ/BpUtnryBet3+INoKCUNH0M64BwcHAAcQBy5/UDInxR/hyeVHNqoZ+Or4eGEfPgcsGGif7YcnC05o5hubhEiFs2PxgKaPdwNuXIKOJRt/5p83NdWihXRa9HTxUHxOafmZ/tKrqf7u6+U0nN8/69+zzz1Y/+s0PqzNe+nfV39UDN8fuenBN864GRY+Bxv3eVe8u3Xe68wzcZNzx/I6yrZ99bkcJDkLhpKNOqv7hnP9c7T97/2rLU1vKPYtH//Jo9e9Pe+PQ5UIdEjEtzymzE2WzH0866uSy7IvOfGsJCf50TfhQDnWI3iPlHX3YwjItz7lf8W/r/q0pTVPVyu/8qnn2gnEPCBgSE+e0+ux89+/+b3X3w3c3Y4Zseeov1aHzDi/v/fqxX1eb657EoQceVu2/7/7Vv/7kf9bjflUaNfcOCAr2D4FwWD3P+o331g34trqUWV33E41+2zNPNa+q6q4H7qz+x/f/e9nP9GTmzZlf3bWhDqb6NfNTl/iryc13rSqXnpr6ugXErJ3lfveu3nLdyH/y6hUHIHfU6YretGZV17OTpKnh61fvfqN63D8H0Rb3JPhT11PNdauk6WNCexCSpo893oOQNL0ZEJJSBoSklAEhKWVASEoZEJJSBoSklAEhKWVASEoZEJJSBoSklAEhKWVASEoZEJJSBoSklAEhKWVASEoZEJJSBoSklAEhKWVASErtkf/Vmt/H4Idd+QEWfliWH1VhHAPjAr/fyDhpb8VPRWxrfie1PG8Nm7Y+Vn5akZ84jB9tHk/d/lfrCQkIGjm/9M3PuS1duLSEgqTxxQ84ExT87sz6jet2+dHksZjwgFhy9NLyW4z9/BCspPGx+r7V1c1rVo05KCYsILhM4Je8DQZp8o01KCbkh3MurnsM1196g+EgTRErTl1RXf+OG0rbHNSYA4Jew2cu+Vy18qyVzRhJUwltkzY6yD3AMQUEv9b9mZWfK4+Spi7aaPzC/lj0HRArTn19SSX/HClND/T2CYmx3AboKyAIh6vOvbp5JWm64IT+gTd/sO+eRM8BQcGXveby5pWk6YaQ6Pdyo6eAoIvygfM+6GWFNM1FT6LXttxTQPAZBz8NKc0M8bmlXowaEOecusLPOEgzzPLjllfnLTu/eZUbMSBIGj46LWnmWXnWJaNeaowYEBeftdJLC2mGIhzOO33kXkQaEPQe+LOmpJnr/GUXjNiLSANixSkrmmeSZqrRehFpQJzzMnsP0t5g6cLTmme76xoQfJDCew/S3oG/UmbtvWtA+GdNae+yZGH3Nt81ILKJJc1M2cevuwbEgoOObJ5NrK1bt1aPPPJI86q7XqaZLliP66+/vqzTTMO6fepTnxp43SjnpptumpHbaCrL7kN0/S/nqp27j+oFB8ghhxxSvetd72rGjOzqq6+ufvKTn1Q///nPmzG7o8xPf/rTZZpjjjmmGTs1Ude2pUuXliHqzfrefPPN1Y033li96U1vKuP61V7GwQcfXB177LFjLms8xX762Mc+1vP+Jwx+/OMfV69+9avHdRupf/wP2fPmzm9etRAQuw1j8O1vf3vnggULylDv9GbsyK666qqdL3/5y5tX3X3yk58sZT788MPNmKmLep5wwgk73/KWt5SB56xf1J3Hugex869//Wt5PRYsgzIpf8WKFcOv2f6TiXVjX/WznzhOqP+qVauaMeOzjTRGXbIg/TNnv0h9zgKc1TgrdKLLSPf6mmuuqT7ykY+klw3MO9o04Tvf+U45c3V2R+miUp8Q3V/K5bFdbry3fv36ZsyQL3zhC6V8xDQ8sg4xvhvOel/72tfKsHr16qo+0Mu84DlD20h1y1x88cWl/Ntvv730rF71qldV73jHO0pvLHRu7/Z7GG1/jFQvymIcZWR1Zh+wDWMaymFcTMt24DVuu+224fL63UZMyzj2H/slWx+NUbfU6Bepz5mAHgFnthNPPLF5Z0i9E4fPdjwyDWe9Cy+8cJcexIc//OHhMyLTxPQ8djszxRmIM1fYsmVLOXNTF3Bm5TXDpZdeWsqmfnHG7XYWA9NFGTFN1KW9vDbei3kCy2W9wDKYJtZltLp1ky2fMtieoHzKinI76x3vM9Rd+uHljlavdevWlfcph/IYzyPbJ7YRj4jjgGlin8c8LIch6sU43uc46XcbMR3TUxbTxHLa66MedcmCcQmI2KkcQPE8DhTQZWQcj6E+e5Rx7HDEAdY++NnB7HTGZzubAyMaBtoHGGERBygHHxjHaw4gxsVyma+N+ToD4u1vf/uIXV+moWzWgSECMOreefDzHkNWt26Yv72NQoQrqHd7OYj3WRcaVzwH+42GVZ+By+usXoQJIiB4jGliG0WZ0VDbdb333nvLuM7t2t72/W4jpmN6xoUYF8GsHnXJgnG5xPjKV75SLi+WLFlSuthcZrS74XQhea9984puMjfwQky/cuUL/0s2ZbZfd8Py6PJGF5q60OVmXrqddDXf9773lTqBm6hXXHFF6Zr22w298sorh8vJ1Adn9dOf/rQMlE9dWGYn6sv73NTrVre60ZZxvYoy6Kaz3mxvyo9tw2tQLnViem4Ist15ziXLG9/4xuFtxr5q14vLmWuvvba8DqNtD+Z7//vf37waumnLDUmOh170s404ngL7nqHfbajdDRwQ7MD6TFB2EM85QDkIuAfAc9Boumk3HHY42LFtIx2A4GBhGg70qEuESiy3vRxw5x9ZvQbRvgdBo+Igr7vGzbsvyJYddYvt0SsaNuvJtojw468KMRCc7BemYeD+CHW94YYbqjPPPLMMzBNG2+4YbZpu7y9cuLDndRtt/7XL6aW+6t/AARFnfg7CONAYx86LBOeMtXHjxuHAAM/bjSR6EzSoNg78kXDwRCBxs4qAibPJaacN/W2X0GiLm2MsMw6+dt1oKO3GMlaUzTK6lUWd0XmWi+3Z7l2NhvKZjx4AaEBshwgqBs7+9KQIBdaVeTi78x43OnnNTUUaMDq3O+VH3XpFmZ3r3u7NjCbbf2PZRhqbgQOCg4oA4CBrDyQ6DRac0QmM+jqxHCDs4PoadZczAI2ag5puLw2Yabgb3ctBSXeYspi2fRnDgUhD5CxJmTRG6kSYMB3LYxoeWY9Ybn3t2pTQPxof68gQf/Fg+3Rimd3qRj1iW2SigTMPy2C7Mn105wkCGjjbsr29ec1+YV5ef/KTnyxlRFBTBqHGtqEeDLzPfuCvJDzvF8th+VEHls2lCSKcKZd6tkMa2f6jXrH/NMG63ZjoVb3Dys2geuc1Y17ADaL2zTZujHGziekZuHnFzSrGhfpA3WUabvLFzTXeG0nM1zkdN7Xiph0DNz3rg6x5dwg3z2J+3qduvO68mcbjSGIZMVAW6xDboPMGXLe6sb4xfTcxbQzUk/XpnKduRLtty/a2YZ64ARzvRxlZvQLbh/FtnduoDoPhurW3bftGNWL/MlC/XrZRe/8xHePbNzrBMlkn9aFLFozrJyl7wRmEM8dI14xxJunnupJLG87U1113XTNmV5RZN4ARl91L3SZCL3Ubq9HWaaT3B6nXRRddVHom9CbBcgY540/kNlJj1qzmyQv2eEBMBLqffEDm61//etfuvPa8zoDQNNAlIMbtk5STKf7MajhI42vaBwTdzle+8pXppYUmB39R4S8mmt5mxCWGpHEwUy8xJE0MA0JSyoCQlDIgJKUMCEkpA0JSyoCQlDIgJKUMCEkpA0JSyoCQlBq372I8++yz1TPPPFPt2LGjGSNpT9pnn32qfffdtzrggAOq2bNnN2P7MFH/H8SWLVuq5557buwVkzQunn/++erpp5+u9t9///7/Y52JCAjCYb/99isVkjQ1EBJ/+9vfqkMPPbQZ04Px/jYnleB/sjMcpKmF3jxtk8v+QQwUENu2bSsVkTT1zJs3r5zEBzHwXzG85yBNTbPqSwbuSQxioIAo/1G2pBnLz0FIShkQklIGhKSUASEpZUBIShkQklJ7NCD4vkYbr8c6rlfMt3379ubV5Ig6tIexrs9U8uSTT45pPZhnkPXvdf6xbmfmae+rvdkeDYhf/OIXzbMhDz30ULV+/frm1ZBf/epXu+2UjRs3Vo8//nh5HjuvV8zH90Um029/+9uynqxbDLE+09kDDzwwpgbIurNPx6p9PIyE42ss9SP4OFZjX61Zs6Y87o1hsUcDgp9ubzdWPqqN9k5kJ8yfP795NWThwoXVi1/84vL8j3/8Yxmmm+OPP746/fTTh4ejjjqqeUdTEcdb7Kvly5dXc+bMKSGxtxno25ybN2/u69tiNGwCYNGiReWRMyvzz507t+wQwuOxxx6rXvrSl5adwXfb+Tw5j0yD2ElMf/LJJ5dyGEfIMB0NsR0wLJMgijMODZPywZnid7/7XSmDeSmP5TDtn/70p/J+jKOu8cWXI488sq8Gfv/995fpu22rRx99dPhsyvvUrVsdYp1ifcPRRx9dtgXjqBdlxDQc3JTDMhjHe2wf1vWee+4py2Gb88hymY7X1JXpwHTMx77mY7vt7cd7sX2Yj20Z2uOpwwknnNC8s+txQM+K+jzxxBPlo8Esl3qw3u36ttEzoGzqwn5n3zB9Z/3Y7nzT+C9/+Ut5b8mSJWU7xralbmjPA8ZzHLIObawv01EvlkcPqn3sxD7ivW7H1WTYunVr9aIXvah5NYrx/jZnvziQ+TVusBN4zcaOHcWOi5Vh47JhOYg4CBiYngOGRhE7j53GuJe//OVlXIRFG2VxFmBgWexAxrGD2/PyGjE/49npHIA8xhmFgyfq3Cvm4cCOgWXQUCiH5VA3wjAaf2cdAu9TZ+pBnTkQmZYDN7r8NLrYPpRPw6B8vjcTvS/Wn23NeB6j3Fe/+tXlP/9hX4D5+Uj9mWeeWablPerfFtuS5VAvyon1oO7stwz1Zb0pn/lif0Z9R7sUYd/Q+LL6cebnPeoVl7OxbZme7cu6sg6joQfMdAysH9uYMlhvyqZchs7jKrbFdLRHAyLOBGxEEpxw4ADiOQgPxoGd3nnm6BQ7lR3MQREHf2fjZccGnrN8QgLME/MyX5TZnof6MQ/TMVCvzmWMhgOVdYoB0VuK9eRSKg4ytOsAxlO/9voyL68pkx4EDYzHWAYBy/s0JLZvlI1ouDy26xVnSFA+ZQSeU+82pmU6GjP1Ynnt+WOfZqIeTNeuB+NH+7oy+2ak+kXZlBnbGbFtGUdAxX7vBevX3sY88prxHBds4/ZxRdn9lD+V7NGAADsmNmJsYM5gbFx2Vnsn9oLpKScGehftMy66lcnyO+cl9btN2zkd9Y0Dr1cc/HRlY4jldC6v2/JDNO52XeKyAqw3DZPx4KCMMxvLZNp+ZdujLduWe0Iv9QvZ+F4RPJ3HVqDs2D/0fNrbon0SmG72eEBwMNMtJrVDjIvLi16x8dFufOhlZ9DAaUA8Mh+PcSbsFDs6lsH1bEzHPHFgUF77+WhnDcKS6+1AWcyT1Z86cIC215czLNMzH9uQbm1c/1Ie25meSYRHvyinfUamvp09G7ZdhBBDvAaPY1nuSKhT7HseR6vfoFgHLhs4PtmODCynvY68Zr3ZNxwfvRxX08GkBAQ7mA0XGMdG5HE0zEe3Mq4nuf7jGo/XcbbsZWcwDcke8/FnrezsENf6TEcXnhtqcYDGdT/oUkZjiEuWkdAd5vqeP6OxfMriWnkkcZ0edWF+1oVl00NgHZiGbcL2jG3FwIHbL9aTm3wsizqyTu0uPVg+y2Yalst0sQ/YHu0QHATLZltRdhwr7Bu2ddSP5XXWbyzo0bIshrVr15ZeQdxoZdlx7MRyec226nZcxbEyHe3Rv2JMJEKHnRMHZj/aZ6SRRBCMZRkjoVyGfg6kftZ3kG1DA+FGXK/r3uu2HG8TtW9GM9L6Tta2aJtWf8WYSOyIsR4cve7EsTay0VBmvwdSP+s7yLYJva57v+sxXnqt33gbaX0na1uMpxkTEJoYo13yaGYzIDSimXAW1NgZEJJSBoSklAEhKTVtA4K/d/O36m4Yz0eL40s8g8qWxZ+xRvusQ78oc7zqPQjWl7pMZ3z0u/1dDv4UymcmwPrFn0a7Yb9O9/UfD9M2INi5nY2IcfFhGT6fwYeq+PARH3IaRLdlgfHjfRDxQSPqPdk3B/kG7EgNaKojGNg37Q/ksT7xZcH4rwYyzDud13+8TFpAsPFJ8fYZmHEMNMZuZ+aYJ2uUnHn5RB+fpOPAICT4Mx3ltXd2lN+tHN4b7ewZ9aQRxwEYB1RWLuNjnbq9z7xRBuXG3/SjzJg3MB6d68ZzhvY6ZNuT97N1bX+nJcrrVgZ4n/dYTlvUJXS+bi+3c590Totu9ey2DjwnCNg32WcjWD/e6ywzlsu87fVn6LatYnxsG17PJLM/WlX1vw4f3X1UN0899dSYznRs5Hvvvbc855NepDmNedOmTdV9991XvrLLAcPZn8+z77PPPqUXsGHDhrJT+ew9H3fmR4Pbn+Rk+pe97GXNqxcsWLCglMHOY7n8XiHP+QgwB0H8+DBnbz4dyrSUBX5CnfoysCzqxUdoqRfPqTPjGce86JyXXg3YXo888khZl2OPPbaMCzt27CjjmYbvV7Bd+XVm6ssj24n3Dz/88LINHn744VLf+AVn6oyf/exnZduA9WPb0lioK/O/5CUvKe/xnPdjXfl/E9ofNf/1r39dlkM97r777vL45z//uZRFHUJsD8rhfdY3fnaeurHufBcErAvrSX3Z/pTLeyw/vmka32lob1tQLuvLdg/tdeA5xw3T87FzyotvgrYbegQH68d4ehrMH8cx4zkeWDYY396mLIf1YxrqyEetmT/2Dx9tb9dxsrENDjzwwObVKP7xH5snL5i0HgTfoeCz7aeccsrwdSHYwXy+nvHxLU8ODqahN0DvgHk7fxOUnR87OUMPgzIpn3J45OBG1CGWwZeeOPgoN3BAcJCy/G5npig35gUHK2cr1pWB70m0ywzUnfnjkYO3PS/bI75jEfjMP+911oX6UQ/WlTCkPObni1txluaxva4sq1u9mBY0ZMro/CIUy47l8X6sNyJgKCPKpgGB5Ufjb+8TeoDsc97jRBDzxXdNQucxwTpQJgPbhHqyvUZrrIQFDRuUSYBEvdpiHSkz1pF9wfJj/7TrN1NMSkBw4LDzSV+G9oHJ/5sQ4sCnYXIQtRsCO7aN97od4G2kaXs+Dt44gDmw2juY8jjIWDY4E1NX6sE83cT4dj07l0nDz+bvxMHaPsA5cKPBols57XEsK86e4D3mZ514jO1PSLLtum0/5mE78J0MArZdXuAsHGV1YnvRkNm+PI//e4EQiO3Na+rA/O2A4X3mA9uxvS069xfa0/eKbRrHDvMSup3a27T9nHnarzuPyZlgUgKCA40eAOnLMBp2QnQXQ7uhBHZ0twOEg5Gdyfud8/Ga8d3ea3/7kUbFWYpG289B2FkuzzuXM5J2o411GBRl0Fhj+zPwP0m1D/Y2zpCsO+EQPa7AaxpGti9p1Gyz6BUw8DwuK9mW9CroQTB/u9HTayEwCJhuX+Fubxt0NtheUTbLYFnUqR/tOvSzX6eLSQkIGl6ciejede7oTkzLxo8/WXFQtc80gYOM8tjZlMnA9S3T0yjorvOaxh7vRc8kDsZ4j3JYZhwwHLgcfCyD+Uarc+CMxPTUiYZBt7TXRk59mZ56tOs7KNYpGi3YPu1Llza2B++xfIKgs+6MZ7vENusU0xMI7EfKYLp2g2caBtazvV9jXsZ1XipQDuvAdgXrQK+03wYOyiakqF8/AcP+odfDsqkH+yewLrF9p7NJuUnJTR42JjvlgAMOKDdRuPHFQcZBETdVeM3NIJbB+9w44mBhPDf52tOC1xwg7Kw//OEP5f8x4ECMG4KUQ3kcoNxQZNnHHXdceY95WQY3QjnQuNQ56aSTyg2owLKYjjKiYcR4XsfNOdDjoTym5ZGDiO1FXVjvuHHXqR1KlMeNPurLuhx00EHD6xLbhqGtPX/Itufvf//7sj2pK0HGuoVYPxoNz6MOxxxzzPB6g2X95je/Ke8ddthhpWdI2W2x3VkftifrxM1Slsd7hBDlU3duKDMulsE0jI+bq4FyWA77OtbhxBNPHJ6POlP39v4Dy451ivcZeM2yY3vyOrZv5zaNMlgfBo5LymCfsh0IHOZnfzPdZGK7tNvIiLrcpJwx/x/EVMWBQuBwtgGNgXDs1h3X7kb6H8EnW1wqxX0LQo6AzMJ/Mgz6/0EYEHsAd+Dj7j1nRC5T4kyn7qJnwMHNXw+mIsKf+2mEBNin/LVjKjEgJKUGDYhJuUkpaXowICSlDAhJKQNCUsqAkJQyICSlDAhJKQNCUsqAkJQyICSlDAhJKQNCUsqAkJQyICSlDAhJKQNCUsqAkJQyICSlDAhJKQNCUsqAkJQyICSlDAhJKQNCUsqAkJQyICSlDAhJKQNCUsqAkJQyICSlDAhJKQNCUsqAkJQyICSlDAhJKQNCUsqAkJQyICSlDAhJKQNCUsqAkJQyICSlDAhJKQNCUsqAkJQyICSlDAhJKQNCUsqAkJQyICSlDAhJKQNCUsqAkJQyICSlDAhJKQNCUsqAkJQyICSlDAhJKQNCUsqAkJQyICSlDAhJKQNCUsqAkJQyICSlDAhJKQNCUsqAkJQyICSlDAhJKQNCUsqAkJQyICSlDAhJKQNCUsqAkJQyICSlDAhJKQNCUsqAkJQyICSlDAhJKQNCUsqAkJQyICSlDAhJKQNCUsqAkJQyICSlDAhJKQNCUsqAkJQyICSlDAhJKQNCUsqAkJQyICSlDAhJKQNCUsqAkJQyICSlDAhJKQNCUsqAkJQyICSlBgqI2bNnN88kzUQDBcS+++5b7dixo3klaSp5+umnqwMOOKB5NTYDBcT8+fOrbdu2VTt37mzGSJoKnn/++Wr79u3VgQce2IwZm4ECYp999qkOO+ywasuWLaVCkiYfvfqtW7dWhx9+eDNm7GbV5/7dT/999giee+656oknnig9CZ5LmhyzZs2q5syZU3r3nMD7Us/baVwCQtIM0CUgBrrEkDSzGRCSUgaEpJQBISllQEhKGRCSUgaEpJQBISllQEhKGRCSUgaEpJQBISllQEhK+W1O7XW2P/NM9cfHNjevqurQQw4uA/64aXM1d86c4dfY8tetZZ6jFhzRjBkd5fQz/ZTg172lqnro4Y3VnT9bW51y0nHl9aJjF5ZAuO17P6hf7SxhsOjYY6plp51aff9Ha0pAMP6oI4+ozj7zjDJPuPPna6uHfvdImaduTtWFb35DKevGL/+v6h1v+49DE02Am756S7Xyrec3r8aJASENBQQDwQAeCQHCgAaOm756a90Azxt+xI1f/mrd6N9anoMy1t573/A8lHH/bx4oIUJAHHrIIdX27c+UoDnlpONLr4VAYRyv586dU/dW9q/LebSee2f1un939nAgETJM98ZzXzs8H0458bihAFr11fr58fU8y+tlPlht2fLXer4nyvT0gG67/Qdl/qh7T/z/IKQhNGzO+vf/+oG68d3dNMqDmneHLkOGHreXR/B+jAfznv2KZc2roUuV6GFEYyU8aKzgkXE02ocernsd27eX5TIQDmvv/WUdGvuXeQgVwqY9H+O3bN1aejJcvkQwESBvPPfvyzTf+NZ3Sx0JrwvPG3p/EAaE9jr0GP7hsreVMzAN66HfbSxn8zbOwp04I3eOZ1w3hAnTUi7BEb2CmD96L1h07NHlkUZNncC03ebrvMRhHurw/R/dORQwdY8ElN9tHfplQGivww1E7kGABjh37tzq0IMPrs/Ej7fGDTWuuXPmltdxj6Ft2WkvK+VEr4IeBQ21Gxo5jZmywPNO9Aza9Sr1qBt5O4Q6y2ce6koPhPqcctIJzTvjw3sQ2itxtqVB03DPfsUZ5ZEu/dr/Rzd/qMHFGfy27/2fMo6zNw2yrf1+lEWjZhy9E9x2e/389X9fLgVo4DEtZ3nChemjR8F8lElD/+Njm4Z6OHWYUF/Qw+D+BZdFcWnBegz1JHaUywxwX+LsM1+4/OmJNyklpbxJKakfBoSklAEhKWVASEoZEJJSBoSklAEhKWVASEoZEJJSBoSklAEhKWVASEoZEJJSBoSklAEhKWVASEoZEJJSBoSklAEhKWVASEoZEJJSBoSklAEhKWVASEoZEJJSBoSklAEhKWVASEoZEJJSBoSklAEhKWVASEoZEJJSBoSklAEhKWVASEoZEJJSBoSklAEhKWVASEoZEJJSBoSklAEhKWVASEoZEJJSBoSklAEhKWVASEoZEJJSBoSklAEhKWVASEoZEJJSBoSklAEhKWVASEoZEJJSBoSklAEhKWVASEoZEJJSBoSklAEhKWVASEoZEJJSBoSklAEhKWVASEoZEJJSBoSklAEhKWVASEoZEJJSBoSklAEhKWVASEoZEJJSBoSklAEhKWVASEoZEJJSBoSklAEhKWVASEoZEJJSBoSklAEhKWVASEoZEJJSBoSklAEhKWVASEoZEJJSBoSklAEhKWVASEoZEJJSBoSklAEhKWVASEoZEJJSBoSklAEhKWVASEoZEJJSBoSklAEhKWVASEoZEJJSBoSklAEhKWVASEoZEJJSBoSklAEhKWVASEoZEJJSBoSklAEhKWVASEoZEJJSBoSklAEhKWVASEoZEJJSBoSklAEhKWVASEoZEJJSBoSklAEhKWVASEoZEJJSBoSklAEhKWVASEoZEJJSBoSklAEhKWVASEoZEJJSBoSklAEhKWVASEoZEJJSBoSklAEhKWVASEoZEJJSBoSklAEhKWVASEoZEJJSBoSklAEhKWVASEoZEJJSBoSklAEhKWVASEoZEJJSBoSklAEhKWVASEoZEJJSBoSklAEhKWVASEoZEJJSBoSklAEhKWVASEoZEJJSBoSklAEhKWVASErN2llV9b8OO3cfNZJtz2yrVt93e3mUNLkWHLygWrrwtGrBQQuaMT2aNat58oKBA+KWtd+sbr7rJsNBmmKuOvfqasWpr29e9aBLQAx0ibHh8Q3Vl374z4aDNAV9/nvXVeseXde8GpuBAuLmNauaZ5KmIi79BzFQQGzauql5Jmkq2jxgGx0oILy0kGY2/8wpKWVASEoZEJJSBoSklAEhKWVASEoZEJJSBsQ0sOTopdV5p59fnXPqimbMxGFZF5+1csQv+px13PJq3px5zauqWvzixbu87gXl9zuP9jwDYoqjwV7+2ndWm5/YVB1ZN6qrzr2meWf8EUDnL7ugWv/ouupjF/1TM3ZXNOr/+uYPlsAKFy8fOVC6uey1l5dg0dRmQExxS+uA4Buzax5cU91yzy3VrfVz0LhoxO2BaXlsNzxe03hp+DHdZy75XNez9/z951UbNj9YvuBz5b9c0YzdFWWve/TeXb4luOCgI8sX9/ia8Qfq8IjlnLdsKESuv/SGsjzeZ/yKOoiWHn1aHSyXVMvr3oimLgNiirurDgYaNz2HeTTgpiFe9YZrqs9/99rqI1/7UPX5711bwoH3aOCLjhgKCOa764E7y/T0RJiWgXHnnLLr5QoN+IhDjiwNP3oDjOsMkhIQG9dVd9x3e+lxlPebbwnT+L/0gy+WZXziWx+vVp51SRnPtIQB60CdCbtNdY+I6XiuqcuAmOJo9O9d9e66239v9YHzPlga6PLFy6vVv7y9NDLwpTmm47sxnP2ZhlDgXgG9jmjINFCGJfXZuxPjCQ4adiyH3gCh1HZEXS6XIJRLADHdpq2PlUemjSC47DXvHP6uTpm2viQhPKhzzKOpz4CY4uJaf/V9q6s1dQOm0R/YcVYnAKLB0XgXH3Fc3b2/oJy5QThw5qanwXDLPd+s7rh/dXkPvE+gEC4EDeHDZUg06DbKpuEzECgEwobNG0oZ9AZiGTfftaqEDZiG96g7CBnm0dRnQExxy48/u7rste8sIcDzO+qgiMsOwoPGx2VBNDga7rw5B5bLBEIFTE+vgDL4X4Y4g8fZHUPzcPZfWcpkOfw/Aue8bPf/jYhyCRHQM6AsQolxi+tLG+ZnoBdBuSvr+m3b/mQJjbhvwb0Ogsb7D1PfQP/l3JU3XrHbGUbjj/sLNGDO8NGwOeMPddU3Vdt2DJ3R470yvt4v8RpMX+5T1EESDbwtyoueAPMyfef/SMQ07fnby2Je5uE50/DYnr79nOmYz/9TZGKxnbk31JPx/j8pDQhpahs0ILzEkJQyICSlDAhJKQNCUsqAkJQyICSlDAhJqYECgg/GSJq5BgoIviEoaeri06uDGCgg+D6AvQhpauLj8+edcUHzamwG/vl/PkvP9/r9yLU0ddC7v/oN1wz/3x49Ge/vYrTFl3MkTS56Dn0FQ5jIgJA0zfllLUn9MCAkpQwISSkDQlLKgJCUMiAkpQwISSkDQlLKgJCUMiAkpQwISSkDQlLKgJCUMiAkpQwISSkDQlLKgJCUMiAkpQwISSkDQlLKgJCUMiAkpQwISSkDQlLKgJCUMiAkpQwISSkDQlLKgJCUMiAkpQwISSkDQlLKgJCUMiAkpQwISalZO6uq/tdh5+6j1L8tW7ZU3/jGN5pXmgiHHnpodeGFFzavNJBZs5onLzAgJshDDz1UnXHGGSUkNLFe97rXVXfccUfzSmPWJSC8xJggBIThsGesXbu2eabxZkBMkGXLllWLFi1qXmkiXXPNNc0zjTcvMSYYvQh7EhOHexAMGgfeg5CU8h6EpH4YEJJSBoSkVNd7EJ/77GebZ5L2Fu9+z3uaZy/ofpNSkmpeYkhKGRCSUgaEpJQBISlRVf8f5zcTRTAK0zoAAAAASUVORK5CYII=;" vertex="1" parent="WIyWlLk6GJQsqaUBKTNV-1">
          <mxGeometry x="196.93" y="319" width="30.02" height="64" as="geometry" />
        </mxCell>
        <mxCell id="YcHYLUiHtxIJwsrw_Ox9-18" value="" style="shape=image;verticalLabelPosition=bottom;labelBackgroundColor=default;verticalAlign=top;aspect=fixed;imageAspect=0;image=data:image/png,iVBORw0KGgoAAAANSUhEUgAAAQgAAAIzCAYAAAD8o4cMAAAAAXNSR0IArs4c6QAAAARnQU1BAACxjwv8YQUAAAAJcEhZcwAADsMAAA7DAcdvqGQAACojSURBVHhe7d1/lBTlvefxZ8KvUZDB3DBo5KcK+AOjiYZRIyQO6moEVk0imJO9eow/9uy9oObXyZqYmxyTnJwkNxrd+4ca3dyzOSu4WT0R48+IicQfEBM1QAxgBAETBrzrgCIzIGHr83Q9M0VNfWe6mhmmu+b9OjTdVV1d1VNVz6ee5+nuqrp9zkX/AKCr98X3ANAFAQHAREAAMBEQAEyZnZQX3zY3fgRgoHhg4YPxo07UIACYCAgAJgICgImAAGAiIACYCAgAJgICgImAAGAiIACYDnpAnHjUNHf28c2u8bDGeEw2TZdl4gcmueHDhsdDAPrSQf2q9fymy3zBX/GX593sD891tz/xY7fqjVXxs50aRza6my/+jrv236+OxzgfCvOi1885eY77wr3Xu/Vvro+fAaqL9t+zj2t2T72y1G19e2s8tpPKQNPRTdE+PcJPu37ba74crHhteTzF/v5hxAfcmJFj3OBBg+MxPXun7R33Rusbrn1PWzymZ1lftR70Teeif/tbfMHU+FHv+uqFN7oFP/snt7ZlrU+mow4f61ZHK0Y1ihFRAISVqelu/9WPXeu7rX5Yzp92vnu3faebcsRUd8+yu+OxQPWZHR3EdDDcGe2v2r8DhYH2bT03NdqPh9cP9we+j0z4iJsxZYZrPn6W27l7p9uQOPjVD6l3RzYc6drfa3MfPPyD7tChh/Z427dvn3t16zo34f3j3X/s/I94Tj2b/8ia+FGng1aD0Iq44/K73Ofu/Kwfnjf9suj/fW7xikVuwTkLfXouj24Ki2lHnRSNv9dNipoTGhdoHjdf8h1fgwCqyZUzr/K1AtWKVUNQCCxafq/fv4M7rrjLDR863D300oNuyctL/DgN68DYHO33qiGr6X3T/V/rqFk3HDLKNRza4K4/9wY3afQkP64ct0UH2DfeesOt3dK10Fv69cdaSlOtmB9ddqtP0eYTmv04uf1Xt/kgUMLOOWWuWxytWK1k9TckKTC27miJh4D+pf1zWtxXpn1ThXt0tA9bvvfQd/3B7bWohqAy8LNr/rcPDR04R0dNCD2nmnNWs1u1jUoc03iMO3z4++Oh/A5qJ+WiKE2VjloJO9v2r36J2m1KVNUiVN2aNPro/ToztRHWb6PvAdVh4TnX+RptTx3uge83qyu9Tq9ZEh0wVctQDWL+9Pm+BrL0laXx1L1nyKAh8aP8DmpAaKWo1hDaWlphqjWEFFZgqGmxLVphGr968yo/XTAxqmIl22fAwRaO+FLJUX3rjq3uC4uu9wdKPRY1SzTcF+Hw17f+ekC17oMWEOo/+OrsG/0Knh631aRpUpObHTUrRFUrrSTdFCRLXn7Q36vmoNdNG3tSR1sP6A86yOngdSAUDCoP6qfQTTXmrGaFqHNy8PsG+2Z3KBvl3Nb87c9u2JB6t2vPrnhOleGMUkAOalLooPW9X37XXTnj81FYjPFN5uaoeTz9mNP9gW/aWH3XZ5bvc0t2sqfpwKfac+iwtBw9+hg3on6Ea8vxkeWIqKm+pmVNRz9fObI6KQkIAB6nnAOQCwEBwERAADAREABMBAQAEwEBwERAADAREABMBAQAEwEBwERAADAREABMBAQAEwEBwERAADAREABMBAQAEwEBwERAADAREABMBAQAEwExQOgycd1dAUrPhQsYAQEBUaN08RZdo2HBOdfFY7r332ff6C/QYpnXNL/HeenislqmLvqCgYGAqFG6uLGO+LoqtFVge7MgK5B0/UgtU5e3t/S0TMKlthAQNUrXN9VVm3TlpHSBDbULXT1aNx35k1RIdXXpBxb8wt/0WFeI6o4CSZa+8qS/BGKS5qdLIoblhZpNuIal6Krt4fms94TqREDUIAWAjuRPRYU1q8CGZoAuCKubrmWa7H/QJeP0el0yTpec37DttR77HxRIuubjU9FN0yanV2HXped0/UjNb/Xmlb5mE6hpo2XqvV7706vdPct+4uZEoTb7FLsmgupAQNQgXfBYF4BVDWJFdEsWWF0YWWHwvYe+6y8IqyuoKyQCBYcKuy47rwKv5xetWGRePFZCIK147Xk/nWotoUYhKux6L7rGZNb8FFAar/eqeem9a1jvA9WNgKhBsz881xcwBYEKW7LAhjb+1rdLl5YXPR+Gw/M7d+9/UdfuLhGvQNI81m8rLXN5FBRqMogKvKx6Y6W/D1ZFtYhg+LAR/kK1qtmEmwJn+FD6I6odAVFjVNBUSHVUvuOKu/xNhT4U2G1RYEiyCaBCHJoYIVAmjT7aDwfpZkqSAknLCMvTkV/DWkaY37Sj9n990zGnx49K4aNAu/j2/9xxuyFqiugK2ahug77pXPRvf4svmBo/QrX5L2f+oz8if+7Oz7rFUVVet9VRdf4/nXS+v1fVXoXzrMkzfC1h0uhJbuG51/kCrec0zZ73drv5TZe54fUj3JBBQ6J5Xu7GHj7W7dm7xz2UuhS9AumSUz/lmym3/+q2jmU2n1BqHry48UU/v0tO+1QURKWOTk3/kQkf8cGh+Sm0tDw9/240ToGz8Jzr3NqWNT44UB3mP7ImftSJgKgxqjmEIAjUfFAQtL7b6gvcixv/4GsNKsQqlE/96Um3e+9ut65lrX9+bXRfF73uw1EhVpi89Pof3Nota32gqJ8gaUYUNLuj4Lj/9/83HlNSty8Kj6gW8tt1y/z8VPA/PLE0v9WbS30fCh0FhN6X5nvWlBn+PQ0dNNQ99NKD7rFVj8VzQzXICght5+jf/i6+rVRdBcqhb2kqcJK1gQXnLPQBok81UBseWPhg/KgTfRA4YKdHtRp1POrjTPV1qMO06ejT/cewqG3UIHDA1L8xb/r8jo5SWRI1Ie5Zdnc8hFqQVYMgINCrVINQX4Y6KFFbaGKgz6nDlHAoDgICgImAAGAiIACYCAgAJgICgImAAGAiIACYCAgAJgICgImAAGAiIACYCAgAJgICgImAAGAiIACYCAgAJgICgImAAGAiIACY+vyktTrj8ejDGv2FXXQtRl3QRVeGKt0P97cgXB4OGKiS11TVZQ3D/c72d/y9ntf9hj64ItlBO6t16boITf56j7p0G4DepRMD60JFukiyrqzeG4HRpwGhmsDsU+b6S8EnawUA+p5qFYtW3OueemVpPCa/PgkIggGoHgcSFL1+XQw1JX502a1u/vT5hANQBdS3pyunq1z2Rp9exQGhy7l/+5Lv0LEIVCH1/SkkZp8yJx5TmdwBoZrCVy+80V+LEUD1Uln9/Iyr3LzoYF6pXAGhBeoqzvqEAkBtUBfAgqjZUYmyAyKEAx9bArWn+fjmikKi7IBQs4JwAGqXQuLKmVfFQ+UpKyDUITntqGnxEIBapa8j5Om47DEgzo5Shw5JoDjmT7+s7E8fuw0Ifaaq2gOA4lB/4oJzy+uP6DYgVHPgew5A8ajLoJymhhkQqj00Hz8rHgJQNGpqqDbRHTMg6HcAik3hMPvk7msRmQFB7QEYGOac0v0PMzMDQj/CAlB8qkV09xWGzICg9gAMHNO7+elEZkDwpShg4NCZ3yxmJyWAgUE/obA+zSAgAJjfd+q3gNi0aZNbtGiRv++Oplm1alU8hN5w5513uosvvtg9/PDD8ZhOzz77rF/n3XnkkUf861evXh2PKY+2o+a9Y8eOeAyqxcTR2T/E7LWA+MEPfmDudFkUDNddd5175pln4jHZNI12SPQOBcBNN93kH0+YMMHfJ6kAa513R9tO89m4cWM8piuFgeaTPABoO2rc9u3b4zGoFn1ag9AG11FJO81dd90Vj0U1CoX629/+tjvxxBP947yuueYa98ILL7gLLrggHtOVagnl1BBRHRpHjokf7a9XAkJHBu0QZ555pg+JrCqkahinnXaamzx5slu4cGHm0UchE6ZRbUTzsoT5pZc1a9YsP/8guVw9l6w+633ruXRVWePuuOMO/zhMo3u9p3T1W8N6Pv1edZTW9EHyb0u/D9ERV9Mnn//617/eMQ8VNL0+1NSuuOIKPz5N0+m5sCyti1BI9TeE2sPll1/e8TdmUc0u/X6CsC7CetPytJzwN2p5YRtoOWFcEF6v8bpPPof+MXzYofGj/fVKQNx3331u3Lhx7rbbbvPD6Z1fO+UPf/hDHyA333xzx7gkPa9xms+Xv/xlf6+dx/Kxj33M71jJnVyFVAVNz0lYro50mqeOmKriakcW1Xw0j3SVV+NC8IRpwg4/fvx4fx9o3ppGBTfQsNaB/gYJf1v4+9PvQ/PX36r3fu2117p58+b51yxevNg/F+ixxkvW0T85Hx3l9TdrnYRCqPcT1o3e90kn2R9vXXLJJW7atGl+Hvp7ultvWld6r1oHmv/IkSP93ypajv6ehoYGPyyaj8brPWo+CqCsgwoOHqsGoYti7OtyyyGqCexrbGzcFx3t/HC0M+676KKL/GOJdlb//IIFC+IxJRrW+HvvvdcPn3rqqf6WFO1Ifprvf//78Zj9pZeleYZ5REfAzNfqNdFRcV+0c/tlaxpNm5R8XZgmKvB+OIv+dk2jeUp4jdZNa2urf5z194f3EdaFpg/0+Nhjj+34e8J6jo7IfjiLNR+NC9sn+d6yhHmk/96w3iS93vRcep5h/SfXrdZpelyYTvNE/2nZ3tI1B6LbAdcgog3s73U0kPPPP98ftXRkkJUrV/r7+fP3//GXjiCBptVNR5qkSy+9NH6ULSxLNx3NVHUN89BRVD75yU/6+0Dz1LTh/ZVLR1NL+FtCzUk1Kh1BdcQO1XC9n6ggddzCe9ZN04Tpg+TRPqm7foPNmzdnzkfvXesmj/S2OOOMM7pdb3pfyeV2J/3+UL0OOCDUKanqowqHqphhBwqFJdDOlZSsclZKO7Gqs9r5dVM1NQSRxifvg0qrsun5JKlQqjDrPejvV2iGwAx/p5ommi7c9N6/9KUvdTyfXj+S972GwEnTMvIWRGvZ1nbrje2J/qMfaGY5oIBQYdCRUTvfc8895286GmpYbVIJR9cwHCT7DjS9CqCmSe6YPX0iop1SgaDX6aitQhcKQugrSC5H81b7V9PoiBfa4KEWJHmPtEGozaivQvMPf/fYsWP936aCq/Z8uGmc3qPuNa3Wm14fhKDJI8wneZTX9tF8wnopV9QciB+V3ovWcdhOeWQFFmrHAQVE6LT66U9/6u6///6OW+h80g6vQqwCoYLX3NzsO+tCFTtJHZx6TXKadC0kiwqFdkIVgmQzRkdpLVcho152zVPz1jL0EZ8oJFT9VsefplFHXOiMzCvUZvR3abmB/v6vfOUrfrz+pvApxDe+8Y2OwnP11Vf7wqfxWn54r3kLY3o++nv0WOOS76kcCgRrvZUjBJJer/dRac0N/WvQN52L/qV8s+uoLL///e99QQxHy+DYY49127Zt80dIPdY0evyXv/zFj1d1XB/h7d692z/WzqSP0/RYO6La0ppeoaEdS+M1nyx67aOPPuqGDRvW8QlJEJb7hz/8wS9XYaBpzj777HgK53d+FVQ9LyoEdXV1HcvU8jWsv1HLsNTX1/vlvPrqq34ZySr3qaee6t+H/jatAz2noLjooov883ptCDr97e3t7f596GNATav3KGHdWesizCesQ713BYTWY2NjqQrZ09+j57VM1by0ffV+tW30fsN6C/PQe9F89b51r+FA89DfrOlEf4O2d3iPyWWHvyuECvrJt74VP+iUeXVv339ZI1Sl1s6nQpDuWDvYVKAVSuHjXqCmxGGe1Cvfg+hPOtLpyKOjUn9Sc0hH7vSnNUAtq+mAUIFUW1lH7bzt9d6mvg71aei9AEVR000MtX3VxFDfQn8GRHgfqsnQjkbNymhi1HwfBIBeUsQ+CAB9h4AAYCIgAJgICAAmAgKAiYAAYCIgAJgICAAmAgKAiYAAYCIgAJgICAAmAgKAiYAAYCIgAJgICAAmAgKAiYAAYCIgAJgICAAmAgKAiYAAYCIgAJgICAAmAgKAiYAAYCIgAJgICAAmAgKAiYAAYCIgAJgICAAmAgKAiYAAYCIgAJgICAAmAgKAiYAAYCIgAJjq9jkX/UvZ13XUQLb5rb3+htpx+tFD40coW11d/KATAdGNx1e3ubuXveNOOGqoO/HIwfFYVLtNUZj/6a973AkfHOJuOPeweCx6RECU75Yn3nZaXdezg9Ws519rd7c8/ra76/J/cCMP6brzIyUjIOiDyBCaFIRDbTv96GHuhvMOc3f/9p14DPIiIDLoqEPVtBgUEmpu7NhFrbgSBESWqOE19vBB8QBqnfoiNrfSyVwJAgIDwo5dBEQlCAgAJgICgImAAGAiIACYCAgAJgKiYFauXOk2bdoUD5Vs2LDBvfLKK/EQUD4ComAmTZrkA6Gtrc0P616BofFAXgREwYwYMcKNGzeuo8bw4osv+nCor69327Zt8zUMjfvb3/7mn5fNmzf7cXrNm2++6datW+fH617hotesX7/ej8PAQkAU0MSJE917773nC70CY+zYsb4m8eqrr7rJkye7448/3odCa2urD4pQw1CwKBTeeaf02wXdazqNP/LII/04DCwEREEpCBQAuheFgMLirbfe8rfBgwe7Xbt2+RA44ogj3KhRozpqH0kKFz2nGggGHgKioEKBThZshcIhhxzib6oxjB492tc0uqPXYOAiIAYIhYFqFAoM1QiCww8/3G3ZssU3QRQW6U9AMLAREAWWDAI9Vq1BHY7PPfec73RUIKh5of4FjddNTQw1NeSwww7ztQ0MXJxRKsMX73vL/eulh8dDqHU6O9gZxwz154ZANzijFIA8CAgAJgICgImAAGAiIDJwglOghIBA4W3+f3vdCUdypa1KEBAZ9HGYrqqF2ucvmVjnuHBOhQiIDJ+fMdxfco/rcda2HW37uMbJAeKLUgaFg3au048Z6s44ZhjXyaghCoY/vbHH3fLEDvcvcxv8dTFQBq7NmZ+aGs+9tjva4XbHY1Dtxr5/kO9z+MxHD3Uj62lalI2AAGDiq9YA8iAgAJgICAAmAgKAiYAAYCIgAJgICAAmAgKAiYAAYCIgMuzjm6SFwvasHAGRws5UPHV1dWzXChEQKexIxaTtyrbNj4BI0A60dy/ngCiiv//97wREBQiIWDjCsBMVUwgItm8+BESKdiQUD+FQGQIipo4sFBfhUBkCIkG1B9qqxcQ2rQwBkfC+97E6iooaYmUoEbHQRmVHAjoREDGCodgI/8oQEBgQFA6ERH4ERAqdWcUVmpEoHwGRwhGmuEItAuUjIFLYgYpLAcEBIB8CIoEdqNgI//wIiFhonxZtJ3p94+vxI+fa29vdH1f+0b0c3YLkuO3bt3eMW/7CCrdm3Vo/jIGLgIgVrebQ1t7m7rv/5+6xJ5+Ix7jo8eOuoaHB1dcP88/J8t8td8OiYfnFw0v8/fPRuFHRdK3bW93jiddj4CEgCmzuhXOiMKiPh6LQaGtzE8ZPcFMnT40K/1u+pjDzrJl++OSTPuTqh5Wm/Xg87jg/XalWUetoXlSGgIhpBypSLUKFvX5YqWYQqFbwm98uc795Zlk0VOd2te0qPRF5Oho3dfKUeKjk+aiZ0XTaR+Oh2qZtS0jkR0DEwg5U5E7K82ad5yaOHx8V+uk+LA6pP8SPVzjob1ctItC4IxobfY2jKIq8bfsKAZFQpB1IzQd1UKpZoXsNP/3M0/45dUCOahjlhkU1DAXBlpaWKDgmJKZb5vsfNE2ykxMDT11U6epa7xqgVTH91FsFSu32Wv9lpzop167t/BRi6pSpUZOiza1Zt8YX/NCceH3jRrc9CoNA023YuMG1t7XHY5z7UKJmUau0XQcNGuSGDBkSj0EXGQdIAiJBAaEjqI6s/PS7WBQQgwcP9tuVbWvICAjWVILa4XRkFVPYrvRD5ENAYEAgGCpDQCSwEwH7IyASiv4xJ5AXAZFAOBQX4V8ZAiKFTspiUjiwbfPjY86ESj7mfO/vzu2Nbux7B9egaPPo9r4yKwXhY059F4KahCFjvRAQCXkD4t3dzu3mUp79RuEwYlh5IbFr1y7/JSkCohsZ64UmRoVUcyAc+tffo+NY+554oAeEQmUIiFhon5bbTtXOif63t8ztQEBUhoCIhU4sdqRi0ralkzI/AiKFgCgmwr8yBEQKR5niYtvmR0AkcIQpLm1btm9+BAQAEwFRcKtWd57iXjT8zLOlM0vJjh3byxpX62heVIYvSiXs3bvX7d69u6wvSuk7EPqiVLXaHhXyK66c5wv6ulf+6sfd9C9fiba4HpU+sfn2t77vpznzzJkdQXLbLXe4hTdc66ad+CE/btzY8e7LX/yaf64aDY42k74s1RO+SVmGjPVCQCQULSB27Gh1F3/qAvfC8j/5cc3nneGWPv6cf3xa0wlu6RPPuZEjG/ywJJ+X1VFAfD0KlQd+/mg8pvqUGxB8k7IMGeuFJkaCdpyiVEUbooI/buz+Z6QeFY27867/4e74yb9FAdLqb8EP//W77oLzZ8dDzl386fPdRZ++wH3pizfGY2pbkbbtwURAJGgHKvLR5X/es9iNGz/RnRQ1H3RrGDnKj7/zrn9zGze/7r78hc6mhGoNSx9/1gcHBi4CoqDU0bhpU+mU9eH+2eee9n0KOpCqaaHb4vt+5h55bEkUDjd2TKdahvofNm7a6JsqRcHJavOjDyIhz685q70PYlNUuBfd97/iIefmz/uce/bZZb7gNzSMctdc9d+igBgVTfOzjmCQa6/+Z/fIo0s6Oi2vufqfujRVqgl9EL0oY70QEDE1L0JAlHNdjGoPiIEi76cYusGQERDUuWLhqMLRpdjoqMyHgABgIiAAmAiIBJoXwP4IiAR1UqK2lJvpoe+Bg0A+BEQs75ekhkRrrtwzKqPv1Jd5se6wbemkzIePORPy/BZDdF7Ktj2cn7I/KJyHDi59zFmOcPl/fcxJLcKQsV4IiIRKrouB2sCvOcuQsV4oBQlUP4uPcMiHgEhg5yk2DgD5ERAxdp7i0wGA7ZwPARFj5wG6IiASaGIA+yMgElSDICSKixpifgRECjtRcRH++REQA4y+56FbUtY4QPiiVIK+KKUv1JRzwpha8Jtnlrk/rnzZLfiv/+yHn46GW1tLJ6odM+YI13TaR92DDy9x9cPq/d8dxgV6bsK4Ce7kkz4Uj6ldfJOyDBnrhRpETE2LIjUv2trb3MRx4/3p5YItLVvc3Avn+NuadX/2tYa5n5zjzpt1rh/3chQmwfIXVrjW7Z1nvS4CgiE/AiKmnSfcikC1ggnju55LsmVri9sS3Vq3b3e72nbFY10UGGvc1MlT/OPt0XNtbe3u5Gkn++GioH8pPwIioeg70HmzzotqCX90r2983R3ROMYdUn+IH6/QWP7C79zHz5rph++7//+446ZM8bUQ3YpA25YaRH4ERCzsQEUOie1Rk0HNieMmT42G6vyP0lRb+M1vn3aXXvIZP40CYUpUk/jz2jU+SF7fuNHXNmpd2LZFPwj0NjopY9px8pzVutqpVvDYr56Ih5yb96nP+EKvpoSaHzOj2sKohgb3+JOPuy0tW+OpStMpOCRMm9VUqTX8mrMMGeuFgIiFo0uRPsVAJz7FKEPGeqEUYECgaVEZAiJW9P4HlLYx8iEgYiEc2ImKie1aGQIiph2InQjYHwGREDoqAZQQECnUIoBOBEQKNYjiYtvmR0BgwKB2mB8BkcJOBHQiIDAg0LyoDAERCzsQO1IxqWbIts2PgIjRtAC6IiASFBIERTGp9sD2zY+ASNBORDW0mBQMbN/8CAgMCARDZQgIDAg0LyrDCWMS9u7dW5gzSonOP/nyqj+6f7zsc6Xh6PGatZ1nidLp7HX2ap1ari36u6dOnupPe69zUmoaGTNmTDRuun9cy3bt2uWGDBnCGaW6k7FeqEGkFGXn0Xkk21MnnFU46NyT/hT3q0qnuFdIaJxCRKfCF4VFOD1+EcJBCIXKEBApRWmr6nyT01OFWyek1UlqVUvSae113YtQU9D4USM7r6GhE9ned//Po9BYG4+pbXRQVoaASCj6UWbuJ+e6x5583D3/u+U+QAKFwy8eXuJPZCsnT/uQa/poU1Sz+HTUBFnux9U6ahCVISASdIQp8o50SH29b06cHhV+NSNGNYzqCAddYSuExnFTpkY1i9KZraOiFd9jIKKTMqFInZQq+L+Omglbt7a4xsYx7uNnzXArXljhdkVNC/VNqLagi+c8+MslPizCqe7DdAoGNUEmjp/QpalSi+ikLEPGeiEgEhQQe/bscUOHDuW09wXDdTHKkLFeKAUpungOgBICIoWjC9CJgEjhozCgEwGBAYHgrwwBEWMHAroiIGKh74E+iOLiIJAfAQHAREAkqPbAUaaYtG2pHeZHQMQUDIRDcbFtK0NAxDi6FB8hkR8BgQGFA0E+BEQCO0+xaftSi8iHgEhg5ykuwqEyBESMnafYtH2pIeZHQMTCzsNOVExs18oQEABMnDAmpiqozgWxe/duf3alIpwwRqez16nudTo5adna4k9GqzNm6WzVYxrH+NPet7S0+LNK6ZT3Oh2+zkb1m2ee9idZGTPmCPfxj83wr69lnDCmDBnrhRpELOw0RemL0GnvFRC6DxQOcy+c686bda4/1ZwoEEqnuJ/tQ0F0YtuZH5vpz1+pE9gWAX1MlSEgYkXbgXQC2nCW6kA1A52MVqe61ynwdc5JnZdS2tvaO057r1Pir1m3xj3+5BOFOmUtIZEfAZGgWkSRq58zz5rhr5qlgp+8BoZO1PtYNE6BouBo2bql42S1mh4DFwERUzDoCFPko8zE8RN9s0FNjH1RDuq09wqHX0TNDY1TrUO1i2H19b5/QsN6XAT0O1SGTsqEIp32fsvWlo7rbqqf4fxZ57mXVr4cDW+Mnt3nTj7pZDd18hRfQ1CtoSEKC9F0f167xl9Rq75+mGsY2eA+nmqq1CKd9j50UnLGckNGiBIQCUW7eG8WfVrReVGc7uWZttqFgNCN2oQhY70QpSlF33nyFPiihAMqR0Ck0NMNdCIgMCDQrKgMAZHCjlRs1BDzISBS2IGKS+HPASAfAgIDQtG/49JXCIgUjjDFRO2hMgQEBgxqEPkREAkcYYpL4cA3KPNjjSXQTi0uhb/O98FBIB8CIoF2anEp+LVtOQDkQ0AksPMUF8FfGQIiFsJB96qKolj0QzxCIj8CIpbcefbs2RM/QhG89957PvipIeZHQKSop1snONVOhWJ4++23Ow4A1CLyISAStPOEW2trq6+WonapxvDmm2/6e50oBvlxwpgU1Rx0chGdOEanwNfJY3QafJ1oJE073oEekZLzCFVgDWfNO4yzlmuNl+6e62vW+67kPZXzGm1DNRO1HRUM2n7ajkOGDOG7EN3JWK8EREq4NoYCQjuZbtopQ8elHncnFISkZOEIz4WdPO/8suYRJMdbr8mS9XxP80gOh8d57oPkeLFeE54LwnPhsajwh/G6KdQVCgqIoUOHck2MnmSsGwIiRTuYwiCEg27J/ojkzhoeBxrWTpr8Qk7YYfMKr0suL0jOs6fnwzx6mi6Lngt/izVtT/PoSfr1yWE9Dkd8PQ7CNOH58FxyeoVBCAjdONVcGTLWDwGRQTuaCob6IEIPuIbDjphFz6V3dMnaKcPOnZQ1Tqxp9X7ShSc5re41nCU9z+RweJy8l+T0QXo+SRqfLLzSW8vJem14Xo9107J1UzCEx+hBtN7SCIhuhFAIN9F9cscP98mdtCeaVpLTp3fyrHmVs4wwTXrarPF6HGSNS0o+H+YTpF+bfj4pa1oJ8w3S8+9ufsnX6nGYVtspOYweZKwnAqIMyR3X2lk1LrmTSvJ1QRiXDJk0vT5Ztbem1bjksvQ4+drw+uR0Sd09n/VcGJcUns+aR5as+WbR892to7T0fMt5L0jJWGcEBICSjICgYQbAREAAMBEQAEwEBAATAQHAREAAMBEQAEwEBAATAQHAREAAMBEQAEwEBAATAQHAREAAMBEQAEwEBAATAQHAREAAMBEQAEwEBAATAQHAREAAMBEQAEwEBAATAQHAREAAMBEQAEwEBAATAQHAREAAMBEQAEwEBAATAQHAREAAMBEQAEwEBAATAQHAREAAMBEQAEwEBAATAQHAREAAMBEQAEwEBAATAQHAREAAMBEQAEwEBAATAQHAREAAMBEQAEwEBAATAQHAREAAMBEQAEwEBAATAQHAREAAMBEQAEwEBAATAQHAREAAMBEQAEwEBAATAQHAREAAMBEQAEwEBAATAQHAREAAMBEQAEwEBAATAQHAREAAMBEQAEwEBAATAQHAREAAMBEQAEwEBAATAQHAREAAMBEQAEwEBAATAQHAREAAMBEQAEwEBAATAQHAREAAMBEQAEwEBAATAQHAREAAMBEQAEwEBAATAQHAREAAMBEQAEwEBAATAQHAREAAMBEQAEwEBAATAQHAREAAMBEQAEwEBAATAQHAREAAMBEQAEwEBAATAQHAREAAMBEQAEwEBAATAQHAREAAMBEQAEwEBAATAQHAREAAMBEQAEwEBAATAQHAREAAMBEQAEwEBAATAQHAREAAMBEQAEwEBAATAQHAREAAMBEQAEwEBAATAQHAREAAMBEQAEwEBAATAQHAVLfPuehfyr6uo7qz6o1VbtXmlfEQgP40bexJbtpR0+KhHOrq4gedDiggtu7Y6r73y++69W+uj8cAqAbNxze7K2dc5YYPGx6PKUNGQBxQE+Om+79GOABVaOkrS93i5ffGQ5WrOCDUrNj69tZ4CEC1WfLyErezfWc8VJmKA0LNCwDV7UDLKZ9iAAW2c3c/1SAAFB8BAcBEQAAwERAATAQEABMBAcBEQAAwERBVTt+lP/v4Zjf75Dmu8bDGeGzf0LK0HC3PMukDk/wt0Gsq+WFQch6oXgRElfvRZbe6EUOHuw1vrnc3X/KdfD++yUnz3/b2Vl/grZDQ+K9eeGM8VCros0+ZEw+VR/Of1zQ/HkI1q/jXnPoxyO2/+nE8hL7QOLLRF8Yv3Hu9H1ZhDL9/uXLG592k0Uf7x+u3rY+C41C/TZqOPr1ju8xvusztbHvHLV+/fL9f9j0VTbf0lSf940DP3XH5Xe5zd342HpNNIbJ+22tuxWvL/e9x5kQ1Du0tD728xM05Za6bfnSTn06/AdD7CM8vXrHILThnoV/2gnOv89Os2ryKfaiPaXuVXcPr7V9zom/pe/Q6z0bYyPrlrAqewmFDFAoKDt0UJAqJ1VGBnTS6VHXXuBOj1+gHO3r9PU//xP/6Vj/Pnze969F7Ylzlv3LmVf5espo0GqfCPjsKAxkdLUe1G9UsDh16qF+Gbjvb3/FhoeU3Hz/Lz9f/PdF7XP6X593tT/yYcKgBBESVu2fZ3b5wq0DOi2oEolqCCl6gI7oKaemXe6Xan0LgqaiWoGAZHjVR9NoF51znaxLp7+ercOvof+2/X93RZFDtoymuDQShBqPlbN3R4uetWoyCSyGgE5VoGbpp/LvRdJp21Rsro2AZ7YPFzyd+DaofAVHFfAGMCqUKk478zcc1+6ZAKQhKNNx0zOkdv9pTTUIFu3HkGN/kkOVRc0BHa90eeulBf/RO0nI0XvPVcuZPv8yNjmoKyRAS1RYURqImhUJHNQq9TjUWvTYsZ0k0Py1X42XSB0rNIQmvQfUjIKqc2us6wqv9rn4DFSwdxXWU1icOulcNIRyR1fTQuBACGq9mh6bVTVX9dOHUa1RD0XLUfNFy9Jp0E0NhpWaMKJBUiwh9Ig+9+KBfruahJo1eq3DQONWCVIsI/ROS1cxB9aGTssqpkPmqfVQgk9Vy1RJU0DVOhTE8p+mTgSFhHmH6rKO3ahGaLvQT6LGEmokkmxiSnibMQzUHTZOcPjmtHus9aznoWwfaSUlAAAXGpxgA+gwBAcBEQAAwERAATAQEABMBAcBEQAAwERAATBUHRNlfvgDQL/SN1QMtpxUHhBae90QhAA4e/cL2QB3Q5f/l7mU/cQ+9tP+v/gD0H/3CV7+01cl6cunN32IkhR8BAehfCgf9EE73ufVVQAAoAH6sBSAPAgKAiYAAYCIgAJgICAAmAgKAiYAAYCIgAJgICAAmAgKAiYAAYCIgAJgICAAmAgKAiYAAYCIgAJgICAAmAgKAiYAAYCIgAJgICAAmAgKAiYAAYCIgAJgICAAmAgKAiYAAYCIgAJgICAAmAgKAiYAAYCIgAJgICAAmAgKAiYAAYKrb51z0L2Vf11HI79e//rXbsGFDPIS+8IlPfMJNnDgxHsIBqauLH3QiIPrIDTfc4G699dZ4CH1l1KhR7sUXXyQkekNGQNDE6CMPPPBA/Ah9qbW11b300kvxEHobAdFHrr/++vgR+pJqDqeccko8hN5GE6MP6eimG/oOTYteRB8EABN9EADyICAAmAgIAKbMPohbb7klfgRgoLj+hhviR52yOykBIEITA4CJgABgIiAAmAgIAAbn/j9/0h0riDMXKgAAAABJRU5ErkJggg==;" vertex="1" parent="WIyWlLk6GJQsqaUBKTNV-1">
          <mxGeometry x="231" y="319" width="30.48" height="65" as="geometry" />
        </mxCell>
        <mxCell id="YcHYLUiHtxIJwsrw_Ox9-20" value="" style="shape=image;verticalLabelPosition=bottom;labelBackgroundColor=default;verticalAlign=top;aspect=fixed;imageAspect=0;image=data:image/png,iVBORw0KGgoAAAANSUhEUgAAAQoAAAIxCAYAAAC1nvY6AAAAAXNSR0IArs4c6QAAAARnQU1BAACxjwv8YQUAAAAJcEhZcwAADsMAAA7DAcdvqGQAACbhSURBVHhe7d0LkFTlnffxZ2S4DiAEGYyAMkSzGrBCNhbjBkkCmqy+EaNmV3BrXQwa3d0KguZSrMZXUyYpK5f1QllZbwTLrQXcfeMFTEwUSNYkCklEi5uFwHAZiDIoMFwEBpj3/J45z3Do6e5/z3T3MN18PzVd3efap0+f53ee5+mePhXNzkV/AJDZafE9AGREUAAwERQATAQFAFPazsxrHr4qfgTgVHG48bBb9dgat3nLlnjMcdQoAJgICgAmggKAiaAAYCIoAJgICgAmggKAiaAAYCIoAJhOSlCMGjrajR1Z66r7Vcdj0ss0fcQZNfEjAJ2h07/C/e/XP+jqGuqiR81u9NAL3R3zZ7r9h/a3TEyYcMFEP332Kw/FY6Lg6F/tpl82w9VEQfGPj/1DPBboenQi1HG66K2FaY9vnSxrdbLsP8QP72h8zy3fuMyt2rbKD6c6Z9A5rqpnX1fZrTIeY3t/3063bde2eMjWZb7CPTraOdohKvyzX3nY7di7w+9MufKTk6IdUeUfKxAmXnCpW7Bsnh8Opo2/2S3f8Lqr26mgAbquSWOuclNqr289vgMFxKM3Pu6+d+33/Tw1g2v8TY/vi8bpRJpakx4ShUnTsSOuoqLCDeo7KKfbsWNHXc/KXtHjM+K15KdTaxRKWQXA/S/+wA/P+tK/uUVvLvQFf9aX7nSzX37Ih8f0y25zq6Nk3dG4w6dxMhi0DgXOnFefjMcAXYMKudz987v88azjVI9DLUHDCgMd13NefcKPr+pR5fYf3u9PkrU1tW5yFC465m996mt+GTk7qk0cOdrkHrnhp/GY3Nwx73Z3tPmo275ruztyrCkem1mXqVGo8Ku2oJ2oJoSaFtopummHKiQ0XeOXrF3irhxzvJYRKKE3UaNAF6H+slBr0L1uKvzpKBhUm1Zze8Tgke7RqY/72sV/3vJf7r5rvu/2RYGhaeFEmpRaDnIRwmHMOWP8fT46NSgUCHfMm+nm/O8TbsHyeW1qCzLr/9zpd+jksVOiKtlIX1VLGj3sQp/IwMmmk9oDUS1CJ75c6QSomsWU6PjWsT8/al7r5iqcuylqWqcrE/nq3aO3q+zWPR7qmE4NCu1Ytb9Uc1ATZMnaxX68wiC0yxa99UJU81jpGqJ5lMyptQeto9A7EsiVagyqAahG3FHLNi7zNWjVLhQMKg86gWbq2O+oytNawmFV/SrfdMlHp3dm3veVlg6bPj36RLWK+X68On1GD2upOShxdVOtQoGhnSqTPjnJV9NEy3ekKgbka8TgqGkRHXs6YeVDx7f6JG767M3utih0/Ak0Q035yLEj7oP9u3zNI5QP66YPAj7Y/4Ffdld0ny9+4QpoB9UopkWFW5++LXl7iW92qICrdqBOeH2EqT4GNS3UD6FmtmoMmWg+TVfhzqTytEr38TP/yj9Wwc+VltvQsMEdajoYj8kuW2cmQQHA46fwAOSFoABgIigAmAgKACaCAoCJoABgIigAmAgKACaCAoCJoABgIigAmAgKACaCAoCJoABgIigAmAgKACaCAoCJoABgIigAmAgKAKZOCQpdAyGf6yAAOLmKHhQKiIkXTMz7OgjlTj8Dr6ujZbteib96WjQf0NmKGhQhJHRlr3TXUyx3us7Ds9Of91dqt+jCMroQUqbrVoqma75Ueh5d/BYolqIFRTIkdPm0Ql4qrVToOqlS+7GL/X0qXeBWV09Lvcx9oNpFtum5SF2H7kOtJTzO9jxhmm6SXD4sm5ScHoTXGeZPfR4Nh+dPN13jktuAzleUCwAREscvcd9yBakZ7h8f+4cT9oOmaR6NU0HQvlKz4ta5X/NXjpo05io3bfxNrdMXvrXQX1bx4Wh9S1OuKqUaRXX/IX5fJ6kGouZKWIcuz1g7srZ1HbpEo6bpecM885fP95ejk7HRvLrcncZrenI94cpYqc+rdS5Zs9hfLlLNTb1OFfywfOvrjC/rH46V5Lq1jcn9oNcQaD7VTrUeFFanXgCIkGgxIdoHur6kDnztg2Tzw19rNQoJ7R8FiAqNCkmgAqaQ0LUmW6f36BNPzY3WrwKWXEe6fiI1dVQoNY8CQpe4U0HW9ui6mHoNmqbb0rWLT9hOi44FnYbC+ue8+oQPgUD7SMeKQidsY02iaRX2w8I3X2jdBh1X7bl6OAqjoEGhM5DeeLl/0Q9O2ZBQYaodebEvWNoHump7aIbI2JraKEBe94VQdO3KRSte8I9lwvktZ9hwEWdND49zpfcidR26DmYqbUe4NqZqLaJ+EIWFagIKj/A+qrbRnvdUYaVCHtav0AxXsBdd0V77IFx3U9v4ZGIbdRFf0fIKFd30WAGS2jxBcRU0KJYnDoRZV97ZrrNPOVEh1WsfHB3QOrhdRYUvNLpJVS9V5Q/4x8G+wycWwNQC2Z4CKnr+XNaRHJd8rG2XNutI2c5MwnufOn/q+hQOSQfSbKMCJdwUYCFg0XkK3vSY/crDPiz0hqp9eiqGhQ5oFQjdq5kRqtuj4qBYVb/Sj0vumxAisimqXuusmRyndbXHpoaWdeh9CDJ1qqazOi6MPuhiqWdyvcbQTJHkdE3T2T+53ZovuQ11DRv9fkiuM/l8oR9CtRo103TTsaX9F2op6Bzd7nUu+jvRgitaLrHeUapZ6KD563P+2n0quv3unVdd09GmeGp50+u+afzN7tHf/NSH5qI3F/qbCsnlF17hfv7n/+eD4G9HX+4Lkca39Flc6HpU9vDzrntvnS9QmmfowGG+GXPJeeP9vKq+a/kkFbaaM0b66QqXvpqvbpm75OPj/XI1g0f659JjPUdYhzoK66JACaEg2hZN17iKeFgdllrvP0/4V/8+btu1zb/Huw/s9uvQevW6bxg31W+DzvhaviGqLVz76a/41zJ04FDf5xG6zhdFzZxtu7f5bdS2aflrL/q7E/aDgkLj9Ry617H0T5+Z2rp+FNbRQ0fdjj83uNv37InHHFeUoJBTNSx0duyuAz0qCMnXq0JV1bOvP9PrbKj9oUI1sOoj0biNPkCiNopbHhVwLafpDb49PiQ6O+9zjy79qV9eBST1bKpg0LKartvuA7vcunfX+U82mo4cdgOqBrrtu+rdf0ThlVyH3p93ovlU8AM9X5iuAhm2QYVX26BCr+ZCCIqlby/xr0Pr9f0ZUVMjrDMESpiuPhsNHz7W5FZsfsPXOpLTtR9eWvWSGx+Fh4JC69L0A9H90IHD/TaoQ1TPicLLFhRF+Xg0SR+h6Yyhgy75MRq6Pn1qooKa/CjyP2/5L99B2d7O1XTUbFF/jkI19F2o6aGPZPUJRxiHztGpH4+mUvVbB5baoygt+qRGH0Xqo10V4PDtz9TvcXSUagxqVuhjVAWGnkdNHX0KQkh0LUWvUaB0qUmgWoUCQ4/DR6zJGka+1PyZNv7m1u9PLF2z2H9MS1B0vmw1CoICgHdSmx4ASh9BAcBEUAAwERQATAQFABNBAcBEUAAwERQATAQFABNBAcBEUAAwERQATAQFABNBAcBEUAAwERQATAQFABNBAcBEUAAwERQATCftx3XTXWRWv8gMoEXqdVl1eYNi/jp5p/8Kt0Jg1LDR/l5XmVIAhBBIFxAA2kdXcgtBomvm6LEuE6lLKXQ0TIoeFLrmgy7Aq2tkpl58F0DnUljoQs66ylt7rvxetKBQIFw55io36ZOTCAegC1JNY/7yeTld3a3gQUFAAKUll8Ao6AWAdGHZf7/+QTdl7BRCAigR6iPUxZ91ndeO9BO2Kyh0QVmFBB2SQGmaGF9sur1lOOegmPbZm9208TfFQwBKlWoXj974eBQal8ZjbDkFhaor6o8AUD6mX3abm1x7fTyUnRkUCglVVwCUH/U15lKzyBoUU6K0ISSA8qaaxeiho+Oh9DIGhTouJ0dpA6D8zfrSnVk7ONMGhTo7CAng1KGvOkz/wox4qK20QaGPT/iOBHBqaX+Ngu9JAEjI2pkJAEJQADARFABMBAUAE0EBwERQADARFABMnRYUe/bscfPnz3erVuX+G34AuoaCBYVC4JprrnEXXXSRu/TSS91tt93mtm7dGk91rrGx0c2YMcP98pe/jMegPX7/+9/7/Zvcp0BnKUhQ6ABWCJx++ulu8uTJbtSoUe4Pf/iDH7969ep4LuRDAaF9CpwMeQfF3Xff7Q/gp556ys2dO9d961vfcg8//LB79tlnfXNj6tSp8ZwtdMArQM477zxf8/jRj34UT2mh6Qod1Uw0z4033tjmLBrOrmEdqr2oxhKoeZPtOULtJ9P0QPNpO1ILqF6zlg9S1/fYY4/FU1pej9bxi1/8Ih7TQq9L2y1av+bRclqP1t8eqftD25Ncf9iGsP7kfEmp+03Tv/Od7/hxkum1XHvtta3PJZovuR7tX61HywZ6vzRe4zSfltf2aTh5cgnjMm0zOol+hbvNrR3OPffc5igM4qHMtmzZ0lxdXe1v06dPb3700UebJ06c6IfnzZvXOs+nP/1pf4sOIj+PHkcHiZ8m0UHql7n66qv9dK1Lw1qX7N692y+jYa03TA/PofuwDcnpd911l5+epHXp9em5Ao0Ly4u2U8OaJ7m+MD287vD8QVSQWtcbFXQ/T1hPVBj8+KSw3WE/BGH9es3aH2GfJbc7zKNbVGBb59GwnjvMo2V0S+57Des+zKNlUl+LpiefKyyXXE94/iC899pPmkfLh3nCNoV9q3mS+1bzo/CigG8+++yz2+ZBdMsrKMKB88Mf/jAek1mYNxQgCQUxBI0OYs2jeQM91jxhOR104cANorOOX+7FF19sfZ5kwdf2KWBEy6YGWzggoxpQPOY4bZOCKkxLFtiw/cnXJOF16IAP25NLUKSuJylTUOi1pI4Pz5kaFOn2fRin+3Tr0Txhf4f1ZAuKdO9heC6NlxD2qQVe+0TjtT9SAznQPHo/UHjZgqLTPx4dPnx4/Mj5Po0LL7zQN1FEVU5NT86jx5pH1XPNp2qt+kGSrrvuOn//2muv+flvueUW9/jjj/sqq6rxU6ZMcVdccYVfVrdQxQ63UJ1N94mMltPzhnmeeeYZP07Po+1VFfozn/mMnxbo+SQqLP4+V6nryYW2Wcul7rPRo9v+YlFy/dr3uml/SH19fdr1jBs3Lh7KTbr3UM+jfRaE/Zy67vA+Smh+pL5X2qfhOEDnySsodDD0798/YydbKJi50roySU5L9kekc9999/k+Eh2c+pRFgZFs22q7VSjCTcHzzW9+84SDO9B0HdBaj15LdLZrDSoVgHRC8CWnW9ucj/B8+chU+Nq73Xqf0i2THBf2S+r7nW6e6AyX9r3KtO9RHHnXKL797W/7oIiq7/GYFjoTqIDqLJArnQV1sCaDJxROTdPBEQpt8qBS7UF0IOl51RkqCow//elPftmXXnrJB0E406rTNdxCQKQLCrn88sv9NqnDTfOEs+OwYcP8wb5gwQI/HIRQ0nOFwpDuNRWCtkVn33AGFu2DcNbOldaTad8HmV6LboFes0InuU80PfmxeHgPoqaHvxe9n+q4DMK+1S35XonCI2wLOkm69kh7hXap2qlRYWrtmFLbNbRVQ/s2tT8jCpLW9q3apVpGbVC1TbXe0EYO61m5cmXrOE0Pz6XHEtahm54rtL1De1jt37Btmh6Wz9bPkmxjp3Y0hv6RbOsL+0f9CXqseTUcXnfYptS2f1Loo9A6tI9103LaL1pf2Gcar23VLaw/7PtsfQthv2m+5L4P+zpIfS1hv6RbT3KeMF8Q3pfkPgnL6XVJ2LeaJ7lvU98DFEYU6Bn7KLrd61z0l+LetqOymThxoj9L7Nixw7d1deaP3lxfy4je2Hgu5xoaGnyNIDpo4jEtVV7No/G9evXyZ7ZDhw65DRs2+PlVI9HHrWE9utc4naU0j55LZ/rowPPTwzo0fc2aNX6ctkX9FqIagfoQwvSwfJiejtb5xhtvuPXr1/taSrLaGx3cftuT26PXHfopRPtH43XW12vT9qj2E1636Iyqx5lqNZpeUVHhtyXQPtdNrzfse/ne977nP05Mrj/s++T6tc16LzQ+7De9H1qPtlPr0b3mC/sn9bXceuutfp3p1qPnDPOE5TRNdK+agfar5tOwam6q+WnfaZ3at2GecFxp34Z1oLB0jM2ZM8fdHr13baRLD7Sls53OguVKtQ6dyaMCHo9poRrfhAkT4qHCCbWhJNX6onBrjppN8Rh0puiE0HU+9ShF6nPQWVVnxnKl16eaWlTF949F/QxRgS7KGVy1qlAzFPWpqI9CNQl9sxddS4XSIn58nDIErdQpq86zJUsyXzK+HPz4xz9u0ymtJpI+QSo0BUPqt24VEnquZPMInUfNOzUfN6f5WJ+gMKitrfa4Dt5T4QBWwVUh1utW/4CCopj0CUrUBPHPpf4WPs04eQgKAKZsQUEfBQATQQHARFAAMBEUAEwEBQATQQHARFAAMBEUAEwEBQATQQHARFAAMBEUAEwEBQATQQHARFAAMBEUAEwEBQATQQHARFAAMBEUAEwEBQATQQHARFAAMBEUAEwEBQATQQHARFAAMBEUAEwEBQATQQHARFAAMBEUAEwEBQATQQHARFAAMBEUAEwEBQATQQHARFAAMBEUAEwVzc5Ffyma245CZq9vOOxe23jI1e86Eo9BVzdsYKX7m4/1dBeP7BGPQX19vRs3bpzbvGVLPOY4giIPjQeb3TcW7HKjzuruvjiql+vfuyKegq6u8cNmt2Z7k/vvPx1wP5k8MAqObvGUUxdBUSST/2MnB1mJq9911If941MHnfJBny0oyrqP4siRI623Qvuf6Ez0dxf1ISRKnN6/e6463T3w8t54DNIpq6A4duyY27Vrl0/G9evXu40bN7be1q1b58c3NjYWJDh+tfqg+/soKFD6PhE1Helfyq5sgkIBoUBoaGhwBw4c8KGRSuPfffddt2nTJvf+++/HYzum8cO260fpUs1CzRCkV/JBoUDYtm2bD4h04ZCO5lNQbN68ucO1i2EfqYwfoRz07803BbIp+b2zdetWt3///niofQ4dOuRDJteAAU5VJR0UqkWosOdDy6s5AiCzkg0KFXD1SxTCvn37fP8FgPRKNihUmyikfDs3gXJWkkHR1NSUUw1g9uzZ7stf/rJ76qmn4jGZffjhh0WpVbz55pv+U5aOeu6559xvfvObeOhEGr979+54CCiekgwKFepcvP322+755593U6dOjcdkl29/RzrXXHON++53vxsPtZ+2/7e//W08dKKvfvWrPoiAYivJoMi1QOvLVapV3HDDDW758uXx2MwKHRRz5851Y8aM8bWCTGf+ZG1D82SrIaTWTOrq6tznP//5eMheHuiokm165GLs2LFu79697pFHHvGPLYX+qrdqEg888ICbOXOme+ihh+KxLQFSU1PjPvWpT7kJEyb4cap5aJyG9VjTAtUawryaJ4RBRUVFa3jcfvvtflrqskAhlGRQnHaavdn6foRud955p+vfv388tvMoDEaMGOFvM2bMcA8++OAJZ3s9fvbZZ32tQPMqDPR4xYoVfpkBAwbEc7bUJDQ+1CCSoSNaXrUWTV+6dKm/AYVUkkGRC4XE0KFD46Hc5BJAuVIHqpod6nBUCKjwJwu4pmmc6BuiV199dWs4JJsTomnB5z73uTadm6nLJ0MGKISSDIqePXvGjzI7//zzfb+EAiNQn0U2uaw3F6oB6KZagwJDN4WCahXpqGAnaxup3w9JTtuzZ0+bINBwav8FUEglGRR9+/aNH2Wm5sb999/vZs2a5TszdVu8eHE8Nb3evXvHj/Kjvgk1N372s5+13tTMCB2bqfQRrsarxhHukzROYaMmhsJG8ydpWLUMPa/m0achQCGVZFB07949p0KtpsfTTz/delNHXyZaZ58+hfm3cdUeks2F4J577vH3CozkR7aaX30QoSaiYAnTFQIabm5udm+99ZZ/fOONN/pp9957r69NhOVF8+T6cTCQq5L9hSt9OUq/L1EoZ555Zrs6Pb/xzG73k+voCygX+uEa/b7IqfxDRGX5C1c6+xfq04xCrgsoRyUbFFJdXe0qK/P7XQg1OVSbAJBZSQeFPs4cPnx4hz+tUEho+XzDBih3JR0UosJ+zjnnuEGDBsVjcjNw4EC/HCEB2Eo+KAIFhb7CrL6GTIVfNRAFxMiRI93gwYML+gUrlDZ+AzW7siopob9BQXDuuee6YcOGtd4UIhqngChELUIHli4ig/KgH9bl0guZle0pVbUFfZoRbgqRQvrbUb3cf/+ZX8UqB7pGi672hsyoe3eQLv6zdtth9+TvOvbDvugadN1YXVZw5hf6xWOQDpcUzNODL+91r2045L44qrcbNZSzUqmo/+Co+9XqD93wgZVu5hf7uf69uG5sti9cERQFoIsVr9l+2B98KA26jsfFH+tJQCQQFABMZfkVbgCdh6AAYCIoAJgICgAmggKAiaAAYCIoAJgICgAmggKAiaAAYCIoAJgICgAmggKAiaAAYCIoAJgICgAmggKAiaAAYOKn8ApE14XQdT4aD3IhmVKga3hwHY8T8ZuZRfTr1Qf9z70P+0glP9RaQvwPIm877C+78PfRDQRF0Tzw8l63N6pF/N+r+sdjUGrm/G6f2/rBMXcP7yE/rlsMa7Y3OdUfCInSNu2Svm74R07jQk6GsguKY8eOucbGRtfQ0OC2b9/uU1I3DWv8kSNH4jnz890X9vhqK0qfwuLXqz6Mh5BO2QSFAuL99993GzdudO+++67btWuX27dvnztw4IC/aVjjw/R8A0MXkKEzrHyoj0kd0kivLIJi//79PgAUFAoMi2oWmzZt8uHRUQoKlA9CP7uSP9oVDtu2bcspIJI0v5ojWh5AdiUdFKpJ5FvQtXw+NQvgVFCyQdHU1OTee++9eCg/CotCdXIC5ahkg6KQhVvNkJ07d8ZDAFKVbFDok4xCUgdne/s5iuHgwYPxI6DrKMmg0MeeudQmXnnlFR8Aog7P5cuX+8eZ7NmzJ36UH23fypUr46Hj1q5d66dl89prr8WPgK6jJIPi0KFD8aPskuGg0NBwNrmu16IQSxcIu3fvpi8EJakkg0IdmbkYOnRoazgoKMaOHesfZ9KZhVhNjHfeecetWLHC/eUvf4nHtlCgqEaiGkhoiuijXM1XV1fXWlvRfJpHw2E+rTP5OjQ9DGseLQ+0V0kGRa59CRdccIEvKAoLhYZunUWFU4UyeUsWYAVEv3793Hnnnec7UpNhoQCoqalxvXv39vNpOdV21q9f7yoqKvw0za/XNnz4cD8c5lNNJqxL9/oWaqjd6HnoA0FHlGRQnHZabputYHj77bfdrFmz3PTp0+OxJ5+CQJqbm93evXtdr169WsfJmWee6fr27etGjBjhh1W4u3Xr1jpO95pf91o+rEOBoNAIn+DoXsOhFrF161b30Y9+1D8G2qMkg6J79+7xo8xuuOEGf7vsssvcI488klNtomfPnvGj/FVWVvpCmrxpnISmk2oMug0ePNhPD8J8osehJqIwSNJwWIeWV3AMGDDAB4aaKrofNmyYD5oQRJoOtFdJBoUKhuXpp5/2t69//euuf//c/hW8kEGRzcCBA/29CroKrgp4ks78ooKuW2pAiNahaVo+FP4QMGqO6H9ZzjjjDD9O9+rHSIYR0B4lGRR9+vTJufnRHlpvIahwpivcYZymq29ChVcfh/7xj39sPeNrHvVDaJz6HdTPonGqRYUgEDVPFBZh+WQfiIJBjxUYohqLlqU2gY4q2V+40jcz8/0/jyTVOlT4cvWNZ3a7n1xHwSsX+rUy/STeqfxfpGX5C1c6mybPsPnQ2VpnYQDplWxQqOlx1llnxUP5qa6uLljoAOWoZINC1HYfMmRIPNQxar9XVVXFQwDSKemgkNNPP92dffbZ7a4RqEaijw7DJxAAMiv5oBDVLPRFpEGDBpmBoYDQfCNHjizYpxxAuSuLoJBkAKimoMf6JEPfUdC9ag4ar+malu/Hq40fckWwcqLLL/C7mZmVTVAkqaagMNDHnerw1L36Igr5/YtPnNXdvb6xMP9tipNLv77NjyVnx97poJsuqXIP/HovP/Fe4nRpQV2j5fYv9IvHIB2CooN0BvrJ5IHuGwt2+WuPovS8vuGw+9rc931I0OzIjmuPFsD/REHxq9UHqb6WmOFROEwb35eLS8e4SDEAExcpBpAXggKAiaAAYCIoAJgICgAmggKAiaAAYCIoAJgICgAmggKAiaAAYCIoAJgICgAmggKAiaAAYCIoAJgICgAmggKAiaAAYCIoAJgICgAmggKAiaAAYCIoAJgICgAmggKAiaAAYCIoAJgICgAmggKAiaAAYCIoAJgICgAmggKAiaAAYCIoAJgICgAmggKAiaAAYCIoAJgICgAmggKAiaAAYCIoAJgICgAmggKAiaAAYCIoAJgICgAmggKAiaAAYCIoAJgICgAmggKAiaAAYCIoAJgICgAmggKAiaAAYCIoAJgICgAmggKAiaAAYCIoAJgICgAmggKAiaAAYCIoAJgICgAmggKAiaAAYCIoAJgICgAmggKAiaAAYCIoAJgICgAmggKAiaAAYCIoAJgICgAmggKAiaAAYCIoAJgICgAmggKAiaAAYCIoAJgICgAmggKAiaAAYCIoAJgICgAmggKAiaAAYCIoAJgICgAmggKAiaAAYCIoAJgICgAmggKAiaAAYCIoAJgICgAmggKAiaAAYCIoAJgICgAmggKAiaAAYCIoAJgICgAmggKAiaAAYCIoAJgICgAmggKAiaAAYCIoAJgICgAmggKAiaAAYCIoAJgICgAmggKAiaAAYCIoAJgICgAmggKAiaAAYCIoAJgICgAmggKAiaAAYCIoAJgICgAmggKAiaAAYCIoAJgICgAmggKAiaAAYCIoAJgICgAmggKAiaAAYCIoAJgICgAmggKAiaAAYCIoAJgICgAmggKAiaAAYCIoAJgICgAmggKAiaAAYCIoAJgICgAmggKAiaAAYCIoAJgICgAmggKAiaAAYCIoAJgICgAmggKAiaAAYCIoAJgICgAmggKAiaAAYCIoAJgICgAmggKAiaAAYCIoAJgICgAmggKAiaAAYCIoAJgICgAmggKAiaAAYCIoAJgICgAmggKAiaAAYCIoAJgICgAmggKAiaAAYCIoAJgICgAmggKAiaAAYCIoAJgICgAmggKAiaAAYCIoAJgICgAmggKAiaAAYCIoAJgICgAmggKAiaAAYCIoAJgICgAmggKAiaAAYCIoAJgICgAmggKAiaAAYCIoAJgICgAmggKAiaAAYCIoAJgICgAmggKAiaAAYCIoAJgICgAmggKAiaAAYCIoAJgICgAmggKAiaAAYCIoAJgICgAmggKAqaLZuegvRXPbUdnsP7TfLdu4zO1ofC8eA+BkqepZ5Wo/drGr7lcdj8lNfX29GzdunNu8ZUs85ri8g6JuZ527++d3+bAA0HVMGTvFTa69Ph6yZQuKvJoeOxp3EBJAFzV/+Xy3ZO3ieCg/eQWFNoKQALqupWuXxI/yk1+NYu+O+BGArkhdA4XApx5AGStUjZ+gAGAiKACYCAoAJoICgImgAGAiKACYCAoAJoKiBOiffK785CQ34YKJ7f5Hn/YaNXS0mzx2in+uTMaOrD1hO6r7V7uaM2riodzoNRX7taBwCIouToXwvmu/7xr27nB9e1S56V+YEU8pPD3XbZfNcJt21rkptddnLMhTxl5/QpBMOD8KsGjZ9lDw1QxuX7jg5Ol2r3PRX4p7245KR/9aroMKxaOzd9ORw27RWwvduvfWuYbGHf6r8yqY06NCfe1FX3GXfHy8Gz30Ql+w9XhA1cDW90Uhs7p+lRsRFcrbopCZeMGlvqAvj967/YdP/Nbe6Kg2oWUXLJ/vFr25sM10UU1g4icudT0qe7gVW95wTUeb3KQxk/z69PifJ/xLNHyVD5qqnn3d6m2rWoIu2m5X4dysL92pOz+9ZvBI16Nbd/+6UDza17lobGx0c+bMcbfv2ROPOY4aRRenAqjfFlAoKAhWRQVPVPjm/O8T7o55M939L/7A1UaBonDQd/tDM0Bnff2Hr0rmTZ+92c+n//Z98tUn0v77cXX/IT4stC5RKOiWpHXrd0eWb3zd1wqkut8Q/7zTxt/kNjW0/OzArXO/FoXSRL/8gmXz/POpSTP75YfckrVL/HZp2xdGAYiuj6Do4vRdfRW61dtWuvu+8n1fiFWY6xo2tv5TnubR2V+FVWdwnalFZ3YV0tqaloI/bfzNPnBUq9h/aJ8fF0yLgqRPjz7ujvkzfaFWKCmMqqLmTpKCYlVUQ1Fh9z+OoiaHqgiR2pEXRzWXkf45dAsUblpPXRQi2mYfPvEyKA0ERRenWoEKlgrmk1ENYmxUGAdHhXP/oQPxHC19Cz4sopvO1CrkWm7Zhtd9wewTLb/wzRfc7Fce8jf9PICaF0kKII3T8jrrK5SWrlnc5j+E9dyhWbMoWqcCQTUMbYPmDc+xYPk8vx5tk6q+CrIQYKFWgtJBUHRxvgMzKowq+KohqMqv5sjoYaP9eJ39VeVPFry6nRtbahNxGKiWoX4JNRU0v0JBBThJARGeR/Po7D82qjGkUmH3zZmIwivUMDRO6wzrUF+EhvUpimoqao6oJqTQ03g1c9Q0QWnI66fwHo7OHIX6YQxkpgKmM7Y6j0MB17AKqYbV5FABDAXYj4/O4GFYkvOHfo5UChCtJzyPb+JE6w7PKRqXXN7XDqKaRJgndR2arnVIcl6tR/dhGorn2enPx4+yK9pvZhIUQNdXiKCg6QHARFAAMBEUAEwEBQATQQHARFAAMBEUAEwEBVDG9OW3QsgrKPRNOwBdV6HKaF5Bof9CzPTjJgBOvkL90FFeQaFqjf4VWT+uAqDr0P/2qGwW6kSe1/96JPEPPkDXoJDoSEAU7Z/CAJQP/ikMQF4ICgAmggKAiaAAYCIoAJgICgAmggKAiaAAYCIoAJgICgAmggKAiaAAYCIoAJgICgAmggKAiaAAYCIoAJgICgAmggKAiaAAYCIoAJgICgAmggKAiaAAYCIoAJgICgAmggKAiaAAYCIoAJgICgAmggKAiaAAYCIoAJgICgAmggKAqaLZuegvRXPbUWi/3bt3u+eeey4eQjEMGDDAjRkzxo0YMSIeg46qr69348aNc5u3bInHHEdQFFFNTY3btGlTPIRiUUjU1dXFQ+iobEFB06NIFBCEROfQflbtDcVDUBSJznIzZ86Mh1BMM2bM8E0QFA9NjyLTmY6zXfEoIAiJwqCPAoCJPgoAeSEoAJjSNz0AIIEaBQATQQHARFAAMBEUAAzO/X9pJQRXk0d0gwAAAABJRU5ErkJggg==;" vertex="1" parent="WIyWlLk6GJQsqaUBKTNV-1">
          <mxGeometry x="115.43" y="386" width="29.39" height="62" as="geometry" />
        </mxCell>
        <mxCell id="YcHYLUiHtxIJwsrw_Ox9-21" value="" style="shape=image;verticalLabelPosition=bottom;labelBackgroundColor=default;verticalAlign=top;aspect=fixed;imageAspect=0;image=data:image/png,iVBORw0KGgoAAAANSUhEUgAAAQkAAAIxCAYAAABeqU05AAAAAXNSR0IArs4c6QAAAARnQU1BAACxjwv8YQUAAAAJcEhZcwAADsMAAA7DAcdvqGQAAD6mSURBVHhe7Z0JvBTVne8PKnCVPSiYCAgYV3DJC4Ib5gmuE1HjJAEnmYnPdebNqHHyzMskMYnPmJkXjTH65jNRo1k0o5iMRnBPwMSNRSMii0qCLCIRcGGVXd75nq7/pW5bfbr63u57+3J/X6hPVZ29quv/O/9zbvepTjuc8/+FECKb3ZK9EEJkIpEQQkSRSAghokgkhBBRMicuT/nqWNd9QLfkTAjRUXjg8knJ0U7kSQghokgkhBBRJBJCiCgSCSFEFImEECKKREIIEUUiIYSIIpEQQkRpE5Ho1rWbO+nQMW7k0FFJSDb9evZz/Xr0S86aMmTvIcmREKKWtPo3LjH8r336627mwuluH0SgZ3939f3fSGKbctnJl7t5b851U1+ZmoQ4N2y/4e7yU65wi1a97v7t4X9NQoWoP+gI4cnU82uEjvKQMW7IPkPDMcxdNsfNfH2GW7luZThPs8due7hBffd3DZ0b3B6775GExtm2fZt7Z/3bbsXaFUlIeeriG5fcmKnzp7h7Z97rbvndzY0eAeIxfuSEcAyEcwPTAsHNHHfUWW6GF5hFqxYloULUJ5effEXYiuEZvvVLt7sLT7zIjfLe9JB9hrjhvvPj/Nbzb/ed4xUf8qARiBVr33L9e/V3fbv3zbW9vW6V67VXb9fVC0tLaHVP4oLRF7qVa1e6h2ZPDkbPzfribX8TRGH8qPO8d/C9kI6bdfV/fcMNGzDczVs2t4m6UgYexgyvukLUC3R01557XejAeI4fuOzBEP6ZW84Oe8C7QDjm+ud34ox7wh5B2LBlQ7AHOsoxh44N4WkP+4iBRwYv4l+8F54X7OxbD3zTbdq6ya3ZuCYJjVMXngTiMOawsWHIwWYsertwY8G8BYRh3JFnfcj9wsPgBgjR1mDYeAEYum2x+TKGHjznbMzJ3X3Jf4YOkT0exMQZ94a4W377oyTHTmxY0hxGDDk6OaqcVhcJjPuf7/myu/OpnyRKOieJKcCNOPOocX7fPagq6jwmGdsZfAiIihBtDXNkeA94wXnBAx4/8rzQGeIx3OvtYOorUxo9EeKz5iVaQufdOidHldPqImFjLdyry065wj300uRwjqqaUiIe87x4cL7o7debeA2EVfsGClEJDBkYSrBvbu9+59M/CZ3l5JcK7r0NL0pN4reUl5bOSo4qp9VFgoka3Ksbz7vJPTRrUrg5wDgtjM02bwiTlWyLvbcwc+GMxjT8tYN8fDAorhBtgXV0tm8ueMN4yRO8FzLBexbMDpbqAJlXeHHxHxttI8/2kBcgPHLYuHVj2DcHLTojRIVg2CcdOjYYIV7uBSde5J70wwWGCcyzzVs2J/z1jo6MTs/m2krBsJq5ipiHTMd4wD4HuG0fbPfbtiQ0Dn82Je2Ct15LQsqTNXEpkRBCNKKVqYQQFSOREEJEkUgIIaJIJIQQUSQSQogoEgkhRBSJhBAiikRCCBFFIiGEiCKREEJEkUgIIaJIJIQQUSQSQogoEgkhRBSJhBAiikRCCBFFIiGEiCKREEJEkUgIIaJIJIQQUVpFJOylI7x0RwjRvqi5SJhA8Cq0bl20AncM3kly5pGlhZR7yfLrzX0hTK3hBUv2XhSx61BTkTCB4CUmvMps4sx7k5iOw40Tbgpve4q9H9LAyHj1Wym4j7zIJUts7W3UrQkvbk7X2d2LAwKhzmDXomYiIYEo3ANeKw8IQBaDvXjgZZXC4lvytijyUgZlZRGrw/JanO0RA7s+wjjn5TS8CT79khnCyc+WJuRPyrL6CRP1R01eziOBKEBPO2roMd54pofXyX/xtr9JYpreI97yFDZeP+974Ut/fnFIQy/N26KIMyNkSHLpzy7+0Nue8CTmLpvrbvld07dR83apcX4IQ3rq4o1TvG8ynPs2UId5OdTBm6d4FyvgtTC8sfp5dRztIT8vyiXeuDmpl9c12qv28YrID+Snbt5mxevtEAWun2MTmXS8aBta5eU8EoidjDrgmPAe05neuDGCdG8a3HQvzxg84sELZNNDEl5Gi0Fi9MQjHOaV5IUyEAiMmnqC+HTydZ9SGCKEt7b7z4kX14Y2PPUTN8GH0U7yEs9nmFU/nytvwub6EAVeU5eG5wCR5IW4lh/j5zV43AtjxsLpjfG0DVET9UXVReKkQ8aEB48HoiMLBIbGfeB9kRgSPbcNOUwwMCDzCPASMDoDz4N89N5AL4vBVgJl4MXYC5cpg5c0mxgRn27D5NmTg8GTnvalP0PyIiJ54TnAA0nn514gHmkxRECB+Knzp4R7JuqLqovEk68WXnzKg9DaE2n1BD0xDPa9L8cYAUYJ1pMyvIhBnjSris7LgUFu2Px+craTdE9erg1pMPpKKE5v503qr7BM0fpUXSR4sG3Mi7vcUYVi+IDDgwGE18r7DYM1D4J7RJyJBoQ4n8dYtOr1MP+Q7llNePKCK08ZaaMc5uuwMT8eQ7oNtNHmKBavWhT26foZPuVlsa+D8rLyL/Jli/bD7t9xzv9vyl3HD3VdenZJzioHA8CN5KEIbnfP/o1uZUeAYcXpw093l939j8HdfuilyWFDBIbsM9Q986en3ZvvLXPnfvKvwz3ar89+7kI/FmfScuv2re4h7/a/ufpNd8JBo4MRY2znjvisv5eHuy57dAllFXsATBIiBr336h3uuR/eu1lLZ4UyTvNtIQ6xOnjfg8M8ByKOZ1IQsP5BEGgDRn3XtF98qP7TDj/DnXDg6FC/vSZ/qM/DxOx+fQa49/1nTh2cc81vvvdmuDbqtvwcM2SauWhGCKPs9LXQbu4P1y/ahgmPvpYc7aQmIgEdWSgGeKN5b+PqIAZpgiE1dHezlrwYjIj7gWF169rdG94Ub9QveoN5P8Tb/bP4xd6zuOu5X7jO3kgxMsQkDUbH0IK0bKu8ES94a0FjGX26fcR7MCu8QNzc6Elg6AwPEQji5y2b426ZcnMomy1d/3Ivaj/+/X+E43neA1n9/upQDvXw2eI5cH3MPtrn/Pjcx9z7XgD26zMwlMfkLPUFvIpRVvpa+J7Flg+2husXbUOWSNTkT6BpeHj11w4h2get8ifQYmyOgvEvvY4Qon1Rc5EAEwr7c54Qov3QKiIhhGi/SCSEEFEkEkKIKBIJIUQUiYQQIopEQggRRSIhhIgikRBCRJFICCGiSCSEEFEkEkKIKBIJIUQUiYQQIopEQggRRSIhhIgikRBCRJFICCGiSCSEEFEkEkKIKBIJIUQUiYQQIopEQggRRSIhhIgikRBCRJFICCGiSCSEEFFq/sLgSghvsO7Sze3l97xhmj1hxfDyYSF2ZXir/IYtvKV9J4QV3tzu3PrkmDfDV5OsFwa3iUhg5MMGDA+vvOe19UP28XsZvhDNAvFY9PaisJ+7bI5b7I95QXdzaFORGLbfcDdq6Cg35tCxmd6BEKK6IBRTX5ninqzgRd1tIhKIw4RR57nhfi+EaH14q//UV6e6J+dPKTs8aVWR6Nezn7vs5CskDkLUCYjFvTPviXoWWSJRk79ujDvqLHfjhJskEELUEXTcl/uOm867kjnAqooEcw3Xnnudu2D0hZp3EKJOGXPomGCn/OEgD1UTCVTqxvPkPQjRHjB7PfOocUlIaaoiElSIMunPmEK0Ly4cfZEbP+q85CybFouEBEKI9s2EkRPCVxNK0WKRkEAI0f657OTLS85RtEgkLjjxIgmEELsIX/v015OjpjRbJE46dIwbd2T5SQ8hRPuAqYMsmiUSFMa3KIUQuz7NEokzjzpLwwwhOggViwRehIYZQnQcKhaJ8SMnJEdCiI5AxSIxfMDhyVF1ePTRR8MWY+7cue7ee+9NzkQlnH/++e62225LzoSonIpEgq9cx+Yi3njjDfeZz3wmbHm5/fbb3dVXX52cZYOIXHHFFclZfbJmzZpw3Y888kgS0vpcf/31TQSBNj377LMSWNEiKhKJkUNHJUfZYMzPPfdc49aRWLt2bbhm9m3FtGnTmnhlvXr1cn/84x/db37zmyREiMqp0JOIDzXoxYYPH+569uyZOYRg2EBve+CBB7qxY8dm9nDmjYwYMSKk+eY3v1nS8OgpSUcPmoZyCZ83b144T9dL+OWXXx7qMc4999wQlubWW28NaQ3S4PFQVyWeEtB+8lEebSB/8f2hx0/fG9qTvm67LxZPedwbayPHc+bMCUJFmHlnDDfS9yd9fymr+F5QDvF8lqXSiI5FRSLBWpSlwCB5kC655BJ3xhlnuIkTJyYxBezhZH/VVVe58ePHuxtuuCE82IalwagpgzSPPfZYyTE1PeWgQYPCkCVtUPfdd1/YDxs2rLFM4q1eDMnCYOnSpSFdGuLSYaRBfEwIK8GMjmuiDZSL8Zq3xTkiRJ3XXntt4/370pe+1Bhv9+XSSy8N10A8121tPP7448P9GDhwYIg/7rjjQjjtRkzBymHP50Rb7F5YObSBMMpPf5bFIio6EKxMVbyd/NWxO865+awm25X/ecWOGJdddtmOfv367fAP5A7fK4Zj9obF+4c2CdkRjgn75Cc/Gc7vueeecO6NMZzD6tWrQzzhWVhdDz/8cDi3Mq0MbwAhf7pey/P9738/nBN/zjnnhGODuHSdpLF2ZmH1cg1pYtd00kknhXMvBuGce2c88sgjoQ2E+d49lJG+Bsr4+Mc/3qSNXGvxdVAu9x5inwF1QFYa74l8KEzsomToQW5PYp8SX9k06H3owRhq0IuxT3sAxBNOT2dwnO6VrWelHIPekd6sFFYXvSrgxpPHelI8FepI12vtsOFIXir1IMDqyLom4ui58RBoD9dhmNdBGOmIT19DufuSBeWU+gxog1Fc14ABA8LevA3RscgtErFVbDBuHiAeeMa/bAwDCCfMMLc3DQ97Mek8ecAFt7oQptNPP73xIc8qH7LaUo60EVdKqWuyMku1E0iTlb/S+wTNuW7RscktErHl6BirAw8tM+xsPPQ8kBZnPaf1rEDvxYSdwbgaLA8gPlmToGkuvvjisLcJNnpgg17SRMxASGir9cSksV7d4BqqgdWRdU3m7bDPaqP92Zf2cS/T8zyl7ktMBOwzSNfDZ8BWqVciOg65V8v+2qf/xY0aekxythMeSmbBechuvvnmJLQAM+M84A888EB4MJkgwxDp6Tt16tT4nQIE5YUXXgjHzNzbQ4s3gHERT/4VK1aENFkw8YfgYHDUZ1i9QJlmXLRrypQpIRwDJQ31IVR+7B3CwOrkGim7+BoNyrU0eFFw7LHHugkTJjS2LX1NMHXq1HBO3jFjxoTrZFjCuU0cMpHJPea+EE486awM7qe1kb9o2AQp95i60+22coAw+wwoj7bgsSC0XLt9HkBdCBb3lXxiF8Y/E8Xs/h3n/P+m3HX8UNelZ5fkrMBph5+R+VPSP//5z27dunXB5e/Xr2l8//79G3tsHkT2K1eudMuWLQvx3/3ud4OQkA8jgXPOOcd17drVLVy40G3evDk86BhwQ0NDyF8KHnC+D4AXgQAYVi8GRpmUTXkMiTgGDBXDpl20F6GgXssLJgLpsotZtWpVyGNQJukxbI5ffPHFkIZrxWipF8hDm6hj/vz5IYy/bJhHZNeOkdNG7gv324TF2si9BIzf6k6328ohzK6VemmLDXsIo0z7PIAwyuS+FH/GYhfjmmuSg53k9iRYgaqeF7nN6gGFEBWS4UnknpMotSBFPUDPiHue/guCEKI6VPRlqnrFvlHIEEEIUV12CZFgfM4kpI3xhRDVI/+fQLvU7xu5+Pp1bEJRCNF8qvI9CSHErssuMdwQQtQOiYQQIopEQggRRSIhhIgikRBCRJFICCGiSCSEEFEkEkKIKBIJIUQUiYQQIopEQggRRSIhhIgikRBCRJFICCGiSCSEEFEkEkKIKBIJIUQUiYQQIopEQggRRSIhhIgikRBCRJFICCGiSCSEEFEkEkKIKBIJIUQUiYQQIopEQggRRSIhhIgikRBCRJFICCGiSCSEEFEkEkKIKBIJIUQUiYQQIopEQggRRSIhhIgikRBCRJFICCGiSCSEEFEkEkKIKBIJIUSUmorEjh07wiaEaL/UVCQ6deqUHAkh6o28nXhNReKDDz6QJyFEO6fmcxLyJoSoT7DNPN5ETUVi+/bt8iSEqFOwTbx9Oy5FzURC4iBE/WMdeczj15yEEB0Us81yNlpTT0ICIUT9YnMS5ejkk3wo1SlfHeu6D+iWnBV44LIHk6N84EVs2bLFde7c2e2+++5JaHmmL9zi7nhmfTjuuacmPYVoDsve3e7tZ3d35ak93GEf3SMJbYrZaJcuXdxuuyX+Qsawo2YigUJt3bo1CERekfjhb9e5dRt3uC/7C+vZIIEQoiUse2+7u+Pp9V4sdnNXntIjCd0JNrp58+ayIlE3w41fv/C+o3nfOqunBEKIKjCgz+7u22f1cms3fuCmv745CW1KHhut6cRlJSLxKy8SX85QOyFEy8CLuOPpDclZU/J8j6mmIpH3i1Qo3YCPZI+bhBAtg+FGFnk78ZqKRF7WbtoRXCMhRG1AKJijKKZdDTfysGnTJrd+/Xq3bdu2JKQ0b7/9dkhfTag3T93Vwq5XiFqAp9/mw41qgbHMmjUrbH/605/ctGnT3BtvvJHEZkP8e++9l5zlh7oWLVqUnDWFusvV2xIQoHTdf/nLX0KdQtSCNh1uUHlelcoDhtPQ0OCOPfZY94lPfMIdffTRbs8990xiqwsi8dZbbyVnrQsisXjx4uTMuSFDhoTrFaIWYJ95hGL37zjn/zflruOHui49uyRnBSaMOi85Ko9Vzpc1+Ptr499gS8CcxPzlW92xB3RNQpqC0fK33L59+4bzPfbYw+21117hGKOeM2eOW7ZsmVu+fLnr1atXSEue7t27ux49eoTjV155xa1cuTIMQyiHNpFn9uzZIR/h8Oc//7lRKBCmbt12fl+ENNTdp0+fJKSAtQEDp0zLh9G/9tproUzCgfal6yXNq6++6vbZZ5/gKXFuIrV27drQZtpbqg48m6VLl4Z0CxYsCPv+/fuXveeiY/HEvE3BvoonMfntBt9jauzQr7mmsE9R0yepWnMS9KgY6PPPPx+MHTfcwB3HwPAuDj/88BCfBuMiDXH0yogGhmXh5MNDOfTQQ91HP/rRsDevhXLzgHGT1srB6DF22sne6iBNcb3EE0ad5jUQPnDgwBDHBgiE1cG1WB2IFvMWBx54oBs9enQ4T98fIUrRpsMNI687Uw48AowDQ8DI6UkxTEA8mHtAHBiWYHBp7Jw40qxbty6Ese/du3cwTrB9pZiRDxgwIJxTphkubdt7773DOVBHcb2IQR4ob9999w3H3A+rAygrfR0mLELEMPts9CJKUHOftFwDKgHjwhjpSVevXh3CMBbEgx6cjd60GAzH4snLHqppTOmy7Ji2FdfBeVbaPDQ3nxClwD5tTYlStIuBK642XsCqVavChldADw30xLjviAZb+q8DQK+LQRFOz2tlMK9g4ZaPczNswoq9EqAM3HnbAPGy8mkLZRDG8ACvh7Kok/Q25GDIQ3j6ryWIGXlJZ16CwfVSdnEdQrQE8yRiHn/NRKJcxZVgwwzcdzb+smHewODBg4PhmdHapCJhpMOYGOtj+GaYlJUOJx/tJQxRoT7CikWCsklDGbaRBu+EuszgmW8AhgfMp1CWtZv8xJOPcOZBbBgBXJeVSzvteqiDa7I6bP6CMtNiQXryCZEH8/Rtn0VNfyrOr0AxinK/AuWbYPx2I+uXakKIlvOV+1YH+0p/s5lOnM6IvwY22miGWNTNXzfWbqyO1yGE+DDh91EZP33Ag4h5EVAXcxI0fv7yLcmZEKKaZP1mA9KdeJvNSZRTqDQXju4eFp0RQlQXhvIXntB0+gCwT6YFEIiYrdZMJKi4kuHGqcMawqIzEgohqgPfZL5m0ppgV8eU+DZzns68LiYu07BC1bTXt4QxlNa4FKK5dAo2hAdRSiDoxPMsX1fTNS5pQKUL4QohWgdslL9udO3aNSoSNR1uVDInIYRofbDRctMCNRMJKFe5EKLtMPss15nXVCSEEPWLiUObehJCiPomz7RATUVCcxJCtH80JyFEByVtnzFbrZlI4EVU25PgyyF82Wr8j98JXxLhRyulvnIqhIiTts+YrbarOYmvTHzPHTu0i5v4933D68v4VRth+nGYEM0jT0deM5HAfanmcINvYvLVbfv2GF4FXgRvTba3kJdjzZo17okpv3UPPjzZTXpkcjivFitWrghfHoP77v912AuxK9BuJi7f8IIwbL8ubvrCzW7+8m3u4p+9E14sfMzQrm7+X/It5faLe+5yBx94kDv70+Pcicef2PhVU4zbNli9prA0XlaYwTlxtv/DM0+5t1YUVrmmfMPiwcqzTYi2Jk9HXpMl9Q1WfeIr2dVY3h1h6LVnp/DO0H/65bvue3/d2x32sc7Bm5i1dIs7zXsZMTZt3uTeXL7cHX/MceHcFo+dPedl98dZL7ply5e5p5552h0wdGjYz577ckhH3Oy5c9z6DevdzBeed8MOPcw99ezT7rUFC9zb77ztZv7xebffx/YL5bA8ed++e7spv5/qDjnoYPe491pYNn/2nNmue7fuoYz/mvRA+CrsszOmuX379w/hQrQFCATPLL+vgtCpt+aS+jSgmp7E50bs6X74xLqw9sSjV/YLAgH8DJa4cmzatDl8R70YxOAs3/OfNvZU179f/yTUuRNP+JQ78vAjkuMT3af8htDA4iVLQh7CYF+fj23kiKNd7169QthqP5RhOHPq2FNC2hleYABPhnxHDj/Cex4rQpgQbQH2yVbOVms63KjmnAQvFTlteIO745mdr1DnhT54Egw5yoHxLnljSRM3n+MGLxwWZiIADV13elLp4wA/i0vAKyhFWpRi6YSoZ2omEtX0IowLTujuXnlzS/AeEAf+HMpfOfJy9l+NcxPv/5V78JHJ7j6/X7x0ie/ZDw4TmWFOYWW+nn3wwP3DxCd5DN6axTAEDwIQpT5+Y6J0ki9/1NEjQ7gQ9UQej7+m60ls2bKlJj8V/18T3wsTmbef3zdMXlYKk4kNDXsGLwI2JZ6EnechKw9hxWU0p2whWgMEAi+6iY1mCEa7FAkhRMsxGy236ExNhxu1GHIIIapHnnnDmv51o5oTl0KI6pK3I6/pXzdAQiFE/ROz05qLhIYcQtQ/MTutqUhIIISob9p0TkIIUf/QkZcTirr5Eyjt3LzNuW0fJAFCiIrZzTvvDZ0L+3Lk/RNoTUWikpfzbNji3FatHyNEi0EgenTNtPcm4EG06Xs38rgxxgc+mQRCiOqAPW3PZ3q57LRmIkHFmrgUom3wjnxZ8nbiNZ24zNsIIUTrY15Euc68psMNeRJC1D9tNtwAeRJC1Dd5OvKazknUggdfet99+Z533YU/fds9OOv9JFQIUSnYqA03YvZaU0+i2sON7z+6xq3ftMPddN5H3B3/Y29fvguCsc6HCSEqI22fMVutiUjUwouY+som12PP3dwXjtn5/Y0Rg7u6Lx7bzd09Ld+S+mvXrnG3/uTf3RVXXuKu/vZX3RvLliYxLYey2eD6G7/XeFwpb7yx1N17393JmXOPPj7ZPTtt5wpYt93+777dS8Ixcem0aYjjOtPxHNu1W/uy0hF3/Q+u+9A10Lbbbv9/yVlTnp32dJN2Uq61sxjqsrg89+m5554ObU4zd96cEMZmbaesWHnl4kU2NRGJansQ8NpbW92YQ/Z0y1dvD57D1Q+sDmEIxWtv5VtS/5v+gVrmH87/9ZVvuDNOH+fmzZudxLScW73xPPLY5HD8V6ed6Xr2zL+sXpqevXq5G268LjlzbuLEX7obfvC95KxgfAMH7B+OJ068293+kw8bbRAan+/aa77v5s2fEwwbQ3v0sYdC2KCB+wcRsHTcD9KZkV/+5Uvcc9OecWvWNn2NwG2+rkcffyg5a8obbywJ5Rlz577slvqwLA4fdoTr5e8Pxs19y0O6LWu8oSNs4z//xbCZ4X/zW191cyKfKfHF19TRyWOr7WbismfDbl4cCt+4+vx/rHRHD+niTjqkwYfl+x43D9bceS+7a7/z/WBkxx072p1+2rhgdGNPPTb0SJ/57BkhDWJy+ZWXhgcRr4Bjts989vRQFnk4Juz8CyYEw3nMb7d7L4Xj671R01OS7ks+njTWA5MPAx0x6tDMXhnjOe6YE4PBFoxuRwjDEDD0gd7AYZ5vZ89evd34z/1tEy8A5s5/2QvBIC9Uvd0Zp57pDf5p18uLD5t/LPzn4vw9GORFY7IXyzMb78djXkTg5ptuDfFpqMPqrgQ8N+4t92rEMYeF67jHl/WsF6H7/J77Rtl4Btwr0k1Mrod7df4F48N9LAZj7+Wvf7gXnEsu+sdwjfP8dd/wg38NnyHCauUVyngoxF/9rf8dPhviC5/56aFN9lmRPu0R7eqYjbbZnEQ1Ofije7gHZ210H+u9u7vvH/q5s47aK4RPfXWTG3No+fUj167xD1VG7367d99/due9oYf15hMMae2aNb6H+oL70Q9v4+65470B3fzDW3287zGTB+znPg9hnA8fdrgXnDPdxf5hPcPv1ya9FUODW276cSh/4q9+GR5GjPsq33M/8OvHwoOdxYTxXwwGy8OKx3PcsScGL+XeX90dDAIwvqu+8nU3PqRtakQY/HM+L8aBYCCQCAa9/dXfvioYxPDhRzbpVXv16NV4Tto0iBXttrorgfuO4HCvjjtmdPAuuL89e/Z0n/deAPdtgt/Trksu+p9e9L4Qrg2jRgB+dudEd9xxhVcXGHyOV/3zN7zBXxWMHFHnmocddoT3iv4liBn3js+Iz3Wu95L4XIi/9v/831A/8dRNvnsn3uUeffShIJjf9emP9/e7I5AWhlafk6gFDCt6NHRyLyzeHPbA0GPSrPcbBSMGvS4Gba6pgQH1Soyi2DiMAb5XLsbSZgmPQV3F6WiHQd1Z8OBiyBh/cKm9ENC7MjzCcDBavIDrb/C9oXehqSfd+1HXlCeme4PggR8djIb0lIXwYXh4MYRjxLBm3ZrgUWSBR0XvzB6xKPZcDOKM9HxP02vOdve5Jh5UNgRlTSIugIAVw7VwHYjtNC+2fLYG12T3ttTnw+dCXcd7AUKIEVyeKoZapa5vV6RNhxt5Kq+Ufziph/uPJ9eFuQgE4uoH3nPXfqZPEhuHh+XSi/7JjfFDC9x9c0HpxXgw6L3yupln+GEKrirlzEkMg54Zo8ZtNgo9ZCHdsOFH+Afzww/sXD92pycshjrMuGg7d3P8574Yzq+/8brQ4zEsYPuRN6r0vAUeCm7zvRPvDnsMYLivH6HBAGgT7cE4CsOj63z+64IHA5zjmuMJUdb93hAxRgRmmBcpuy6Ew6AsvBfyEoegleuRmRthuEEdl178j6FteBqFYVChbYRxvWnwiBgiWl2AwFHexPt+GQSit79nfKZsBvFcE/M+eHt8ds8+95Rb6gXmEV8X/SrCWf0nt37JMyVQs1+BUjk/Q83zK1B+kLI257trmIPgz56AQDD8qIQwweZ7uYHeO7Cek4cUA+bhwAjoEYmntyE9QxCOCSc+K4+FMfSgVyxOhwcAGBbHPMiUzUOJgeIWp0nXW3yebodBPXgghl0n7UmXQVi6PRgLwpZOR1kGvTltNKz9iNL48V/4kPdRfL3F7ea+cn/S9xeoo7jNdm4eRbod1u50XWCfAfnteKmvz9IUx6fzF5+3Z/bq7FyXwtv7SoKN5vkVaF2sJ1GJSBj8hcOGHe0dHnge2vZEe2xzRyKvSOR570ZNhxu1GHIYu4pAQHs0NglE+8eGGuXstKYTl3nGO0KItgFxMBuN2WrNREICIUR9g42aFxHzJmrqSdRyuCGEKE2nKlp2XQw3kBLpiRDVY/cc9pS3E6+ZSNCAvI0gWUOZmVghRD7yrpYNeTryulktG/hTqJbUF6L5IA575Oz6EYg2/55EpSIhhGg9EAm+J1HuvRs1nZMQQtQ3eYYbEgkhOigmEOWEomYioT9/ClHf2B8XGGrEhEKehBAdFISBjfnDWKdeM5Eo58IIIdoW8yRiAgE1HW7UQiimL9zirpm0NmxPzKvwp6NCiCaYNxGjXXkSP/ztuiAMF47ey31uxJ5u2XvbglgIISonr422mzmJ6a9v8aKw3X3rrJ5uQJ893GEf6+w+O6KbG/iR3dyvXsj/kp4lS5e4PzzzlHvtTwuSkOoz44WZyVHzWbNmTdiaw4qVK8Lfvw3OKestv+f6izfRMWnz4QaUq7wSpi3c7D2I7m5t8iIevIpfe3H47Cf3CgKSh8en/DaIw+BB+4dvmlVTKCY9PNmtTtaL7J1a07G5/OHZp0J7m8OrC15zb614KzkrnC/2YtDQtcF1bWjw7VzTZBMiRk1FotpDjp4Nndx0LxZn3LQq/CjsghO6uZ577tYoHDE2bd7kVqxY4U4de4rb34vEkYcf4Q4+8KDQw953/6/cpEcmuye8UWLoeAJsnNvx41Oe8IZbWNYNcSEPHglpQg/9xlJ//rQ/XhnKAPIhHpRtPTllUNYv7rm7SW+fJngQ/pL27devsaenHgMBIW9xu8rB4rJZ3ondA65HnkXHIW2fMVttN8ONYw/oEoYVpw5rcLd/6SPuy6f0COF4E6ceVn5J/U2bNoe1Fot50BvwqWNPdWf91bhgxICY7D9ocBAUjvft19+d5tMsWbo4xGOcnz/3c27U0SNDD038/gMHuU+dMDoY9ls+D6K0ZOlSd9anx7kTjz/R/d4b4GbvvaxZvTqUhUDRw2eBCJx4wolupC9/xgvPh7CGrl2DAWPQa1avCXnxDCirk/+ATZiMp7xgBYHym3lMeA14UMW8NGe2F80jfftPdP3775uEio6AiUPM6283InHM0K5u/vKtYRvQp/BbEOYoEI7PjSi/pH5DQ9fMJewx3N6JeGCIRkPXLsmRS4lLciMT0cVIG7z7ngWixA9ngPKtB7eyyJsF6RAeevXHf/fbIEx4DUd4I8bYTUAQBYz+5TkvJ8Obph/yiV6wECg2BCkGAsHwJAhKCeESux555iOg3cxJwA8+39tdM2lNEAeGGF+Z+J77wfh8S+pjlIN9b4/bTo+Mi47RYUD01oTlHZ8jOKQv9OyFHrxrCFvaOIQIwuBFiUnDp3xdBx90cAgvhjJIY7z6p9fc2d6rOdsbNxsey/TnZ4TygrfgBYpj5lV4h0X//v2DZu1ZQqzywDUc4tvHECzdFrHrgydRblqgpkvqYzB5VsuuBAQCcYBvn9Ur/JWjEgqGvSb06MxNwGveMOmJEZJ9vdExXGCPJ4Dhp4/3HzQoiMmKlW81egOUw/BiwYIFbhDG642OMNIt9fVZXaQhjOGJCRLlULf19lZHGtps5YF5PsXlGwybaJuls/MYtGOz934O8mKR9qjErovZaLlfgdbFkvqVglCADTvaMxi6GbMQrUlekWg3cxJpEIddQSBAAiHamnLTAjUTiWrPRwghqg/eBF5/jJqJhE2G2F4IUZ+0mSdhyKMQon7BPst15DUXCXkSQtQnZpttOidhmxCifmkzkUCl5EUIUb8gDthom01cCiHqnzyefk2HG0KI+iWvp1/T4YYQon6x4UabzUmAvAkh6pd0Rx7r1GsqEvImhKhf6MStI4916Jq4FKKDYp14uc683Q03WEfi1y9sDJv9GlQIUTnYZx5vv+bDjWoOOe54ekNYS6Lnnp3cgI/sFhbDZRNCVI7ZZjmxqPlwo1reBF7D/L9sDetbss4ly9mxUtXajR+46a9nLyibBas7sSJVLVdgYpGY5sLv+8lvWx7IY8vjkYel78JamElYrUnXL9ofCESbzElUe6hRWMtyz+SscH6T9yKuPKWHP96YhMZhGTkWiGVdyxnPz2yRMRdDubYYrS2o2xxYa5KFdjE6yrnv/l8nMaV5z9drdbM8H8vQcc5KWLXkwYcnh326ftH+KGeru3/HOf+/KXcdP9R16blzIViYMOq85CgfqBNf92TFm8ZVb1oA79Y49oCu4Q1eDDHeXveB+9ZZvVzXzp3cnU+vL7sYLgbz8OOPur/7m78N60Ky5iQLyGKMiMey5W+G4z69e7s/vvSie9Ofs73zzjvB63h57stu2/btbu++fcP5c9Onubfffde9vmhhKP+pZ5/y4Svdfh/bz23YsN7t23/fxnQLF73uBuw3wKd/x817Zb6b7zcL22OPPUJ+gzZs27YtrMQ9wJdFWw4+6KCQLyyt58t8c/nyUAfL+CMopNuwYYN70aelztVrCwJzwJADwgNAGdS5d9+9/RPh/PmscN69e3fXvVv3UO/sOS+HZfyWvLHEfdS3nfLsvnBOO1kXdIH3wrgP1EUZ6326PsnCOdxPS0M47aV93MP0/RP1A88an22jUFxzTWGfouZzEtXCltT/rBcDBOGG8YUX4CAehJWD1av3H7hzHUiD1adHjhgZjJIHeuOmjWEZfdaEHOXD8TY2e4Fhef0ZL8wIeXhpDitWsy4lK1uzviRlnzr25LDS1OKlS4Mo4fZbOo7xYOzdH6wjWWpJ/cI7PArv9GA9TNpOPUAZeBuUv2TJkrBoroVR7iDfDsJ692SF7tXhvRwHH3hw0v6Z4bpenjM7tKu/L9sgjiX1R40YFdbz5FUDpGElbdqCiOzpw63t7Ml/mt+zBB9bOg33jXeQhHvZ0BDCKEfUD2af5ey05nMS1cKW1GdugjkJ44dPrA0eRjlKLamPm4xhYzwYpJFejPagxiXpE7X19xRDKSw9l+2qFZbUbwjpEBEW1wVbUr9X5C1ftIMhA0aKcWVBe9OL35bCFstl6f103cWL3SKICMpTiSEjPAu8iJGXejD6QYMGh7hS9ZLG7hXemq0k3r9fv7Av9foB0bbgRcSEoqYiUe15CVbH5q8bazcWLugrE1eHOYk8611iVBg1y+cjDDzQTGDSGxa8hc355xI67QjDgsJWMASW1OfcMFEibLZ3tXG9s2B4kM4H9OS47mbIaYErrOydH14jwN06wouOiaC9DyQN7eNFP4UVvVeH60EMCsOywmrceCBAm4G03DeDNDP9/bXJ17SnIuqPtH3GbLWmcxLb/RiUlbKrMScBvNJv2Mc6u6/c956bvpA5ii7u1OE7JzPLgdvN+Bi3GAcAA+D9FS/6MfoK764fMPSAZPy9u9un7z6F+QKfrvHYgzHxdq+Z3j1nPIfHwfwD433G3X39nndgYJAFo5kZ8o46epTr7Pf0puFlOr7cHt27Bw9jkzcqG6t38v8a0yRY3QwJPu7bSF1BRHw65hTSefiwKYuPHI+Ba8SoyUvb02nSLHz99ZCG+8Fm1xiM3eejXuYZSENeyqFdf359odt///3DtXD/SPPCrBfdiE/8t4IwNrl/O8K9EvWB2SifTaNIZMxJ1HRJ/a1bt4YG1GJJfYYe6WFHewXvJT3MEaK1wEbx+vAs22xJ/XITIs2F4cWuIBAggRBtzS4zcSmEqC6xeYg0EgkhRNv9dUMIUd/gTdhWComEEB2YPPOGEgkhOjB55iUkEkJ0UPAibItRU5HIO3sqhGgb2tSToPI8KiWEaBvMRm1fipqIBBXybS4qz6NUQojWx4ShXEdeE5FAGOxrnuUaIIRoG9IdeKwzr+mcBAIhT0KI+sQ68HI2WjORMIGQJyFE/ZKnE2+XnsT85dvCilQsry+EaB7WiZfryGsqEtWGn4df/PN33bSFm928N7eGBWjueGZDEiuEqIS0OMSEot2IBGtIXDNpjfvB+D7uwtHdwsby+svexavIv6Q+v59n5aX0ikrVph5Xjrbrtk0I8/LZxzz+moqEuTPV4PG5m9yVp/ZwPRsKF4NXgRdRyZL6LFf34MOTwspUtq8WlGXGxxJ59cb052e4J6b8LrSz0Fa9J6OjY7ZZzkZrujLVli1bXOfOnauyMhXL6H9uxF7eo9jmhxtb3HQ/5Lj9/L5BNMb/+G038e/3TlKW5hf33O3+7rwvJmes0bg5LPP20pzZjWtgsuTbipVvhXMMifUlG7ru6RYvXeyOOvzIsJgsa1K++qfXQhpgebdJD08Oy76x8jbLxbFCNukom6XeWNiWc4SE1ajIS5hBWFj12u/D0nRdu4YVsq1OymR1bSsLz6C43SybZ2G0e/CgwY3rWbJSteU1WJrO6mDP0v1Lli4NbWTpPWsv5bEUHfVbe0T7B3HgOWpioxkeRbsZbgzss7t7fN6msGo2xyYQvNXrsI81XY8zi2DwiVEbGCIrRGM8GPp99//Kh+5wry1Y4I11ZVi/snDsjf6gg93P77kr5CMPgkAe1oEkP4aKMLDWpC2Vz7L0GKUtr4/BEUY6hAgjNRAI1o8kjn0QGl/n730+jJWXCbFOpuWjDaxqRRsok3anwxAtXg+QBk+KdrBRpr3IZ7YXFkSCFb5ZLZtrA45pD/VxTbRnYrhHYlcAkWCLDTWg3YgEy9U9MXdjWCmb92zYsOOHT6wL8xN5wFiLwXAxBIyLhXKNgw88MBi/HRNv5xgTK0ET1tWLAmKDANHD2grXiFKvnr1CnsL7O5aG8COHHxHC+vfbN6RJQ5lBcHw+lqanfOvNeeHODD9kMLdvkxcVenvSDE7eJ0J5Fpa+FgPRQxTYKJM6qO8I7x0Y/Xxe2sH1cEw814VwUC4iKDoW7UYkWCk7LKl/33tJSGEIwjs38iypT08P1ntjfPTWGAPHgMeQh9VrCxOf5MNYs8Ddt8lR0ln9zYGhBPl5ec5/P+FTjStO037qSLfbroU3cRXDtQYR8hvGbsv0452Ijku5OYl2taT+Pj12d1u27XB3PL3eDzO2hfmEfzip8Jq6PNDLsuz9s9OnBQPhnGXgcatxxXld3uD9B4el8u3Vdsxb7DzeFNKQ7wnv2m/bvi0YL71sr9693dQ/PBmWu9/uw0nD0vyEvfPuO+64Y44LcwaM+ViSnreC2TL4wLL4FpeuE0E6xHsFYSgQXiW4IvT0ww47LExA8ipC2sF14D1wLbwBzK6FMgAx6d6tW2N9LMVvZXIfER7mHbZv2x72BNpxyJu8EhAPxIYjon2TaaOtvaR+NScu0/A+UP4kesEJ+YYZuyJ4RIgME5OTHnmoyYSsEHmwJfW7dOmya0xcpmF+oiMLBDAE4cU+eBOlXgUoRB7aZOLSZk1F7WCYwwQk8xRMKArRHPJ8l6kmIkHF5dRJCNG2mI22iSdhSCiEqF/Mg2gTT8LQkEOI+qUuPAkhRP1CJ56nI5dICNFBwYPIMyVQc5HQkEOI+qTNPYm84x0hRNtgtllOLGomEvIghGgflOvINSchRAeFjhyBsH0paioS1gAhRH1STiCgpiJBA/iVmRCi/uDXzlCuI6/5cIP1FuRNCFF/YJt4EW3qSVjlGzZo2Xsh6on169fnGmpAzUSCylnIgt+pb9y40a1evVpDDyHaGIQBW3z//feDfbKVE4qaLToDiAILz7CwBa4N57FFaGhsexua1KrNWeV25PvTnHIqzdPcOiBvvnJ1VFpeJWB/zEMgDCw0w4JFbLZ6WSCpP01NRYILpVGIBGLBMQ0lvPgmcG43yLA0dmPTN7D4ZudJA+l4yConTbqcdN50vnR8OixNOj8U501TrrysvOl4SJdpcekwo7iM4jRZ8VYeZMVlpYnlhXL5IB1XTDpvLH1WXDovlDov3qfj0liarPRpSpXDMaTzZMVj7Byn4yArvx3TQSMKiANCwTHlNJLKY9RUJIAlshCGrVu3hs1EAkpdYNa55bG44nAoTlecB9L5stJnhRUfG8VhnBvpstLhRnG56bIsfTqvxaVJl5tOa6TzWPm2j5FOm0W6nHR5seNSWBojndbKt7KKy7P4LCytGRKwLz4vLsvigLQ8v5CuJ50vjeUtLrMcVm9xes6z2pBOxz6rjcUQR1nsTRw+JBCQUUbNRQK4KMTBBIKLYg802o5bQvrGGRbGPv1wQKl60+HFadLhwLkdpylVdnPIqqM4rLhdeSjVdiCcz4i9pbN9Os7SWv1pYuVbejMAKzernHR48XGpvHZevDeKz9NYnOWLpU1j6dPYebm6DDsvV2epfFmky2TjnuNNsP+QQIBPU0yriITBhwo0uviiuAAovngodQNKYTcmjZVlEJ+Vzsiq2/KUIiuP1VG8j5GVB4rzlYovzl8qLE1WeFZ+sHLY0mSVW0ysnnSclZ1OWxyfzlNqb2nBwtPH6bA06bx2DMXn1vmUK4e9pU3XW5zP0heXZeFQnN7KMbLKNUwYsuICGeGtKhLFFN+Q9IUVx6WxdMXpLQyKj8HOIZaW4/Qe0sdGOh0Ux0NWWZDOY8dgaYrzpdNDVv70MaTzQ3FcKdJ5iimOi51bfZwXh2eFQXF4KYrLKN6XSgMWX450WUbeMEiHl0oDxXGcQ6m8dp5VZjoOSpVRkow0NfsTaB5odLrhxcelLsrCs/Km86WPwc6z4ouP03tIHxvpdFnxkE6TJp3HjtNp0nG2L47PirPj9LlRHFeKWHxxXOycYzsvDk/voVTaUhSnzcqbFZeOL0dW2rxhkA6P1Vscx3ksr50Xh0M6Lh2flTYvbSoSQoj6RyIhhIgikRBCRJFICCGiSCSEEFEkEkKIKBIJIUQUiYQQIopEQggRRSIhhIgikRBCRJFICCGiSCSEEFEkEkKIKBIJIUQUiYQQIopEQggRRSIhhIgikRBCRJFICCGiSCSEEFEkEkKIKBIJIUQUiYQQIopEQggRRSIhhIgikRBCRJFICCGiSCSEEFEkEkKIKBIJIUQUiYQQIopEQggRRSIhhIgikRBCRJFICCGiSCSEEFEkEkKIKBIJIUQUiYQQIopEQggRRSIhhIgikRBCRJFICCGiSCSEEFEkEkKIKBIJIUQUiYQQIopEQggRRSIhhIgikRBCRJFICCGiSCSEEFEkEkKIKBIJIUQUiYQQIopEQggRRSIhhIgikRBCRJFICCGiSCSEEFEkEkKIKBIJIUQUiYQQIopEQggRRSIhhIgikRBCRJFICCGiSCSEEFEkEkKIKBIJIUQUiYQQIopEQggRRSIhhIgikRBCRJFICCGiSCSEEFEkEkKIKBIJIUQUiYQQIopEQggRRSIhhIgikRBCRJFICCGiSCSEEFEkEkKIKBIJIUQUiYQQIopEQggRRSIhhIgikRBCRJFICCGiSCSEEFEkEkKIKBIJIUQUiYQQIopEQggRRSIhhIgikRBCRJFICCGiSCSEEFEkEkKIKBIJIUQUiYQQIopEQggRRSIhhIgikRBCRJFICCGiSCSEEFEkEkKIKBIJIUQUiYQQIopEQggRRSIhhIgikRBCRJFICCGiSCSEEFEkEkKIKBIJIUQUiYQQIopEQggRRSIhhIgikRBCRJFICCGiSCSEEFEkEkKIKBIJIUQUiYQQIopEQggRRSIhhIgikRBCRJFICCGiSCSEEFEkEkKIKBIJIUQUiYQQIopEQggRRSIhhIgikRBCRJFICCGiSCSEEFEkEkKIKBIJIUQUiYQQIopEQggRRSIhhIgikRBCRJFICCGiSCSEEFEkEkKIKBIJIUQUiYQQIopEQggRRSIhhIgikRBCRJFICCGiSCSEEFE67XDO/2/KKV8d67oP6JacFXjgsgeTo2w2bN7gpr4yJeyFEG1Lv5793PABh7t+PfolITnp1Ck52ElVRGLyS5PcnU/fkZwJIeoBhOKC0Re5UUNHJSE5yBCJFg83pr4yVQIhRB2ycu1Kd8vvfuRWrluZhDSPFovEk36IIYSoTxj+PzRrUnLWPFosEqiVEKJ+WdHWnoQQor55v4V/TJBICCGiSCSEEFEkEkKIKBIJIUQUiYQQIopEQggRRSIhhIgikWgnDNtvuDvzyHFuZCXfw28m1DV+5IToj4NOOnRMclRguM/TrWvT3/uUg/IrzSNaH4lEOwCDnDDqPLdq3cpgjBhwraCucUed5ea9Oddde+51SWhTMOzLT76iiVCM9+2r9BeHl51yReW/UhStjkSiHYAwPPTSJDfj9Rlu4sx73Uy/B3r8G8+7KRgzG8dD9h7ibpxwU6Px8UtA4jjH+C3t1z799cxenHRzl81xc71IXPrzi5PQplAHywKMOXRsElLIt+jtRaE+yrZ6SEM9t37p9rC3+HHeK+K6LjjxorAX9YtEoh3w0EuT3ZnewOmtu3Xp1miM9OZX3/+NsE2ccU8wXuLmvjnHDdlnSMiLkfIjvGEDhrvBPt7Sr1y7wp10SNMhgxkxYmIiQ1ixmIR6Vi1y87yY2DDDfml4mW/TnU/9JNTBLxDxeviREW3gZ8sWP/XVqUGISMde1C8SiXYAhv9vD3/PrfKG/bUzvx4MGANnHQ9b5Ic0bHaMl4HBk46f87OmAOcYKRsLkry/pel3+un5n/RpMW6OEYPgcXhhSoPgLPZ1TJ49OQhXQTReD4LBMWHUMX7keW5DUgdpx/jhCQKBoJBOPw5sH0gk2gFMWBZW/prqZiycHoyU3tsMEPAY8A6A+QQEgV4cg4duXbu7W377o3DOdq/3PCjPID110Kuz0fMzfCFP8XoE/Xr0D0JEeurEy8Hg9/FlMAyxOhgikR8QDoZLiBeYsIj6RyLRDhh1wDFh7I5Y4AHMWzY3zEtM8D01YReMvjDs5/pwwGCH7D3UH3VqdOVnenGhDCYbLzv58mCkaTB4hIdy2Eb6OjH4kw7bOe9gBIFKPBjmSPBS8CxoE+2zMpiYJF2YdF2zwt359E/CUMYgbUWrJok2ocXL1136s4tbvPKNKI+N/TF6M1B6f8KDOHQqGLrFEW69vUEYeUif9ZkRh3hQD70+eUP5idAAcTZJaaTTWBnktbDgNSTp02k5ph0adtQW7jPDx1zUYo1LiYQQ9U1LRULDDSFEFImEECKKREIIEUUiIYSIIpEQQkSRSAghokgkhBBRJBJCiCgtFgl+RyCEqF+KFwiqlBaLBL8f4Ku6Qoj6I3x1f8DhyVnzaLFI0Ai+8mnrDwgh6gN+cVsN22zxbzfSFP+gSAjRNtB5N0scavEDLyHELoR+4CWEqBSJhBAiikRCCBFFIiGEiCKREEJEkUgIIaJIJIQQUSQSQogoEgkhRBSJhBAiikRCCBFFIiGEiCKREEJEkUgIIaJIJIQQUSQSQogoEgkhRBSJhBAiikRCCBFFIiGEiCKREEJEkUgIIaJIJIQQUSQSQogoEgkhRBSJhBAiikRCCBFFIiGEiCKREEJEkUgIIaJIJIQQUSQSQogoEgkhRBSJhBAiikRCCBGl0w7n/P+mnPLVsa77gG7JWYEHLnswORKVsHr1aveb3/wmORO1oHfv3u6cc85JzkSL6NQpOdiJRKKGLF682H3iE58IQiFqy/nnn+9++tOfJmei2WSIhIYbNeT3v/+9BKKVeOmll5IjUW0kEjUEF3jw4MHJmaglZ599dnIkqo2GG60Aww5RO5iTYBNVQHMSQogompMQQlSKREIIEUUiIYSIkjknIYQQhjwJIUQUiYQQIopEQggRRSIhhIjg3P8HEfu+Biq8u2kAAAAASUVORK5CYII=;" vertex="1" parent="WIyWlLk6GJQsqaUBKTNV-1">
          <mxGeometry x="147.77" y="386" width="29.29" height="62" as="geometry" />
        </mxCell>
        <mxCell id="YcHYLUiHtxIJwsrw_Ox9-22" value="" style="shape=image;verticalLabelPosition=bottom;labelBackgroundColor=default;verticalAlign=top;aspect=fixed;imageAspect=0;image=data:image/png,iVBORw0KGgoAAAANSUhEUgAAAQgAAAIyCAYAAAA3/1SpAAAAAXNSR0IArs4c6QAAAARnQU1BAACxjwv8YQUAAAAJcEhZcwAADsMAAA7DAcdvqGQAADSqSURBVHhe7d0JnFTVge/x03TTNGvjR2g0soiKBAFxC7hBIsZdiJpEcT6TaIzL+8x7YmImeX5inCRjknHGRBPMvBnEmPElbwTNuCFRVDBCXMAVARccZI80YKSbrbEb+t3/qXu6bi2nu251FXRX/76fvp+6e92quud/z71VfU9ZszHBHwBk6hY+AkAGAgKAFwEBwIuAAOCV9SLlpTOmhn0AuopHpz8R9iVRgwDgRUAA8CIgAHgREAC8CAgAXgQEAC8CAoAXAQHAi4AA4HXAA6J3j97mrFGTzfijJtj+1tT0rQn7Uh05YHjYB6CYDvhPre+68pdm6epXzMB+NWb4wKPMzQ9+K5ySatqEK01zc7OZs3R2OCYIjGCZG794kw0W33JAR6CDYO/K3ubJZXPDMUnaf3WAHB4c6Gr6DbLj1mz90Cz5cIlZu22NHU437NBhwXJ9TEV5RTimbbV1m01tfW041LaD/lNrvSlrtq4xs4NCf89zM2w06U2SK8ZPa6lRKAjO+uzklHCQayZea5YE4bIlxosGDgYd4L456dqMWrDKwMyrZpnpwYFu8qizg4PkcNtp/ruDg+ctF30/Y5lBQYg07m8yZWVl5tA+h+bU7dhTbwOlumd1uJb8HNAahFJVgXD/4t/YYdUm7nn2V2bLji22ZnD/ovvC/ulm5aYVZtfeXTZQNM6ZMm6K6RUESXp4AAeb9mdR7Xbm1bNsQb/hP65r2X/HHDHG3H7ZT82aoJagfV2PqmXs+nSXPThODg6KVwRBofHRGvKxh400fav6mh9MuS0ck5ur77vK9Ojew/x1519N0/7GcKzfQa9BLA2qUBOOPtWmpAJBYaE3T0Fwx7yf2X6FSJBbZuG7C83FJ0xtqVU4owePseEBdAS6HuaO+NqfXY04mxXBfqv9/I4nfxbsx2NtTUJB8vvr/9OWidpg/7/hgevsQbOQRh4+MuyL74AGhIJAiar0nLP0QZuUGhelqpbolMO+4UH1K0rVpvRlgINBNQKdFtx4zk3hmLbpOsOY4CA3Ldi/tf/PXvKg7XQg/GZwCm1rzcH4QupZ2TPsi++ABoSuLShtVVPQ9YQn30pUaUYHb7TG602aE7xZKzctN7uDN0pvVnoYKDQK/QYCudI1BB3xLz5hSjgmPtWOdQpxz3OJmoLKg4Zve+RW78FP5SFfKzfmX+M+oAExYfgEc8vF37fVKl211RslupijVNWbo3HqVB3TqYQSV5S4Wk7na3oEDgYdxNQNH3BUOCY/OsipPNiLmcHBUtcifAe+hsYG8/Guv5q5wQHVlY+2OtXSq7r3MPv27zN7GveEa4qPO0oBMei0QhcSn393gT146drByo3L7TdzugCpg5yuM1wz8Zv2K0zVEny1AtGBT+tprVZc1b3KHDvoWNMUFPam/U3h2LZVdKsw7/xlZTjUtmwXKQkIABa3nAMQCwEBwIuAAOBFQADwIiAAeBEQALwICABeBAQALwICgBcBAcCLgADgRUAA8CIgAHgREAC8CAgAXgQEAC8CAoAXAQHAi4AA4EVAAPAqekDoFuG62+81k64NxwDoLIoaEC4cdKtw05xx82xEqEEgtSbmo/dS09Mbdi0WPZ/ammxPAzFxTDhqgplsm11MNE6j59Y24OAqWkC4cNCOv/DdBS0N9nYlaoT40RsfTwRkG44MW3j20fup6WqdLJ3eZ7X2FC1Qmi/X5xbb6nTY4GxUWfhYbHr+s0adbfsHpW2DtkvTceAVJSDSw8E29d/F6D1Q8+5qNMXt+OnU8KsKcLRgR2m8pudSa9C8ahC5NW59LjRcc4cyqO8gO6xg0TjbAMyTP7OtNEW5bU7fJrcu9xzZtrm1549a+N5C+9zaBrtNkU7z6zGdm4bCKv+RMcFfqjkX5N8asD6krh4OcuaxE4Nq86lm/oqnzcSgX4+N+xJNsOs9+ocv/ch8/fSvmzGDx5rzxpxvW2FS4ZyzdLadR7WFf5j6Q7uOy075sp0++JDB5vmgwLrm5B0bRJ/usu/5pk82Bt0m+xxTTpjaMr+mqdp+3tjz7Tr1nGppXU3Ird22JtieH7asS83Na7nf3/CfZmOwPk3Xtmn5L5/85ZZtMmVlLS2t3/U3iXV/LXhN2aZrvXo9el/UnTjspJYak+bRKYYaZtbzavpPgn1I74WaatRznxTMr9ezavP75p8vv9OGx6raVXZ5BY62bf7yp+37gPxMe+r9sC+poDUIwiFJBWLJh6/YnVzvS7SKrGbZ9B6psVa1dn7bo7faYUfz6nqDWn3+23v/xjYJr0LSGhUYNXysWoSeL50Kmto71frUqek495xb6reYGWFDsnZ7gu1Kp89VbbC55dX2o5qNc7UBKzJd7UhqurZF267TLb0fei2arrZZs21nOrct2r5L7/mSbaZOr0Ph5pw1arIdlx6caL+CBoR2bO102lm74jUHRwVCBWdpsDPrvdDOq8BwdIR1O7qogCpQHS2rca42oX4VyLbMXTbXtvGYfqqh9akKrgDR9ojaksy1QOkz1fLRdibtc21dk3L6pNfgpj8ZTBctq9MSmbNkdst0vTbXH5dahddrcuGj91aBh8IraECoQGgH1QenI04uR4hSNDo8qup7Gx3dttTXtuzQjsZFbQ1CwNF86VXlXAuTCrGeSy1HO73C501fx66G/Aqok2t13r3u6Pz5hoMoWLX8xeOm2Pc6EbCp10pQGAUNCH1oqhIqJHTk6KohMWXcVPte6Bxbna4zyFmfTXyNp/cnWkWWi09MNpi8Njgyu6O2kz6/j615BDWF6O9O3HWA6HPoyDt8YPK0pjWqaej1jI9sg6slrdy0PBzj58JPNSdHtc189w1ti2oRqjnovX5yWWajsyiMorTurQ/eXYtQYVBo6EPtCjaVf92cN+Y888rqV8xHdR+FY405c8RE+/jnDxab6p7V9kJcY1OjWf/XdWZAn4HBUb6X6V3Zyzz6xqOme3l3W/PQJ7Nt5zY7PKDvAFMZPC5etdiOi4qu29G4gcEybv5Rh3/WfPbwUeYv2z8yu4Mj+dBDh9n5PgqG31j3ut0m/Q5B07ft2GpWb11tLj3pUvN6MG39x+vNMQOPNmOHHJ+yvLb/+fcW2ouv5wavef3H68x7H71n19sreC16H9zz6yLjsGCZdcG6Gvd9ag7v/xn7ulZv+W+7jKb3quxtX8PQQ4eak4edbN8L0XvRvVt3u57lG9+2z+e2V+avmB9s027bP6L8D/YR8R3Q5v+7akj8qfHfTVNzeTiEA6mm2+vm+Ip/D4cQ1wENCImGhM4bs10dLzXLm24I+1BM2rfGDT3BrNy4wtTtqQvHGjO2YmbYh7gOeECIPkh9xaUr3u6qPNBe2qfGHDHWfm2KwsgWEEX5JWWUTivumPdPhAMKRgcd/XDs/sVtf/WL9il6QACFpoOOTlf1WxIUFwEBwIuAAOBFQADwIiAAeBEQALwICABeBAQALwICgBcBAcCLgADgRUAA8CIgAHgREAC8CAgAXgQEAC8CAoAXAQHAi4AA4EVAAPAiIAB4Ff229/mKNjvnqLk3oKtQM4pRatu0mI1PHZR2MbJR4T9yYKLtyeEDj7K3MXftRGYLBgBJCgmFhQJE/WoIWv1rt62xrdjlGyIHLSAUAGoCXo2tTmhHo60A2qaQWLFxuW3xXKGRq4PS9N7FJ0w1U8ZNIRSAg0BhMfetJ8zzQVi05YAGxJQgGK4YP41gADoAnYLcMe9nNjB8DkjTe7qQeNeVvzTXTPwm4QB0EC3lctK1scplQQNCtYa7pv3StuYNoOPR6b7KaK5fBhQsIKZNuJJaA9AJuNrEmCPGhGP8ChIQN37xJnu9AUDnoAP57Zf91H6z2Jp2B4TOaSaPmhwOAehMbvzidPvTA592BYROK3ROA6Dz0hmA77ph3gFxVlBr4LQC6Px0unHLRd8Ph1LlFRC6yKHaA4DS4Ps/p7wCQjUH/mcCKH2xA0KnFm1d+QRQGmIHBKcWQNcRKyBUe+DUAug6YgUEpxZA15JzQOgqZy4/zQRQOnIOiNGEA9Dl5BwQ1B6ArifngBg+4KiwD0BXkXtAhDeVLaSXXnrJzJ49OxzKbsOGDXae+vr6cEzXdPXVV5s777wzHDpwVqxYkfIZaTvuvffecAilLqeAyOUGMHV1dXbnufTSS3MuzNrxbrrppnAouxdffNHOox21I9Prnj59ejiUdNttt5kf/OAH4VBuFARaztF7q/fhqaeeCsccOHpO9xmlb4eGNe1gbBcOjJwCIpebwGgnUadawR//+MdwbNeh1z1nzpyMo+vKlSttF8fLL7+cUuiqq6vN66+/bh577LFwzMHhtuOBBx6wwzoQKOQ7engjfwWrQTz00ENmyJAhtlNBSadTBR1lR4wYYc4+++ys1WXtcBp/yimn2Pl0RNZy2ejopfWo1hKlwqjlXQHT8prHt04d3bVdUVpW87v5tLyWU+HXeJ9+/fqZn//8595tFk1Lfx9mzpzZsl5tz/Lly+18GudqEtqG6Hum6Tp6t/a6NM1ts+/9jE7XdinoNOwL+eh2uPfNrUPLZvtM3DqjoYfOIaeA6NVGDUI7naqeF1xwgZk2bZrdIaKnGZqunUlHmhtuuMFcccUVNkTSg0TzqICdfvrp5rvf/a5dTsPZ6Gim+bTTRZ9LhU20LdHnvf766+063U7sCoqWdf2Owic6TvNoW1UwzjjjjHBsJr12hYQKYjbR7Ym+D7/4xS9ank/r12tTp+l6jbJ+/Xq7XeLWo/e8rdelwqt59H7ovdJyjt5bBZBC/fbbb7ePmq7lou9pVHQ7tE4ZM2aM3VYtn+0zcdcw3PzoRHTb+/TukhlTU7on3ny8uTUPPvhgc01NTXOw89hO/UFBDac2NwdHs5bpzvbt25uPOeYYO16CI1bGchLssHZ8UBjCMUkap2n/8i//Eo5pbj755JObb7zxRtuvR02PPq/69bzaJtE8WiYq+npE2xAcYVPWk85th9sm9zq07CWXXGL7NU7T9Fqd9PdBtEz6NuXzutLnCQLOjgsCyj6v+t06HfdZ6T0QvSYNO9Ht0Lo1Lfr+p79+9zy33nqrHUYHliULCnINQqcXo0ePbjnF0FEwWp1Utd9Nc3SEjB5R3Hls+hH68ssvD/sy6WgVfS4dqXT00xFVNm7caOeJPq/6hw4dmrJ9uXCvry16Ph2xs51q6Cif/rrTh3Oh15W+Pb7XFZ3H1UZUA3DXRdw4R9veHumfiXtUjQmdT7sDQoVAVV3t6KqCq1MWqTC4nVDV7mxV1ug4LS+aN8pX1XXOP/98+zx6PgVVeiC46nCUniv9eQrp7//+77Oeavies63XmM73fsZ5Xe79Thd3W7LRZ+I+f30m7vQDnU+OAdEn7MvkriOUlZXZq+/q1C/uQpfOUVVQo9ccFCzRo53mkaBqah9FO6vOoVujnU+FQsspqHQdwFFYaCd1QSWqqWg+93wqKNqW6NFeO3d7aJ0zZsyw69EFR8e9D9HXpOd1tadcaT1aLrqdGo6+rrYMHjzYvm/p14Gi73++WvtM0LnkFBCtUbVeBfGRRx5J6VTNnDVrlp3nuuuus0cQHVF1hVsXxiZPnpxytNM6tGNpmeg8bVFh1A749NNP2+fQOhz3vFdddZV9bl3110U4jXOnIW5+jddz6jG90ORDr0fV9egRWc+l59bztPYadfqgAq953AW+KPe6NN29Lq0n+rraovfte9/7ng0ZfcOgmp9ee5xTLz2fCxltgwtZ95lovObRe4HOqfxHxgR/qeZcMDLsS5g86uys96zTDqHzYe0MxxxzTDg2QTuJ6IhWU1Njz7N19Ny6davZu3evPSfVTq353Dm4HnUe/cYbb9j5NKxCphqJAkfryUbr028EfvKTn6QcQauqquw6VEhXr15tH1UIdHR369Kjtl+1DL0WLa9AcdvVo0cPu92aL/36SJSW1fTo+3DyySfb16ECr2lue9LfhwsvvLBlmltO0/S69X64GoMKsvrdvJrH97o0LvreOhrv3ks9j9avbXevXetw86hw79ixI2Xbotshel4tKxrnnt/3maAD+/GPw56knBrvVVNdxfipdaHoKKqj1WuvvWZ3ahx8+kxUq1uwYAGfSWcRXhqIyu0aRFXHbk5P1WRXfcfBp1qGTlV0sZLPpHNr9zWIg819tcmFsI5DFyZ1mpLr9RB0XJ0+IMaOHWursVwI6zjcZ0LtofPr9AGhC4BcBOtY+ExKR6cPCADFQ0AA8CIgAHgREAC8CAgAXgQEAC8CAoAXAQHAi4AA4EVAAPAiIAB4ERAAvAgIAF4EBAAvAgKAFwEBwIuAAOBFQADwIiAAeBEQALwICABeBAQALwICgBcBAcCLgADgRUAA8CIgAHgREAC8CAgAXgQEAC8CAoAXAQHAi4AA4EVAAPAiIAB4ERAAvAgIAF4EBAAvAgKAFwEBwKus2ZjgL9WlM6aGfQkzr55lavrWhENI98rqT838lQ2mvmFfOAYd3eBDKsxpR/cwpx5VGY6BKSsLe5IIiHbY+Mk+8+Mn6szoz3Q3XzmlZzgWnUH9nmbzh9d2m7qGZvPtc/oGgVEeTunCCIjCUTh8Z84n5hdXHMLO1Ym5z3HWVYeafj0zC0iXkiUguAaRp7uf2UE4lAB9ft8+t6/5zZ93hmMQRUDkKwhbwqE0nHpUD/POXxrDIUQREHmo37M/7EOp6NeTopAN70oe6hsyLtsAJYmAAOBFQADwIiAAeBEQALwIiCLauXOn2b59u2loaAjH+G3bts3OC3QkBEQRKBBefvll88EHH5gNGzaYN9980yxfvjycmt3WrVvNJ598Eg7lTs+l5wGKgYAoAoVC//79zYknnmjGjh1rTjvtNDNkyJBwakIutQrfPNHx6lftAygGAuIAUWCICrRqFO+++66tZShM0m3evLmlBvLqq6+2BMLGjRvteC2r8QoG1Uw0XeMJChQaAVEEqi2o0C5evNiGgQq6K+Rr1qwxAwcOtLWLz33uc7bQRzU1Ndl5XO3jyCOPtMNaXuvReDdtwIAB9rGqqsrWUjQMFBIBUQQqsCrEKrTDhw+3hV5BoUddiNS1BtUC3LUDFx6iC5suJDSPahP79u2z82i96sQ9AsVEQBSBCrhUVFTYU4tRo0bZAq7xGqcahsapU4hEC7vrd9NVQxgzZoxdzq03SuOBYiEgikBHf10b0PWFjz76yPb36dPHFv7DDz/c1gz0rYW69G83NI/m1Tyqbbh1aJw6za/lVPtQYGh+hY/mi9ZEgEIgIIpgxIgRNghUgHXKcMghh9hTDhk8eLCtGajwq3Pfbui6hOYTzat+BUFZWZmdJqpNqF8XI/v27WtrD+o03tVQgELijlJ50F2I7n52h/nF5YlvJtD5feeh7Xye3FEKQBwEBAAvAgKAFwEBwIuAyEO/qi5+e/QSxH1GsyMg8qAbnG78K18povQREHk6b0yVeWYlP0wqBb9ZvMucO5qfrmdDQOTpmjP7mIdf221e+XBvOAadkdpV3fRJk/nqKb3CMYjih1LtpLY5dRv84w7vbkYf0T0ci45M1xvUNuf8lXtsu6rfOqdvOKWLo23O4tAvK9UyExe6Og9dRzr16B5ccI4iIAB48VNrAHEQEAC8CAgAXgQEAC8CAoAXAQHAi4AA4EVAAPAiIPLU3Jzx+zKg5BAQQIDAz46AyMP+/fvt7ehROvR5EhKZCIg8sCOVJjVxyGebioCISTsQO1Fp4nPNREDEpJ1IRxqUHn2uOn1EEgGRB440pUnhwGebioCISTsQO1Hp4uJzKgIiBhcOBERp4rPNREDEoKMLR5jSxeebiYCIwR1d2IlKG7WIJAICCHEAyERAAPAiIIAQNYdMBERMnJ+WNj7fVLSLEZN+bffpp5+anj17hmPaZ8mSJWbTpk22/7S9TaZP2g66+ORys7OXMdXd+5nR/Y4zg3sNDqeg0Hbt2mWqqqpMeXl5OKaLyVKDIiBi0NFFv7YrREAoFL72ta+1hIP888e7zdhPU1sNn35rd/PWqGRF7+aR3zLfCToU3u7du02PHj0IiAhOMWLQOWqhqqD33HNPSjjk6q73f2nqG+vDIRQapxipCIgYCrnzZAuHst69TMWgRE2tW9CvLpuV9e+EfW2rq6sz69avD4cS3v9glXn8j3PN3r2ZLZNr2vZgmXxo2c6McMhEQMSgGkSxrnQPGDDAjJxxp6n57b+ZAT//qRn0/+43hz38O3PGKV8N58jPshVvm2cWPBMOJbzw50XmvLPPtdXpdJtrNwehsj0cKoyHHnk47Ov4+CYjFQERU7GOMhMnTjQDBg60/b3P/aIpP/QQ2z/5qAvtY762b99uJp050Sxb/rYd1mPD3obgcZmtXTyz4NmgAP/BLHnt1ZaaQyJUnjUvvLjYDtduqTVPBDWO6Lilry2169KyruawPQyWJcE0zatu3fp1dnmFktavaY/Pm2ufT/3aFq1T69e6tE0HC+GQiYCIqVg70bZt28I+Y5q2bTXNu3bb/l1Nu+xjPlSAhw0dZkaOGNlSiMeNPd7079ffTDhlfFAwF5nxwePll30lmP5+S83hsJpB5tyzz7GFW6ch84MayKQzJtmgWfrqEjvPe8H6tO6pF10cFPTEuPdXrbIFXs+l5SedOcnOU13d33w+6Nc7V1tba7500ZTgOWqC2kqtaWjYa1atet9MvXBKsG1jg/W+b9eFjoGAiEG1h2LVIF5//XWzc8tW298cFJrm8MYlD63/L/uYj0VBAKzdsM5eb6jdstkW+KiGhgbTs6rK9g8bMtQ+yqAgIKR/v2qzp2FPor+62lT1qDKDBh1mh8WNC2IzMSKg4XFjjre1h0VBrSFKNYzqYBlRaDg14fNpWW0TOg4CIqZi1SD0FdvyW39kdj/3vNn9bKL75K5fm42vPR/OEY/CQDWHLwVHZnXXfeNaW62P0tH9laCaryP+ug2pFzKjVHB1mmBPF2o3h2OzUw1CwaEagwJBNRAFjZYfNGiQfR71q8bS0XCRMlP5j4wJ/lLNuWBk2Jcw5YSppneP3uFQ16bfQajr3r17OCY/7733nlm2bFk4lHD21jpT/edXTMMrwbl50DV9uNY8NancbB6YGkr6HUS/7v3Coezq6urN0UcdbX/4IxUVFUFXbvr26Wv69OljBhx6qBn8mSPssV/TpH9wVFcNoU/vPna5qqqe5pD+/W2QrF6z2jQ17TMnn3iyDQDNq8fEcolhLaPTE31r8t8frjZjRo02hwbPo3WufHelGXLEYHP08KNtv57/iM8MNv37VwfP19euQ8tr2/T8B0NTU5P9DUS3bl30uPnjH4c9SfxQKgYdYRQOOir26pX9K8hc5ftDKYWDfixVCJvDWkHPoIbw1oq3zdev/NtwStekX1Lqmx0XmF1OltoxARFDIQPCee6558yOHTtsv8Jh0L7Um6a+GYTD5gGJD25Iz8HmtAGn2v5CUUjsDc77dZSvyvK1Z1fCT60JiHZxAVHI/8VAx+ECQqcYXfIrzyyvmYuUMSkkuJhV2vg9RBIBkQd2oNKkz5XwT0VAxEQ4lDadXhASSQRETNp5CInS5E4f+XyTCIgYtONQDS1tfLapCIgY2HlKmzsAIImvOWOKe8u5vU3GNAQd2XLgdQvKemW5MVU5/uhVP3evrKzkh1IR1CBicuepuWjab8yeRsLhYNkfvO8KZ30OudDnSg0iFQERQ9wdqGlf2IODKs7nwGlkKgIiDxxlSpO7BkFIJBEQMRAMpY1gyERAxMAOVNo4AGQiIIA0BEUSX3PGpK85c/1374bGxFV0r507jVm82DRv/igc0bqyE0405sSgQyxVFbl91cn9IDKDkYCIQacYce4H0WpAbN5smqffaB9j+cY1puwb3wgHkItcA4KWtTIDglOMPBSiCtr82/uzhsOO5sSX9u4xg10utxoH0F4EREyqRRTkYuVH2WsO/3t3XdBtN1/f9YlZ1Oi5w7Nn2Ww2bFhvnpo/Nxwypq6+zvzgh99reczHipVvp6yzlHAhOhUBEYNqDq4rtBca95rb99Sba3v0Ni80fWpOKu9u+pR1s2HRHnfe9VNzWxAE9UEgSH3ddrMyKODuMR/V/aqDLnnb+lKhcOACZSoCIoZiHl2OLa8wH+zfZ/4uDIR5Qe1B/SdWVNrhfKiWoCCYcfe9ZuasX4djkzZsXGemf/sGc9U108xLLydazLp31r+aq4NhhYqraUz/9vUt86n2oNavXnwp0eaFxmmaunuzPEdnQjhkIiA6iMO7lZsLu6feNPbwbt3MyeX5B8RTT881F5w/xZx+2kTzdHBK4GoRUTPunmlm/HKmDYOXXlpsVrzztvmP+2fb5VxNQ+Gh+aZd8bdmzkO/t+tRuDw1/0kzZMhQO23MccfbMOnsCnYKWSIIiA7k2G4V5vMViZDoExzNJgX9h7WjjYZZ9/2refHlRbYGoHYyZs/5XTgloV94mqBThvr67aZuR53td+OcIYOH2cfqvtVBCCRPeTasX2fGjD7e9rvHzo5aRCoCogM5KTid+FZVH3NR9ypzW89+5ttVfU3fsvw+otnBkX50UGh1eqFuwbMv2yN+1IYN6+x8Op04/bRJtqah2oJOH/6YNm82Y8Ycb0NINZWZwWOpICSS+B1EDKp6xrntfWu/g7Bfc/72t+FQPGUPPWzMYck2MrPR6YGq/66WIBo3eMgwGwxDwkedLqwPHi88/2I7r8a9GITEGUFY6JTBzacagrum0a+6v31009z8onEdTa6/g9izZ49tMY0fSiUREDEUMiD0K8rma66J95uGPn1N2TeuNuarl4cjkAt+SZkjAqJ9XEAU7KfW8uabYU8ORowIQuLgtFvZmfFLyhwREO1TlIBA0cUJCNeyVpeUJSC4SJkHLmKVLh0A+JoziYAAQgoGhT8HgCQCIgZ2nNKmz5faQyoCIgZ2ntLHQSAVARFD3CNM9y76bVlHUxnjc+AgkIqAiMGdo+aqPJi1d6UxFcG7rEZc6A5sp/e9T49Ef66oQaTia84YFBBxfiiFzoXfQWSGIzUIIOROLzjNSCIgYmLnKW1xTyNLHQEREztP6dJny+ebioAAIqghpiIgYmIHQldCQMSkKighUbo4xUjF15wxKBjU6b85C/E157q6WvPAsmfMuu214ZikO75wjamuSv3Xbv2XYZe9V8EBoK85Kysr7decXTIosrxmAiIGhYOa3tPvIHL5d+/WKBxOmfU/zPaGXeGYVKv+5wPmyP6pd41qamqyv8PQd/UoPAIi8zVzihFDIXeam+f/W9ZwOO0vzeby95tN72Uf2ueLdrodmh45xSke914jgYCIQQWzUDtP3d6dYV/Sza81m7uf32/qggpCfWWZ2bcxswUtPb9qEblSGxbLlicbyNkeDD+z4NlwKJ5FLy6yp1elyp1CEsBJBEQM7uhdjCPM4B0mqDnsN1+ZWm7mHxnUFo47OpzSPi8EhXrZirdTCvaeBk+Tfm0Yf8qEkj+9ofaQioCIwYVDMY4w56/db1YeWmY29k0Mf/ryMrP9mz80TStXJ0bkQbUHXWH6/BkTzSuvLgnHJj30yMPm8XlzzfwFz7TUKjRO/W74iT/Otf2qhTwx7wk7ToHj5vvdg7+340oJIZFEQMRUrOqnTin6fRoOBMqHDDKVp40zZdW9wzHxvffB+2bc2OPNsKHDTO2W1G9K3g+mafyXLppiPjtipK1VaFz/6v5m5Ihj7Tybt2yxpyTjTxlv19MQ1kIUFpdf9lVz7tnnBMvtseNKhT7fYn3GnREBEZOOLsU4wjwdnFYM3tFsrn07sXOWDz7M9P3R39nHfKkgJ478c23hjl6LaGjIvJagcVXhKYRCon91onUt95iULEBVVaX1X63F+nw7KwIipqLVIIJy+dWp5ea84FTj4Sf2m/L/81+muT77V6C5UBhMCI78U4MagrrLL/tKUENYFU4NAuDYY+3wC39eZNatX98ybu2G9fbURI++YnJYzaBgucXmhRcXm9razAupnR01iCR+BxGDdpxC3Q/iHxf9ztwedD7//b9+Z4b1HxQOJelio76rb+sotzk4pVBBjtI41QZUU3C1gu112+06FSg6ZVBNQ4W+Opiu043oeqL969avs/No/vTn6azc7yBoOCeJGkRMhTq6TB9/qfn6uHPDoUyNTU2msbExpVNBzvVHPNkKrcZV9ahqCQddaFQtQLUBXWcQnWLo2oTCQaLrifa7eUolHKKoQSRRg4hJv2ZUYS3UHaX0Y6m6hszfRAytzny/OTcuLjW9p4ZzuKNUEjWIGNyRpZBHmP5Vve2pRHrnLpZFOxSfPltqEEkEREwU1NJFEGciIPLAToSugoCIiepnadPnywEgiYCISTsPIVGaCIdMBAQQIhwyERB5YEcqXapFUENMIiBiYucpXe6z5QCQREDEwI5T+vQZcxBIIiBiYMcpffqMORAkERB5IChKE8GQiYCIwe1A7EilydUeOAAkERAxuB2HHag0EQ6ZCIiYtBNRgyhNLhz4fJP4d+8YtAOp4ZxC/bv3i2/sMnPmfRIOGfPdi+eZIYd+HA4l7H68n9m3LXEDk/KRw0zPKZ83ZX3b12gPstO/e+uu3dwwJomAiEkBoRu3tLdlLYXDpX+Xesfqx27+lTn92ORt4WT7Pw80je8lbzXf/ZTjTP9Zt4VDKCQCIjMgOMWIoZBV0Htnbw374ml87R3T9P66cAjFwHWIJAIipkLtPHU7c28dK13zjrZvZqsb0i557dVwqG2Jm9cSPMI1iCQCIqYDsfN8srjBNG7bFw7lZ8lrS4MCvzYcSoq2sCUajjsuvR+li4DoYHa912g23bfTbJyVeZ/KXKkmMG7M8baxG9cWhhrF+b8P/t7WFPSogq35Hp/3hG11a1V4S3zVPDRu/nPJ1rZm/fY+O7y5dnNK/6IXF9v+xDr9d+juTKg9pCIg8lDMc9SqoRWm30mVZsB5VeGY+NQ0nu46PXLEyJa2MHQ362FDhtpb2+tRBVy1jHPPPtd8/sxJZujQoXY+jfvSRVNtWxoNDQ32tviiYa1Tt7p3/WvXrbP9Wj5bQzydjcKB6w+pCIiYtAMV8yhT3qvMDL2pn+l7Un6N5KrRm821tfaornY3G/buafXaQs+qRBC5UwXXspY07E008tsjnEei/W56qSAcMhEQeSjEjlTdpzhvvVrzVruZanNTnfp9FyvV8pZCRGFSG4SK6LRE43R6oXYvXPsY2Xx2xLG2cV8tj9LE7yBiUDAUqmWtO++rtV1ULr+D6PaZgebQeTPCoUw6JUgv1G6cWsFSDcE1whvtd9y4hoY9LeuJrtOtw9E0tc8Znb+zUsta+h0E7WIkUYOIqVDV0O9eO8hcf8WAcCg3FccOM9V3fSccyi5bIXXjXMHWY3p/+rjoeqL9bh5H09Ln76z02XKakYoaRAzaefRLStUg2vtLSnQ81CCoQbSbLlDyVVhpovaQiYDIAztSaeJrzkwEREzagahBlCbCIRMBERPhULr4bDMREDFxlCld1A4zERAxcZ6KroSAiIlwKF2EfyYCIgZX/aQaWrr4bFMREDG4owtHmdLE55qJgADgRUDEpCoo1VB0FQREDAoGqqHoSgiIGLgGUfr4bFMREHngFKM08blm4t+9Y9DRpVA3jJEd/zXP7H5mkdlfvyMc07qKwYebQ2661j6i8PTv3pWVlfbfvbtkWGR5zQREDC4gdP/G9t4PQuGw9bu3h0O5qzxuhBn8ZGncQbqjUctaVVVV3A8iglOMPBTi6LLzD/PCvng+fecD26F4uA6RREDE4IKh2DtQ9fW9TdVpleFQplxPSWTzllp7Y9lCeGLe3Jbb4JcqfbZci0giIGLQzlPsHajH8d3N7rcbTa9zqky33u1/nmXLlwUbnrgdvuj0SJ0KuhsnriEdNz06LpvaIHi0vJu3VOizpQaRREDEVKgdaLPZZ2rL9md0H+1qMpXjKszHmxvNx0eXZZ0nV7YAN+w14z833ryloAjsaWgwD/zn72yDOvMXPGMDQPPNeeRh+6hWtd5b9X7KONcSl6MWtdRil7p7f3tfyYSE+2ypQSQREHkoxA50V8Vuc3VFXUb3j+W7zBuHNZvBl/Y2P27YmXWet7s1hWtpndrIUDsXuuv0ug2J2oHoDtRqE0PT1gYB8cprS8znz5hojg+G1RqXaJxa3UqMO9aGhrN2/VrbQtekMyeaHj0q7Y1eS4ELB2oQSQREDAfiyPKZmgrz6ord5svTg6p9O55OR34VfnU60g+qGWTb4BRXoNUcnygwXPsYdfXJawx7G/aEfZqnOuzT+GSNQW1ioHQREAdJv379wr5UC1/ZaX7/+Cdm1Zq95r3V+Tdtp2A4L2x3U536XTud6RKN/C4zDwWnFGq2TyacMiGogSy2LWzpNERtcTrjg9qHGuvVxc+6ErxoySlGEr+DiEFVz0L9DuLRRx81t9xySziUuyOOOMIsXLgwHCocvSbVLBYFpyWDag6zpxVdDT+UynzNBEQMCgg1nNPY2FiQX1L++te/Ns8995ypr68Px7RO4XDHHXfYx0JSI7yufc2ewWnHpKDG0RXRcA4B0S6FDgh0LK4GUVFREY7pYrIEBNcggBDfYmQiIIAIFxJIICDywBGmdBEOqQgIIMTpRSYCIibtRBxl0FUQEDEQDKWN6w+ZCIiYtBNRDUVXQUDE4I4wHGVKE59rJgICCFE7zERAACFqEJkIiJg4wpQudwqJJAIiD/qPTqArICBiiF6gbGrK7a5O6Bz0D3hCDTEVARGTCwm1oYDSoc8zegBAAgGRB+1E+rfvnTt3hmPQme3YscOeNnbr1o2ASENAxKQdSDcUUaf7B2zevNk0NDRwXaKT0amE7qK1bds2+znqHhAERCZuGBOTdix30xgFg3YyDSsgtHO5c9hsV8TduPRprc2rLn3djlvGjfetw3HDrY2XbNPS+yV9OWltuutPH5fOzRMVHZe+DlHh1nD6sr55HQWD7iLlui4dElleNwGRB+1sCgjXqTFfjYvWItJ3StE4V9jTuR1ZfPNF54n2ixtWF33e9PW6aXp0hSoqOr/jW4ejcenb29Z6nGzLZqNlo9ur+dXv1plt3dm4efSoTneQUte9e3cbFrmso2Rlee0ERJ60U6tTQOgbDdUitHO5HdiJ7tBO+k4dfYxKX0ai48Qtm61f3Hqjj+nS53X9uci2zug4158+X7bx0XGSPr9kW4frF7d8+niJLquwUadTRQWDu81cdJ4uJ8trJyDaQTufOgVEdEeU9J002w6rHTR69IxOi+6obnk3Pdt607U1Tdw609cd7ZfWht3yTrb1SGvDbvn0dYkb19qy0X516e9per8eXUCIHt2yXVqW109AFIDbQd2juB3RPTrRYbdDRofjzpttGRUQ7fStrSs6LV0x5xXNE51Xj61tr7jh6Hi3Pmlt2aj05aPr6PKyvBd8i1EAbkdzRyV3RIo+po93/enDrj99OH1eSZ/HDbt2HdLHZ+vP1hVzXjdP+ry5DkfHq991blx0ntamuX60joDopEpp5y7Wa9F6CYH2ISAAeBEQALwICABeBAQALwICgBcBAcCLgADgRUAA8CIgAHgREAC8CAgAXgQEAC8CAoAXAQHAi4AA4EVAAPAiIAB4ERAAvAgIAF4EBAAvAgKAFwEBwIuAAOBFQADwIiAAeBEQALwICABeBAQALwICgBcBAcCLgADgRUAA8CIgAHgREAC8CAgAXgQEAC8CAoAXAQHAi4AA4EVAAPAiIAB4ERAAvAgIAF4EBAAvAgKAFwEBwIuAAOBFQADwIiAAeBEQALwICABeBAQALwICgBcBAcCLgADgRUAA8CIgAHgREAC8CAgAXgQEAC8CAoAXAQHAi4AA4EVAAPAiIAB4ERAAvAgIAF4EBAAvAgKAFwEBwIuAAOBFQADwIiAAeBEQALwICABeBAQALwICgBcBAcCLgADgRUAA8CIgAHgREAC8CAgAXgQEAC8CAoAXAQHAi4AA4EVAAPAiIAB4ERAAvAgIAF4EBAAvAgKAFwEBwIuAAOBFQADwIiAAeBEQALwICABeBAQALwICgBcBAcCLgADgRUAA8CIgAHgREAC8CAgAXgQEAC8CAoAXAQHAi4AA4EVAAPAiIAB4ERAAvAgIAF4EBAAvAgKAFwEBwIuAAOBFQADwIiAAeBEQALwICABeBAQALwICgBcBAcCrrNmY4C/VpTOmhn0JM6+eZWr61oRDmXbt3WWWfLjEbKmvDccAOFh69+htJhx9aqtlNquysrAnqd0BsfDdBeb+xb+xIQGg45g2fpq5YsKV4VAOsgREu04xttRvMfc8N4NwADqg2UtnmxWbVoRD+WlXQMxZ+mDYB6AjmvvWE2FfftpdgwDQca3dtibsyw/fYgDwIiAAeBEQALwICABeBAQALwICgBcBAcCLgADgRUB0AjX9aszF46aYs0ZNtv+IU0yjjxhjrhg/zYwJHn3GHzUhZTuGDxge+x+DNH/sfybCAUdAdHAKh1su+r7ZumOL6VPZ2/YXiwr6lBOmmpWbVpgbv3hTODbT9GCaAstRcGk747j4hCmxl8GBR0B0cBOGTzBLVr9i/51+7rK55v5F99nxKswKi9sv+6nt1D8hOLLf+MXpKUd/95+4k0edbfs178yrsv937pEDh9t/2dc/+NzwwHXh2FR63i1BWGl9rhYxfOBRZs22NbbAa/13XflL2ykERONsjSGcPjkIFC2v/zTUNqPjIiA6uCVrlpjJx51tj+gqZCqIKpjXTLrWhsVtj9xq7nnuV7ag6X9j1m5dY44MCrHoyL7wnQXGlCX6b/iP6+z8T771REvhjVJBV8FVCIieJ/2UZmBQyFdsXG6ef3dBSy1C26X/6L1mYmKbbn7wW/Z5poxL3DbAzhs8n6bf8+yvzMJ3F9r5NY+CDx0XAdHBqdCrYK/ctNzc/uWf2tqBrhOs2fqhPZK7edQpPNSpoIsK+/NBYXQFWSGjbvTgsXY4SoGzta7W3Dz7W+bGc26yIaNaSe/gtCZK4aFTENVmtH5tj7ZDQaL+i4NTFD2HwsCFiwJBpy4KJs3raiHo+AiIDm5KWLhVyGYvedCGQ/pRXRcNXYFTQKigTguq7zpyu8Krwqmahjrd5GfO0tl2fkenMir0ChrVAu4OThHc8lHDg9MQHf3VabqCRWHlajfuOXQrgDvm/cwuo23RNG27qBaiZdDxERAdnK4L6IisUwQdhVUjWBpUyyccdaqtGeg8XkdyV+Bc4VVhVKiIltERXfPrGoWO4JonSkGgwq7nUS1AVf/RR2TWNGr6Dmq5CYkCRcGgGoUCQEGkdSSe5yYbNtrm5uZmezqh7dQ86hKnM5PtetBxteuWc/rQ23vHGrRNNQJd4FOhdQVbw66gu6O8CqS4Knw0BDS/1rNma+I0JBtdx1Dhdc+j+dM/X607unz6c7mLjloufR3ReTVe/W6bURz63HVROieFviclAQF0bO0NCE4xAHgREAC8CAgAXgQEAC8CAoAXAQHAi4AA4NWugNCPagB0XOn/SxNXuwLC/dcggI5JP9Vvj3YFhH5nn+0XlgAOPtXw9Y9y7dHuUwzdAES/qwfQceif9dyNetqjXf+LEaV/unH/NATg4NH/X+QVDIX+Zy0AJYR/1gIQBwEBwIuAAOBFQADwIiAAeBEQALwICABeBAQALwICgBcBAcCLgADgRUAA8CIgAHgREAC8CAgAXgQEAC8CAoAXAQHAi4AA4EVAAPAiIAB4ERAAvAgIAF4EBAAvAgKAFwEBwIuAAOBFQADwIiAAeBEQALwICABeBAQALwICgBcBAcCLgADgVdZsTPCX6tIZU8O+hJlXzzI1fWvCIeRq+/bt5rHHHguHUAz9+/c3l1xySTiEdikrC3uSCIgiUTiceOKJZu3ateEYFMsXvvAF8/zzz4dDyFuWgOAUo0gUDITDgfGnP/0p7EOhERBFcsIJJ9gjG4rvhz/8YdiHQuMUo8h0qqEOxaFrEOpQAFyDAODFNQgAcRAQALwICABeWa9BAIBQgwDgRUAA8CIgAHgREAA8jPn/sEMe8OsQGooAAAAASUVORK5CYII=;" vertex="1" parent="WIyWlLk6GJQsqaUBKTNV-1">
          <mxGeometry x="181.53" y="386" width="29.12" height="62" as="geometry" />
        </mxCell>
        <mxCell id="YcHYLUiHtxIJwsrw_Ox9-23" value="" style="shape=image;verticalLabelPosition=bottom;labelBackgroundColor=default;verticalAlign=top;aspect=fixed;imageAspect=0;image=data:image/png,iVBORw0KGgoAAAANSUhEUgAAAQcAAAIzCAYAAAANqNyBAAAAAXNSR0IArs4c6QAAAARnQU1BAACxjwv8YQUAAAAJcEhZcwAADsMAAA7DAcdvqGQAACaOSURBVHhe7d1/kF1lnefxJwJJJAkEJYE1UZKA/JAwhIElKMKaBmtQE0dwykRrdkUE2dqqEMcqq1x/bEGhjqXWKPAXopTOTg3hDwcHUJlRYEb8QViVuASRYEjAZCUJDiEkkQQke95Pn6dz+ubb3bd/JTfd71f1qXvv+fmcc8/zOc85t+89E/amVP1JUm+vqh8lqRfDQVLIcJAUMhwkhcILkpfe+O76maTx4I5r7qyf7WPLQVLIcJAUMhwkhQwHSSHDQVLIcJAUMhwkhQwHSSHDQVLogIfD6bPmp0WndaWZ02bWfWJzjp1bP+uN/lMmTalfSRotB/Tfp5ctfH+u3I9ufCQtXvDu9Jl/+lTa8sKWeug+c6txlr99RfrYbR+t+6QcCEur6ZecuST99dc+kHbu3lkPkToL+++58xam+x+7L9y/OUAurIbPPOq4vF+v3/pkWrNpTXroyVX1GL3NOmZWOvrV09Phhx1e9xnYjhd3pKf/8FR6+ZWX6z79O6j/Ps1GWHRqV/rCdz+f7vrVXWnVkw/mDQhaEmzQ4hOLP5m+cPfn61fdrrjgw2lDtREJBYNBnWzxgiX5QMh+3cQ+fv1ln0ufrbol1cFx7oy5VUDMzM//57s+mW7+4C1pfhUcTZOPmJymTJyaJkyYkF479bVtdUzzhx3PptdVoTIcB6zlwEa4/tLPpau/dVV+TWWnkt/+0Mq0/OJrcmquqjo21IxpM9LdVYBw6kGiFmzcKy68Mrc4pE7CfknFvukHN+Rw6DrtorRy1W15/wYHRyo/7l59Zz5ANtGSoGXMPk+Lef2z63N/WgyTjphUhcpnBzwVb6KO7Hl5T1q7eW3dp38HteWwZfuW3FogOT9RpSQbb0O9AW764Y05GAgQWhN3r74rLZy7cL/rDjOq4TTBpE7A/lmO9By46Pq6HsaB8KYf3pAr/s49u3I9+IeP/GPu/m7ZV6t9+7hcoRmnBEPTYIIB1BWc8p9OrU5HjsjPB+uAXpC89YFv5NMKNsDOPTurit57Iyw9d1l+pDm26E0XVc2ueb02NhufkJE6wVfe/9VcydutuBwA2Z9pNYOWBR3XJZZV+z77932P3ZeHjZQjDjs8HTV5Wv1qcA7oNQdWngTl1GHNxjV5o9BaKBuXCzj3P3Zv2kr/qt+jmx7pdX2Bc7TS2pAONPbhfKSvQmGoaBXQQqAr+zanIrwmPPrSrAft2FWP/9SzT6X/2Pkf+flgHbBwoLJzofHmy2/JV2tvrxITtBY4RwPXF0hOOoKjpChNN6ajJcGnGK0XbaQDgXDI3cThfZTOfs4+/OELr8wXLheeuLDXtbWml195KX9KQX0pdaOd7v9t+32e/oUXX8iPQ+EvQUltIhi4XsapLafGXEifMmlqPlXmtGBOdfC69UdfzxcXzz3xvHzhsb/WQFd1+kzQtF6cbDVvxon5E4h2P5bE1Gq+j/7+12n3Sy/WffoXXZA0HCT5M3GS2mc4SAoZDpJChoOkkOEgKWQ4SAoZDpJChoOkkOEgKWQ4SAoZDpJChoOkkOEgKWQ4SAoZDpJChoOkkOEgKWQ4SAoZDpJChoOk0KiHAz+9ze/888u9kg4doxoOBAP3peDntwd7U47xgDuG93cPDn7ifHE1znjB/SaXX7yifqWDbdTCoQQDv/HP3XzGA+7edcfyf+65YepAFp/17nyDn75w31DuDtYXhnEHJpZJN5hbs3UCblRU7rSOKROPtIXZQUYlHFqDgbtXjQdUdFpIhETUImDHp39/rYXmzVn7w1GWbcyNU67+5lU9t1fjFI7bDjaVeUbB0VeZGLe1ojanL8MHWqey7DJumQePzQ7cS5WbxTQxjOlbb6pc5jfQ8jV0I35Tm/EaDOBuydwLcf7s+WnVugfzzl5wV/FyA1Xk+4RWO/5dVeXmNu0ESjnyU8lzt2dnPiW7+ltX1VN1oyIwLndaar2jEv3BtmeeNNMZvyxvZbWscivCnveqHtZ8zziq3/fre3tuIc+8aBExnFu3MZwbITNvytk6fXPZZX3YNgQX68P0TFNcetNf5jtIzazvNg3uLsWpVSkf65pvwlzNi3HnzzojhwN4LPehZLgGZ9RvajOeg4Gdnhv9ciPg+6tKRRgUVBSCgUpFxfjrr30grdn4SM+OjXyuXcU0rQCG3/rA1/drARQ0xakA0a3WHqpCiQrJvHkvqFTMk45btXHbNoYzD4bTLw+vysU05b6l7aDiElBl+jShWo+3d18zKMtmP2B9GI/lFkyDG6vKTjC0Yl9ifKYv8+d18xoM25X5Mn/GY3stOrWrHqrhGrFw4I1ihwDpPp6CAVQqQpEAoNJS0UploEnMaypiOapxRC7Py7i0Isp2Yx6rnnwwP2/F+H0dHXdUR3HQ4lg477x0XxVWZZ7ck5GKWG7kypG23KeRsneH0r7WzkC4YWu5ASzT3/3wnT3rTDiy7DKcZfG6XefOXZi3QXP+TN+8BsOwMpxH1pNto5ExYuHAm1eaqxwFm03G8WD+7DNy83rRaV1pTtWCYEddVLceyg7L8KJZuaPh6CsANlTNeaaJKgKVk/dioIrS37B27dy9o37WrQRT0Vr+vtYnMmUyAdh7/kw/EuVWe0b0tKKcz9KKONSunA8HFZJ1ZcelOUzXfeRemPttrSorCI6CZn3Z0anM7PjNUxGGETiR+35zX35cWi2nie3ONOUIzdG0OQ+GE9w0vwkYytx8j5ae+/5ezfa5M+bVz7pbP61omTQrK69ZF7DshSeel5+D8bretG/9BsJ8mssH05eWgkbfYdemVP31dvs7TqmfDR5vXnXqmXcMdpaHqqZh6xFxrFm6cFm180/N58V3r74rd/+y5p4cEhuf25i3ARXzvWf/VfV4XA6TJWd1N4/XPvN4erTaZtt2PZebzFRmKu+HL7wyB8xLf3op3d1yi3b6barmu6yqzH8x/5I877eefGH68AVXVv03Vad1N+bxCCXKwDLLPAmD//2zv0+btm3KlY1AouIyHreEv+MX386tDq5UUx4q6MnHn5zLy3j3V6cSDM/N++qNZvll+j8/4c/zKSVlKMtm/pSP5xMPm5jLVdaHeZxy/Cl5GWyj7jCdmpdBeF129nt7zZ+yX//P1+X9qTluwfy4SMr21OAs+/7j9bN9RjwcMN4Cgk8n/rUKAypFQQUG22Ht5rV5G2ytKhUV9aU/7Un/8NO/zwOfeGZtno5zcsaZfuT0vNPTAlu7+fFqu+1KDz/1yzyvJqb58RMPpF1Vi4N5gnmWTxdAJb6/amUQDMdMeU16dOMj6aZ7b8xloytlonJu2b45T1+OzJSZYdOPPCaXl9CgwN1Bti1XRD7NeGj9qjw9LR8uoj789MN5+rJsKjbr85OqrCxvzysv9awP5QfDGTa1Gpf5lGUwnOkpO+Uj9JgvmuMWhFDZnhqcKBxG/KPMJq6M0/SlifixlR/Nb6bGhtaPOnVoG/WPMluVaxCkvcEgHVpGNRxAQPAZtMaW9VufzKcdGrtGPRw0Nn3hu3+b/89BY5fhIClkOEgKGQ6SQoaDpJDhIClkOEgKGQ6SQoaDpJDhIClkOEgKGQ6SQoaDpJDhIClkOEgKGQ6SQoaDpJDhIClkOEgKGQ6SQoaDpNCo3rcC3JRkxrSZiTtQcwcnbjzCTUy6H3vf77F5azZpPCo37eFWDuV2Dt23S9yRHzc8uz7tqPrzOJKi+1aMSjicPmt+vl1ZubWbpJFFcHCXtFXrHsx3CyuhMlSjGg60ABYveHdacuaSXq0BSaOPoLhr9Z297h06GKMSDoaC1Dk49Vj50G2DDokRvx0epw9/9/6v5ntiGgzSwce1vGsuXpGWV91wr+ENORyuuPDK9NnLPudFRKkDdZ3Wla6v6ifX/oZq0OFAC4GFchohqXPRivjEuz6Z73Q/FIMKBxbGacT86nRC0qGB0/6hBETb4UAw0GLwNEI69AwlINoKB04laJ4YDNKha7AB0VY4MEP/mUk69BEQ7V6kHDAcltT/wyBpbGj3Y85+w4HrDIsXGAzSWMJlguVvX1G/6lu/4bC0aoJ4nUEae/jEcaDTiz7DgWsMXaddVL+SNNZcccGV9bNYn+HAf0BKGru4bLDotK761f7CcGAi/9FJGvv6OzsIw2Gxn05I4wKNgL6uK4bhMH/WGfUzSWPduX1cmAzDgZ90kzQ+LDzxvPpZb+GPvaS9+/eSNDbxk3NTJk+tX+1jOEiqkmBC/WSfPj/KHG2/+93v0sqVK9P27dvrPvt7/vnn8zhr1qyp++hg+/73v58uvfTS9Oijj9Z9NFaNWDh85jOfyTvNT3/607pP/37yk5+kFStW9FvxCQ7GYYfsdJT1S1/6Ut4G55xzTrrooovSNddck0PwUEU4s/2b7ynrw2sDe+wbkXBgh/na176WdxqO9OMNwUAofPnLX05veMMb0tKlS9Ppp5+etwf9D9WAYL14P59++um6T0of+chH0s9//vO8jhrbRiQcaAXgkksuSffcc89+pwrlqMoR9Y1vfGOfR1QCpowzUKViHhydW5dFP5aF1uUyz2Z40SJhWHM5PKffzTffnF/zyGvGZd5Ry+jTn/50PpLee++96YYbbkgf//jH04033pjuuOOOPJyyFpSJVlZ/69la5mbL6fLLL+81P5QylvlcdtlleZyBtmfrcE4VeF3WnX4o5WV4dFrBNqUf82EbMd8mpi0tyzJOeY/UuUYkHG655Zb0lre8JV199dW5Kfq9732vHtLtgx/8YD6qMg4VB7xu4jU70Otf//p0/fXX58eyc0aWLVuWK2RrZaff+eefn1+X5b7jHe/Iy6Vi0kwuOy9lba0woF8JHR55Xcp29NFH5/4F87j99tvzkXT+/N7/Vcr4HGkJlBIqXV1ducyUnzIxbypLKQeVmjIznO0wYcKEHAhl+lKeptZ+HOkpE+vJ8qPlNLc3w8v2ZnhZd7Yb2J6s31FHHdWzzXgE82GbgvLSYmK+zQBjfMrSXBbTNd87dSA+rdivG4RqR9w7c+bMvdUbnV+fdNJJe9/znvfk56haFXn4F7/4xbpPt2pHzP0Zvm3btvx8+fLl9dBu1dElnLZoXVYVBnvPPvvs/LwKqDxtdRTMrwuWWx298vPbbrstj8M6FGV9yjJ55DXzi5T1Y16RKqx6hpfllW0FlscymE8Z91Of+lQ9dG/eNgwvy6f8zXVGKWNZD7ZB8zXKelWtnPyaccq2KqoKnMcp616maa5bWYf+3jeWQX/WBzznvWnivWvtp4MoyIFhtxzKUZhWAWg9cJQrR59qJ8qP73znO/Nj8b73va9+lnqaqGUexUDntc1lcXSi5cCRCbQgwBG46c1vfnOfLYb+lNZIq9aWRKtyhEVZZjkioxxNWfdHHnkk92tuK+bP8OY07WB+zLvgOS0b3g/KQde6fZvvSTv6et/KNi/rA1oUTWeccUavbaPOM+xwoEKy49FE5DyyVMrSZCyVhyZpUwkPlHGa/dD6utVVV12VHzlHZqdnPq2VqK8dcKBK3aq1/MXs2bPzsNLsb1UdffMjlaFdI1Fp2lnvgbbvQPrahmXZg93G6izDCgcqBEcgdoKf/exnuWOHIyzKRbRyHl4uchWlxYFSwThPbu6wA52TslyO6EzHOSwXREslLkf65jyYN+NSPsYrO28pK0pLp13MgxYM86VrIigpF4HFkbOUqbkt2H7l49oyvFmGMrysB+XmiN3cTs2LgwX9mLagLHSse+lYZnM+XDsajOb71lTK2noNRoeY6FyjXZxrcj5ZHSnqPt3KtYJyzlvOQTlX5nlXV1c+56RfVRHyOOV8l/NgxmHcMk45B44wPePQNc+xUcrHuS3zZH50VXM3D+ecuZyfM+4111zT87oss5zPD4RlMB7lZj488pr5NctVrrWwvFKm5jhl2zGcZTOMccrwsr70L9uJ13RlnDIN11bKerUup1yTac6H5/Qr6872KdMxD6ZtXnNAed8WLVqUpyvlKfNA62tE1050EAU5cNi1KVV/La7dv1eEIxFHxdZzTo6SW7du7TlCcYWez/85mtGf11yBnzx5cj5aVjtPqnbAPM7GjRvzOBx1uPq9Z8+ePE61k9Zz7435c3SmDFyZb6JszPOXv/xlz3L5iJGP08DyGYdmMMtFVVHyJwRlmS+88ELPeP2pdvS8LI7WLIsWRRUY+VSL9Ss4z2c8WlmlTIzDeoD1KMMpE9uhqlg9ZWY8+q1bty5PTzk5x2d5lHHSpEm5Vcb4fGJQWnOty2E401LeshyGM25Zd9ab8XgPwDj0K9unvG/0Zx6UiXIwn+a1HoaVeRZsc6anvzrAddfVT/Y55L9bwalNdRTKlX6gC5jjBf9XQAiU/7OQBtRJ360YKZzfUhEMBmlkHdLhQJOYi2EGgzTyDunTCsKBjnPe8imFuk+12B5sF6ktwWmFv+cgaWxec5A0OgwHSSHDQVLIcJAUMhwkhQwHSSHDQVLIcJAUMhwkhQwHSaER+fdpfirij3/8Y3r55ZfrPpIOBn7Pg27QRuO7FS+++GL+QRQKNHHixLqvpAOtHKR5nD59ejrssMPqIW0Y6XAgGHbs2NHzW4ySDr4//elP+YB97LHHVnV+/0ofGukvXlEAg0HqLLQYjjzyyFw/h2PI4bB79+6hndtIGnWc4pff/hyqYYXDoM5pJB1Qr3rVq4b1IYEfZUpjVNvXG/pgOEgKGQ6SQoaDpJDhIClkOEgKGQ6SQgcsHPhX61at/fhMNvpcdjif1UbLPRhfEGOZlKXZHYxyjLShrkfr9lDnOWDhwJ2Wt23bVr9K+TsZq1at6rVjPfvss2nDhg31q27sONydu2jOox2/+tWv6mf7/Pa3vx30fIaL9acsjz/+eE/3zDPP1EMPXawD7+VgMc0vfvGLnm3BvsDjSATmUMqj/R2wcOBLIFT+gsrJN8eaFYR+jNfELd9POeWU/JygYAc6VJ1wwgnpzDPP7Olmz55dDxmfeK/Ltli4cGH+d/zmgWAo2EfWrVtXv9JwHHZtStVfi2v379WKf5/m3zPb/Rfqww8/PD311FPpda97XX69fv36dOKJJ+ZwmDlzZu7H8Hnz5uUdhC+NcB9MAoT+U6dOzUca/l988+bNeccq86Ql8Pvf/z699NJLefymTZs27VcJCSnmR/CUwGFZW7duzf35v3SCinnT8SUWxi3LYjzWv3VZ/WF+lJf5t6KMTzzxRC7DH/7whzxfxo3KAI6ujz32WF5ntgWYL62T7du35/tklvV6zWtek3bt2tUzf8rOtuO9Yzs/99xzubXGvFgGFYv3ZufOnbkcjEeLh2/6sUzK2hxGGSkXHUfsshzmx7JZj1Jhm8FPP+bT7Mc8WZ/yHvA+MT/Wn/5lfmBZlKc5jO3CPsL6NvcRyhyVne1FWenYZmPtJweoKwQu6zqg666rn+xzwFoOvEl0vIGl6chOwE4C3uzyRS6GT5kyJR9RwDjsfOeff35+5CjDI8HCd9fPOeecdPbZZ+dwiJrq7PzNjh2koAIRUkxPC6XZtKVM9GdnYkcqy6JcLIuKMRhU/GY5WC/KS1eOnpSleSpEGRhGGQoCim/D0p+OikBZjj/++Pyc+bIes2bNytucYWUd6ce6oGxn1qksl0fKQeiX8Zgf60v/coSnUrYiAMpyTj/99J5WAGV47Wtfm58PhPKwziyT+fGesEzmR/koczSMspZ9hG1Ff17TnwNNs+ylXMyLslHeKLTHuwMWDmAHoSKws5adhTeS13TNowg7+kCoCLzBpbLx/Pnnn6+H7sNO0uzYIcAySwVl+hIs9ENzh2ZZaC6r9GsXy22WA6XiljKxk9JRQUAZyrCCkGmuN8MZn0fmxdGT8CiBwrZkOYxLmWn1FGWbM26zXPRvjtd8P+bMmdPrFBHMnzJF25JyNd/bgTA+0xNkpTw8si1YLutKiDSHnXTSSfl5K9aX8hY8p0yUFf7kQN8OaDiwg3DU5g0uOy79eF2a04PBG/zqV7867xx0TH/cccfVQ/dhx252pYXCTsjzMj1dOdq2YlnN8fpaVn/YEZvlYD4oO2pT1K+gfM2yUGnKtuM10zbXoRxx2daDLXPRuk2i8tHaaJarr23ZH/aDchRvnZbXdP1tm1at2wKDLdN4dUDDgR2GJh5HpLID8MjRnjeR4YNBpWC6UtkG+y00ls25NBWrzCPamUCl6mtZzSMRz0vLg37leV9YdrMFwvgcGUtlj5TKV8rCOpQyEwQ0n6lkZV4M47pL2dZDwfl6wfPWlkC0LXmfS7lKS6gvbCtOFXhPWTfmw3Ka27UEB8tmPcq25bGcAqFMA9635ikQ86RM0Xus3g5oOIA3vRkC5Y1qt3nHzkMFYGejici5MK/paIoONmDKdQbOQ5vnyK2oXCwzWhbN6LLz058mNmgRleZ1X6hENJH5KI/5UgbOoftDmalIjMs0BC5loRJQGXjO6QXDqUxUlrJ+pUINVtnOnLKwXnzy0sQ2a25LxisXq1km5W3FfFhvutWrV+fxy+kB+wnvdVlHOpbJurEsWiUsqwxjPQv2JfqxXN631rJTTg1syL8hyVVx3sxOuMLLzk832GBoYkcqQdWfclQaaLzBGso6DKYs7a5fhMpLa6TdMg5nWRHm19cy+xvWNJTte6jjgDVt2rT23oeR/g3JTsHKD/dNZ/p2NuJI7vRNQ1mHwZSl3fXrT7tlHIllNfW3zHa3Wbtl1z5jIhw0uvi4VOOP4aABecQdnwwHSSHDQVLIcJAUMhwkhQwHSSHDQVJoyOHAd8T5CrOkzsR3Xcq/sA/FkMPhiCOOyP+zLqkzvfLKK4P+MmLTkMOBrzqTTHSSOgu/htX8MtpQDOuaA9+c4wtYBoTUOQgGTvn52b/hGPK3Mgu+6cZXhnkcyS/bSBocAoEDNT+ANOhWQ3D6MexwKDi/8RqEdPBw8XHIB+jRDAdJh7Cx+nsOkkae4SApZDhIChkOkkKGg6SQ4SApZDhIChkOkkKGg6SQ4SApZDhIChkOkkKGg6SQ4SApZDhIChkOkkKGg6SQ4SApZDhItWe2bE0bnt5Yv+q27fntuX+7Xty9O08zFvgbklLl3368Kr344otp8uTJ1au96W1vPS/3667oe9Pxx81I551zVh63YPgzmwmOvWn60UenSy6+MIcLHdOPlu989wfpPe96e/1qhPgDs1KMCj3nDbPz82/+47fT5R94b69KWPoV9/zwR2n69Gk9gfFvP34wHT9zRhUuk9KD/2d1FRbTqmB5IQfG9KOPSr9Zuy795okn0+RJE3MAnXryvCpYns3LZdzz/vNZeTrCiHIQOiVsVj/yWBVcu/NrHinLqSefWAXQwjwe8wWvWRZlo1ov+LM35TK1xR+YlWJUyNWP/Dqt/PbdVYVfkPtte/75/AgqMKcMBacazZYELQUqLAiISy7+L1WFX9DT+qCCEzSEAMuhkjP/4487Nk97zw//vZpuYh1Ge6v5b8nTETr0o2McWjB0JbTKfAkGyo7fPLEuL6ftYOiD4SDVFpzxpnx0psK1ohUwedKk+lXKlbsvBAkIHAKAoz8tBXBkP/WN3c9RKjDzL2FDOVBaESBwlr13SX5eMJyOFg4hVE4CWD7LGS7DQapw1KVlQKUqLYTJkybnysfrZjBgwZ+dVlfIbjzn1CHCkf43a7ub/syrnAY0HT/z2Bwi4MgPgmPD05vyc9CKaKKspRVBqJWWy0jxmoNU4dz9wZ8/nJ9ztOboTT8qJEdtjupUxCZOD0ogzDlhdh6H0w2mK0d/TgU4xWDeG57qruicSlCRGS+fJlQhQEvknnv/vXrcU81rVtq2bXuejqBY/X+7WzKcOjA+82LaPJxrGXXwlOFlmYPiBUlJIS9ISmqX4SApZDhIChkOkkKGg6SQ4SApZDhIChkOkkKGg6SQ4SApZDhIChkOkkKGg6SQ4SApZDhIChkOkkKGg6SQ4SApZDhIChkOkkKGg6SQ4SApZDhIChkOkkKGg6SQ4SApZDhIChkOkkKGg6SQ4SApZDhIChkOkkKGg6SQ4SApZDhIChkOkkKGg6SQ4SApZDhIChkOkkKGg6SQ4SApZDhIChkOkkKGg6SQ4SApZDhIChkOkkKGg6SQ4SApZDhIChkOkkKGg6SQ4SApZDhIChkOkkKGg6SQ4SApZDhIChkOkkKGg6SQ4SApZDhIChkOkkKGg6SQ4SApZDhIChkOkkKGg6SQ4SApZDhIChkOkkKGg6SQ4SApZDhIChkOkkKGg6SQ4SApZDhIChkOkkKGg6SQ4SApZDhIChkOkkKGg6SQ4SApZDhIChkOkkKGg6SQ4SApZDhIChkOkkKGg6SQ4SApZDhIChkOkkKGg6SQ4SApZDhIChkOkkKGg6SQ4SApZDhIChkOkkKGg6SQ4SApZDhIChkOkkKGg6SQ4SApZDhIChkOkkKGg6SQ4SApZDhIChkOkkKGg6SQ4SApZDhIChkOkkKGg6SQ4SApZDhIChkOkkKGg6SQ4SApZDhIChkOkkKGg6SQ4SApZDhIChkOkkKGg6SQ4SApZDhIChkOkkKGg6SQ4SApZDhIChkOkkKGg6SQ4SApZDhIChkOkkKGg6SQ4SApZDhIChkOkkKGg6SQ4SApZDhIChkOkkKGg6SQ4SApZDhIChkOkkKGg6SQ4SApZDhIChkOkkKGg6SQ4SApZDhIChkOkkKGg6SQ4SApZDhIChkOkkKGg6SQ4SApZDhIChkOkkKGg6SQ4SApZDhIChkOkkKGg6SQ4SApZDhIChkOkkKGg6SQ4SApZDhIChkOkkKGg6SQ4SApZDhIChkOkkKGg6SQ4SApZDhIChkOkkKGg6SQ4SApZDhIChkOkkKGg6SQ4SApZDhIChkOkkKGg6SQ4SApZDhIChkOkkKGg6SQ4SApZDhIChkOkkKGg6SQ4SApZDhIChkOkkKGg6SQ4SApZDhIChkOkkKGg6SQ4SApZDhIChkOkkKGg6SQ4SApZDhIChkOkkKGg6SQ4SApZDhIChkOkkKGg6SQ4SApZDhIChkOkkKGg6SQ4SApZDhIChkOkkKGg6SQ4SApZDhIChkOkkKGg6SQ4SApZDhIChkOkkKGg6SQ4SApZDhIChkOkkKGg6SQ4SApZDhIChkOkkKGg6SQ4SApZDhIChkOkkKGg6SQ4SApZDhIChkOkkKGg6SQ4SApZDhIChkOkkKGg6SQ4SApZDhIChkOkkKGg6SQ4SApZDhIChkOkkKGg6SQ4SApZDhIChkOkkKGg6SQ4SApZDhIChkOkkKGg6SQ4SApZDhIChkOkkKGg6TQhL0pVX8t9u7fqy87d+9MazatSeu3Pln3kXSwTJk0Jc2dMS/NnzW/7tOmCRPqJ/sMKxy2bN+SPvNPn0pbXthS95HUCZacuSRdceGV9as2BOEwrNMKg0HqTHf96q50+6rb6ldDM+RwWPXkgwaD1MEIiOEYcjis37q+fiapE3E9cDgHcD+tkBQyHCSFDAdJIcNBUshwkBQyHCSFDAdJIcNBUshw6HB8kWbxmUtyN3PazLrv6Jh51My8nEWnddV99jf32Lm9ysE0g/2ST/5yUDUfdTbDocN94l2fTFtf2JK76y/7XK5Yo2X5xSvycrpOu6jPyrt04bK0/O0r6lcpzanGO3fewvpVe06vwqS/AFJnOOzalKq/Ftfu36sVX9N+tOo0ejgqU1FvfeAbadNzm/L25t9hCYj/9ZfXpiUL3p3eevIF+Su6Z73hrDR9yjHV+F3p4acfztMvv/iaNLUad+eenbni/8UZl+T5bd2+Zb9/q20u6/7H7kvbdm2rh/R22dl/VZVlY9pV/2vuW994QXpi89pcPsrzX9/y37rDpSrTw0/9Mi07d1kOkLXVOATdtl3Ppf/e9T/SMVVZZx0zq6esGh28J20dUK67rn6yjy2HDsZX4rds35wrNk339c92f5/ligs+nB5a92D62G0fzd+M5SjPuBu2rs+VHN3N/TPSfVVFZ/pbf/T1PO5NP7wh/CovFZjThaUL31/36W7+N+XXE1IOjzLe3Bndy+Z05MiJR+Zl0M2cNiOXmS//sIMuq8Z/dOMjPb/9QXkIInUuw6HDfeG7f1tVxnvT4qqCLV6wJFdQjsrNb9zt3L0jbaiCg/CYe+y83G9pdcT+wnc/nyso4UFlJiSWnruv8hc08Rnv6m9dlRZWpwh0BAiPTd0htDlXcDDNzGnH5eWW1gLLoOM5ypd/jqzKXcrMNGUe6lyGQwejclIhqUi3PvD1XAFbj+a0EKiIpVVBRaTScoin34xq+H1VuNBioLt79Z3pph/ckMctmC+tASoygULlBq2OJspSvo3LbwXkFkj9GyFTJk/J05blsAzKzfUFMG2P/X9XRB3IcOhgBAEX/ziy0xJYVZ1K0ISnElOBacpfccGV+TUdaLJz4bL80MdDT65K82efkcel9UCFLuMWNPcZ1rMcpqkqdWsQETTlOhMVn/nQksDdD9+Zy8Q8uLZAaNFxOsFpBso88+lLtRx1tiH/TNzKaue7/aGV9SuNltwyyM35LT2tA9CqoHLSj8pWhjH+lIlTeo1b5sH4fTXn8ylCNR4tA6bN4++h8u+7cJnLUbVMSrgwPso4ZR6EC+M0x2+Oy/PWMmp03Hz5LXn/GNBI/oak4SB1vuGEg6cVkkKGg6SQ4SApZDhIChkOkkKGg6SQ4SApNORwaP3vOUljy5DDoXyxRlJn4j9R2/oHqD4MORz4V1k6SZ1puN9fGdYt+Pmf+W888PX8jT5JnYFTfr5Ix2342zaS361oIiT8Eo108BEMfOFt0EYrHCQd4vzilaR2GQ6SQoaDpJDhIClkOEgKGQ6SQoaDpJDhIClkOEgKGQ6SQoaDpJDhIClkOEgKGQ6SQoaDpJDhIClkOEgKGQ6SQoaDpJDhIClkOEgKGQ6SQoaDpJDhIClkOEgKGQ6SQoaDpJDhIClkOEgKGQ6SQoaDpJDhIClkOEgKGQ6SQoaDpNCEvSlVfy327t9Lg/ed73wnbdu2rX6lkTZ9+vS0YMGCNGfOnLqPhmzChPrJPobDKPnQhz6UvvnNb9avNFoIiPXr1+dHDUMQDp5WjBJaDRp9tMxWr15dv9JIMhxGyYoVK+pnGk1ve9vbcqeR52nFKOKo5jWH0eX1hhHiNQdJIa85SGqX4SApZDhICoXXHL76la/UzySNBx/9m7+pn+0TX5CUNO55WiEpZDhIChkOkkKGg6RASv8fD+24gvk53r4AAAAASUVORK5CYII=;" vertex="1" parent="WIyWlLk6GJQsqaUBKTNV-1">
          <mxGeometry x="214.93" y="386" width="28.96" height="62" as="geometry" />
        </mxCell>
      </root>
    </mxGraphModel>
  </diagram>
</mxfile>
